<svg xmlns="http://www.w3.org/2000/svg" width="28.625" height="28.625" viewBox="0 0 28.625 28.625">

    <g transform="translate(-3.125 -3.125)">
        <path fill="#787878" d="M17.438,3.125A14.313,14.313,0,1,0,31.75,17.438,14.333,14.333,0,0,0,17.438,3.125Zm0,2.2A12.111,12.111,0,1,1,5.327,17.438,12.1,12.1,0,0,1,17.438,5.327Zm-4.4,6.149-1.558,1.558.784.773,3.619,3.63-3.619,3.63-.784.773L13.034,23.4l.773-.784L17.438,19l3.63,3.619.773.784L23.4,21.841l-.784-.773L19,17.438l3.619-3.63.784-.773-1.558-1.558-.773.784-3.63,3.619-3.63-3.619Z"></path></g></svg>