<svg width="24" height="24" viewBox="0 0 24 24" fill="none" xmlns="http://www.w3.org/2000/svg">
<path fill-rule="evenodd" clip-rule="evenodd" d="M22.5176 6.26183C22.1007 5.7291 21.4522 5.40483 20.7804 5.40483H6.67472L6.23464 3.69083C5.97986 2.69486 5.09969 2 4.08056 2H1.71803C1.32427 2 1 2.32427 1 2.71803C1 3.11178 1.32427 3.43605 1.71803 3.43605H4.08056C4.42799 3.43605 4.7291 3.66767 4.82175 4.0151L7.64753 15.2719C7.90231 16.2679 8.78247 16.9627 9.8016 16.9627H19.0433C20.0624 16.9627 20.9657 16.2679 21.1974 15.2719L22.9345 8.13796C23.0967 7.48942 22.9577 6.79456 22.5176 6.26183ZM10.2878 17.8906C8.96753 17.8906 7.87891 18.9792 7.87891 20.2995C7.87891 21.6197 8.96753 22.7083 10.2878 22.7083C11.608 22.7083 12.6966 21.6197 12.6966 20.2995C12.6966 18.9792 11.608 17.8906 10.2878 17.8906ZM15.8477 20.2995C15.8477 18.9792 16.9363 17.8906 18.2565 17.8906C19.5768 17.8906 20.6422 18.9792 20.6654 20.2995C20.6654 21.6197 19.5768 22.7083 18.2565 22.7083C16.9363 22.7083 15.8477 21.6197 15.8477 20.2995Z" fill="black"/>
</svg>
