<svg xmlns="http://www.w3.org/2000/svg" viewBox="0 0 32 32">
	<path d="M 10.096,0 H 21.904 C 27.89,0 32,3.716 32,9.8 V 22.2 C 32,28.283 27.888,32 21.904,32 H 10.096 C 4.111,32 0,28.284 0,22.2 V 9.8 C 0,3.715 4.11,0 10.096,0 Z M 24,5.5 c 0.828,0 1.5,0.672 1.5,1.5 0,0.828 -0.672,1.5 -1.5,1.5 -0.828,0 -1.5,-0.672 -1.5,-1.5 0,-0.828 0.672,-1.5 1.5,-1.5 z m -8,2.2 c 4.583,0 8.3,3.717 8.3,8.3 0,4.583 -3.717,8.3 -8.3,8.3 -4.583,0 -8.3,-3.717 -8.3,-8.3 0,-4.583 3.717,-8.3 8.3,-8.3 z m 0,1.6 c -3.7,0 -6.7,2.999 -6.7,6.7 0,3.7 3,6.7 6.7,6.7 3.701,0 6.7,-3 6.7,-6.7 0,-3.7 -3,-6.7 -6.7,-6.7 z M 21.904,1.6 H 10.096 C 4.992,1.6 1.6,4.596 1.6,9.8 v 12.4 c 0,5.203 3.392,8.2 8.496,8.2 h 11.808 c 5.103,0 8.496,-2.997 8.496,-8.2 V 9.8 c 0,-5.204 -3.393,-8.2 -8.496,-8.2 z" />
</svg>