<svg xmlns="http://www.w3.org/2000/svg" viewBox="0 0 70 70">
	<path d="M 34.451172,6.5890384e-4 C 28.0257,0.03760136 21.416187,1.6250129 18,4.6917337 41.417,-3.0887165 68.731313,21.761277 53.445312,41.907854 47.525312,49.708303 41.220937,50.155771 35.460938,52.219625 66.829938,62.556895 82.51325,10.834862 42.78125,0.9185628 40.254063,0.28798235 37.371841,-0.01613312 34.451172,6.5890384e-4 Z M 27.3125,9.5976371 C 11.56742,9.5035469 -5.2944062,23.434909 1.578125,47.423089 c 2.296,8.011434 9.310203,17.499983 15.658203,19.572836 C -1.2116724,50.608083 6.6560464,14.527992 31.748047,17.692768 c 9.715,1.225913 13.254875,6.464465 17.921875,10.419186 C 47.040234,15.481987 37.4055,9.6579513 27.3125,9.5976371 Z M 19.865234,27.488951 c -24.638,21.996446 12.315532,61.438847 40.769532,31.989927 5.791,-5.993576 10.502047,-16.813468 9.123046,-23.346006 -4.97,24.168292 -40.149125,35.395436 -49.953124,12.085083 -3.797,-9.026362 -1.032454,-14.70943 0.06055,-20.729004 z" />
</svg>
