<svg xmlns="http://www.w3.org/2000/svg" viewBox="0 0 70 70">
	<path d="m 9.154,0 c 2.875,0 5.205,2.33 5.205,5.205 0,2.875 -2.33,5.205 -5.205,5.205 C 6.279,10.41 3.949,8.08 3.949,5.205 3.949,2.33 6.279,0 9.154,0 Z M 4.667,19.742 c 0,-2.577 2.089,-4.666 4.666,-4.666 2.578,0 4.667,2.089 4.667,4.666 V 56.36 c 0,2.577 -2.089,4.667 -4.667,4.667 -2.577,0 -4.666,-2.09 -4.666,-4.667 z m 55.716,37.99 4.307,4.307 c 1.815,1.815 1.815,4.785 0,6.6 -1.815,1.815 -4.785,1.815 -6.6,0 l -5.199,-5.2 c -2.667,1.216 -5.626,1.894 -8.737,1.894 -11.658,0 -21.18,-9.521 -21.18,-21.179 V 21.179 C 22.974,9.521 32.496,0 44.154,0 55.812,0 65.333,9.521 65.333,21.179 v 22.975 c 0,5.157 -1.864,9.897 -4.95,13.578 z M 44.154,9.333 c -6.506,0 -11.846,5.34 -11.846,11.846 V 44.154 C 32.308,50.66 37.648,56 44.154,56 50.66,56 56,50.66 56,44.154 V 21.179 C 56,14.673 50.66,9.333 44.154,9.333 Z" />
</svg>
