<svg xmlns="http://www.w3.org/2000/svg" viewBox="0 0 32 32">
	<path d="M 3.8,0 H 28.2 C 30.287,0 32,1.713 32,3.8 V 28.2 C 32,30.287 30.287,32 28.2,32 H 3.8 C 1.713,32 0,30.287 0,28.2 V 3.8 C 0,1.713 1.713,0 3.8,0 Z m 22.5,11.021 c -0.311,1.286 -2.552,4.612 -2.969,5.24 -0.183,0.276 0.239,0.515 0.488,0.763 0.842,0.837 2.565,2.671 2.896,3.815 0.331,1.142 -0.367,1.961 -1.528,1.961 L 23.005,22.795 C 22.078,22.794 21.708,22.381 20.937,21.515 20.254,20.75 19.396,19.753 18.49,19.266 v 1.859 c 0,1.442 -1.175,1.654 -2.367,1.654 -1.321,0 -2.702,-0.411 -3.999,-1.195 C 9.53,20.015 7.669,17 6.4,14.306 5.505,12.407 5.2,11.036 5.2,10.62 5.2,9.685 5.841,9.2 6.741,9.2 h 2.203 c 0.973,0 1.433,0.529 1.731,1.395 0.589,1.717 1.421,3.406 2.467,4.895 v -2.821 c 0,-0.645 -0.232,-0.918 -0.404,-1.121 C 11.875,10.534 12.349,9.2 13.624,9.2 l 3.43,0.002 c 0.992,0 1.436,0.689 1.436,1.61 v 3.759 c 1.382,-1.544 2.37,-3.899 2.489,-4.19 0.298,-0.737 0.91,-1.156 1.709,-1.156 l 2.181,0.002 c 1.102,0 1.69,0.726 1.431,1.794 z m -1.602,-0.201 -2.01,-10e-4 c -0.147,0 -0.173,0.027 -0.229,0.16 -0.164,0.387 -1.262,2.987 -2.823,4.705 -0.432,0.476 -0.921,0.946 -1.607,0.946 -0.783,0 -1.139,-0.757 -1.139,-1.44 v -4.391 l -2.706,-0.002 c 0.281,0.376 0.558,0.909 0.558,1.872 v 3.245 c 0,0.826 -0.212,1.633 -1.203,1.633 -1.773,0 -3.856,-4.978 -4.377,-6.434 C 9.032,10.749 8.946,10.8 6.819,10.8 c 0.072,0.439 0.363,1.42 1.025,2.824 1.116,2.371 2.822,5.211 5.105,6.592 0.985,0.595 2.777,1.214 3.942,0.91 L 16.89,19.139 c 0,-0.948 0.35,-1.548 1.371,-1.548 1.953,0 4.151,3.61 4.744,3.611 l 2.152,0.002 c -0.247,-0.632 -1.199,-1.679 -1.653,-2.205 -0.471,-0.546 -1.136,-1.075 -1.544,-1.63 -0.556,-0.757 -0.475,-1.261 0.052,-2.001 0.393,-0.551 2.281,-3.389 2.686,-4.548 z M 28.2,1.6 H 3.8 C 2.587,1.6 1.6,2.587 1.6,3.8 v 24.4 c 0,1.213 0.987,2.2 2.2,2.2 h 24.4 c 1.213,0 2.2,-0.987 2.2,-2.2 V 3.8 c 0,-1.213 -0.987,-2.2 -2.2,-2.2 z" />
</svg>