<svg xmlns="http://www.w3.org/2000/svg" viewBox="0 0 70 70">
	<path fill="#000" d="m 14.409,23.975 c 0.97,-1.48 2.763,-0.987 4.937,-0.391 C 30.128,26.54 28,21 40.523,27.522 c 1.162,0.605 2.104,-1.124 0.953,-1.75 C 39.385,24.633 37.066,23.714 35,23 c 6,0 9.59,2.247 15.653,0.584 2.174,-0.596 3.968,-1.088 4.938,0.391 C 57.134,26.328 55,26.716 55,28 c 0,1.877 1,4.494 1,7 0,2.506 -1,5.123 -1,7 0,1.285 2.134,1.671 0.591,4.025 -0.97,1.48 -2.763,0.987 -4.938,0.391 C 46.095,45.166 39.84,47 35,47 29.035,47 25.531,44.72 19.346,46.416 17.172,47.013 15.379,47.505 14.409,46.025 12.866,43.671 15,43.283 15,42 c 0,-1.878 -1,-4.494 -1,-7 0,-2.506 1,-5.123 1,-7 0,-1.281 -2.129,-1.68 -0.591,-4.025 z" />
</svg>