<svg xmlns="http://www.w3.org/2000/svg" viewBox="0 0 20 20">
	<path fill="#fff" d="M 4.935,0.351 C 3.309,1.543 2.194,2.32 1.684,4.479 c -0.636,2.695 0.375,5.932 3.049,9.619 2.003,2.763 5.006,5.901 8.682,5.901 1.986,0 2.933,-0.777 4.411,-1.855 1.221,-0.891 0.61,-1.968 -0.464,-3.056 L 16.707,14.425 C 15.632,13.336 14.51,12.616 13.285,13.516 10.662,15.447 10.171,15.372 7.689,11.94 5.18,8.472 5.302,8.02 7.929,6.104 9.154,5.209 8.826,3.925 8.122,2.562 L 7.697,1.739 C 7.108,0.597 6.249,-0.613 4.935,0.351 Z" />
</svg>