<svg width="24" height="24" viewBox="0 0 24 24" fill="none" xmlns="http://www.w3.org/2000/svg">
<path fill-rule="evenodd" clip-rule="evenodd" d="M20 0H4C2.93913 0 1.92172 0.421427 1.17157 1.17157C0.421427 1.92172 0 2.93913 0 4V20C0 21.0609 0.421427 22.0783 1.17157 22.8284C1.92172 23.5786 2.93913 24 4 24H20C21.0609 24 22.0783 23.5786 22.8284 22.8284C23.5786 22.0783 24 21.0609 24 20V4C24 2.93913 23.5786 1.92172 22.8284 1.17157C22.0783 0.421427 21.0609 0 20 0ZM22 20C22 20.5304 21.7893 21.0391 21.4142 21.4142C21.0391 21.7893 20.5304 22 20 22H4C3.46957 22 2.96086 21.7893 2.58579 21.4142C2.21071 21.0391 2 20.5304 2 20V4C2 3.46957 2.21071 2.96086 2.58579 2.58579C2.96086 2.21071 3.46957 2 4 2H20C20.5304 2 21.0391 2.21071 21.4142 2.58579C21.7893 2.96086 22 3.46957 22 4V20ZM11.9999 6.00007C10.8133 6.00007 9.65322 6.35196 8.66652 7.01125C7.67983 7.67054 6.9108 8.60761 6.45667 9.70397C6.00254 10.8003 5.88372 12.0067 6.11523 13.1706C6.34675 14.3345 6.91819 15.4036 7.75731 16.2427C8.59642 17.0818 9.66552 17.6533 10.8294 17.8848C11.9933 18.1163 13.1997 17.9975 14.296 17.5433C15.3924 17.0892 16.3295 16.3202 16.9888 15.3335C17.6481 14.3468 17.9999 13.1868 17.9999 12.0001C17.9999 10.4088 17.3678 8.88264 16.2426 7.75743C15.1174 6.63221 13.5912 6.00007 11.9999 6.00007ZM11.9999 16.0001C11.2088 16.0001 10.4355 15.7655 9.77767 15.3259C9.11987 14.8864 8.60718 14.2617 8.30443 13.5308C8.00168 12.7999 7.92246 11.9956 8.07681 11.2197C8.23115 10.4438 8.61211 9.73105 9.17152 9.17164C9.73093 8.61223 10.4437 8.23127 11.2196 8.07692C11.9955 7.92258 12.7998 8.0018 13.5307 8.30455C14.2616 8.6073 14.8863 9.11999 15.3258 9.77779C15.7654 10.4356 15.9999 11.2089 15.9999 12.0001C15.9999 13.0609 15.5785 14.0783 14.8284 14.8285C14.0782 15.5786 13.0608 16.0001 11.9999 16.0001ZM20 5.5C20 6.32843 19.3285 7 18.5 7C17.6716 7 17 6.32843 17 5.5C17 4.67158 17.6716 4 18.5 4C19.3285 4 20 4.67158 20 5.5Z" fill="black"/>
</svg>
