<svg xmlns="http://www.w3.org/2000/svg" viewBox="0 0 70 70">
	<path d="M 18.5 16.5 C 8.284 16.5 0 24.783 0 35 C -2.3684758e-15 44.834 8.1507656 53.5 18.134766 53.5 C 27.011766 53.5 32.426609 47.303234 39.349609 39.990234 C 46.271609 32.677234 52.126859 27.000953 56.630859 26.876953 C 50.126859 19.000953 39.24225 32.704859 35.65625 36.630859 C 32.07125 40.557859 24.818766 48.44 18.134766 48.5 C 10.911766 48.565 5.0019531 41.985 5.0019531 35 C 5.0019531 27.543 11.044 21.5 18.5 21.5 C 22.107 21.5 25.496875 22.902125 28.046875 25.453125 C 29.022875 26.429125 30.605031 26.429125 31.582031 25.453125 C 32.558031 24.476125 32.558031 22.894969 31.582031 21.917969 C 28.133031 18.468969 23.378 16.5 18.5 16.5 z M 52 16.5 C 43.123 16.5 37.708156 22.696766 30.785156 30.009766 C 23.863156 37.322766 17.999906 42.999047 13.503906 43.123047 C 19.999906 50.999047 30.892516 37.294187 34.478516 33.367188 C 38.063516 29.441187 45.316 21.56 52 21.5 C 59.223 21.435 65.134766 28.014 65.134766 35 C 65.134766 42.456 59.090766 48.5 51.634766 48.5 C 48.027766 48.5 44.639844 47.097875 42.089844 44.546875 C 41.113844 43.570875 39.528734 43.570875 38.552734 44.546875 C 37.576734 45.522875 37.576734 47.104078 38.552734 48.080078 C 42.001734 51.530078 46.756766 53.5 51.634766 53.5 C 61.850766 53.5 70.134766 45.217 70.134766 35 C 70.134766 25.166 61.984 16.5 52 16.5 z" />
</svg>
