<svg xmlns="http://www.w3.org/2000/svg" viewBox="0 0 32 32">
	<path d="M 3.8,0 H 28.2 C 30.287,0 32,1.713 32,3.8 v 24.4 c 0,2.086 -1.713,3.8 -3.8,3.8 h -6.443 c -0.881,0 -1.6,-0.719 -1.6,-1.6 V 20.334 h 3.469 l 0.393,-2.563 H 20.157 V 14.27 c 0,-1.93 1.254,-3.048 3.146,-3.048 H 24.32 V 9.168 C 23.721,9.091 22.798,8.996 21.896,8.996 c -3.034,0 -4.64,1.828 -4.64,4.803 v 3.972 H 13.6 v 2.563 h 3.656 V 30.4 c 0,0.881 -0.719,1.6 -1.6,1.6 H 3.8 C 1.714,32 0,30.287 0,28.2 V 3.8 C 0,1.713 1.713,0 3.8,0 Z M 24.997,21.933 H 21.756 V 30.4 H 28.2 c 1.213,0 2.2,-0.987 2.2,-2.2 V 3.8 C 30.4,2.587 29.413,1.6 28.2,1.6 H 3.8 C 2.588,1.6 1.6,2.587 1.6,3.8 v 24.4 c 0,1.213 0.987,2.2 2.2,2.2 h 11.857 v -8.467 h -3.656 v -5.761 h 3.656 v -2.373 c 0,-3.859 2.324,-6.402 6.239,-6.402 1.365,0 2.686,0.174 4.023,0.411 v 5.013 h -2.616 c -1.007,0 -1.547,0.403 -1.547,1.449 v 1.902 h 4.125 z" />
</svg>