<svg xmlns="http://www.w3.org/2000/svg" width="57.771" height="26" viewBox="0 0 57.771 26"><path id="strela" d="M9400.884,19027.02h-19.522a.587.587,0,0,0-.513.3.565.565,0,0,0-.082.3.6.6,0,0,0,.6.592h11.068l.018,0h43.857l-10.936,11.391a.56.56,0,0,0-.119.186.627.627,0,0,0,.006.461.613.613,0,0,0,.137.2.537.537,0,0,0,.189.123.6.6,0,0,0,.222.045.646.646,0,0,0,.234-.045.71.71,0,0,0,.192-.141l12.3-12.809-12.309-12.816a.55.55,0,0,0-.187-.137.629.629,0,0,0-.229-.053l-.016,0a.592.592,0,0,0-.595.594.673.673,0,0,0,.041.23.635.635,0,0,0,.127.191c3.673,3.486,7.382,7.682,10.94,11.391h-35.426Zm24.513,13.426Z" transform="translate(-9380.767 -19014.611)" fill-rule="evenodd"></path></svg>