<svg width="18" height="22" viewBox="0 0 18 22" fill="none" xmlns="http://www.w3.org/2000/svg">
<circle cx="9" cy="11" r="9" fill="black" fill-opacity="0.3"/>
<path d="M8.85311 13.144C8.69444 13.144 8.56378 13.088 8.46111 12.976C8.36778 12.864 8.32111 12.71 8.32111 12.514C8.32111 12.0007 8.41444 11.5667 8.60111 11.212C8.78778 10.8573 9.05844 10.47 9.41311 10.05C9.69311 9.714 9.89844 9.434 10.0291 9.21C10.1598 8.986 10.2251 8.734 10.2251 8.454C10.2251 8.146 10.1084 7.90333 9.87511 7.726C9.65111 7.53933 9.34311 7.446 8.95111 7.446C8.61511 7.446 8.29311 7.52067 7.98511 7.67C7.67711 7.81 7.31778 8.01533 6.90711 8.286C6.67378 8.41667 6.48244 8.482 6.33311 8.482C6.17444 8.482 6.03444 8.412 5.91311 8.272C5.80111 8.12267 5.74511 7.95 5.74511 7.754C5.74511 7.48333 5.85711 7.264 6.08111 7.096C6.47311 6.76 6.93511 6.49867 7.46711 6.312C7.99911 6.116 8.53578 6.018 9.07711 6.018C9.64644 6.018 10.1504 6.116 10.5891 6.312C11.0371 6.508 11.3824 6.77867 11.6251 7.124C11.8771 7.46933 12.0031 7.866 12.0031 8.314C12.0031 8.79933 11.8864 9.224 11.6531 9.588C11.4198 9.94267 11.0791 10.344 10.6311 10.792C10.2484 11.184 9.95911 11.5153 9.76311 11.786C9.57644 12.0473 9.45978 12.346 9.41311 12.682C9.38511 12.8313 9.31978 12.948 9.21711 13.032C9.12378 13.1067 9.00244 13.144 8.85311 13.144ZM8.88111 16.084C8.58244 16.084 8.33511 15.986 8.13911 15.79C7.94311 15.5847 7.84511 15.3327 7.84511 15.034C7.84511 14.7353 7.94311 14.488 8.13911 14.292C8.33511 14.0867 8.58244 13.984 8.88111 13.984C9.17978 13.984 9.42711 14.0867 9.62311 14.292C9.81911 14.488 9.91711 14.7353 9.91711 15.034C9.91711 15.3327 9.81444 15.5847 9.60911 15.79C9.41311 15.986 9.17044 16.084 8.88111 16.084Z" fill="white"/>
</svg>
