<svg width="18" height="22" viewBox="0 0 18 22" fill="none" xmlns="http://www.w3.org/2000/svg">
<circle cx="9" cy="11" r="9" fill="#4D6CDA"/>
<path d="M8.79448 13.494C8.69182 13.494 8.60782 13.4567 8.54248 13.382C8.47715 13.3073 8.44448 13.2047 8.44448 13.074C8.44448 12.4953 8.54715 12.0007 8.75248 11.59C8.96715 11.1793 9.27048 10.7313 9.66248 10.246C9.97982 9.84467 10.2132 9.504 10.3625 9.224C10.5212 8.944 10.6005 8.63133 10.6005 8.286C10.6005 7.88467 10.4558 7.572 10.1665 7.348C9.87715 7.11467 9.48515 6.998 8.99048 6.998C8.57048 6.998 8.18315 7.082 7.82848 7.25C7.47382 7.40867 7.07248 7.656 6.62448 7.992C6.46582 8.104 6.33515 8.16 6.23248 8.16C6.12048 8.16 6.02715 8.11333 5.95248 8.02C5.88715 7.91733 5.85448 7.80067 5.85448 7.67C5.85448 7.48333 5.92915 7.32 6.07848 7.18C6.45182 6.82533 6.90448 6.54533 7.43648 6.34C7.97782 6.12533 8.51448 6.018 9.04648 6.018C9.85848 6.018 10.5118 6.21867 11.0065 6.62C11.5105 7.02133 11.7625 7.54867 11.7625 8.202C11.7625 8.69667 11.6552 9.126 11.4405 9.49C11.2352 9.84467 10.9178 10.2647 10.4885 10.75C10.0872 11.2073 9.77448 11.6133 9.55048 11.968C9.33582 12.3133 9.20515 12.7147 9.15848 13.172C9.14915 13.2747 9.11182 13.354 9.04648 13.41C8.98115 13.466 8.89715 13.494 8.79448 13.494ZM8.80848 16.07C8.58448 16.07 8.39782 15.9953 8.24848 15.846C8.10848 15.6967 8.03848 15.51 8.03848 15.286C8.03848 15.062 8.10848 14.8753 8.24848 14.726C8.39782 14.5673 8.58448 14.488 8.80848 14.488C9.03248 14.488 9.21448 14.5673 9.35448 14.726C9.50382 14.8753 9.57848 15.062 9.57848 15.286C9.57848 15.51 9.50382 15.6967 9.35448 15.846C9.21448 15.9953 9.03248 16.07 8.80848 16.07Z" fill="white"/>
</svg>
