<svg xmlns="http://www.w3.org/2000/svg" width="18.137" height="16.625" viewBox="0 0 18.137 16.625"><defs><style>.a{fill:#fff;}</style></defs><g transform="translate(-8 -10)"><path class="a" d="M9.511,10a1.511,1.511,0,1,0,1.511,1.511A1.511,1.511,0,0,0,9.511,10Zm3.778.756v1.511H26.137V10.756ZM9.511,16.8a1.511,1.511,0,1,0,1.511,1.511A1.511,1.511,0,0,0,9.511,16.8Zm3.778.756v1.511H26.137V17.557ZM9.511,23.6a1.511,1.511,0,1,0,1.511,1.511A1.511,1.511,0,0,0,9.511,23.6Zm3.778.756v1.511H26.137V24.358Z"/></g></svg>