<svg xmlns="http://www.w3.org/2000/svg" xmlns:xlink="http://www.w3.org/1999/xlink" width="81.545" height="105.73" viewBox="0 0 81.545 105.73">
  <defs>
    <radialGradient id="radial-gradient" cx="0.5" cy="0.5" r="0.5" gradientUnits="objectBoundingBox">
      <stop offset="0"/>
      <stop offset="1" stop-opacity="0"/>
    </radialGradient>
    <filter id="Path_4994" x="0" y="0" width="81.545" height="105.73" filterUnits="userSpaceOnUse">
      <feOffset dy="3" input="SourceAlpha"/>
      <feGaussianBlur stdDeviation="3" result="blur"/>
      <feFlood flood-opacity="0.349"/>
      <feComposite operator="in" in2="blur"/>
      <feComposite in="SourceGraphic"/>
    </filter>
  </defs>
  <g id="Group_946" data-name="Group 946" transform="translate(-506.002 -4702.09)">
    <ellipse id="Ellipse_193" data-name="Ellipse 193" cx="14.5" cy="2.5" rx="14.5" ry="2.5" transform="translate(532 4793)" opacity="0.67" fill="url(#radial-gradient)"/>
    <g transform="matrix(1, 0, 0, 1, 506, 4702.09)" filter="url(#Path_4994)">
      <path id="Path_4994-2" data-name="Path 4994" d="M102.346,0A31.809,31.809,0,0,0,70.573,31.773c0,21.742,28.434,53.661,29.644,55.009a2.862,2.862,0,0,0,4.257,0c1.211-1.348,29.644-33.267,29.644-55.009A31.809,31.809,0,0,0,102.346,0Z" transform="translate(-61.57 6)" fill="#fff"/>
    </g>
    <g id="Group_935" data-name="Group 935" transform="translate(294.986 4370.943)">
      <g id="Group_940" data-name="Group 940" transform="translate(237.983 349.612)">
        <g id="Group_937" data-name="Group 937" transform="translate(0 35.523)">
          <g id="Group_936" data-name="Group 936">
            <path id="Path_4995" data-name="Path 4995" d="M243.949,427.266a2.389,2.389,0,0,1,1.932.933,2.467,2.467,0,0,1,.514,2.15,2.41,2.41,0,0,1-.886,1.447,2.5,2.5,0,0,1-1.606.561h0a2.433,2.433,0,0,1-1.512-.513,2.487,2.487,0,0,1-.892-1.294.556.556,0,0,1,.083-.508.524.524,0,0,1,.449-.23.5.5,0,0,1,.532.4,1.39,1.39,0,0,0,.5.726,1.338,1.338,0,0,0,.845.29h.023a1.393,1.393,0,0,0,.856-.284,1.359,1.359,0,0,0,.508-.745,1.381,1.381,0,0,0-.242-1.24,1.333,1.333,0,0,0-1.075-.555,2.283,2.283,0,0,1-1.624-.679,2.174,2.174,0,0,1-.674-1.613v-.165a2.225,2.225,0,0,1,.667-1.625,2.172,2.172,0,0,1,1.6-.667h.035a2.177,2.177,0,0,1,1.329.437,2.246,2.246,0,0,1,.815,1.116.536.536,0,0,1-.083.508.524.524,0,0,1-.449.231h-.006a.5.5,0,0,1-.52-.372,1.154,1.154,0,0,0-.414-.567,1.1,1.1,0,0,0-.673-.225h-.035a1.084,1.084,0,0,0-.809.343,1.117,1.117,0,0,0-.337.821v.183a1.082,1.082,0,0,0,.343.809,1.12,1.12,0,0,0,.809.327Z" transform="translate(-241.464 -423.651)"/>
            <path id="Path_4996" data-name="Path 4996" d="M255.046,424.6a.543.543,0,0,1,.159.39v5.322a1.351,1.351,0,0,0,1.353,1.353h.006a.554.554,0,0,1,.555.549.54.54,0,0,1-.166.4.53.53,0,0,1-.39.159h-.006a2.46,2.46,0,0,1-2.457-2.457v-5.322a.543.543,0,0,1,.16-.39.564.564,0,0,1,.785,0Z" transform="translate(-248.038 -424.061)"/>
            <path id="Path_4997" data-name="Path 4997" d="M265.72,431.7a1.056,1.056,0,0,1-.154.556,1.033,1.033,0,0,1-.951.549l-2.747.006a1.351,1.351,0,0,0,1.352,1.353h.041a1.284,1.284,0,0,0,1.093-.561.5.5,0,0,1,.62-.189.516.516,0,0,1,.348.355.533.533,0,0,1-.083.5,2.333,2.333,0,0,1-1.979,1h-.041a2.46,2.46,0,0,1-2.457-2.433V431.7a2.46,2.46,0,0,1,2.457-2.451h.041a2.361,2.361,0,0,1,1.749.732,2.447,2.447,0,0,1,.525.8,2.217,2.217,0,0,1,.142.5l.041.206Zm-3.851.006h2.74a1.35,1.35,0,0,0-.4-.957,1.312,1.312,0,0,0-.951-.4h-.041a1.351,1.351,0,0,0-1.352,1.346Z" transform="translate(-251.504 -426.565)"/>
            <path id="Path_4998" data-name="Path 4998" d="M277.772,431.7a1.051,1.051,0,0,1-.154.556,1.033,1.033,0,0,1-.951.549l-2.746.006a1.351,1.351,0,0,0,1.352,1.353h.041a1.285,1.285,0,0,0,1.093-.561.494.494,0,0,1,.62-.189.516.516,0,0,1,.349.355.532.532,0,0,1-.083.5,2.332,2.332,0,0,1-1.979,1h-.041a2.46,2.46,0,0,1-2.457-2.433V431.7a2.46,2.46,0,0,1,2.457-2.451h.041a2.36,2.36,0,0,1,1.748.732,2.447,2.447,0,0,1,.526.8,2.214,2.214,0,0,1,.142.5l.041.206Zm-3.851.006h2.741a1.348,1.348,0,0,0-.4-.957,1.311,1.311,0,0,0-.951-.4h-.041a1.351,1.351,0,0,0-1.352,1.346Z" transform="translate(-257.775 -426.565)"/>
            <path id="Path_4999" data-name="Path 4999" d="M285.67,437.58a.546.546,0,0,1-.555-.556v-7.247a.543.543,0,0,1,.16-.39.55.55,0,0,1,.4-.159.5.5,0,0,1,.532.419,2.393,2.393,0,0,1,1.371-.419h.041a2.46,2.46,0,0,1,2.457,2.457v1.128a2.46,2.46,0,0,1-2.457,2.457h-.041a2.4,2.4,0,0,1-1.353-.408v2.162a.549.549,0,0,1-.159.4A.543.543,0,0,1,285.67,437.58Zm.549-4.767a1.351,1.351,0,0,0,1.353,1.352h.041a1.361,1.361,0,0,0,1.353-1.352v-1.128a1.361,1.361,0,0,0-1.353-1.352h-.041a1.351,1.351,0,0,0-1.353,1.352Z" transform="translate(-264.172 -426.552)"/>
          </g>
        </g>
        <g id="Group_939" data-name="Group 939" transform="translate(1.132)">
          <g id="Group_938" data-name="Group 938">
            <path id="Path_5000" data-name="Path 5000" d="M247.3,353.119a1.949,1.949,0,0,1-1.428.6,1.97,1.97,0,0,1-1.448-.6,1.949,1.949,0,0,1-.6-1.428,2.043,2.043,0,0,1,2.046-2.046,1.951,1.951,0,0,1,1.428.6,1.974,1.974,0,0,1,.6,1.447,1.95,1.95,0,0,1-.6,1.427Zm-2.721,19.68a1.8,1.8,0,0,1-.522-1.293V357.268a1.731,1.731,0,0,1,.522-1.273,1.8,1.8,0,0,1,1.293-.521,1.774,1.774,0,0,1,1.274.521,1.731,1.731,0,0,1,.521,1.273v14.238a1.8,1.8,0,0,1-.521,1.293,1.775,1.775,0,0,1-1.274.521,1.8,1.8,0,0,1-1.3-.52Z" transform="translate(-243.824 -349.629)"/>
            <path id="Path_5001" data-name="Path 5001" d="M275.274,373.761a1.815,1.815,0,0,1-2.567,2.567l-1.864-2.149a8.1,8.1,0,0,1-3.493.791,8.237,8.237,0,0,1-8.2-8.2v-8.955a8.2,8.2,0,1,1,16.4,0v8.955a7.921,7.921,0,0,1-1.853,5.172Zm-7.924-2.4a4.613,4.613,0,0,0,4.593-4.593v-8.955a4.593,4.593,0,0,0-9.186,0v8.955a4.613,4.613,0,0,0,4.593,4.593Z" transform="translate(-251.796 -349.612)"/>
          </g>
        </g>
      </g>
      <path id="Path_5002" data-name="Path 5002" d="M257.469,414.686a29.388,29.388,0,0,1-11.41-2.512,4.613,4.613,0,0,0-1.887-.4h-8.341a1.058,1.058,0,1,1,0-2.115h8.341a6.711,6.711,0,0,1,2.747.579c10.831,4.817,18.093.911,20.061-.4a1.058,1.058,0,1,1,1.174,1.76A18.953,18.953,0,0,1,257.469,414.686Z" transform="translate(0 -31.239)"/>
    </g>
  </g>
</svg>
