<svg width="71" height="40" viewBox="0 0 71 40" fill="none" xmlns="http://www.w3.org/2000/svg">
<path fill-rule="evenodd" clip-rule="evenodd" d="M48.2364 1.11489C48.2364 1.11489 49.1304 0.220881 48.0219 0.0420784C48.0219 0.0420784 44.3028 -0.530089 41.728 2.54531C41.728 2.54531 28.6397 19.317 23.1683 31.0107C23.1683 31.0107 22.0955 33.3708 22.0955 35.7668C22.0955 35.7668 22.167 38.5919 23.8835 39.7362C23.8835 39.7362 25.0994 40.809 25.1351 38.6276C25.1351 38.6276 24.4199 33.2993 33.7177 19.317C33.7177 19.3257 33.805 19.1968 33.9743 18.9468L33.9743 18.9468L33.9743 18.9468C35.1879 17.155 40.6105 9.14873 48.2364 1.11489ZM30.3921 13.8099C30.3921 13.8099 33.396 12.451 36.2568 6.87235C36.2568 6.87235 36.6502 5.90682 35.7561 5.8353C34.7906 5.76377 33.9681 5.8353 33.0741 6.0141C33.0741 6.0141 32.5019 6.1929 31.9298 6.30018C31.302 6.38388 30.3436 6.36963 29.0618 6.35056H29.0618C28.1531 6.33704 27.0818 6.32111 25.8505 6.33594C21.8811 6.3717 17.4825 6.58627 17.4825 6.58627C17.4825 6.58627 16.5885 6.58627 16.4812 7.15843C16.4662 7.271 16.4544 7.3631 16.4443 7.441V7.44102C16.4066 7.73431 16.3947 7.8264 16.3382 8.05244C16.3382 8.05244 15.9806 9.30406 15.3369 10.5914L9.40067 20.3183L0.102947 34.4079C0.102947 34.4079 -0.326178 35.2662 0.567834 35.3377C0.567834 35.3377 4.53725 36.0887 6.50407 33.3351L12.6549 24.0016C12.6549 24.0016 14.729 20.4613 17.7329 20.5329H23.5618C23.5618 20.5329 24.9922 20.5329 25.7075 20.068C25.7075 20.068 26.673 19.5673 27.1021 18.6733C27.1021 18.6733 27.567 18.0296 26.5657 17.9581C25.4571 17.9223 19.5209 17.8508 19.5209 17.8508C19.5209 17.8508 17.4825 17.9223 17.9474 16.1701C17.9474 16.1701 19.2706 11.2709 23.0969 9.05374C23.0969 9.05374 26.0293 7.5518 28.6398 8.87494C28.6398 8.87494 30.7854 9.84047 28.7471 13.3092C28.7471 13.3092 28.1749 14.0602 29.4265 14.0244L29.4388 14.0248C29.5198 14.0279 29.9248 14.0435 30.3921 13.8099ZM36.9003 26.7908C37.5798 27.506 40.0473 26.7908 42.4074 25.0386C44.4458 23.5366 44.9464 21.7844 44.1955 20.9261C43.4803 20.0679 41.6922 20.2824 39.7612 21.9274C37.8301 23.5724 36.1851 26.0399 36.9003 26.7908ZM35.8633 21.9989C40.3333 17.7792 46.9848 16.7779 48.5225 19.2096C50.239 21.9989 47.2709 25.6107 42.7651 27.8279C42.7651 27.8279 40.7982 28.8292 36.9719 29.3656C36.9719 29.3656 35.3626 29.7232 35.5772 31.6543C35.5772 31.6543 35.756 33.2992 37.9016 34.4078C37.9016 34.4078 39.2605 35.0515 37.8301 35.5879C35.8633 36.3031 33.6104 35.8025 32.323 34.4436C29.8198 31.7973 31.3932 26.2187 35.8633 21.9989ZM52.5636 20.8904C52.5636 20.8904 52.349 20.4255 52.1344 19.9963C52.1344 19.9963 51.4907 18.9593 52.5278 18.5302C52.5278 18.5302 54.4231 17.8507 56.2469 17.7077C56.2469 17.7077 57.6773 17.6361 57.4627 19.1738C57.4627 19.1738 57.2124 21.7844 57.7488 22.0347C57.7488 22.0347 58.3568 22.6784 60.6097 20.8188C62.8626 18.9593 63.7208 18.1726 63.7208 18.1726C63.7208 18.1726 64.6506 17.3143 66.1883 17.2785C66.2677 17.2785 66.4125 17.2756 66.5999 17.2719C67.3415 17.257 68.7502 17.2287 69.4068 17.3143C69.4068 17.3143 70.8372 17.4573 69.4425 18.2798C69.4425 18.2798 63.6851 21.1764 61.754 22.3208C60.0733 23.2863 57.7846 24.7882 57.4627 26.7193C57.1409 28.6861 57.7846 32.0834 58.0349 32.8701C58.2495 33.6568 58.4283 33.8356 58.4283 33.8356C58.4283 33.8356 58.8217 34.6581 57.7488 34.6939C57.7488 34.6939 56.2111 34.8727 55.2456 34.5866C55.2456 34.5866 53.6364 34.3721 53.6006 32.0119L53.4933 29.5086C53.4933 29.5086 53.2788 26.8624 51.5265 28.3285C51.0616 28.5073 48.1293 31.3324 46.7346 33.0847C45.3399 34.8012 44.8751 34.8369 43.9453 34.9085C42.8747 34.993 42.3368 34.9221 41.9469 34.8708C41.8419 34.8569 41.7477 34.8445 41.6566 34.8369C41.299 34.7654 40.405 34.5509 41.1917 33.7284C41.9785 32.9416 48.165 28.3643 51.2762 26.1829C51.2762 26.1829 52.7424 25.2889 52.8139 23.93C52.9212 24.0373 53.1 22.4996 52.5636 20.8904ZM53.9581 12.8443H53.4932L53.4574 12.0218H53.9939C54.2799 12.0218 54.566 12.0934 54.566 12.4152C54.566 12.8086 54.2799 12.8443 53.9581 12.8443ZM53.0998 14.2747H53.4932L53.4217 13.1662H53.8866L54.566 14.2747H54.9951L54.2799 13.1304C54.6733 13.0589 54.9594 12.8801 54.9594 12.4152C54.9594 11.9146 54.6733 11.7 54.0654 11.7H53.0998V14.2747ZM55.7461 12.9874C55.7461 14.0602 54.9594 14.8469 53.9581 14.8469C52.921 14.8469 52.1343 14.0602 52.1343 12.9874C52.1343 11.9146 52.921 11.1278 53.9581 11.1278C54.9594 11.1278 55.7461 11.9146 55.7461 12.9874ZM53.9581 10.7702C52.7422 10.7702 51.7052 11.7 51.7052 12.9874C51.7052 14.2747 52.7422 15.2045 53.9581 15.2045C55.1739 15.2045 56.211 14.2747 56.211 12.9874C56.211 11.7 55.1739 10.7702 53.9581 10.7702Z" fill="white"/>
</svg>
