<svg width="53" height="70" viewBox="0 0 53 70" fill="none" xmlns="http://www.w3.org/2000/svg">
<path d="M8.12756 37.2676C7.59843 36.6864 7.33386 36.0158 7.33386 35.2111V12.8135C7.33386 12.0088 7.59843 11.3382 8.12756 10.8017C8.70079 10.2652 9.36221 9.99701 10.1559 9.99701C10.9055 9.99701 11.5669 10.2652 12.1402 10.8017C12.6693 11.3382 12.9339 12.0088 12.9339 12.8135V35.2558C12.9339 36.0605 12.6693 36.7311 12.1402 37.3123C11.5669 37.8488 10.9055 38.117 10.1559 38.117C9.31811 38.0723 8.6567 37.8041 8.12756 37.2676ZM12.3165 6.24172C11.6992 6.8676 10.9496 7.18054 10.1118 7.18054C9.22993 7.18054 8.48032 6.8676 7.863 6.24172C7.24567 5.61583 6.93701 4.85583 6.93701 4.00642C6.93701 3.1123 7.24567 2.3523 7.863 1.72642C8.48032 1.10054 9.22993 0.787598 10.1118 0.787598C10.9496 0.787598 11.6992 1.10054 12.3165 1.72642C12.9339 2.3523 13.2425 3.1123 13.2425 4.00642C13.2866 4.85583 12.978 5.61583 12.3165 6.24172Z" fill="white"/>
<path d="M31.1007 35.0331C33.0409 35.0331 34.7606 34.3178 36.1275 32.8872C37.5385 31.5013 38.244 29.8025 38.244 27.7907V13.6637C38.244 11.6966 37.5385 9.95306 36.1275 8.56718C34.7165 7.13659 33.0409 6.4213 31.1007 6.4213C29.1165 6.4213 27.4409 7.13659 26.074 8.56718C24.6629 9.99777 23.9574 11.6966 23.9574 13.6637V27.7907C23.9574 29.8025 24.6629 31.5013 26.074 32.8872C27.4409 34.3178 29.1165 35.0331 31.1007 35.0331ZM43.4472 38.8331C43.9763 39.4142 44.2409 40.0848 44.2409 40.8448C44.2409 41.6495 43.9763 42.3201 43.4472 42.9013C42.874 43.4378 42.2125 43.706 41.4188 43.706C40.6692 43.706 40.0078 43.4378 39.4346 42.9013L36.5243 39.5037C34.8047 40.3531 32.9968 40.7554 31.1007 40.7554C27.5732 40.7554 24.5747 39.5037 22.1055 36.9554C19.5921 34.4519 18.3574 31.4119 18.3574 27.8354V13.6637C18.3574 10.0872 19.5921 7.04718 22.1055 4.54365C24.5747 1.99542 27.5732 0.743652 31.1007 0.743652C34.6283 0.743652 37.6267 1.99542 40.096 4.54365C42.6094 7.04718 43.844 10.0872 43.844 13.6637V27.7907C43.844 30.8754 42.874 33.5578 40.9779 35.9272L43.4472 38.8331Z" fill="white"/>
<path d="M35.466 54.0779C27.4408 54.0779 20.518 51.3956 17.74 50.0991C16.8141 49.6968 15.844 49.4732 14.7857 49.4732H1.82193C0.895942 49.4732 0.19043 48.7132 0.19043 47.8191C0.19043 46.8803 0.940036 46.165 1.82193 46.165H14.7857C16.2849 46.165 17.6959 46.478 19.0629 47.0591C35.907 54.6591 47.1952 48.4897 50.2377 46.4333C50.9873 45.9415 52.0015 46.1203 52.5306 46.8803C53.0156 47.6403 52.8393 48.6685 52.0896 49.205C46.666 52.8709 40.8456 54.0779 35.466 54.0779Z" fill="white"/>
<path d="M13.5949 57.7884C13.7712 57.7884 13.8594 57.8331 13.9476 57.8778C13.9917 57.9225 14.0358 58.0566 14.0358 58.1907V58.8166C14.0358 58.9507 13.9917 59.0848 13.9476 59.1295C13.9035 59.1742 13.7712 59.2189 13.5949 59.2189H8.17124V62.9295H12.7571C12.9334 62.9295 13.0216 62.9742 13.1098 63.019C13.1539 63.0637 13.198 63.1978 13.198 63.3319V63.9578C13.198 64.1366 13.1539 64.226 13.1098 64.3154C13.0657 64.3601 12.9334 64.4048 12.7571 64.4048H8.17124V69.0095C8.17124 69.1437 8.12714 69.2778 8.08305 69.3225C8.03895 69.3672 7.90667 69.4119 7.73029 69.4119H7.02478C6.8925 69.4119 6.76021 69.3672 6.71612 69.3225C6.67202 69.2778 6.62793 69.1437 6.62793 69.0095V58.146C6.62793 58.0119 6.67202 57.8778 6.71612 57.8331C6.76021 57.7884 6.8925 57.7437 7.02478 57.7437H13.5949V57.7884Z" fill="white"/>
<path d="M14.6973 63.9129C14.6973 62.9294 15.0059 62.1246 15.6673 61.5882C16.3288 61.007 17.2107 60.7388 18.3571 60.7388C19.5036 60.7388 20.4295 61.007 21.0469 61.5882C21.7083 62.1694 22.017 62.9294 22.017 63.9129V66.5952C22.017 67.5788 21.7083 68.3388 21.0469 68.9199C20.3855 69.5011 19.5036 69.7694 18.3571 69.7694C17.2107 69.7694 16.3288 69.5011 15.6673 68.9199C15.0059 68.3388 14.6973 67.5788 14.6973 66.5952V63.9129ZM20.5618 63.9129C20.5618 63.3317 20.3855 62.8846 19.9886 62.5717C19.5918 62.2588 19.0626 62.0799 18.3571 62.0799C17.6516 62.0799 17.1225 62.2588 16.7256 62.5717C16.3288 62.8846 16.1524 63.3317 16.1524 63.9129V66.6399C16.1524 67.2211 16.3288 67.6682 16.7256 67.9811C17.1225 68.2941 17.6516 68.4729 18.3571 68.4729C19.0626 68.4729 19.5918 68.2941 19.9886 67.9811C20.3855 67.6682 20.5618 67.2211 20.5618 66.6399V63.9129Z" fill="white"/>
<path d="M23.6487 62.4823C24.2219 61.3199 25.3242 60.7388 26.9557 60.7388C28.1904 60.7388 29.0723 61.0517 29.5573 61.6329C30.0865 62.2141 30.3069 63.0635 30.3069 64.0917V68.4282C30.3069 68.6964 30.2628 68.9199 30.1746 69.0541C30.0865 69.1882 29.9542 69.2776 29.6896 69.367C29.0282 69.6352 28.1022 69.8141 26.8676 69.8141C25.5006 69.8141 24.5746 69.5905 24.0455 69.1882C23.5164 68.7858 23.2959 68.1152 23.2959 67.1764C23.2959 66.2376 23.5605 65.5223 24.1337 65.1646C24.7069 64.7623 25.6329 64.5835 26.9557 64.5835C27.529 64.5835 28.1463 64.6282 28.8077 64.7176V64.0917C28.8077 63.4658 28.6754 62.9741 28.3668 62.6164C28.0581 62.2588 27.5731 62.1246 26.8676 62.1246C25.9416 62.1246 25.2361 62.4823 24.8392 63.1529C24.751 63.287 24.6628 63.3764 24.6187 63.3764C24.5746 63.4211 24.4424 63.3764 24.3101 63.3317L23.825 63.1082C23.5605 62.9294 23.5164 62.7505 23.6487 62.4823ZM28.8518 65.8799C27.9699 65.7905 27.3085 65.7458 26.8235 65.7458C26.0739 65.7458 25.5447 65.8352 25.2361 66.0588C24.9274 66.2823 24.7951 66.6399 24.7951 67.1317C24.7951 67.6235 24.9274 67.9364 25.192 68.1599C25.4565 68.3835 25.9857 68.5176 26.7353 68.5176C27.5731 68.5176 28.1463 68.4729 28.5431 68.3388C28.7195 68.2941 28.8077 68.1599 28.8077 67.9811V65.8799H28.8518Z" fill="white"/>
<path d="M37.6707 61.3646C38.6848 60.9623 39.6549 60.7388 40.5809 60.7388C42.6533 60.7388 43.6675 61.8117 43.6675 63.9576V69.1435C43.6675 69.2776 43.6234 69.367 43.5793 69.4564C43.5352 69.5011 43.447 69.5458 43.2707 69.5458H42.5651C42.4329 69.5458 42.3006 69.5011 42.2565 69.4564C42.2124 69.4117 42.1683 69.2776 42.1683 69.1435V64.0023C42.1683 62.7505 41.551 62.0799 40.3604 62.0799C39.7431 62.0799 39.1258 62.2141 38.4203 62.527C38.5966 62.8847 38.6848 63.3317 38.6848 63.9129V69.0988C38.6848 69.2329 38.6407 69.3223 38.5966 69.4117C38.5525 69.4564 38.4644 69.5011 38.288 69.5011H37.5825C37.4502 69.5011 37.3179 69.4564 37.2738 69.4117C37.2297 69.367 37.1856 69.2329 37.1856 69.0988V63.9576C37.1856 62.7058 36.5683 62.0352 35.3336 62.0352C34.8045 62.0352 34.2754 62.1247 33.7903 62.3035C33.6581 62.3929 33.614 62.4823 33.614 62.6611V69.0988C33.614 69.2329 33.5699 69.367 33.5258 69.4117C33.4817 69.4564 33.3494 69.5011 33.2171 69.5011H32.5116C32.3793 69.5011 32.2911 69.4564 32.2029 69.4117C32.1588 69.367 32.1147 69.2329 32.1147 69.0988V62.2141C32.1147 61.9458 32.1588 61.767 32.247 61.6329C32.3352 61.4988 32.5116 61.4094 32.7321 61.2752C33.5699 60.9176 34.4959 60.7388 35.51 60.7388C36.4801 60.7388 37.1856 60.9623 37.6707 61.3646Z" fill="white"/>
</svg>
