<svg xmlns="http://www.w3.org/2000/svg" width="68" height="68" viewBox="0 0 68 68"><g id="pc_ic_001" transform="translate(-30 -121)"><g id="_001" data-name="001" transform="translate(30 121)"><g id="Сгруппировать_2142" data-name="Сгруппировать 2142" transform="translate(0 0)"><g id="Сгруппировать_2141" data-name="Сгруппировать 2141" transform="translate(0 0)"><path id="Контур_6063" data-name="Контур 6063" d="M-56.833-172.5a31.54,31.54,0,0,0-31.5,31.5,31.54,31.54,0,0,0,31.5,31.505A31.541,31.541,0,0,0-25.328-141a31.54,31.54,0,0,0-31.505-31.5m0,65.5a34.039,34.039,0,0,1-34-34,34.038,34.038,0,0,1,34-34,34.039,34.039,0,0,1,34,34,34.04,34.04,0,0,1-34,34" transform="translate(90.832 175)" fill="#f18b94"></path></g></g><g id="Сгруппировать_2144" data-name="Сгруппировать 2144" transform="translate(12.049 17.518)"><g id="Сгруппировать_2143" data-name="Сгруппировать 2143" transform="translate(0 0)"><path id="Контур_6064" data-name="Контур 6064" d="M-71.01,11.032l-.626-.008h-.058A1.816,1.816,0,0,1-72.051,11a4.327,4.327,0,0,0-.677-1.5,4.707,4.707,0,0,0-2.556-1.853,4.709,4.709,0,0,0-1.348-.2,4.4,4.4,0,0,0-1.11.143,4.612,4.612,0,0,0-3.319,2.973,4.395,4.395,0,0,0-.152.471l-1.393,0V.612c0-2.292,0-4.584-.005-6.9l5.987.014c.828,0,1.656,0,2.5-.015a.476.476,0,0,1,.509.337q.87,1.746,1.754,3.483L-70.705-.2A.7.7,0,0,1-70.635.1c0,3.02,0,10.563,0,10.563,0,.311-.06.371-.379.371m-5.618,3.559a2.393,2.393,0,0,1-2.407-2.415,2.369,2.369,0,0,1,.7-1.692,2.416,2.416,0,0,1,1.722-.717,2.39,2.39,0,0,1,2.4,2.4,2.368,2.368,0,0,1-2.416,2.419m-21.756-3.563c-.734,0-1.467,0-2.216,0a4.667,4.667,0,0,0-2.413-3.054,4.4,4.4,0,0,0-2.081-.525c-.113,0-.225,0-.338.013a4.633,4.633,0,0,0-4.181,3.039,2.339,2.339,0,0,0-.141.53c-.158,0-.314-.007-.471-.007l-.666,0c-.2,0-.287-.1-.287-.3V-13.135c0-.23.052-.283.275-.283h25.743c.183,0,.248.064.248.247,0,0,0,24.193,0,24.2l-13.471,0m-6.808,3.564a2.427,2.427,0,0,1-2.409-2.364,2.42,2.42,0,0,1,2.431-2.457l.016-.282v.282a2.344,2.344,0,0,1,1.671.7,2.42,2.42,0,0,1,.707,1.731,2.4,2.4,0,0,1-2.416,2.391M-68.637-1.292q-.957-1.913-1.928-3.82l-.785-1.555c-.113-.232-.226-.461-.358-.679a2.513,2.513,0,0,0-2.284-1.272h-8.613l0-1.159c0-1.181,0-2.363-.014-3.542a2.493,2.493,0,0,0-.257-1.045,2.4,2.4,0,0,0-2.28-1.388l-25.661,0a3.034,3.034,0,0,0-.815.079,2.482,2.482,0,0,0-1.861,2.477V10.816a2.511,2.511,0,0,0,.4,1.368,2.474,2.474,0,0,0,1.858,1.156,4.781,4.781,0,0,0,.549.029c.233,0,.467-.013.7-.026l.21-.027.05.141a4.685,4.685,0,0,0,.321.855,4.692,4.692,0,0,0,3.519,2.542,4.424,4.424,0,0,0,.738.062,4.47,4.47,0,0,0,1.642-.317,4.535,4.535,0,0,0,2.88-3.261l.5,0h17.413l1.491-.033a4.678,4.678,0,0,0,.912,1.844,4.775,4.775,0,0,0,3.446,1.766c.09.008.179.011.269.011a4.676,4.676,0,0,0,1.479-.271A4.687,4.687,0,0,0-73.02,15.24,5.163,5.163,0,0,0-72,13.334c.2.011.4.015.6.015s.426,0,.64-.012a2.506,2.506,0,0,0,.716-.117A2.56,2.56,0,0,0-68.3,10.767c.01-2.159.009-4.319.009-6.478V.124a3.147,3.147,0,0,0-.351-1.415" transform="translate(113.491 15.752)" fill="#f18b94"></path></g></g><g id="Сгруппировать_2146" data-name="Сгруппировать 2146" transform="translate(44.189 28.213)"><g id="Сгруппировать_2145" data-name="Сгруппировать 2145" transform="translate(0 0)"><path id="Контур_6065" data-name="Контур 6065" d="M-3.865-.788c0-1.008,0-2.017,0-3.041.527,0,1.055.006,1.582.006l1.02.014L.242-.788Zm6.7-.031L.516-5.446A1.228,1.228,0,0,0-.641-6.161l-4.275,0a1.279,1.279,0,0,0-.931.359,1.23,1.23,0,0,0-.329.92c.014.634.01,1.268.006,1.9l0,.934s.008,1.989.006,2.5a1.056,1.056,0,0,0,.327.728,1.109,1.109,0,0,0,.768.34s1.037,0,1.553,0H2.172A1.124,1.124,0,0,0,3.095,1,1.1,1.1,0,0,0,3.21-.036C3.1-.3,2.968-.56,2.836-.818" transform="translate(6.178 6.163)" fill="#f18b94"></path></g></g></g></g></svg>