<svg xmlns="http://www.w3.org/2000/svg" width="68" height="68" viewBox="0 0 68 68"><g id="pc_ic_002" transform="translate(-392.118 -2927.75)"><g id="Сгруппировать_2151" data-name="Сгруппировать 2151" transform="translate(392.118 2927.75)"><g id="Сгруппировать_2150" data-name="Сгруппировать 2150" transform="translate(0 0)"><path id="Контур_6066" data-name="Контур 6066" d="M-56.833-172.5a31.54,31.54,0,0,0-31.5,31.5,31.54,31.54,0,0,0,31.5,31.505A31.541,31.541,0,0,0-25.328-141a31.54,31.54,0,0,0-31.505-31.5m0,65.5a34.039,34.039,0,0,1-34-34,34.038,34.038,0,0,1,34-34,34.039,34.039,0,0,1,34,34,34.04,34.04,0,0,1-34,34" transform="translate(90.832 175)" fill="#f18b94"></path></g></g><g id="Сгруппировать_2153" data-name="Сгруппировать 2153" transform="translate(404.872 2940.719)"><g id="Сгруппировать_2152" data-name="Сгруппировать 2152" transform="translate(0 0)"><path id="Контур_6067" data-name="Контур 6067" d="M-16.557,11.338a1.414,1.414,0,0,0,.384-1.045c-.023-1.372-.018-2.766-.013-4.114l0-2.163H-9.82A1.284,1.284,0,0,0-8.458,2.639V-3.7s5.222,0,6.241,0a2.129,2.129,0,0,0,.537-.05A1.276,1.276,0,0,0-.737-5.1c0-1.2,0-5.213,0-6.316l3.825-.006c.806,0,1.612,0,2.444.015a1.473,1.473,0,0,0,1.062-.411,1.429,1.429,0,0,0,.387-1.053c-.022-1.374-.016-2.771-.009-4.121l.006-2.127h5.138v36H-23.872V11.742l3.8,0c.816,0,1.632,0,2.469.014a1.451,1.451,0,0,0,1.049-.413M14.4-21.243a1.27,1.27,0,0,0-1.011-.467l-7.748,0-1.224,0v7.715H-3.3v7.719H-11.03v7.73h-7.711v7.7h-7.721v8.933A1.274,1.274,0,0,0-25.2,19.455c.09.008.182.009.272.009H13.145a1.533,1.533,0,0,0,1.167-.376,1.248,1.248,0,0,0,.385-.9l0-38.434a1.425,1.425,0,0,0-.3-1" transform="translate(26.461 21.712)" fill="#f18b94"></path></g></g><g id="Сгруппировать_2155" data-name="Сгруппировать 2155" transform="translate(410.779 2940.712)"><g id="Сгруппировать_2154" data-name="Сгруппировать 2154" transform="translate(0 0)"><path id="Контур_6068" data-name="Контур 6068" d="M-2.151,14.135a1.251,1.251,0,0,0,.784-.274,3.55,3.55,0,0,0,.3-.277L7.65,4.863l.464-.442V5.926c0,.441,0,.88,0,1.321a1.288,1.288,0,1,0,2.574-.012q0-2.836-.018-5.671A2.478,2.478,0,0,0,10.62.949a1.248,1.248,0,0,0-1.3-.923C8.73.02,4.88,0,4.4,0L3.681,0A1.359,1.359,0,0,0,2.558.563a1.264,1.264,0,0,0-.147,1.158A1.28,1.28,0,0,0,3.6,2.57l2.7,0-.428.448-8.834,8.83a1.3,1.3,0,0,0-.422,1.329,1.281,1.281,0,0,0,1.241.955" transform="translate(3.437)" fill="#f18b94"></path></g></g></g></svg>