<svg xmlns="http://www.w3.org/2000/svg" width="68" height="68" viewBox="0 0 68 68"><g id="pc_ic_003" transform="translate(-392.118 -3501.991)"><g id="Сгруппировать_2158" data-name="Сгруппировать 2158" transform="translate(392.118 3501.991)"><g id="Сгруппировать_2157" data-name="Сгруппировать 2157" transform="translate(0 0)"><path id="Контур_6069" data-name="Контур 6069" d="M-56.833-172.5a31.54,31.54,0,0,0-31.5,31.5,31.54,31.54,0,0,0,31.5,31.505A31.541,31.541,0,0,0-25.328-141a31.54,31.54,0,0,0-31.505-31.5m0,65.5a34.039,34.039,0,0,1-34-34,34.038,34.038,0,0,1,34-34,34.039,34.039,0,0,1,34,34,34.039,34.039,0,0,1-34,34" transform="translate(90.832 175)" fill="#f18b94"></path></g></g><g id="Сгруппировать_2160" data-name="Сгруппировать 2160" transform="translate(402.058 3516.826)"><g id="Сгруппировать_2159" data-name="Сгруппировать 2159" transform="translate(0 0)"><path id="Контур_6070" data-name="Контур 6070" d="M-42.766,12.142a15.481,15.481,0,0,1-4.7,2.02,21.53,21.53,0,0,1-5.857.689,24.94,24.94,0,0,1-6.921-.887,13.7,13.7,0,0,1-4.433-2.157,4.852,4.852,0,0,1-1.215-1.261,3.058,3.058,0,0,1-.318-.653c.116.1.231.194.355.286a15.628,15.628,0,0,0,5.059,2.468,26.9,26.9,0,0,0,7.463.965h.22a23.281,23.281,0,0,0,6.166-.759,17.346,17.346,0,0,0,5.282-2.288,9.772,9.772,0,0,0,.88-.662,3.48,3.48,0,0,1-.266.558,5.367,5.367,0,0,1-1.717,1.678M-65.739-5.787A8.306,8.306,0,0,1-62.371-8.27a20.638,20.638,0,0,1,6.14-1.562,25.569,25.569,0,0,1,2.717-.145,25.2,25.2,0,0,1,6.636.89,12.588,12.588,0,0,1,4.411,2.076A5.265,5.265,0,0,1-41-5.4a2.653,2.653,0,0,1-.051,2.872A5.355,5.355,0,0,1-42.766-.848a15.467,15.467,0,0,1-4.7,2.02,21.568,21.568,0,0,1-5.853.689h0A24.947,24.947,0,0,1-60.244.974a13.709,13.709,0,0,1-4.432-2.157,4.874,4.874,0,0,1-1.216-1.261,2.791,2.791,0,0,1,.153-3.343m-.115,12.715A15.628,15.628,0,0,0-60.795,9.4a26.861,26.861,0,0,0,7.463.965h.22A23.281,23.281,0,0,0-46.946,9.6a17.357,17.357,0,0,0,5.283-2.287,10.152,10.152,0,0,0,.9-.678,3.449,3.449,0,0,1-.287.614A5.365,5.365,0,0,1-42.766,8.93a15.505,15.505,0,0,1-4.7,2.021,21.689,21.689,0,0,1-5.857.688,24.94,24.94,0,0,1-6.921-.887,13.715,13.715,0,0,1-4.433-2.157,4.865,4.865,0,0,1-1.215-1.26,3.066,3.066,0,0,1-.342-.712c.123.1.246.206.379.3m25.092-3.54A3.449,3.449,0,0,1-41.049,4a5.375,5.375,0,0,1-1.717,1.677,15.415,15.415,0,0,1-4.7,2.02,21.375,21.375,0,0,1-5.857.689A24.942,24.942,0,0,1-60.243,7.5a13.737,13.737,0,0,1-4.433-2.158,4.842,4.842,0,0,1-1.216-1.261,3.1,3.1,0,0,1-.341-.711c.123.1.246.207.379.305a15.646,15.646,0,0,0,5.059,2.467,26.861,26.861,0,0,0,7.463.965h.22a23.281,23.281,0,0,0,6.166-.759,17.349,17.349,0,0,0,5.283-2.287,10.151,10.151,0,0,0,.9-.678M-41.049.749a5.388,5.388,0,0,1-1.717,1.678,15.467,15.467,0,0,1-4.7,2.019,21.728,21.728,0,0,1-5.857.689,24.942,24.942,0,0,1-6.921-.886,13.73,13.73,0,0,1-4.434-2.157A4.889,4.889,0,0,1-65.891.83a3.052,3.052,0,0,1-.352-.743c.125.106.253.213.39.314a15.626,15.626,0,0,0,5.059,2.467,26.8,26.8,0,0,0,7.463.966h.214a23.28,23.28,0,0,0,6.172-.76A17.325,17.325,0,0,0-41.663.79,10.236,10.236,0,0,0-40.749.1a3.5,3.5,0,0,1-.3.648m2.422-4.668h0a4.815,4.815,0,0,0-.641-2.436,7.19,7.19,0,0,0-2-2.226,14.5,14.5,0,0,0-5.089-2.411,27.083,27.083,0,0,0-10.083-.8,22.572,22.572,0,0,0-6.719,1.714A10.219,10.219,0,0,0-67.3-6.994a4.835,4.835,0,0,0-1.044,3.2v3.17s0,.009,0,.013h0v3.24s0,.008,0,.011h0V5.853h0v3.24a4.863,4.863,0,0,0,.8,2.528,6.805,6.805,0,0,0,1.694,1.771,15.648,15.648,0,0,0,5.059,2.468,26.863,26.863,0,0,0,7.463.964h.22a23.324,23.324,0,0,0,6.166-.758,17.37,17.37,0,0,0,5.282-2.287,7.3,7.3,0,0,0,2.311-2.306,4.831,4.831,0,0,0,.726-2.462V2.585h0c0-.012,0-.024,0-.035V-.668h0c0-.011,0-.022,0-.034Z" transform="translate(68.35 11.953)" fill="#f18b94"></path></g></g><g id="Сгруппировать_2162" data-name="Сгруппировать 2162" transform="translate(403.626 3520.148)"><g id="Сгруппировать_2161" data-name="Сгруппировать 2161" transform="translate(0 0)"><path id="Контур_6071" data-name="Контур 6071" d="M-74.616-8.845c-2.834.922-5.812,1.879-8.856,2.839Q-91.588-3.443-99.709-.891l-7.578,2.386c-.905.286-1.81.573-2.717.85a2.092,2.092,0,0,1-2.178-.809,2.466,2.466,0,0,1-.177-.462l-.421-1.289C-113.3-1.806-113.828-3.4-114.338-5q-.949-2.975-1.88-5.958l-.117-.371a23.737,23.737,0,0,0,2.565.9,22.509,22.509,0,0,0,4.528.789,29.475,29.475,0,0,0,5.234,0,19.894,19.894,0,0,0,9.537-3.207,7.165,7.165,0,0,0,3.044-4.207,5.335,5.335,0,0,0-.241-3.629.514.514,0,0,1,.013-.5,5.6,5.6,0,0,0,.131-4.008c-.208-.644-.2-.809-.078-1a2.032,2.032,0,0,0,.283-.936,7.63,7.63,0,0,0-.193-2.974l4.979-1.571,3.188-1c.144-.046.286-.1.428-.151A3.742,3.742,0,0,1-82.379-33a2.085,2.085,0,0,1,1.478.119,2.075,2.075,0,0,1,1.064,1.235c.418,1.346.856,2.686,1.294,4.027q.473,1.446.938,2.9,1.937,6.076,3.849,12.161a12.644,12.644,0,0,1,.409,1.594,1.893,1.893,0,0,1-1.269,2.126m3.213-2.471a14.379,14.379,0,0,0-.47-1.841q-1.915-6.088-3.851-12.17-.466-1.455-.942-2.91c-.435-1.332-.87-2.663-1.287-4a4.034,4.034,0,0,0-1.994-2.374,3.98,3.98,0,0,0-2.831-.325,5.607,5.607,0,0,0-.822.255c-.112.042-.225.084-.336.12l-8.384,2.646V-15.3c-10.987,8.676-23.726,2.688-26.933.933l.354,1.419c.021.092.042.17.065.247l.734,2.335q.937,2.986,1.882,5.967c.511,1.6,1.037,3.2,1.563,4.8l.415,1.268a3.815,3.815,0,0,0,.379.9,4.041,4.041,0,0,0,3.382,1.815,3.611,3.611,0,0,0,1.054-.154c.912-.28,1.823-.569,2.732-.856L-99.117.991Q-91-1.563-82.876-4.123c3.047-.962,6.034-1.918,8.872-2.844a3.877,3.877,0,0,0,2.6-4.349" transform="translate(119.253 35.052)" fill="#f18b94"></path></g></g><g id="Сгруппировать_2164" data-name="Сгруппировать 2164" transform="translate(412.724 3544.7)"><g id="Сгруппировать_2163" data-name="Сгруппировать 2163" transform="translate(0 0)"><path id="Контур_6072" data-name="Контур 6072" d="M-1.111,1.283c-.225.071-.444.147-.665.227.123.426.447,1.366.581,1.79q.018.058.039.117S21.012-3.545,21.764-3.8c-.135-.444-.483-1.416-.647-1.9Z" transform="translate(1.776 5.699)" fill="#f18b94"></path></g></g><g id="Сгруппировать_2166" data-name="Сгруппировать 2166" transform="translate(433.535 3526.075)"><g id="Сгруппировать_2165" data-name="Сгруппировать 2165" transform="translate(0 0)"><path id="Контур_6073" data-name="Контур 6073" d="M-13.51-7.421c-.187-.573-.379-1.144-.57-1.716-.258-.767-.515-1.534-.761-2.3-.027-.085-.051-.159-.321-.269a.189.189,0,0,0-.082-.015,1.048,1.048,0,0,0-.306.067q-2.893.939-5.79,1.859a.485.485,0,0,0-.244.449c.09.29.17.584.25.878s.167.611.263.91c.539,1.687.986,3.053,1.407,4.3a.384.384,0,0,0,.322.226,1.083,1.083,0,0,0,.135-.028l.886-.26c.9-.264,1.809-.528,2.71-.808.789-.245,1.593-.518,2.461-.834a.485.485,0,0,0,.233-.478c-.2-.712-.391-1.36-.593-1.981" transform="translate(21.593 11.725)" fill="#f18b94"></path></g></g></g></svg>