<svg xmlns="http://www.w3.org/2000/svg" width="86" height="86" viewBox="0 0 86 86"><g id="pc_ic_007" transform="translate(-17556.613 4885)"><g id="Сгруппировать_2263" data-name="Сгруппировать 2263" transform="translate(17556.613 -4885)"><g id="Сгруппировать_2178" data-name="Сгруппировать 2178" transform="translate(17.001 26.418)"><path id="Контур_6082" data-name="Контур 6082" d="M-21.768-78.357q-4.035,0-8.072.008a2.679,2.679,0,0,0-2.768,2.187,10.943,10.943,0,0,0-.043,1.865c.008.272.017.546.017.822v.366H11.328l.005-1.054c.005-.512.01-1.013-.012-1.511a2.738,2.738,0,0,0-2.132-2.6,4.335,4.335,0,0,0-.951-.085l-.578.005ZM-29.647-47.31a5.532,5.532,0,0,1-5.467-4.036,5.682,5.682,0,0,1-.178-1.345q-.015-11.412,0-22.829a5.39,5.39,0,0,1,5.425-5.455q10.664-.008,21.328-.009,8.552,0,17.1.007a5.409,5.409,0,0,1,5.382,5.38c.018,4.639.009,9.279,0,13.916a.618.618,0,0,1-.1.354c-.773.743-1.563,1.467-2.354,2.192l-.142.13v-8.014H-32.687v13.949a2.827,2.827,0,0,0,3.122,3.139q6.359.008,12.72.008,5.956,0,11.909-.008a1,1,0,0,1,.877.367c.58.668,1.187,1.313,1.836,2l.226.24-16.629-.011q-5.5,0-10.989.024Z" transform="translate(35.301 80.984)"></path></g><g id="Сгруппировать_2179" data-name="Сгруппировать 2179" transform="translate(48.229 43.991)"><path id="Контур_6083" data-name="Контур 6083" d="M-13.568,18.987a2.545,2.545,0,0,1-1.834-.919q-2.935-3.151-5.858-6.315a2.266,2.266,0,0,1,.015-3.372,2.184,2.184,0,0,1,1.5-.609,2.568,2.568,0,0,1,1.864.876c.818.872,1.629,1.749,2.441,2.626l1.974,2.122L-13,13c.117-.1.223-.187.324-.282,0,0,10.191-9.429,13.037-12.054A2.4,2.4,0,0,1,2,0,2.266,2.266,0,0,1,4.213,1.777a2.185,2.185,0,0,1-.735,2.273L-11.819,18.2a2.629,2.629,0,0,1-1.749.783" transform="translate(22.003 0)"></path></g><g id="Сгруппировать_2180" data-name="Сгруппировать 2180" transform="translate(40.842 47.079) rotate(84.635)"><path id="Контур_6084" data-name="Контур 6084" d="M1.632,17.528,0,17.376,1.632,0,3.263.153Z" transform="translate(0 0)"></path></g><g id="Сгруппировать_2195" data-name="Сгруппировать 2195" transform="translate(0 0)"><g id="Сгруппировать_2157" data-name="Сгруппировать 2157" transform="translate(0)"><path id="Контур_6069" data-name="Контур 6069" d="M-47.833-171.844A39.889,39.889,0,0,0-87.676-132,39.889,39.889,0,0,0-47.833-92.156,39.89,39.89,0,0,0-7.988-132a39.889,39.889,0,0,0-39.845-39.843m0,82.844a43.049,43.049,0,0,1-43-43,43.049,43.049,0,0,1,43-43,43.049,43.049,0,0,1,43,43,43.049,43.049,0,0,1-43,43" transform="translate(90.832 175)"></path></g></g></g></g></svg>