<svg xmlns="http://www.w3.org/2000/svg" id="pc_ic_004" width="86" height="86" viewBox="0 0 86 86"><g id="Сгруппировать_2167" data-name="Сгруппировать 2167" transform="translate(16.126 17.469)"><path id="Контур_6074" data-name="Контур 6074" d="M-12.933-124.955a3.452,3.452,0,0,0-.812.08,5.451,5.451,0,0,0-1.723.66,6.6,6.6,0,0,0-1.788,1.884,4.459,4.459,0,0,0-.891,2.738,5.467,5.467,0,0,0,2.705,4.179l.387.28.3-.8a9.2,9.2,0,0,1,4.4-5.057,7.474,7.474,0,0,1,3.532-.9c4.381.014,8.734.017,13.088.017l14.106,0-.223-.511c-.035-.083-.062-.164-.091-.241a1.535,1.535,0,0,0-.283-.554,4.563,4.563,0,0,0-3.387-1.765Zm7.289,5.511a6.461,6.461,0,0,0-5.135,2.352,6.549,6.549,0,0,0-1.227,2.137l-.168.486H26.56v-4.977H10.129ZM22.013-98.69a.815.815,0,0,0-.588.273,11.787,11.787,0,0,0-.878,1.1,3.53,3.53,0,0,0-.641,2.241,3.61,3.61,0,0,0,1.457,2.6,1.2,1.2,0,0,0,.727.269q2.207.012,4.415.009h3.6v-6.418l-.306-.05a1.165,1.165,0,0,0-.237-.032H26.707q-2.346,0-4.694.005M-17.938-81.628a2.867,2.867,0,0,0,.073.67,2.836,2.836,0,0,0,2.374,2.023H27.124a1.906,1.906,0,0,0,.443-.05,4.229,4.229,0,0,0,2.549-1.782,1.263,1.263,0,0,0,.219-.7q.014-2.972.007-5.948V-89.28l-5.219,0q-1.681,0-3.36.005a4.019,4.019,0,0,1-2.318-.733,5.92,5.92,0,0,1-2.091-2.771,5.776,5.776,0,0,1,.349-5.741,8.725,8.725,0,0,1,3.1-2.857.684.684,0,0,1,.317-.084c2.126,0,9.208-.005,9.208-.005l0-2.592c-.005-1.545-.011-3.09.019-4.637a2.822,2.822,0,0,0-1.1-2.358,3.122,3.122,0,0,0-2.086-.772q-12.372.021-24.729.014l-13.5.006-3.463.006a3.369,3.369,0,0,1-.777-.091,4.03,4.03,0,0,1-2.006-1.239l-.629-.654Zm3.008,5.611-.746-.109a6.423,6.423,0,0,1-3.156-1.226A5.13,5.13,0,0,1-20.97-81.6v-37.591c0-.745-.006-1.49.007-2.234a5.5,5.5,0,0,1,.824-2.981c1.224-1.892,3.1-2.924,5.912-3.244l30.436,0,.374.005a7.112,7.112,0,0,1,2.538.558,7.861,7.861,0,0,1,4.138,4.539.753.753,0,0,0,.765.536c.927-.01,1.841-.011,2.755-.013l1.525,0a1.037,1.037,0,0,1,1.167,1.153v1.492q0,2.483,0,4.97A.667.667,0,0,0,30-113.7a4.342,4.342,0,0,1,3.1,3.058c.077.239.131.485.187.731l.083.355-.01,27.949-.03.142-.072.431a5.6,5.6,0,0,1-3.436,4.547,8.622,8.622,0,0,1-.926.336l-.4.133Z" transform="translate(20.973 127.651)"></path></g><g id="Сгруппировать_2192" data-name="Сгруппировать 2192" transform="translate(0 0)"><g id="Сгруппировать_2157" data-name="Сгруппировать 2157" transform="translate(0 0)"><path id="Контур_6069" data-name="Контур 6069" d="M-47.833-171.844A39.889,39.889,0,0,0-87.676-132,39.889,39.889,0,0,0-47.833-92.156,39.89,39.89,0,0,0-7.988-132a39.889,39.889,0,0,0-39.845-39.843m0,82.844a43.049,43.049,0,0,1-43-43,43.049,43.049,0,0,1,43-43,43.049,43.049,0,0,1,43,43,43.049,43.049,0,0,1-43,43" transform="translate(90.832 175)"></path></g></g></svg>