<svg xmlns="http://www.w3.org/2000/svg" width="68" height="129.625" viewBox="0 0 68 129.625"><g id="pc_ic_018" transform="translate(-30 -2313.813)"><g id="Сгруппировать_2196" data-name="Сгруппировать 2196" transform="translate(30 2443.437) rotate(-90)"><g id="Сгруппировать_2157" data-name="Сгруппировать 2157" transform="translate(0)"><path id="Контур_6069" data-name="Контур 6069" d="M34,2.5A31.5,31.5,0,1,0,65.5,34,31.54,31.54,0,0,0,34,2.5M34,68A34,34,0,1,1,68,34,34.039,34.039,0,0,1,34,68"></path></g></g><g id="Сгруппировать_2197" data-name="Сгруппировать 2197" transform="translate(30 2381.813) rotate(-90)"><g id="Сгруппировать_2157-2" data-name="Сгруппировать 2157" transform="translate(0 0)"><path id="Контур_6069-2" data-name="Контур 6069" d="M34,2.5A31.5,31.5,0,1,0,65.5,34,31.54,31.54,0,0,0,34,2.5M34,68A34,34,0,1,1,68,34,34.039,34.039,0,0,1,34,68"></path></g></g><g id="google-pay-seeklogo.com" transform="translate(39.928 2400.239)"><path id="Контур_6086" data-name="Контур 6086" d="M192.878,18.231V23.84H191.1V9.993h4.715a4.286,4.286,0,0,1,3.059,1.2,3.817,3.817,0,0,1,1.27,2.915,3.863,3.863,0,0,1-1.27,2.937,4.271,4.271,0,0,1-3.048,1.181Zm0-6.537V16.53h2.981a2.325,2.325,0,0,0,1.756-.718,2.356,2.356,0,0,0,.044-3.335l-.044-.044a2.3,2.3,0,0,0-1.756-.729Zm11.362,2.363a4.445,4.445,0,0,1,3.114,1.049A3.743,3.743,0,0,1,208.491,18v5.83h-1.7V22.515h-.077a3.4,3.4,0,0,1-2.937,1.623,3.813,3.813,0,0,1-2.617-.928,2.928,2.928,0,0,1-1.049-2.319,2.829,2.829,0,0,1,1.115-2.341,4.661,4.661,0,0,1,2.97-.872,5.355,5.355,0,0,1,2.606.574v-.409a2.037,2.037,0,0,0-.729-1.568,2.584,2.584,0,0,0-1.712-.651A2.736,2.736,0,0,0,202,16.884L200.43,15.9a4.335,4.335,0,0,1,3.809-1.844Zm-2.3,6.879a1.433,1.433,0,0,0,.585,1.159,2.171,2.171,0,0,0,1.38.464,2.825,2.825,0,0,0,2-.828,2.607,2.607,0,0,0,.883-1.954,3.623,3.623,0,0,0-2.319-.663,3.077,3.077,0,0,0-1.811.519A1.578,1.578,0,0,0,201.943,20.936Zm16.309-6.57-5.94,13.648h-1.833l2.208-4.77-3.909-8.867h1.932l2.816,6.8h.044l2.749-6.8Z" transform="translate(-170.107 -8.889)" fill="#5f6368"></path><path id="Контур_6087" data-name="Контур 6087" d="M80.63,60.612A9.823,9.823,0,0,0,80.5,59H73v3.059h4.3a3.681,3.681,0,0,1-1.59,2.418v1.988h2.562a7.756,7.756,0,0,0,2.363-5.852Z" transform="translate(-65.047 -52.485)" fill="#4285f4"></path><path id="Контур_6088" data-name="Контур 6088" d="M15.8,92.226a7.6,7.6,0,0,0,5.267-1.921l-2.562-1.988A4.816,4.816,0,0,1,11.339,85.8H8.7v2.054A7.961,7.961,0,0,0,15.8,92.226Z" transform="translate(-7.847 -76.326)" fill="#34a853"></path><path id="Контур_6089" data-name="Контур 6089" d="M4.467,44.79a4.8,4.8,0,0,1,0-3.048V39.7H1.828a7.883,7.883,0,0,0,0,7.133Z" transform="translate(-0.975 -35.316)" fill="#fbbc04"></path><path id="Контур_6090" data-name="Контур 6090" d="M15.8,3.143a4.279,4.279,0,0,1,3.048,1.193l2.264-2.264A7.589,7.589,0,0,0,15.8,0,7.951,7.951,0,0,0,8.7,4.38l2.639,2.054A4.753,4.753,0,0,1,15.8,3.143Z" transform="translate(-7.847 0.004)" fill="#ea4335"></path></g><g id="apple-pay" transform="translate(41.527 2338.09)"><path id="Контур_6091" data-name="Контур 6091" d="M8.5,2.465A3.441,3.441,0,0,0,9.285,0,3.55,3.55,0,0,0,7.006,1.158a3.247,3.247,0,0,0-.822,2.353A2.683,2.683,0,0,0,8.5,2.465m.784,1.27c-1.27-.075-2.353.71-2.951.71S4.8,3.773,3.794,3.773A3.748,3.748,0,0,0,.619,5.715c-1.345,2.353-.374,5.827.971,7.732.635.934,1.419,1.98,2.428,1.942.971-.037,1.345-.635,2.5-.635s1.494.635,2.54.6,1.718-.934,2.353-1.905a7.523,7.523,0,0,0,1.046-2.167,3.384,3.384,0,0,1-.411-6.014A3.478,3.478,0,0,0,9.285,3.735" transform="translate(0.026)"></path><g id="Сгруппировать_2198" data-name="Сгруппировать 2198" transform="translate(14.989 1.083)"><path id="Контур_6092" data-name="Контур 6092" d="M45.4,2.9a4.442,4.442,0,0,1,4.669,4.632A4.491,4.491,0,0,1,45.329,12.2H42.3V17.02H40.1V2.9Zm-3.1,7.471h2.5c1.905,0,2.988-1.046,2.988-2.8,0-1.793-1.083-2.8-2.988-2.8h-2.54v5.6Zm8.33,3.773c0-1.793,1.382-2.914,3.847-3.063l2.839-.149v-.784c0-1.158-.784-1.83-2.054-1.83A1.97,1.97,0,0,0,53.1,9.81H51.082c.112-1.868,1.718-3.25,4.258-3.25,2.5,0,4.109,1.307,4.109,3.4v7.1H57.432V15.376h-.037a3.66,3.66,0,0,1-3.25,1.868C52.053,17.244,50.634,15.974,50.634,14.143Zm6.686-.934v-.822l-2.54.149c-1.27.075-1.98.635-1.98,1.531s.747,1.494,1.868,1.494A2.469,2.469,0,0,0,57.32,13.21Zm4,7.657V19.149a4.06,4.06,0,0,0,.672.037,1.728,1.728,0,0,0,1.83-1.457c0-.037.187-.635.187-.635L60.271,6.785h2.279l2.615,8.4H65.2l2.615-8.4h2.241L66.21,17.655c-.9,2.5-1.905,3.287-4.034,3.287C62.027,20.9,61.5,20.9,61.317,20.867Z" transform="translate(-40.1 -2.9)"></path></g></g></g></svg>