<svg xmlns="http://www.w3.org/2000/svg" id="pc_ic_008" width="163.937" height="86" viewBox="0 0 163.937 86"><g id="Сгруппировать_2196" data-name="Сгруппировать 2196" transform="translate(0 0)"><g id="Сгруппировать_2157" data-name="Сгруппировать 2157" transform="translate(0 0)"><path id="Контур_6069" data-name="Контур 6069" d="M-47.833-171.844A39.889,39.889,0,0,0-87.676-132,39.889,39.889,0,0,0-47.833-92.156,39.89,39.89,0,0,0-7.988-132a39.889,39.889,0,0,0-39.845-39.843m0,82.844a43.049,43.049,0,0,1-43-43,43.049,43.049,0,0,1,43-43,43.049,43.049,0,0,1,43,43,43.049,43.049,0,0,1-43,43" transform="translate(90.832 175)"></path></g></g><g id="Сгруппировать_2197" data-name="Сгруппировать 2197" transform="translate(77.937 0)"><g id="Сгруппировать_2157-2" data-name="Сгруппировать 2157" transform="translate(0 0)"><path id="Контур_6069-2" data-name="Контур 6069" d="M-47.833-171.844A39.889,39.889,0,0,0-87.676-132,39.889,39.889,0,0,0-47.833-92.156,39.89,39.89,0,0,0-7.988-132a39.889,39.889,0,0,0-39.845-39.843m0,82.844a43.049,43.049,0,0,1-43-43,43.049,43.049,0,0,1,43-43,43.049,43.049,0,0,1,43,43,43.049,43.049,0,0,1-43,43" transform="translate(90.832 175)"></path></g></g><g id="google-pay-seeklogo.com" transform="translate(12.095 30.906)"><path id="Контур_6086" data-name="Контур 6086" d="M193.348,20.411v7.094H191.1V9.994h5.963a5.421,5.421,0,0,1,3.868,1.522,4.827,4.827,0,0,1,1.606,3.687,4.886,4.886,0,0,1-1.606,3.715,5.4,5.4,0,0,1-3.854,1.494Zm0-8.267v6.117h3.77a2.94,2.94,0,0,0,2.22-.908,2.98,2.98,0,0,0,.056-4.217l-.056-.056a2.9,2.9,0,0,0-2.22-.922Zm14.37,2.988a5.622,5.622,0,0,1,3.938,1.327,4.734,4.734,0,0,1,1.438,3.659v7.373h-2.151V25.83h-.1a4.3,4.3,0,0,1-3.715,2.053,4.822,4.822,0,0,1-3.31-1.173,3.7,3.7,0,0,1-1.327-2.933,3.577,3.577,0,0,1,1.41-2.961,5.894,5.894,0,0,1,3.757-1.1,6.773,6.773,0,0,1,3.3.726v-.517a2.575,2.575,0,0,0-.922-1.983,3.268,3.268,0,0,0-2.165-.824,3.461,3.461,0,0,0-2.988,1.592L202.9,17.465a5.482,5.482,0,0,1,4.818-2.332Zm-2.9,8.7a1.812,1.812,0,0,0,.74,1.466,2.746,2.746,0,0,0,1.746.587,3.572,3.572,0,0,0,2.528-1.047,3.3,3.3,0,0,0,1.117-2.472,4.582,4.582,0,0,0-2.933-.838,3.891,3.891,0,0,0-2.29.656A2,2,0,0,0,204.813,23.833Zm20.626-8.309-7.513,17.26h-2.318l2.793-6.033-4.943-11.214H215.9l3.561,8.6h.056l3.477-8.6Z" transform="translate(-164.55 -8.597)" fill="#5f6368"></path><path id="Контур_6087" data-name="Контур 6087" d="M82.65,61.039A12.423,12.423,0,0,0,82.482,59H73v3.868h5.432a4.656,4.656,0,0,1-2.011,3.058V68.44h3.24a9.809,9.809,0,0,0,2.988-7.4Z" transform="translate(-62.942 -50.76)" fill="#4285f4"></path><path id="Контур_6088" data-name="Контур 6088" d="M17.679,93.927A9.618,9.618,0,0,0,24.34,91.5L21.1,88.984A6.091,6.091,0,0,1,12.038,85.8H8.7v2.6A10.069,10.069,0,0,0,17.679,93.927Z" transform="translate(-7.621 -73.818)" fill="#34a853"></path><path id="Контур_6089" data-name="Контур 6089" d="M5.391,46.138a6.067,6.067,0,0,1,0-3.854V39.7H2.054a9.969,9.969,0,0,0,0,9.021Z" transform="translate(-0.975 -34.155)" fill="#fbbc04"></path><path id="Контур_6090" data-name="Контур 6090" d="M17.679,3.976a5.411,5.411,0,0,1,3.854,1.508L24.4,2.622A9.6,9.6,0,0,0,17.679,0,10.056,10.056,0,0,0,8.7,5.54l3.338,2.6A6.011,6.011,0,0,1,17.679,3.976Z" transform="translate(-7.621 0.004)" fill="#ea4335"></path></g><g id="apple-pay" transform="translate(92.718 30.907)"><path id="Контур_6091" data-name="Контур 6091" d="M10.757,3.118A4.352,4.352,0,0,0,11.749,0,4.49,4.49,0,0,0,8.867,1.464,4.107,4.107,0,0,0,7.828,4.441a3.393,3.393,0,0,0,2.929-1.323m.992,1.606c-1.606-.094-2.976.9-3.732.9S6.08,4.771,4.8,4.771A4.74,4.74,0,0,0,.789,7.228C-.911,10.2.317,14.6,2.018,17.007c.8,1.181,1.8,2.5,3.071,2.457,1.228-.047,1.7-.8,3.165-.8s1.89.8,3.212.756,2.173-1.181,2.976-2.409a9.514,9.514,0,0,0,1.323-2.74,4.28,4.28,0,0,1-.52-7.606,4.4,4.4,0,0,0-3.5-1.937" transform="translate(0.026)"></path><g id="Сгруппировать_2198" data-name="Сгруппировать 2198" transform="translate(18.956 1.37)"><path id="Контур_6092" data-name="Контур 6092" d="M46.808,2.9a5.617,5.617,0,0,1,5.905,5.858,5.679,5.679,0,0,1-6,5.905H42.887v6.094H40.1V2.9Zm-3.921,9.448h3.165c2.409,0,3.779-1.323,3.779-3.543,0-2.268-1.37-3.543-3.779-3.543H42.84v7.086ZM53.422,17.12c0-2.268,1.748-3.685,4.866-3.874l3.59-.189v-.992c0-1.464-.992-2.315-2.6-2.315a2.492,2.492,0,0,0-2.74,1.89H53.989c.142-2.362,2.173-4.11,5.385-4.11,3.165,0,5.2,1.653,5.2,4.3V20.8H62.02V18.679h-.047a4.629,4.629,0,0,1-4.11,2.362C55.217,21.041,53.422,19.434,53.422,17.12Zm8.456-1.181V14.9l-3.212.189c-1.606.094-2.5.8-2.5,1.937s.945,1.89,2.362,1.89A3.123,3.123,0,0,0,61.878,15.939Zm5.055,9.684V23.45a5.135,5.135,0,0,0,.85.047A2.185,2.185,0,0,0,70.1,21.655c0-.047.236-.8.236-.8L65.61,7.813h2.882L71.8,18.442h.047L75.153,7.813h2.834L73.122,21.56c-1.134,3.165-2.409,4.157-5.1,4.157C67.831,25.67,67.169,25.67,66.933,25.623Z" transform="translate(-40.1 -2.9)"></path></g></g></svg>