<svg xmlns="http://www.w3.org/2000/svg" width="86" height="86" viewBox="0 0 86 86"><g id="pc_ic_006" transform="translate(-17432.576 4885)"><g id="Сгруппировать_2262" data-name="Сгруппировать 2262" transform="translate(17432.576 -4885)"><g id="Сгруппировать_2171" data-name="Сгруппировать 2171" transform="translate(14.21 10.508)"><path id="Контур_6076" data-name="Контур 6076" d="M-83.783,8.765c.016-.04.031-.079.046-.119-.107-.064-.21-.134-.321-.191q-11.029-5.7-22.069-11.393a1.129,1.129,0,0,0-.887.037q-11.023,5.648-22.027,11.336c-.134.07-.254.17-.491.33Zm6.59,2.775h-58.669c0-.857-.035-1.683.025-2.5.015-.2.3-.437.522-.555q9.638-5.271,19.289-10.517c3-1.637,6.015-3.265,9.013-4.914a.867.867,0,0,1,.954-.011Q-91.885.781-77.693,8.488a.806.806,0,0,1,.511.857c-.038.715-.011,1.432-.011,2.194" transform="translate(135.872 7.097)"></path></g><g id="Сгруппировать_2172" data-name="Сгруппировать 2172" transform="translate(36.583 31.948)"><path id="Контур_6077" data-name="Контур 6077" d="M2488.132,5618.791h-2.706v18.053h2.706Zm-5.585,18.085v-18.137c-.413,0-.817.012-1.221,0a1.412,1.412,0,0,1-1.527-1.432,1.374,1.374,0,0,1,1.5-1.381q5.464-.029,10.928-.01a1.393,1.393,0,0,1,1.517,1.38,1.41,1.41,0,0,1-1.517,1.442c-.39.012-.78,0-1.219,0v18.137c.427,0,.836-.012,1.245,0a1.4,1.4,0,0,1,1.49,1.4,1.383,1.383,0,0,1-1.476,1.411q-5.5.031-10.993,0a1.407,1.407,0,1,1,.007-2.811c.409-.012.818,0,1.264,0" transform="translate(-2479.798 -5615.911)"></path></g><g id="Сгруппировать_2173" data-name="Сгруппировать 2173" transform="translate(53.348 31.948)"><path id="Контур_6078" data-name="Контур 6078" d="M2531.861,5618.752h-2.732v18.055h2.732Zm2.865-.041v18.135h1.1c1.012,0,1.632.523,1.647,1.371.017.88-.6,1.452-1.644,1.452h-9.751c-.392-.011-.787.021-1.178-.011a1.4,1.4,0,0,1,.02-2.8c.433-.03.868-.012,1.345-.012v-18.135c-.433,0-.844.02-1.252,0a1.384,1.384,0,0,1-1.482-1.4,1.363,1.363,0,0,1,1.473-1.41q5.5-.032,10.994-.01a1.406,1.406,0,1,1,.052,2.811c-.428.029-.861.01-1.323.01" transform="translate(-2523.531 -5615.883)"></path></g><g id="Сгруппировать_2174" data-name="Сгруппировать 2174" transform="translate(19.823 31.948)"><path id="Контур_6079" data-name="Контур 6079" d="M2441.695,5636.822h2.727v-18.046h-2.727Zm5.6.049c.449,0,.842-.01,1.232,0a1.389,1.389,0,0,1,1.495,1.392,1.358,1.358,0,0,1-1.46,1.422q-5.5.031-10.992,0a1.411,1.411,0,1,1,.051-2.813c.39-.01.778,0,1.206,0v-18.135c-.4,0-.8.01-1.206,0a1.422,1.422,0,0,1-1.538-1.431,1.393,1.393,0,0,1,1.556-1.392q5.4-.015,10.8,0a1.4,1.4,0,0,1,1.587,1.433c-.011.858-.624,1.379-1.632,1.39-.348.01-.7,0-1.095,0Z" transform="translate(-2436.08 -5615.907)"></path></g><g id="Сгруппировать_2175" data-name="Сгруппировать 2175" transform="translate(13.847 64.009)"><path id="Контур_6080" data-name="Контур 6080" d="M-47.725-6.818q14.068,0,28.136,0a2.636,2.636,0,0,1,.779.078,1.267,1.267,0,0,1,.819,1.407,1.253,1.253,0,0,1-1.248,1.108c-1.132.021-2.264.007-3.4.007q-26.652,0-53.3.005c-.613,0-1.2-.125-1.39-.738a2.073,2.073,0,0,1,.1-1.315c.206-.494.736-.56,1.249-.559q6,.006,12.007,0,8.126,0,16.252,0Z" transform="translate(77.397 6.825)"></path></g><g id="Сгруппировать_2176" data-name="Сгруппировать 2176" transform="translate(14.067 58.785)"><path id="Контур_6081" data-name="Контур 6081" d="M-47.421-6.818h27.442c.208,0,.415-.008.622,0a1.356,1.356,0,0,1,1.432,1.3,1.314,1.314,0,0,1-1.422,1.294c-1.682.027-3.363.012-5.046.012h-50.6c-.068,0-.139,0-.208,0-1.092-.013-1.7-.472-1.705-1.3-.009-.808.628-1.3,1.7-1.307q4.631-.006,9.263-.005,9.262,0,18.525,0Z" transform="translate(76.904 6.823)"></path></g><g id="Сгруппировать_2194" data-name="Сгруппировать 2194" transform="translate(0 0)"><g id="Сгруппировать_2157" data-name="Сгруппировать 2157" transform="translate(0)"><path id="Контур_6069" data-name="Контур 6069" d="M-47.833-171.844A39.889,39.889,0,0,0-87.676-132,39.889,39.889,0,0,0-47.833-92.156,39.89,39.89,0,0,0-7.988-132a39.889,39.889,0,0,0-39.845-39.843m0,82.844a43.049,43.049,0,0,1-43-43,43.049,43.049,0,0,1,43-43,43.049,43.049,0,0,1,43,43,43.049,43.049,0,0,1-43,43" transform="translate(90.832 175)"></path></g></g></g></g></svg>