<svg xmlns="http://www.w3.org/2000/svg" width="86" height="86" viewBox="0 0 86 86"><g id="pc_ic_005" transform="translate(-17307.688 4885)"><g id="Сгруппировать_2261" data-name="Сгруппировать 2261" transform="translate(17307.688 -4885)"><g id="Сгруппировать_2169" data-name="Сгруппировать 2169" transform="translate(1.038 24.165)"><path id="Контур_6075" data-name="Контур 6075" d="M-53.721-110.823q-1.61,0-3.219,0a2.389,2.389,0,0,0-2.53,2.12c-.053.7-.041,1.408-.029,2.089.005.293.009.588.009.885v.771h40.667l.042-.873c.006-.118.011-.225.011-.332q0-1.009,0-2.017a2.433,2.433,0,0,0-2.634-2.641q-1.928-.006-3.858,0ZM-43.5-96.214a5.768,5.768,0,0,1,5.093,3.074A5.684,5.684,0,0,1-40.13-85.8c-.371.266-.74.535-1.132.82l-2.21,1.606,2.043.186.153.016a2.2,2.2,0,0,0,.271.018l17.476.008q1.037,0,2.071,0a2.448,2.448,0,0,0,2.687-2.517l0-16.422h-40.7v11.666l1.091-.352c.077-.024.134-.043.19-.064l3.7-1.463q4.407-1.737,8.809-3.489a5.839,5.839,0,0,1,2.176-.423M-68.006-67.259q-2.388-.02-4.777-.016-1.946,0-3.89.005c-1.021,0-.752,0-1.775,0l-1.29-2.824,6.5,0q3.119,0,6.239-.014a13.158,13.158,0,0,0,6.858-1.98A22.815,22.815,0,0,0-55-76.622l.669-.761a38.4,38.4,0,0,1,4.82-4.87c1.851-1.463,3.785-2.9,5.654-4.28q1.06-.785,2.115-1.571a2.976,2.976,0,0,0,1.061-3.256,2.839,2.839,0,0,0-2.665-2.02l-.1,0a4.747,4.747,0,0,0-1.555.36q-7.476,2.944-14.945,5.9L-64.539-85.3l-.582.226-1.037-2.618.641-.256c.778-.31,1.556-.62,2.34-.916a1.23,1.23,0,0,0,.863-1.25q-.012-5.56,0-11.123v-5.232h-2.063l-.8,0a3.158,3.158,0,0,0-2.051.723c-4.164,3.327-15.719,11.982-19.891,15.3V-94.1c.225-.162,7.831-5.663,8.048-5.834q5.025-4,10.048-8.009A5.765,5.765,0,0,1-65.3-109.28l1.364,0c.253,0,.505,0,.757.007h0a1.153,1.153,0,0,0,1.186-.817,5.261,5.261,0,0,1,4.988-3.537q4.657-.006,9.316-.005l13.894,0,6.9,0q2.863,0,5.725.014a5.281,5.281,0,0,1,5.111,4.268,10.621,10.621,0,0,1,.1,1.9v.321q.011,10.8,0,21.6a5.3,5.3,0,0,1-5.354,5.2q-2.983.009-5.966.008H-41.578q-2.538,0-5.076-.006a1.828,1.828,0,0,0-1.271.485,62.947,62.947,0,0,0-5.319,5.478A23.042,23.042,0,0,1-59.287-69.4a17.226,17.226,0,0,1-8.548,2.139Z" transform="translate(87.12 113.635)"></path></g><g id="Сгруппировать_2193" data-name="Сгруппировать 2193" transform="translate(0 0)"><g id="Сгруппировать_2157" data-name="Сгруппировать 2157" transform="translate(0)"><path id="Контур_6069" data-name="Контур 6069" d="M-47.833-171.844A39.889,39.889,0,0,0-87.676-132,39.889,39.889,0,0,0-47.833-92.156,39.89,39.89,0,0,0-7.988-132a39.889,39.889,0,0,0-39.845-39.843m0,82.844a43.049,43.049,0,0,1-43-43,43.049,43.049,0,0,1,43-43,43.049,43.049,0,0,1,43,43,43.049,43.049,0,0,1-43,43" transform="translate(90.832 175)"></path></g></g></g></g></svg>