<svg width="60" height="60" viewBox="0 0 60 60" fill="none" xmlns="http://www.w3.org/2000/svg">
<path fill-rule="evenodd" clip-rule="evenodd" d="M30 60C46.5685 60 60 46.5685 60 30C60 13.4315 46.5685 0 30 0C13.4315 0 0 13.4315 0 30C0 46.5685 13.4315 60 30 60ZM37 19.9813H34.2615C32.1142 19.9813 31.6992 21.0362 31.6979 22.5775V26.2513H36.5438L35.8801 31.5837H31.6992V45H26.3571V31.5825H22V26.25H26.3571V22.0487C26.3571 17.4837 29.0619 15 33.0103 15C34.9027 15 36.5275 15.1462 37 15.2113V19.9813Z" fill="black"/>
</svg>
