<svg width="60" height="60" viewBox="0 0 60 60" fill="none" xmlns="http://www.w3.org/2000/svg">
<path fill-rule="evenodd" clip-rule="evenodd" d="M30 60C46.5685 60 60 46.5685 60 30C60 13.4315 46.5685 0 30 0C13.4315 0 0 13.4315 0 30C0 46.5685 13.4315 60 30 60ZM15.5621 15.5621C16.5623 14.5619 17.9188 14 19.3333 14H40.6667C42.0812 14 43.4377 14.5619 44.4379 15.5621C45.4381 16.5623 46 17.9188 46 19.3333V40.6667C46 42.0812 45.4381 43.4377 44.4379 44.4379C43.4377 45.4381 42.0812 46 40.6667 46H19.3333C17.9188 46 16.5623 45.4381 15.5621 44.4379C14.5619 43.4377 14 42.0812 14 40.6667V19.3333C14 17.9188 14.5619 16.5623 15.5621 15.5621ZM42.5523 42.5523C43.0524 42.0522 43.3333 41.3739 43.3333 40.6667V19.3333C43.3333 18.6261 43.0524 17.9478 42.5523 17.4477C42.0522 16.9476 41.3739 16.6667 40.6667 16.6667H19.3333C18.6261 16.6667 17.9478 16.9476 17.4477 17.4477C16.9476 17.9478 16.6667 18.6261 16.6667 19.3333V40.6667C16.6667 41.3739 16.9476 42.0522 17.4477 42.5523C17.9478 43.0524 18.6261 43.3333 19.3333 43.3333H40.6667C41.3739 43.3333 42.0522 43.0524 42.5523 42.5523ZM25.5554 23.3482C26.871 22.4692 28.4178 22 30 22C32.1217 22 34.1566 22.8429 35.6569 24.3431C37.1572 25.8434 38 27.8783 38 30C38 31.5823 37.5308 33.129 36.6518 34.4446C35.7727 35.7602 34.5233 36.7855 33.0615 37.391C31.5997 37.9965 29.9911 38.155 28.4393 37.8463C26.8874 37.5376 25.462 36.7757 24.3432 35.6569C23.2243 34.538 22.4624 33.1126 22.1537 31.5607C21.845 30.0089 22.0035 28.4003 22.609 26.9385C23.2145 25.4767 24.2398 24.2273 25.5554 23.3482ZM27.037 34.4345C27.914 35.0205 28.9452 35.3333 30 35.3333C31.4145 35.3333 32.771 34.7714 33.7712 33.7712C34.7714 32.771 35.3333 31.4145 35.3333 30C35.3333 28.9452 35.0205 27.914 34.4345 27.037C33.8485 26.1599 33.0155 25.4763 32.041 25.0726C31.0664 24.669 29.9941 24.5634 28.9595 24.7691C27.925 24.9749 26.9746 25.4829 26.2288 26.2288C25.4829 26.9746 24.9749 27.925 24.7691 28.9595C24.5634 29.9941 24.669 31.0664 25.0726 32.041C25.4763 33.0155 26.1599 33.8485 27.037 34.4345ZM38.6667 23.3333C39.7712 23.3333 40.6667 22.4379 40.6667 21.3333C40.6667 20.2288 39.7712 19.3333 38.6667 19.3333C37.5621 19.3333 36.6667 20.2288 36.6667 21.3333C36.6667 22.4379 37.5621 23.3333 38.6667 23.3333Z" fill="black"/>
</svg>
