<svg width="60" height="60" viewBox="0 0 60 60" fill="none" xmlns="http://www.w3.org/2000/svg">
<path fill-rule="evenodd" clip-rule="evenodd" d="M30 60C46.5685 60 60 46.5685 60 30C60 13.4315 46.5685 0 30 0C13.4315 0 0 13.4315 0 30C0 46.5685 13.4315 60 30 60ZM25.5238 40.5801L25.987 34.1585L37.9188 23.5981C38.4379 23.145 37.8068 22.8943 37.1126 23.3474L22.3621 32.445L16.0117 30.4981C14.6304 30.0761 14.6047 29.1446 16.2999 28.496L41.1388 19.1224C42.2892 18.7003 43.2949 19.3731 42.9204 21.0935L42.9192 21.0946L38.6934 40.6123C38.3749 41.99 37.5431 42.3316 36.3624 41.683L29.9246 37.0358L26.8177 39.9626C26.4735 40.2995 26.1865 40.5801 25.5238 40.5801Z" fill="black"/>
</svg>
