<svg width="60" height="60" viewBox="0 0 60 60" fill="none" xmlns="http://www.w3.org/2000/svg">
<path fill-rule="evenodd" clip-rule="evenodd" d="M30 60C46.5685 60 60 46.5685 60 30C60 13.4315 46.5685 0 30 0C13.4315 0 0 13.4315 0 30C0 46.5685 13.4315 60 30 60ZM30.569 13C34.9642 13.0018 39.0898 14.7048 42.192 17.7957C45.2943 20.8864 47.0018 24.9947 47 29.3642C46.9966 38.3804 39.6249 45.7164 30.5692 45.7164H30.5623C27.8125 45.7156 25.1105 45.029 22.7104 43.726L14 46L16.3311 37.5264C14.8931 35.0466 14.1366 32.2332 14.1378 29.3512C14.1415 20.3354 21.5123 13 30.569 13ZM30.5633 42.9548H30.569C38.0965 42.9548 44.2227 36.8575 44.2259 29.3632C44.2271 25.7315 42.808 22.3167 40.2296 19.7476C37.6513 17.1786 34.2223 15.763 30.5745 15.7618C23.0415 15.7618 16.9149 21.8585 16.9121 29.3522C16.9109 31.9202 17.6328 34.4214 18.9999 36.5854L19.3247 37.0996L17.9451 42.1151L23.114 40.7656L23.6125 41.0603C25.7096 42.2984 28.1129 42.9538 30.5633 42.9548ZM35.2546 31.4461C35.6311 31.5826 37.6496 32.5708 38.0601 32.7754C38.1406 32.8156 38.2159 32.8518 38.2857 32.8854C38.5714 33.0228 38.7644 33.1156 38.8467 33.2526C38.9496 33.4232 38.9496 34.2411 38.6075 35.1956C38.2651 36.15 36.6252 37.0211 35.8363 37.1385C35.1287 37.2436 34.234 37.2875 33.2504 36.9766C32.654 36.7882 31.8894 36.5371 30.9098 36.1157C27.0612 34.462 24.4601 30.7495 23.9684 30.0478C23.9339 29.9986 23.9098 29.9642 23.8964 29.9463L23.8927 29.9415C23.6743 29.6512 22.22 27.7192 22.22 25.7196C22.22 23.8376 23.1487 22.8513 23.5763 22.3972C23.6056 22.366 23.6326 22.3373 23.6568 22.3111C24.0332 21.9018 24.4781 21.7997 24.7517 21.7997C25.0255 21.7997 25.2993 21.8021 25.5385 21.814C25.568 21.8154 25.5986 21.8152 25.6303 21.8151C25.8697 21.8137 26.1679 21.8119 26.4624 22.5153C26.5749 22.7844 26.7391 23.1824 26.9126 23.6027C27.2667 24.4608 27.6592 25.412 27.7279 25.5492C27.8308 25.7537 27.8994 25.9923 27.7623 26.2651C27.6255 26.5376 27.1805 27.1134 26.7361 27.6627C26.717 27.6861 26.6974 27.7093 26.6778 27.7325C26.5096 27.9315 26.3417 28.13 26.5559 28.4965C26.7956 28.9054 27.6195 30.2434 28.8398 31.3268C30.1523 32.4917 31.2928 32.9841 31.8706 33.2335C31.9833 33.2822 32.0745 33.3215 32.1415 33.3549C32.5522 33.5595 32.7914 33.5253 33.031 33.2526C33.2706 32.9801 34.0573 32.0596 34.3311 31.6507C34.6046 31.2418 34.8786 31.3097 35.2546 31.4461Z" fill="black"/>
</svg>
