<svg width="56" height="76" viewBox="0 0 56 76" fill="none" xmlns="http://www.w3.org/2000/svg">
<rect width="56" height="76" fill="white"/>
<path d="M9.12756 38.2673C8.59843 37.6862 8.33386 37.0156 8.33386 36.2109V13.8132C8.33386 13.0085 8.59843 12.3379 9.12756 11.8015C9.70079 11.265 10.3622 10.9968 11.1559 10.9968C11.9055 10.9968 12.5669 11.265 13.1402 11.8015C13.6693 12.3379 13.9339 13.0085 13.9339 13.8132V36.2556C13.9339 37.0603 13.6693 37.7309 13.1402 38.3121C12.5669 38.8485 11.9055 39.1168 11.1559 39.1168C10.3181 39.0721 9.6567 38.8038 9.12756 38.2673ZM13.3165 7.24147C12.6992 7.86735 11.9496 8.18029 11.1118 8.18029C10.2299 8.18029 9.48032 7.86735 8.863 7.24147C8.24567 6.61559 7.93701 5.85559 7.93701 5.00618C7.93701 4.11206 8.24567 3.35206 8.863 2.72618C9.48032 2.10029 10.2299 1.78735 11.1118 1.78735C11.9496 1.78735 12.6992 2.10029 13.3165 2.72618C13.9339 3.35206 14.2425 4.11206 14.2425 5.00618C14.2866 5.85559 13.978 6.61559 13.3165 7.24147Z" fill="black"/>
<path d="M32.1007 36.0328C34.0409 36.0328 35.7606 35.3175 37.1275 33.8869C38.5385 32.5011 39.244 30.8022 39.244 28.7905V14.6634C39.244 12.6963 38.5385 10.9528 37.1275 9.56694C35.7165 8.13635 34.0409 7.42106 32.1007 7.42106C30.1165 7.42106 28.4409 8.13635 27.074 9.56694C25.6629 10.9975 24.9574 12.6963 24.9574 14.6634V28.7905C24.9574 30.8022 25.6629 32.5011 27.074 33.8869C28.4409 35.3175 30.1165 36.0328 32.1007 36.0328ZM44.4472 39.8328C44.9763 40.414 45.2409 41.0846 45.2409 41.8446C45.2409 42.6493 44.9763 43.3199 44.4472 43.9011C43.874 44.4375 43.2125 44.7058 42.4188 44.7058C41.6692 44.7058 41.0078 44.4375 40.4346 43.9011L37.5243 40.5034C35.8047 41.3528 33.9968 41.7552 32.1007 41.7552C28.5732 41.7552 25.5747 40.5034 23.1055 37.9552C20.5921 35.4516 19.3574 32.4116 19.3574 28.8352V14.6634C19.3574 11.0869 20.5921 8.04694 23.1055 5.54341C25.5747 2.99517 28.5732 1.74341 32.1007 1.74341C35.6283 1.74341 38.6267 2.99517 41.096 5.54341C43.6094 8.04694 44.844 11.0869 44.844 14.6634V28.7905C44.844 31.8752 43.874 34.5575 41.9779 36.9269L44.4472 39.8328Z" fill="black"/>
<path d="M36.466 55.0775C28.4408 55.0775 21.518 52.3951 18.74 51.0986C17.8141 50.6963 16.844 50.4728 15.7857 50.4728H2.82193C1.89594 50.4728 1.19043 49.7128 1.19043 48.8186C1.19043 47.8798 1.94004 47.1645 2.82193 47.1645H15.7857C17.2849 47.1645 18.6959 47.4775 20.0629 48.0586C36.907 55.6586 48.1952 49.4892 51.2377 47.4328C51.9873 46.941 53.0015 47.1198 53.5306 47.8798C54.0156 48.6398 53.8393 49.6681 53.0896 50.2045C47.666 53.8704 41.8456 55.0775 36.466 55.0775Z" fill="black"/>
<path d="M14.5949 58.7881C14.7712 58.7881 14.8594 58.8328 14.9476 58.8775C14.9917 58.9222 15.0358 59.0563 15.0358 59.1905V59.8164C15.0358 59.9505 14.9917 60.0846 14.9476 60.1293C14.9035 60.174 14.7712 60.2187 14.5949 60.2187H9.17124V63.9293H13.7571C13.9334 63.9293 14.0216 63.974 14.1098 64.0187C14.1539 64.0634 14.198 64.1975 14.198 64.3316V64.9575C14.198 65.1364 14.1539 65.2258 14.1098 65.3152C14.0657 65.3599 13.9334 65.4046 13.7571 65.4046H9.17124V70.0093C9.17124 70.1434 9.12714 70.2775 9.08305 70.3222C9.03895 70.367 8.90667 70.4117 8.73029 70.4117H8.02478C7.8925 70.4117 7.76021 70.367 7.71612 70.3222C7.67202 70.2775 7.62793 70.1434 7.62793 70.0093V59.1458C7.62793 59.0116 7.67202 58.8775 7.71612 58.8328C7.76021 58.7881 7.8925 58.7434 8.02478 58.7434H14.5949V58.7881Z" fill="black"/>
<path d="M15.6973 64.9129C15.6973 63.9294 16.0059 63.1246 16.6673 62.5882C17.3288 62.007 18.2107 61.7388 19.3571 61.7388C20.5036 61.7388 21.4295 62.007 22.0469 62.5882C22.7083 63.1694 23.017 63.9294 23.017 64.9129V67.5952C23.017 68.5788 22.7083 69.3388 22.0469 69.9199C21.3855 70.5011 20.5036 70.7694 19.3571 70.7694C18.2107 70.7694 17.3288 70.5011 16.6673 69.9199C16.0059 69.3388 15.6973 68.5788 15.6973 67.5952V64.9129ZM21.5618 64.9129C21.5618 64.3317 21.3855 63.8846 20.9886 63.5717C20.5918 63.2588 20.0626 63.0799 19.3571 63.0799C18.6516 63.0799 18.1225 63.2588 17.7256 63.5717C17.3288 63.8846 17.1524 64.3317 17.1524 64.9129V67.6399C17.1524 68.2211 17.3288 68.6682 17.7256 68.9811C18.1225 69.2941 18.6516 69.4729 19.3571 69.4729C20.0626 69.4729 20.5918 69.2941 20.9886 68.9811C21.3855 68.6682 21.5618 68.2211 21.5618 67.6399V64.9129Z" fill="black"/>
<path d="M24.6487 63.4823C25.2219 62.3199 26.3242 61.7388 27.9557 61.7388C29.1904 61.7388 30.0723 62.0517 30.5573 62.6329C31.0865 63.2141 31.3069 64.0635 31.3069 65.0917V69.4282C31.3069 69.6964 31.2628 69.9199 31.1746 70.0541C31.0865 70.1882 30.9542 70.2776 30.6896 70.367C30.0282 70.6352 29.1022 70.8141 27.8676 70.8141C26.5006 70.8141 25.5746 70.5905 25.0455 70.1882C24.5164 69.7858 24.2959 69.1152 24.2959 68.1764C24.2959 67.2376 24.5605 66.5223 25.1337 66.1646C25.7069 65.7623 26.6329 65.5835 27.9557 65.5835C28.529 65.5835 29.1463 65.6282 29.8077 65.7176V65.0917C29.8077 64.4658 29.6754 63.9741 29.3668 63.6164C29.0581 63.2588 28.5731 63.1246 27.8676 63.1246C26.9416 63.1246 26.2361 63.4823 25.8392 64.1529C25.751 64.287 25.6628 64.3764 25.6187 64.3764C25.5746 64.4211 25.4424 64.3764 25.3101 64.3317L24.825 64.1082C24.5605 63.9294 24.5164 63.7505 24.6487 63.4823ZM29.8518 66.8799C28.9699 66.7905 28.3085 66.7458 27.8235 66.7458C27.0739 66.7458 26.5447 66.8352 26.2361 67.0588C25.9274 67.2823 25.7951 67.6399 25.7951 68.1317C25.7951 68.6235 25.9274 68.9364 26.192 69.1599C26.4565 69.3835 26.9857 69.5176 27.7353 69.5176C28.5731 69.5176 29.1463 69.4729 29.5431 69.3388C29.7195 69.2941 29.8077 69.1599 29.8077 68.9811V66.8799H29.8518Z" fill="black"/>
<path d="M38.6707 62.3646C39.6848 61.9623 40.6549 61.7388 41.5809 61.7388C43.6533 61.7388 44.6675 62.8117 44.6675 64.9576V70.1435C44.6675 70.2776 44.6234 70.367 44.5793 70.4564C44.5352 70.5011 44.447 70.5458 44.2707 70.5458H43.5651C43.4329 70.5458 43.3006 70.5011 43.2565 70.4564C43.2124 70.4117 43.1683 70.2776 43.1683 70.1435V65.0023C43.1683 63.7505 42.551 63.0799 41.3604 63.0799C40.7431 63.0799 40.1258 63.2141 39.4203 63.527C39.5966 63.8847 39.6848 64.3317 39.6848 64.9129V70.0988C39.6848 70.2329 39.6407 70.3223 39.5966 70.4117C39.5525 70.4564 39.4644 70.5011 39.288 70.5011H38.5825C38.4502 70.5011 38.3179 70.4564 38.2738 70.4117C38.2297 70.367 38.1856 70.2329 38.1856 70.0988V64.9576C38.1856 63.7058 37.5683 63.0352 36.3336 63.0352C35.8045 63.0352 35.2754 63.1247 34.7903 63.3035C34.6581 63.3929 34.614 63.4823 34.614 63.6611V70.0988C34.614 70.2329 34.5699 70.367 34.5258 70.4117C34.4817 70.4564 34.3494 70.5011 34.2171 70.5011H33.5116C33.3793 70.5011 33.2911 70.4564 33.2029 70.4117C33.1588 70.367 33.1147 70.2329 33.1147 70.0988V63.2141C33.1147 62.9458 33.1588 62.767 33.247 62.6329C33.3352 62.4988 33.5116 62.4094 33.7321 62.2752C34.5699 61.9176 35.4959 61.7388 36.51 61.7388C37.4801 61.7388 38.1856 61.9623 38.6707 62.3646Z" fill="black"/>
</svg>
