<svg xmlns="http://www.w3.org/2000/svg" xmlns:xlink="http://www.w3.org/1999/xlink" width="252.001" height="293.355" viewBox="0 0 252.001 293.355">
  <defs>
    <filter id="logo_prolet" x="0" y="0" width="252.001" height="293.355" filterUnits="userSpaceOnUse">
      <feOffset dy="4" input="SourceAlpha"/>
      <feGaussianBlur stdDeviation="10" result="blur"/>
      <feFlood flood-opacity="0.11"/>
      <feComposite operator="in" in2="blur"/>
      <feComposite in="SourceGraphic"/>
    </filter>
  </defs>
  <g transform="matrix(1, 0, 0, 1, 0, 0)" filter="url(#logo_prolet)">
    <path id="logo_prolet-2" data-name="logo_prolet" d="M-1893.745,185.482a47.822,47.822,0,0,1,18.87-38.064l-24.712-24.712a63.78,63.78,0,0,1-26.25,5.618A64.235,64.235,0,0,1-1990,64.162,64.236,64.236,0,0,1-1925.837,0a64.236,64.236,0,0,1,64.162,64.162A64.167,64.167,0,0,1-1891.43,118.3l24.3,24.3a47.582,47.582,0,0,1,21.261-4.985A47.927,47.927,0,0,1-1798,185.482a47.927,47.927,0,0,1-47.874,47.873A47.928,47.928,0,0,1-1893.745,185.482Zm8.886,0a39.031,39.031,0,0,0,38.987,38.988,39.031,39.031,0,0,0,38.988-38.988,39.032,39.032,0,0,0-38.988-38.99A39.032,39.032,0,0,0-1884.859,185.482Zm-96.255-121.32a55.341,55.341,0,0,0,55.277,55.279,55.341,55.341,0,0,0,55.276-55.279,55.34,55.34,0,0,0-55.276-55.277A55.34,55.34,0,0,0-1981.114,64.162Zm134.41,143.554a15.531,15.531,0,0,1-8.009-2.128,13.641,13.641,0,0,1-5.3-5.589,3.427,3.427,0,0,1,.25-3.754,4.22,4.22,0,0,1,3.63-1.795,4.264,4.264,0,0,1,4,2.379,5.651,5.651,0,0,0,5.424,3.086h.207a6.175,6.175,0,0,0,4.547-1.836,5.028,5.028,0,0,0,1.461-4.337,5.087,5.087,0,0,0-2.128-3.42,6.976,6.976,0,0,0-4.13-1.336,13.247,13.247,0,0,1-10.387-4.8,10.8,10.8,0,0,1-2.209-10.68,11.565,11.565,0,0,1,4.8-6.3,14.512,14.512,0,0,1,8.134-2.378h.125q7.839,0,11.679,6.255a3.366,3.366,0,0,1-.043,3.88,4.137,4.137,0,0,1-3.712,1.918,4.331,4.331,0,0,1-3.838-2.126,4.553,4.553,0,0,0-4.087-2.127h-.084a5.242,5.242,0,0,0-3.045.917,4,4,0,0,0-1.711,2.462,3.745,3.745,0,0,0,1,3.587,4.647,4.647,0,0,0,3.629,1.585,14.64,14.64,0,0,1,11.514,5.006,11.957,11.957,0,0,1,2.712,11.6,12.422,12.422,0,0,1-5.256,7.174,15.8,15.8,0,0,1-9.095,2.754Zm-59.6-112.908-4.171-4.214a17.509,17.509,0,0,1-7.552,1.711,16.974,16.974,0,0,1-12.513-5.215,16.969,16.969,0,0,1-5.215-12.512V48.549a16.975,16.975,0,0,1,5.215-12.514,16.978,16.978,0,0,1,12.513-5.213,16.981,16.981,0,0,1,12.515,5.213,16.978,16.978,0,0,1,5.215,12.514v26.03a17.133,17.133,0,0,1-4,11.178l3.545,3.5a3.84,3.84,0,0,1,1.126,2.755,3.886,3.886,0,0,1-1.126,2.794,3.886,3.886,0,0,1-2.795,1.126A3.835,3.835,0,0,1-1906.3,94.809ZM-1925.03,41.54a9.56,9.56,0,0,0-2.921,7.008v26.03a9.463,9.463,0,0,0,2.921,7.006,9.46,9.46,0,0,0,7.006,2.921,9.553,9.553,0,0,0,7.008-2.921,9.463,9.463,0,0,0,2.921-7.006V48.549a9.559,9.559,0,0,0-2.921-7.008,9.558,9.558,0,0,0-7.008-2.92A9.465,9.465,0,0,0-1925.03,41.54ZM-1950.017,91.1a3.888,3.888,0,0,1-1.127-2.794V53.555a3.748,3.748,0,0,1,1.127-2.753,3.884,3.884,0,0,1,2.8-1.127,3.834,3.834,0,0,1,2.753,1.127,3.741,3.741,0,0,1,1.127,2.753V88.3a3.88,3.88,0,0,1-1.127,2.794,3.837,3.837,0,0,1-2.753,1.126A3.887,3.887,0,0,1-1950.017,91.1Zm-.333-46.51a4.208,4.208,0,0,1-1.294-3.086,4.261,4.261,0,0,1,1.294-3.128,4.259,4.259,0,0,1,3.128-1.294,4.213,4.213,0,0,1,3.086,1.294,4.261,4.261,0,0,1,1.294,3.128,4.208,4.208,0,0,1-1.294,3.086,4.213,4.213,0,0,1-3.086,1.294A4.259,4.259,0,0,1-1950.35,44.585Z" transform="translate(2020 26)" fill="#fff"/>
  </g>
</svg>
