<svg xmlns="http://www.w3.org/2000/svg" viewBox="0 0 826 334" height="334" width="826">
	<g fill="#fff">
		<path d="M 45.5,0 C 53.508,0 60,6.492 60,14.5 60,22.508 53.508,29 45.5,29 37.492,29 31,22.508 31,14.5 31,6.492 37.492,0 45.5,0 Z M 33,54.997 c 0,-7.18 5.82,-13 13,-13 7.18,0 13,5.821 13,13 v 102.006 c 0,7.179 -5.82,13 -13,13 -7.18,0 -13,-5.821 -13,-13 z m 155.209,105.827 11.999,12 c 5.056,5.055 5.056,13.328 0,18.384 -5.056,5.056 -13.329,5.056 -18.384,0 L 167.339,176.723 C 159.91,180.11 151.667,182 143,182 110.524,182 84,155.477 84,123 V 59 c 0,-32.476 26.524,-59 59,-59 32.476,0 59,26.524 59,59 v 64 c 0,14.367 -5.193,27.57 -13.791,37.824 z M 143,26 c -18.124,0 -33,14.876 -33,33 v 64 c 0,18.124 14.876,33 33,33 18.124,0 33,-14.875 33,-33 V 59 C 176,40.876 161.124,26 143,26 Z" />
		<path d="M 8.001,222.012 C 3.583,222.012 0,218.427 0,214.006 0,209.584 3.582,206 8.001,206 h 55.002 c 6.016,0 15.271,1.405 20.876,3.565 30.525,11.765 56.32,17.772 79.988,17.474 23.278,-0.294 44.78,-6.75 67.083,-19.913 3.799,-2.242 8.694,-0.985 10.938,2.814 2.243,3.8 0.986,8.704 -2.813,10.946 -24.747,14.604 -48.791,21.771 -75.02,22.102 -25.84,0.326 -53.522,-6.048 -85.926,-18.537 -3.762,-1.45 -11.072,-2.439 -15.126,-2.439 z" />
		<path d="m 173,277.999 c 0,-2.209 1.791,-4 4,-4 1.906,0 3.5,1.333 3.902,3.117 2.883,-1.965 6.362,-3.116 10.098,-3.116 9.908,0 18,8.092 18,18 v 8 c 0,9.908 -8.092,18 -18,18 -3.694,0 -7.136,-1.126 -10,-3.05 v 15.052 c 0,2.209 -1.791,4 -4,4 -2.209,0 -4,-1.791 -4,-4 z M 131.003,292 c 0,-9.94 8.06,-18 18,-18 9.94,0 18,8.06 18,18 0,4.885 -3.162,8 -8.001,8 h -19.949 c 0.52,5.159 4.947,9 10.106,9 3.001,0 5.852,-1.285 7.797,-3.579 1.425,-1.682 3.942,-1.893 5.625,-0.469 1.682,1.424 1.894,3.944 0.469,5.625 -3.451,4.071 -8.556,6.423 -13.891,6.423 -9.961,0 -18.156,-7.995 -18.156,-18 z m 8,0 h 20 c 0,-5.523 -4.477,-10 -10,-10 -5.524,0 -10,4.477 -10,10 z M 89,292 c 0,-9.94 8.06,-18 18,-18 9.94,0 18,8.06 18,18 0,4.885 -3.162,8 -8,8 H 97.05 c 0.521,5.159 4.947,9 10.106,9 3.002,0 5.853,-1.285 7.797,-3.579 1.425,-1.682 3.943,-1.893 5.625,-0.469 1.683,1.424 1.894,3.944 0.469,5.625 -3.45,4.071 -8.556,6.423 -13.891,6.423 C 97.195,317 89,309.005 89,299 Z m 8,0 h 20 c 0,-5.523 -4.477,-10 -10,-10 -5.523,0 -10,4.477 -10,10 z m -56.316,-3 c -9.197,0 -16.689,-7.909 -16.689,-17 0,-9.388 7.612,-17 17.002,-17 6.81,0 12.979,4.093 15.641,10.358 0.861,2.028 -0.082,4.371 -2.11,5.234 -2.028,0.863 -4.373,-0.081 -5.235,-2.109 C 47.875,265.146 44.622,263 40.997,263 c -4.972,0 -9.001,4.029 -9.001,9 0,4.972 4.029,9 9.001,9 9.793,0 18.003,8.223 18.003,18 0,10.071 -8.332,18 -18.316,18 -7.957,0 -15.12,-5.09 -17.502,-12.719 -0.657,-2.105 0.519,-4.345 2.625,-5 2.106,-0.656 4.344,0.52 5.001,2.625 1.342,4.298 5.414,7.094 9.876,7.094 5.565,0 10.315,-4.351 10.315,-10 0,-5.649 -4.75,-10 -10.315,-10 z M 66,261.998 c 0,-2.209 1.791,-4 4,-4 2.209,0 4,1.791 4,4 v 38.573 c 0,5.209 5.205,8.429 10,8.429 2.209,0 4,1.791 4,4 0,2.209 -1.791,4 -4,4 -9.216,0 -18,-6.779 -18,-16.428 z M 181,292 v 8 c 0,5.492 4.508,10 10,10 5.492,0 10,-4.508 10,-10 v -8 c 0,-5.492 -4.508,-10 -10,-10 -5.492,0 -10,4.508 -10,10 z" />
		<path d="m 337,324 c 0,1.104 -0.896,2 -2,2 -1.104,0 -2,-0.896 -2,-2 V 9.981 c 0,-1.105 0.896,-2 2,-2 1.104,0 2,0.895 2,2 z" />
		<path d="m 424.443,108 -27.696,0.063 c -0.575,0.004 -0.747,0.175 -0.747,0.751 v 1.041 c 0.004,0.522 0.179,0.692 0.755,0.692 l 12.521,-0.029 0.088,37.735 c 0,0.576 0.175,0.747 0.751,0.747 h 1.211 c 0.518,-0.004 0.689,-0.175 0.689,-0.751 l -0.088,-37.735 12.521,-0.029 c 0.58,-0.008 0.751,-0.179 0.751,-0.701 v -1.038 c 0,-0.576 -0.176,-0.749 -0.756,-0.746 z m 79.295,78.005 c -0.419,0.001 -0.785,0.285 -0.886,0.691 l -15.78,39.614 c -0.171,0.403 -0.053,0.69 0.518,0.69 h 0.973 c 0.862,0 1.149,-0.117 1.319,-0.631 l 5.012,-12.674 19.011,-0.04 5.126,12.648 c 0.12,0.513 0.407,0.625 1.263,0.625 h 1.032 c 0,-0.024 0.903,0.08 0.571,-0.697 l -15.953,-39.538 c -0.088,-0.405 -0.446,-0.694 -0.858,-0.693 z m 0.664,2.643 c 0.113,0.833 0.308,1.661 0.574,2.46 l 8.18,20.314 -17.466,0.043 8.086,-20.356 c 0.275,-0.793 0.429,-1.625 0.454,-2.462 z m -34.662,-2.647 c -0.518,0.004 -0.689,0.175 -0.689,0.755 l 0.042,18.22 -24.395,0.05 -0.037,-18.221 c 0,-0.576 -0.179,-0.747 -0.7,-0.747 h -1.211 c -0.579,0.004 -0.75,0.175 -0.75,0.751 l 0.094,39.444 c 0.003,0.576 0.175,0.747 0.75,0.747 h 1.209 c 0.521,-0.004 0.692,-0.175 0.692,-0.75 l -0.041,-18.75 24.391,-0.055 0.041,18.744 c 0.008,0.576 0.184,0.745 0.702,0.745 h 1.208 c 0.576,0 0.747,-0.175 0.747,-0.751 l -0.086,-39.443 c 0,-0.575 -0.177,-0.751 -0.755,-0.739 z m -58.278,-0.751 c -10.195,0.025 -15.482,5.448 -15.462,14.202 l 0.035,14.112 c 0.021,8.807 5.504,14.211 15.528,14.186 9.154,-0.021 13.295,-3.77 15.241,-10.345 0.171,-0.517 0.052,-0.748 -0.469,-0.915 l -1.091,-0.401 c -0.522,-0.17 -0.75,-0.054 -0.979,0.463 -1.712,5.707 -4.989,8.711 -12.71,8.728 -8.353,0.021 -12.852,-4.466 -12.869,-11.665 l -0.034,-14.225 c -0.015,-7.259 4.291,-11.644 12.815,-11.666 7.491,-0.011 10.894,2.689 12.636,8.388 0.171,0.512 0.403,0.575 0.979,0.454 l 1.032,-0.346 c 0.518,-0.233 0.693,-0.407 0.518,-0.983 -1.971,-6.558 -6.242,-10.008 -15.17,-9.987 z M 825.085,108 l -16.541,0.031 c -7.269,0.022 -11.698,4.239 -11.673,11.558 0.017,6.577 3.6,10.431 9.66,11.11 -1.961,0.871 -3.224,2.427 -4.317,4.737 l -6.086,12.813 c -0.233,0.405 -0.175,0.751 0.401,0.751 h 1.155 c 0.868,0 1.156,-0.116 1.439,-0.634 l 5.505,-11.894 c 1.835,-3.867 4.02,-5.484 8.866,-5.497 l 9.748,-0.022 0.033,17.234 c 0,0.575 0.171,0.746 0.692,0.746 h 1.208 c 0.58,0 0.751,-0.175 0.751,-0.751 l -0.086,-39.435 c 0,-0.576 -0.171,-0.747 -0.755,-0.747 z m -1.894,2.481 0.047,17.988 -14.359,0.029 c -5.768,0.021 -9.234,-3.144 -9.247,-8.907 -0.013,-5.768 3.324,-9.057 9.204,-9.081 z m -44.092,-2.48 c -0.302,0.002 -0.581,0.152 -0.751,0.401 l -18.329,26.39 c -2.535,3.748 -4.652,6.867 -6.837,10.562 h -0.113 c 0.338,-4.148 0.388,-7.435 0.375,-11.817 l -0.057,-24.731 c 0,-0.575 -0.172,-0.746 -0.693,-0.746 h -1.209 c -0.571,0.004 -0.746,0.175 -0.746,0.754 l 0.092,39.429 c 0,0.575 0.171,0.747 0.746,0.747 l 1.283,0.009 c 0.317,0.002 0.605,-0.184 0.736,-0.473 l 18.846,-27.132 c 2.413,-3.524 4.248,-6.297 6.317,-9.757 h 0.111 c -0.275,3.864 -0.442,6.867 -0.434,11.07 l 0.063,25.478 c 0,0.579 0.171,0.75 0.751,0.75 h 1.202 c 0.517,0 0.75,-0.175 0.75,-0.75 L 781.1,108.756 c 0,-0.576 -0.22,-0.752 -0.74,-0.755 z M 735.257,108 713.11,108.051 c -0.576,0 -0.747,0.176 -0.747,0.751 l 0.086,39.451 c 0,0.576 0.175,0.747 0.751,0.747 h 1.21 c 0.522,-0.004 0.693,-0.175 0.693,-0.751 l -0.088,-37.72 20.236,-0.045 c 0.518,-0.008 0.692,-0.18 0.692,-0.702 v -1.038 c 0,-0.576 -0.17,-0.747 -0.686,-0.744 z m -53.197,-0.749 c -10.128,0.021 -15.528,5.449 -15.502,14.26 l 0.033,14.051 c 0.021,8.81 5.441,14.213 15.575,14.188 10.02,-0.026 15.418,-5.45 15.401,-14.26 l -0.033,-14.05 c -0.021,-8.81 -5.448,-14.214 -15.464,-14.189 z m 0.01,2.475 c 8.287,-0.02 12.794,4.349 12.811,11.718 l 0.029,14.05 c 0.016,7.377 -4.462,11.759 -12.758,11.776 -8.4,0.021 -12.905,-4.345 -12.922,-11.718 l -0.029,-14.051 c -0.017,-7.369 4.465,-11.753 12.869,-11.775 z m -31.096,-2.226 -22.69,0.056 c -0.578,0 -0.75,0.175 -0.75,0.753 l 0.03,13.43 c 0.05,21.246 -3.25,22.929 -7.818,25.258 -0.275,0.074 -0.467,0.323 -0.467,0.608 0,0.135 0.043,0.267 0.123,0.375 l 0.577,1.097 c 0.235,0.464 0.525,0.523 0.99,0.289 5.201,-2.621 9.307,-4.54 9.252,-27.637 l -0.025,-11.695 18.814,-0.043 0.084,37.86 c 0.004,0.577 0.176,0.749 0.758,0.749 h 1.215 c 0.523,0 0.695,-0.172 0.695,-0.749 l -0.092,-39.597 c -0.005,-0.578 -0.178,-0.754 -0.696,-0.754 z m -61.989,-0.25 c -10.134,0.026 -15.536,5.448 -15.511,14.258 l 0.033,14.048 c 0.021,8.814 5.448,14.215 15.581,14.194 10.013,-0.026 15.412,-5.449 15.395,-14.258 l -0.034,-14.047 c -0.021,-8.817 -5.443,-14.216 -15.464,-14.195 z m 0.008,2.479 c 8.288,-0.021 12.794,4.348 12.807,11.716 l 0.034,14.047 c 0.016,7.376 -4.463,11.758 -12.759,11.775 -8.405,0.021 -12.905,-4.348 -12.922,-11.716 l -0.033,-14.049 c -0.022,-7.376 4.464,-11.756 12.873,-11.773 z M 556.621,108 c -0.518,0.004 -0.688,0.175 -0.688,0.751 l 0.043,18.221 -24.39,0.055 -0.045,-18.221 c 0,-0.58 -0.176,-0.751 -0.694,-0.751 h -1.209 c -0.575,0 -0.746,0.175 -0.746,0.751 l 0.088,39.443 c 0.004,0.576 0.175,0.751 0.754,0.751 h 1.211 c 0.516,0 0.686,-0.175 0.686,-0.751 l -0.041,-18.741 24.39,-0.058 0.045,18.74 c 0,0.58 0.176,0.751 0.694,0.751 h 1.208 c 0.58,0 0.751,-0.175 0.751,-0.751 l -0.092,-39.443 c 0,-0.576 -0.171,-0.751 -0.751,-0.747 z m -45.081,0 c -0.805,0 -0.977,0.116 -1.324,0.638 l -12.819,17.443 -12.957,-17.385 c -0.346,-0.516 -0.524,-0.633 -1.325,-0.633 h -1.501 c -0.518,0 -0.634,0.345 -0.401,0.692 l 14.46,19.459 -14.773,19.918 c -0.291,0.468 -0.285,0.868 0.348,0.868 h 1.443 c 0.805,-0.005 0.98,-0.058 1.38,-0.637 l 13.22,-18.135 13.414,18.074 c 0.347,0.576 0.522,0.63 1.384,0.63 h 1.502 c 0.584,0 0.635,-0.404 0.289,-0.858 l -14.804,-19.921 14.316,-19.461 C 513.68,108.346 513.504,108 513.041,108 Z m -47.27,0.001 -23.529,0.054 c -0.576,0 -0.747,0.175 -0.747,0.751 l 0.088,39.447 c 0,0.576 0.175,0.747 0.751,0.747 l 24.339,-0.052 c 0.517,0 0.747,-0.176 0.747,-0.752 v -1.038 c -0.005,-0.518 -0.234,-0.694 -0.751,-0.694 l -22.44,0.055 -0.039,-17.021 19.148,-0.041 c 0.522,0 0.693,-0.175 0.693,-0.755 v -1.035 c 0,-0.521 -0.175,-0.694 -0.693,-0.694 l -19.148,0.047 -0.037,-16.491 21.626,-0.054 c 0.58,0 0.751,-0.171 0.751,-0.693 v -1.038 c 0,-0.576 -0.175,-0.747 -0.759,-0.743 z" />
	</g>
</svg>