<svg xmlns="http://www.w3.org/2000/svg" viewBox="0 0 243 334" height="334" width="243">
	<g fill="#fff">
		<path d="m 45,-0.001 c 8.008,0 14.5,6.492 14.5,14.5 0,8.008 -6.492,14.5 -14.5,14.5 -8.008,0 -14.5,-6.492 -14.5,-14.5 0,-8.008 6.492,-14.5 14.5,-14.5 z M 32.5,54.996 c 0,-7.179 5.82,-13 13,-13 7.18,0 13,5.821 13,13 v 102.006 c 0,7.179 -5.82,13 -13,13 -7.18,0 -13,-5.82 -13,-13 z m 155.209,105.827 11.999,12 c 5.056,5.055 5.056,13.328 0,18.384 -5.056,5.056 -13.329,5.056 -18.385,0 l -14.485,-14.485 c -7.428,3.387 -15.671,5.277 -24.338,5.277 -32.476,0 -59,-26.523 -59,-58.999 V 58.999 c 0,-32.476 26.524,-59 59,-59 32.476,0 59,26.524 59,59 V 123 c 0,14.366 -5.193,27.569 -13.791,37.823 z M 142.5,25.999 c -18.124,0 -33,14.876 -33,33 V 123 c 0,18.123 14.876,32.999 33,32.999 18.124,0 33,-14.875 33,-32.999 V 58.999 c 0,-18.124 -14.876,-33 -33,-33 z" />
		<path d="m 7.5,222.011 c -4.417,0 -8,-3.585 -8,-8.006 0,-4.422 3.582,-8.006 8,-8.006 h 55.003 c 6.015,0 15.271,1.405 20.876,3.565 30.525,11.765 56.32,17.772 79.988,17.474 23.278,-0.294 44.78,-6.75 67.083,-19.913 3.799,-2.242 8.694,-0.985 10.938,2.815 2.243,3.799 0.986,8.703 -2.813,10.945 -24.747,14.605 -48.791,21.771 -75.02,22.102 -25.84,0.326 -53.522,-6.048 -85.926,-18.537 -3.762,-1.45 -11.072,-2.439 -15.126,-2.439 z" />
		<path d="m 172.5,277.998 c 0,-2.209 1.791,-4 4,-4 1.906,0 3.5,1.333 3.902,3.117 2.883,-1.964 6.362,-3.116 10.098,-3.116 9.908,0 18,8.092 18,18 v 8 c 0,9.908 -8.092,18 -18,18 -3.694,0 -7.136,-1.126 -10,-3.049 v 15.051 c 0,2.209 -1.791,4 -4,4 -2.209,0 -4,-1.791 -4,-4 z m -41.997,14.001 c 0,-9.94 8.06,-18 18,-18 9.94,0 18,8.06 18,18 0,4.885 -3.162,8 -8.001,8 h -19.949 c 0.52,5.159 4.947,9 10.105,9 3.002,0 5.853,-1.285 7.798,-3.579 1.425,-1.681 3.942,-1.893 5.625,-0.469 1.682,1.424 1.894,3.944 0.469,5.625 -3.451,4.071 -8.556,6.423 -13.892,6.423 -9.96,0 -18.155,-7.995 -18.155,-18 z m 7.999,0 h 20.001 c 0,-5.523 -4.477,-10 -10,-10 -5.524,0 -10.001,4.477 -10.001,10 z m -50.002,0 c 0,-9.94 8.06,-18 18,-18 9.94,0 18,8.06 18,18 0,4.885 -3.162,8 -8,8 H 96.55 c 0.52,5.159 4.947,9 10.106,9 3.002,0 5.853,-1.285 7.797,-3.579 1.425,-1.681 3.942,-1.893 5.625,-0.469 1.683,1.424 1.894,3.944 0.469,5.625 -3.45,4.071 -8.556,6.423 -13.891,6.423 -9.961,0 -18.156,-7.995 -18.156,-18 z m 8,0 h 20 c 0,-5.523 -4.477,-10 -10,-10 -5.523,0 -10,4.477 -10,10 z m -56.316,-3 c -9.197,0 -16.689,-7.909 -16.689,-17 0,-9.388 7.612,-17 17.002,-17 6.81,0 12.979,4.093 15.641,10.358 0.861,2.028 -0.082,4.371 -2.11,5.234 -2.028,0.863 -4.373,-0.081 -5.235,-2.109 -1.418,-3.337 -4.671,-5.483 -8.296,-5.483 -4.972,0 -9.001,4.029 -9.001,9 0,4.972 4.029,9 9.001,9 9.793,0 18.003,8.223 18.003,18 0,10.071 -8.332,18 -18.316,18 -7.957,0 -15.12,-5.09 -17.502,-12.719 -0.657,-2.105 0.519,-4.344 2.625,-5 2.106,-0.656 4.344,0.52 5.001,2.625 1.342,4.298 5.414,7.094 9.876,7.094 5.565,0 10.315,-4.351 10.315,-10 0,-5.649 -4.75,-10 -10.315,-10 z M 65.5,261.997 c 0,-2.209 1.791,-4 4,-4 2.209,0 4,1.791 4,4 v 38.573 c 0,5.209 5.205,8.429 10,8.429 2.209,0 4,1.791 4,4 0,2.209 -1.791,4 -4,4 -9.216,0 -18,-6.779 -18,-16.428 z m 115,30.002 v 8 c 0,5.492 4.508,10 10,10 5.492,0 10,-4.508 10,-10 v -8 c 0,-5.492 -4.508,-10 -10,-10 -5.492,0 -10,4.509 -10,10 z" />
	</g>
</svg>