<svg width="42" height="42" viewBox="0 0 42 42" fill="none" xmlns="http://www.w3.org/2000/svg">
<path d="M21 41C9.9543 41 1 32.0457 1 21C1 9.9543 9.9543 1 21 1C32.0457 1 41 9.9543 41 21C41 27.8499 37.5564 33.8954 32.306 37.5" stroke="black" stroke-width="2"/>
<path d="M32.6567 33.1264C32.7265 32.5785 32.339 32.0778 31.7911 32.008C31.2433 31.9382 30.7425 32.3258 30.6727 32.8736L32.6567 33.1264ZM31 38.2171L30.008 38.0907L29.8645 39.2171H31V38.2171ZM36.9763 39.2171C37.5286 39.2171 37.9763 38.7694 37.9763 38.2171C37.9763 37.6648 37.5286 37.2171 36.9763 37.2171V39.2171ZM30.6727 32.8736L30.008 38.0907L31.992 38.3435L32.6567 33.1264L30.6727 32.8736ZM31 39.2171H36.9763V37.2171H31V39.2171Z" fill="black"/>
<path fill-rule="evenodd" clip-rule="evenodd" d="M16.2748 14.6504C16.2748 14.3742 16.4987 14.1504 16.7748 14.1504H18.0496C18.3258 14.1504 18.5496 14.3742 18.5496 14.6504V15.1576H24.2366V14.6504C24.2366 14.3742 24.4605 14.1504 24.7366 14.1504H26.0114C26.2876 14.1504 26.5114 14.3742 26.5114 14.6504V15.1576H26.8514C27.9877 15.1576 28.884 16.0698 28.9 17.1901V26.1845C28.9 27.3048 27.9877 28.2171 26.8674 28.2171H16.0325C14.9122 28.2171 14 27.3048 14 26.1845V17.1901C14 16.0698 14.9122 15.1576 16.0325 15.1576H16.2748V14.6504ZM27.5396 26.1845C27.5396 26.5526 27.2355 26.8567 26.8674 26.8567H16.0325C15.6644 26.8567 15.3604 26.5526 15.3604 26.1845V19.3347H27.5396V26.1845ZM17.0089 22.4236H18.8814C19.0254 22.4236 19.1534 22.2955 19.1534 22.1515V20.9512C19.1534 20.8071 19.0254 20.6791 18.8814 20.6791H17.0089C16.8648 20.6791 16.7368 20.8071 16.7368 20.9512V22.1515C16.7368 22.2955 16.8648 22.4236 17.0089 22.4236ZM22.3863 22.4236H20.5138C20.3538 22.4236 20.2417 22.2955 20.2417 22.1515V20.9512C20.2417 20.8071 20.3698 20.6791 20.5138 20.6791H22.3863C22.5304 20.6791 22.6584 20.8071 22.6584 20.9512V22.1515C22.6584 22.2955 22.5304 22.4236 22.3863 22.4236ZM24.0027 22.4236H25.8752C26.0192 22.4236 26.1472 22.2955 26.1472 22.1515V20.9512C26.1472 20.8071 26.0192 20.6791 25.8752 20.6791H24.0027C23.8586 20.6791 23.7306 20.8071 23.7306 20.9512V22.1515C23.7306 22.2955 23.8586 22.4236 24.0027 22.4236ZM18.8814 25.5123H17.0089C16.8648 25.5123 16.7368 25.3843 16.7368 25.2402V24.0399C16.7368 23.8959 16.8648 23.7678 17.0089 23.7678H18.8814C19.0254 23.7678 19.1534 23.8959 19.1534 24.0399V25.2402C19.1534 25.3843 19.0254 25.5123 18.8814 25.5123ZM20.5138 25.5123H22.3863C22.5304 25.5123 22.6584 25.3843 22.6584 25.2402V24.0399C22.6584 23.8959 22.5304 23.7678 22.3863 23.7678H20.5138C20.3698 23.7678 20.2417 23.8959 20.2417 24.0399V25.2402C20.2417 25.3843 20.3538 25.5123 20.5138 25.5123ZM25.8752 25.5123H24.0027C23.8586 25.5123 23.7306 25.3843 23.7306 25.2402V24.0399C23.7306 23.8959 23.8586 23.7678 24.0027 23.7678H25.8752C26.0192 23.7678 26.1472 23.8959 26.1472 24.0399V25.2402C26.1472 25.3843 26.0192 25.5123 25.8752 25.5123Z" fill="black"/>
</svg>
