<svg width="40" height="40" viewBox="0 0 40 40" fill="none" xmlns="http://www.w3.org/2000/svg">
<path d="M24.5219 27C24.247 27 23.9783 26.9176 23.7497 26.7633C23.5211 26.609 23.3429 26.3897 23.2377 26.1332C23.1325 25.8766 23.105 25.5942 23.1586 25.3218C23.2123 25.0494 23.3446 24.7992 23.539 24.6029C23.7334 24.4065 23.9811 24.2727 24.2508 24.2186C24.5204 24.1644 24.7999 24.1922 25.0539 24.2985C25.3079 24.4047 25.525 24.5847 25.6777 24.8157C25.8305 25.0466 25.912 25.3181 25.912 25.5958C25.912 25.7802 25.876 25.9628 25.8062 26.1332C25.7363 26.3035 25.6339 26.4583 25.5049 26.5887C25.3758 26.7191 25.2225 26.8226 25.0539 26.8931C24.8852 26.9637 24.7045 27 24.5219 27ZM27.8275 21.0317C27.9409 21.2608 28 21.5135 28 21.7696V24.8412C28 24.9937 27.94 25.1399 27.8333 25.2478C27.7265 25.3556 27.5817 25.4162 27.4308 25.4162H26.6358C26.5916 24.8805 26.3498 24.3812 25.9583 24.0172C25.5667 23.6532 25.0541 23.4512 24.522 23.4512C23.9899 23.4512 23.4772 23.6532 23.0856 24.0172C22.6941 24.3812 22.4523 24.8805 22.4081 25.4162H17.1038C17.0596 24.8805 16.8178 24.3812 16.4263 24.0172C16.0347 23.6532 15.522 23.4512 14.9899 23.4512C14.4578 23.4512 13.9452 23.6532 13.5536 24.0172C13.1621 24.3812 12.9202 24.8805 12.8761 25.4162H12.5693C12.4945 25.4162 12.4205 25.4013 12.3514 25.3724C12.2823 25.3435 12.2196 25.3012 12.1667 25.2478C12.1139 25.1944 12.0719 25.131 12.0433 25.0612C12.0147 24.9914 12 24.9167 12 24.8411C12 21.3559 12 17.7081 12 15.7986C12 15.6938 12.0204 15.5899 12.0602 15.493C12.0999 15.3961 12.1581 15.3081 12.2316 15.2339C12.305 15.1598 12.3921 15.1009 12.488 15.0608C12.584 15.0207 12.6868 15 12.7906 15H22.4094C22.5132 15 22.616 15.0207 22.712 15.0608C22.8079 15.1009 22.895 15.1598 22.9684 15.2339C23.0419 15.3081 23.1001 15.3961 23.1398 15.493C23.1795 15.5899 23.2 15.6938 23.2 15.7986V18.2326H26.2226C26.2885 18.2326 26.3532 18.2512 26.4093 18.2862C26.4654 18.3212 26.5108 18.3714 26.5403 18.431L27.8275 21.0317ZM27.2889 21.55L26.0025 18.951H23.2V21.7594H27.2889L27.2889 21.55ZM16.3801 25.5958C16.3801 25.3181 16.2986 25.0466 16.1458 24.8157C15.9931 24.5847 15.776 24.4048 15.522 24.2985C15.268 24.1922 14.9885 24.1644 14.7189 24.2186C14.4492 24.2727 14.2016 24.4065 14.0072 24.6029C13.8127 24.7992 13.6804 25.0494 13.6267 25.3218C13.5731 25.5942 13.6006 25.8766 13.7058 26.1331C13.811 26.3897 13.9892 26.609 14.2178 26.7633C14.4464 26.9176 14.7151 27 14.99 27C15.1726 27 15.3533 26.9637 15.522 26.8931C15.6906 26.8226 15.8439 26.7191 15.9729 26.5887C16.102 26.4583 16.2044 26.3035 16.2743 26.1332C16.3441 25.9628 16.3801 25.7802 16.3801 25.5958Z" fill="black"/>
<circle cx="20" cy="20" r="19" stroke="black" stroke-width="2"/>
</svg>
