<svg width="33" height="40" viewBox="0 0 33 40" fill="none" xmlns="http://www.w3.org/2000/svg">
<path d="M1.22927 8.66666L16.3286 1.11699L31.5698 8.66683C31.5825 8.75876 31.596 8.8634 31.6099 8.98022C31.6728 9.50996 31.7425 10.289 31.7659 11.2661C31.8127 13.2217 31.6737 15.9615 30.9289 19.0802C29.4714 25.1825 25.6879 32.7748 16.3265 38.8154C6.96813 32.7758 3.22182 25.1857 1.80044 19.0856C1.07395 15.9677 0.953155 13.2285 1.01355 11.2731C1.04373 10.2961 1.11907 9.51712 1.18586 8.98741C1.20099 8.86746 1.21567 8.76035 1.22927 8.66666Z" stroke="black" stroke-width="2"/>
<path d="M15.3893 24.5392L10.3938 19.057C10.3512 19.0021 10.3325 18.9336 10.3417 18.8661C10.3508 18.7987 10.387 18.7376 10.4426 18.696L12.0231 17.5447C12.0795 17.5043 12.1504 17.4869 12.2205 17.4964C12.2906 17.5059 12.3543 17.5414 12.398 17.5955L15.5711 20.7769L20.6712 15.4397C20.7142 15.3859 20.7776 15.3508 20.8476 15.3419C20.9177 15.3329 20.9888 15.3509 21.0458 15.3919L22.6482 16.5472C22.7044 16.5892 22.7415 16.6506 22.7514 16.7183C22.7614 16.7859 22.7435 16.8543 22.7015 16.9088L15.8305 24.5529C15.8082 24.5902 15.7761 24.6211 15.7375 24.6425C15.6988 24.6639 15.6549 24.6751 15.6101 24.675C15.5653 24.675 15.5211 24.6636 15.4821 24.642C15.4431 24.6204 15.4105 24.5894 15.3875 24.552L15.3893 24.5392Z" fill="black"/>
</svg>
