<svg width="22" height="17" viewBox="0 0 22 17" fill="none" xmlns="http://www.w3.org/2000/svg">
<path d="M17.2177 17C16.8397 17 16.4701 16.8833 16.1558 16.6647C15.8415 16.4461 15.5965 16.1355 15.4519 15.772C15.3072 15.4085 15.2694 15.0085 15.3431 14.6226C15.4169 14.2367 15.5989 13.8823 15.8662 13.604C16.1335 13.3258 16.4741 13.1364 16.8448 13.0596C17.2156 12.9829 17.5999 13.0223 17.9491 13.1728C18.2984 13.3234 18.5969 13.5784 18.8069 13.9055C19.0169 14.2326 19.129 14.6173 19.129 15.0107C19.129 15.2719 19.0796 15.5306 18.9835 15.772C18.8875 16.0133 18.7467 16.2326 18.5692 16.4174C18.3917 16.6021 18.181 16.7486 17.9491 16.8486C17.7172 16.9486 17.4687 17 17.2177 17ZM21.7629 8.54487C21.9188 8.86946 22 9.22739 22 9.5903V13.9417C22 14.1577 21.9175 14.3649 21.7708 14.5177C21.624 14.6705 21.4249 14.7563 21.2173 14.7563H20.1242C20.0635 13.9974 19.731 13.29 19.1926 12.7744C18.6542 12.2587 17.9493 11.9725 17.2177 11.9725C16.486 11.9725 15.7811 12.2587 15.2428 12.7744C14.7044 13.29 14.3719 13.9974 14.3112 14.7563H7.01772C6.95702 13.9974 6.62449 13.29 6.08611 12.7744C5.54772 12.2588 4.8428 11.9726 4.11116 11.9726C3.37952 11.9726 2.6746 12.2588 2.13621 12.7744C1.59783 13.29 1.2653 13.9974 1.2046 14.7563C0.648635 14.7563 0.515625 14.7563 0 14.7563C0 9.81892 0 2.705 0 0C3.05556 0 13.4858 0 15.4 0C15.4 1.21429 15.4 3.55199 15.4 4.57953H19.556C19.6467 4.57952 19.7357 4.60581 19.8128 4.65544C19.89 4.70508 19.9523 4.7761 19.9929 4.86055L21.7629 8.54487ZM21.0222 9.27914L19.2534 5.59719H15.4V9.5758H21.0222L21.0222 9.27914ZM6.02262 15.0107C6.02262 14.6173 5.91052 14.2327 5.70051 13.9055C5.4905 13.5784 5.19199 13.3234 4.84275 13.1728C4.49351 13.0223 4.10921 12.9829 3.73845 13.0596C3.3677 13.1364 3.02713 13.3258 2.75983 13.6041C2.49253 13.8823 2.31049 14.2367 2.23674 14.6226C2.16299 15.0085 2.20083 15.4085 2.34549 15.772C2.49015 16.1355 2.73512 16.4461 3.04943 16.6647C3.36374 16.8833 3.73327 17 4.11128 17C4.36228 17 4.61082 16.9486 4.84272 16.8486C5.07461 16.7486 5.28531 16.6021 5.4628 16.4174C5.64028 16.2326 5.78107 16.0133 5.87712 15.772C5.97318 15.5306 6.02262 15.272 6.02262 15.0107Z" fill="black"/>
</svg>
