<svg width="24" height="24" viewBox="0 0 24 24" fill="none" xmlns="http://www.w3.org/2000/svg">
<path fill-rule="evenodd" clip-rule="evenodd" d="M11.9631 24C-0.241696 16.5 2.19926 4.8 2.19926 4.8L11.9631 0L21.8185 4.8C21.8185 4.8 24.1679 16.5 11.9631 24ZM7.54514 10.778L11.2773 14.8738L11.276 14.8834C11.2931 14.9113 11.3174 14.9345 11.3466 14.9506C11.3758 14.9667 11.4087 14.9752 11.4422 14.9753C11.4757 14.9754 11.5085 14.967 11.5374 14.951C11.5663 14.935 11.5903 14.9119 11.6069 14.8841L16.7402 9.17318C16.7716 9.13245 16.785 9.08132 16.7775 9.0308C16.7701 8.98027 16.7424 8.93438 16.7004 8.903L15.5032 8.03988C15.4607 8.00925 15.4075 7.99584 15.3552 8.00251C15.3028 8.00919 15.2555 8.03541 15.2234 8.07557L11.4131 12.063L9.04245 9.68615C9.00983 9.64581 8.96223 9.61925 8.90987 9.61216C8.8575 9.60508 8.80456 9.61803 8.76239 9.64826L7.58162 10.5084C7.5401 10.5394 7.51303 10.5851 7.50621 10.6355C7.49939 10.6859 7.51336 10.7371 7.54514 10.778Z" fill="black"/>
</svg>
