<svg xmlns="http://www.w3.org/2000/svg" viewBox="0 0 69 69">
	<path fill="#000" d="M 34.5 0 C 15.5 0 0.099609375 15.5 0.099609375 34.5 C 0.099609375 53.5 15.5 68.900391 34.5 68.900391 C 53.5 68.900391 68.900391 53.400391 68.900391 34.400391 C 68.900391 15.400391 53.5 1.0685897e-16 34.5 0 z M 34.5 2 C 52.4 2 66.900391 16.500391 66.900391 34.400391 C 66.900391 52.300391 52.4 66.800781 34.5 66.800781 C 16.6 66.800781 2.0996094 52.200391 2.0996094 34.400391 C 2.0996094 16.600391 16.6 2 34.5 2 z M 49.400391 12.699219 C 49.200391 12.699219 49.100391 12.800781 48.900391 12.800781 C 48.800391 12.800781 48.6 12.9 48.5 13 C 48 13.2 47.599219 13.499219 47.199219 13.699219 L 45.599609 14.800781 C 45.499609 14.900781 45.3 14.999609 45 15.099609 C 44.8 15.199609 44.7 15.300391 44.5 15.400391 L 43.900391 15.699219 C 43.700391 15.799219 43.499219 15.800391 43.199219 15.900391 C 42.799219 16.000391 42.300391 16.099609 41.900391 16.099609 C 41.600391 16.099609 41.400391 16.099219 40.900391 16.199219 C 39.900391 16.299219 38.899609 16.399609 37.599609 16.599609 C 36.799609 16.699609 36.100781 16.9 35.300781 17 L 35 17.099609 C 34.4 17.199609 33.900391 17.3 33.400391 17.5 C 32.500391 17.7 31.5 18.000781 30.5 18.300781 C 29.8 18.500781 29.199609 18.700391 28.599609 18.900391 L 27.699219 19.199219 L 26.800781 19.5 C 26.300781 19.5 25.000391 20 24.900391 20 C 24.700391 20.1 24.500781 20.099219 24.300781 20.199219 C 23.800781 20.399219 22.400391 21 22.400391 21 C 21.200391 21.5 20.1 21.999609 19 22.599609 C 18.6 22.799609 18.099609 22.999219 17.599609 23.199219 L 16.099609 23.5 L 15.300781 23.5 C 14.700781 23.5 14.199219 23.500391 13.699219 23.400391 C 13.399219 23.400391 12.999609 23.300781 12.599609 23.300781 L 12.099609 23.300781 C 11.799609 23.300781 11.499609 23.4 11.099609 23.5 C 10.499609 23.7 9.9992188 24.099219 9.6992188 24.699219 C 9.3992187 25.199219 9.3992187 25.800781 9.6992188 26.300781 C 9.7992187 26.400781 9.8003906 26.599219 9.9003906 26.699219 L 10.5 27.300781 C 10.7 27.500781 10.899609 27.600781 11.099609 27.800781 L 11.400391 28 C 11.800391 28.3 12.2 28.6 12.5 29 C 13 29.5 13.300391 30.099219 13.400391 30.699219 C 13.500391 31.099219 13.5 31.500391 13.5 31.900391 C 13.5 31.900391 13.400391 33.199609 13.400391 33.599609 L 13.400391 35.5 C 13.500391 36.1 13.499609 36.599609 13.599609 37.099609 C 13.699609 37.699609 13.8 38.200781 14 38.800781 L 14.099609 39.199219 C 14.199609 39.399219 14.200781 39.600391 14.300781 39.900391 C 14.300781 40.000391 14.400391 40.100781 14.400391 40.300781 C 14.600391 40.900781 14.8 41.5 15 42 C 15.3 42.8 15.700781 43.6 16.300781 44.5 C 16.700781 45.1 17.1 45.599219 17.5 46.199219 C 17.9 46.799219 18.200781 47.300391 18.300781 47.900391 C 18.400781 48.400391 18.399219 48.900391 18.199219 49.400391 C 18.099219 49.900391 18.000781 50.300781 17.800781 50.800781 C 17.600781 51.300781 17.500781 51.699219 17.300781 52.199219 C 17.200781 52.499219 17.199219 52.799609 17.199219 53.099609 C 17.199219 53.599609 17.500391 54.000781 17.900391 54.300781 C 18.300391 54.600781 18.799219 54.699219 19.199219 54.699219 L 19.5 54.699219 C 19.7 54.699219 19.8 54.599609 20 54.599609 C 20.2 54.599609 20.300391 54.500391 20.400391 54.400391 C 20.900391 54.200391 21.299219 53.899219 21.699219 53.699219 L 23.300781 52.599609 C 23.400781 52.499609 23.600391 52.400781 23.900391 52.300781 C 24.100391 52.200781 24.200391 52.1 24.400391 52 L 25 51.699219 C 25.2 51.599219 25.399609 51.6 25.599609 51.5 C 25.999609 51.4 26.500391 51.300781 26.900391 51.300781 C 27.200391 51.300781 27.500391 51.299219 27.900391 51.199219 C 28.900391 51.099219 29.999219 51.000781 31.199219 50.800781 C 31.999219 50.700781 32.7 50.500391 33.5 50.400391 L 33.699219 50.400391 C 34.299219 50.300391 34.9 50.2 35.5 50 C 36.4 49.8 37.400391 49.499219 38.400391 49.199219 L 40.5 48.599609 L 41.199219 48.400391 L 42.099609 48.099609 C 42.299609 47.999609 43.800781 47.5 43.800781 47.5 C 44.000781 47.4 44.2 47.300781 44.5 47.300781 C 45 47.100781 46.400391 46.5 46.400391 46.5 C 47.600391 46 48.700781 45.500391 49.800781 44.900391 C 50.200781 44.700391 50.699219 44.500781 51.199219 44.300781 L 52.699219 44 L 53.5 44 C 54.1 44 54.599609 43.999609 55.099609 44.099609 C 55.499609 44.099609 55.799219 44.199219 56.199219 44.199219 L 56.599609 44.199219 C 56.899609 44.199219 57.199609 44.1 57.599609 44 C 58.199609 43.8 58.7 43.400781 59 42.800781 C 59.5 42.000781 59.499219 41.5 59.199219 41 C 59.099219 40.9 59.1 40.799219 59 40.699219 L 58.400391 40.099609 C 58.200391 39.899609 58.000781 39.799609 57.800781 39.599609 L 57.5 39.400391 C 57.2 39.200391 56.800391 38.800391 56.400391 38.400391 C 55.900391 37.900391 55.6 37.299219 55.5 36.699219 C 55.4 36.299219 55.400391 35.9 55.400391 35.5 C 55.400391 35.5 55.5 34.200781 55.5 33.800781 L 55.5 31.900391 C 55.4 31.300391 55.400781 30.799219 55.300781 30.199219 C 55.200781 29.599219 55.100391 29.1 54.900391 28.5 L 54.800781 28.300781 C 54.700781 28.000781 54.599609 27.8 54.599609 27.5 C 54.599609 27.4 54.400391 26.800781 54.400391 26.800781 C 54.300391 26.300781 54.100391 25.900391 53.900391 25.400391 C 53.600391 24.600391 53.199609 23.800391 52.599609 22.900391 C 52.199609 22.300391 51.800391 21.799219 51.400391 21.199219 C 51.000391 20.599219 50.699609 20.1 50.599609 19.5 C 50.499609 19 50.499219 18.5 50.699219 18 C 50.799219 17.5 50.899609 17.099609 51.099609 16.599609 C 51.299609 16.099609 51.399609 15.699219 51.599609 15.199219 C 51.699609 14.899219 51.699219 14.600781 51.699219 14.300781 C 51.699219 13.800781 51.5 13.399609 51 13.099609 C 50.6 12.799609 50.099219 12.699219 49.699219 12.699219 L 49.400391 12.699219 z M 49.400391 14.199219 L 49.800781 14.5 C 49.800781 14.6 49.799219 14.700781 49.699219 14.800781 C 49.599219 15.000781 49.5 15.3 49.5 15.5 C 49.3 16.1 49.100391 16.599219 48.900391 17.199219 C 48.700391 17.999219 48.599219 18.8 48.699219 19.5 C 48.799219 20.2 49.000391 20.900391 49.400391 21.400391 C 49.600391 21.700391 49.799609 22.100391 50.099609 22.400391 C 50.799609 23.300391 51.299219 24.100391 51.699219 24.900391 C 52.099219 25.700391 52.399609 26.399219 52.599609 27.199219 C 52.599609 27.199219 52.900391 28.300391 52.900391 28.400391 C 53.100391 29.000391 53.200391 29.599219 53.400391 30.199219 C 53.500391 30.699219 53.599609 31.199219 53.599609 31.699219 C 53.699609 32.499219 53.699609 33.200391 53.599609 33.900391 C 53.599609 33.900391 53.5 34.8 53.5 35 C 53.4 35.8 53.499219 36.499609 53.699219 37.099609 C 53.999219 37.899609 54.4 38.599219 55 39.199219 C 55.4 39.599219 55.800781 39.900781 56.300781 40.300781 L 57.099609 41 L 57.400391 41.300781 L 57.400391 42.099609 L 57.199219 42.199219 L 56.800781 42.199219 L 55.5 42.199219 L 54.900391 42.199219 L 53.699219 42.199219 L 53.300781 42.199219 C 52.400781 42.199219 51.7 42.4 51 42.5 C 50.8 42.5 50.7 42.599219 50.5 42.699219 C 50.1 42.899219 49.699219 43.000781 49.199219 43.300781 L 48.400391 43.699219 C 48.000391 43.899219 47.700781 44.100781 47.300781 44.300781 C 46.700781 44.600781 46.199609 44.799609 45.599609 45.099609 L 45.099609 45.300781 C 44.999609 45.300781 44.899219 45.400391 44.699219 45.400391 L 44.5 45.5 C 43.5 45.9 42.500391 46.299609 41.400391 46.599609 C 41.200391 46.699609 40.5 46.900391 40.5 46.900391 C 40.1 47.000391 39.700781 47.200781 39.300781 47.300781 L 37.300781 47.900391 C 37.200781 47.900391 35.099609 48.4 34.599609 48.5 C 34.299609 48.6 32.300781 49 32.300781 49 C 31.500781 49.2 30.700391 49.300391 29.900391 49.400391 L 29 49.300781 C 28.6 49.300781 28.200391 49.400391 27.900391 49.400391 C 27.600391 49.400391 27.399609 49.5 27.099609 49.5 C 26.899609 49.5 26.600391 49.499609 26.400391 49.599609 C 26.100391 49.599609 25.700391 49.700781 25.400391 49.800781 C 25.000391 49.900781 24.599219 50.099219 24.199219 50.199219 C 23.299219 50.599219 22.400781 51.199609 21.800781 51.599609 C 21.400781 51.899609 21 52.2 20.5 52.5 C 20.3 52.6 20.099219 52.800391 19.699219 52.900391 L 19.300781 52.599609 C 19.300781 52.499609 19.300391 52.400781 19.400391 52.300781 C 19.500391 52.100781 19.599219 51.799609 19.699219 51.599609 C 19.899219 50.999609 20.100781 50.500391 20.300781 49.900391 C 20.500781 49.100391 20.6 48.299609 20.5 47.599609 C 20.4 46.899609 20.200781 46.199219 19.800781 45.699219 C 19.600781 45.399219 19.399609 44.999219 19.099609 44.699219 C 18.399609 43.799219 17.9 42.999219 17.5 42.199219 C 17.2 41.499219 16.799609 40.700391 16.599609 39.900391 L 16.400391 39.199219 C 16.400391 38.999219 16.300781 38.899219 16.300781 38.699219 C 16.100781 38.099219 16.000781 37.500391 15.800781 36.900391 C 15.700781 36.400391 15.599609 35.900391 15.599609 35.400391 C 15.499609 34.600391 15.499609 33.899219 15.599609 33.199219 C 15.599609 33.199219 15.699219 32.299609 15.699219 32.099609 C 15.799219 31.299609 15.7 30.6 15.5 30 C 15.2 29.2 14.799219 28.500391 14.199219 27.900391 C 13.799219 27.500391 13.4 27.200781 13 26.800781 L 12.099609 26.099609 C 11.999609 25.999609 11.900781 25.899219 11.800781 25.699219 L 12 25.300781 L 12.199219 25.199219 C 12.299219 25.199219 12.4 25.199609 12.5 25.099609 L 14 25.099609 L 14.5 25.099609 C 14.9 25.099609 15.300781 25.199219 15.800781 25.199219 L 16.199219 25.199219 C 17.099219 25.199219 17.8 25.000391 18.5 24.900391 C 18.7 24.800391 18.9 24.799219 19 24.699219 C 19.4 24.599219 19.699609 24.399219 20.099609 24.199219 L 21.199219 23.599609 C 21.499219 23.399609 21.799609 23.299609 22.099609 23.099609 C 22.699609 22.799609 23.300781 22.600781 23.800781 22.300781 L 24.300781 22.099609 C 24.400781 21.999609 24.499609 22 24.599609 22 L 24.900391 21.900391 C 25.800391 21.600391 26.9 21.200781 28 20.800781 C 28.2 20.700781 28.3 20.699609 28.5 20.599609 L 29 20.400391 C 29.4 20.300391 29.699609 20.2 30.099609 20 L 31.099609 19.699219 C 31.399609 19.699219 31.799219 19.599609 32.199219 19.599609 C 34.499219 19.599609 37.099219 20.499609 39.699219 22.099609 C 39.799219 22.199609 39.999609 22.199219 40.099609 22.199219 L 40.300781 22.199219 C 40.500781 22.099219 40.599219 22.000391 40.699219 21.900391 C 40.899219 21.500391 40.8 21.100781 40.5 20.800781 C 39.2 20.000781 37.899609 19.300391 36.599609 18.900391 L 36.599609 18.400391 L 36.800781 18.300781 C 37.600781 18.100781 38.399609 18.000391 39.099609 17.900391 C 39.399609 17.900391 39.599609 17.800781 40.099609 17.800781 C 40.499609 17.800781 40.799609 17.699219 41.099609 17.699219 C 41.399609 17.699219 41.6 17.599609 42 17.599609 C 42.2 17.599609 42.399219 17.6 42.699219 17.5 C 42.999219 17.5 43.399219 17.400781 43.699219 17.300781 C 44.099219 17.200781 44.500391 17.000391 44.900391 16.900391 C 45.800391 16.500391 46.600781 15.9 47.300781 15.5 C 47.700781 15.2 48.099609 14.899609 48.599609 14.599609 C 48.799609 14.499609 49.000391 14.299219 49.400391 14.199219 z " />
</svg>