<svg xmlns="http://www.w3.org/2000/svg" viewBox="0 0 70 70">
	<g stroke="#000" stroke-width="2" stroke-linecap="round" stroke-linejoin="round">
		<circle fill="none" cx="35" cy="35" r="34" />
		<path fill="none" d="M15 17l12 0m-12 36l12 0m-12 -4l7 0m-7 -4l7 0m-7 -4l7 0m-7 -4l7 0m-7 -4l12 0m-12 -4l7 0m-7 -4l7 0m-7 -4l7 0" />
		<g fill="#000" stroke-width="0">
			<path d="M 36.990234 16 L 35 17.330078 L 35 19.361328 L 36.990234 18.138672 L 36.990234 30 L 38.957031 30 L 38.957031 16 L 36.990234 16 z M 42.488281 16 L 40.498047 17.330078 L 40.498047 19.361328 L 42.488281 18.138672 L 42.488281 30 L 44.453125 30 L 44.453125 16 L 42.488281 16 z" />
			<path d="M 44.488281 39 C 43.796281 39 43.184391 39.137062 42.650391 39.414062 C 42.115391 39.691063 41.673266 40.098813 41.322266 40.632812 C 40.974266 41.167813 40.737328 41.808594 40.611328 42.558594 L 42.5625 42.558594 C 42.6455 42.175594 42.775078 41.856609 42.955078 41.599609 C 43.136078 41.344609 43.354328 41.157156 43.611328 41.035156 C 43.869328 40.913156 44.163281 40.851562 44.488281 40.851562 C 45.061281 40.851562 45.501453 40.996969 45.814453 41.292969 C 46.123453 41.589969 46.28125 42.007828 46.28125 42.548828 L 46.28125 42.972656 C 46.28125 43.555656 46.134891 44.010031 45.837891 44.332031 C 45.541891 44.651031 45.126797 44.8125 44.591797 44.8125 L 43.621094 44.8125 L 43.621094 46.640625 L 44.591797 46.640625 C 45.203797 46.640625 45.672812 46.827125 46.007812 47.203125 C 46.339812 47.577125 46.507812 48.106969 46.507812 48.792969 L 46.507812 49.207031 C 46.507813 49.825031 46.329516 50.301578 45.978516 50.642578 C 45.627516 50.980578 45.132047 51.152344 44.498047 51.152344 C 44.095047 51.152344 43.744312 51.09175 43.445312 50.96875 C 43.149312 50.84675 42.904844 50.655297 42.714844 50.404297 C 42.527844 50.152297 42.405656 49.834406 42.347656 49.441406 L 40.386719 49.441406 C 40.479719 50.191406 40.704594 50.832281 41.058594 51.363281 C 41.416594 51.895281 41.88675 52.300078 42.46875 52.580078 C 43.05475 52.857078 43.732047 53 44.498047 53 C 45.329047 53 46.037953 52.852641 46.626953 52.556641 C 47.212953 52.259641 47.65975 51.830672 47.96875 51.263672 C 48.27775 50.697672 48.433594 50.014797 48.433594 49.216797 L 48.433594 48.990234 C 48.433594 48.102234 48.226453 47.375734 47.814453 46.802734 C 47.402453 46.229734 46.822266 45.862266 46.072266 45.697266 C 46.752266 45.466266 47.277391 45.095891 47.650391 44.587891 C 48.020391 44.075891 48.203125 43.478969 48.203125 42.792969 L 48.203125 42.568359 C 48.203125 41.434359 47.881375 40.557594 47.234375 39.933594 C 46.583375 39.311594 45.670281 39 44.488281 39 z M 36.951172 39.142578 L 35 40.445312 L 35 42.435547 L 36.951172 41.238281 L 36.951172 52.857422 L 38.876953 52.857422 L 38.876953 39.142578 L 36.951172 39.142578 z" />
		</g>
	</g>
</svg>