<svg xmlns="http://www.w3.org/2000/svg" viewBox="0 0 69 69">
	<path fill="#000" d="M 34.5 0 C 15.5 0 0 15.5 0 34.5 C 0 53.5 15.5 69 34.5 69 C 53.5 69 69 53.5 69 34.5 C 69 15.5 53.5 0 34.5 0 z M 34.5 2 C 52.4 2 67 16.6 67 34.5 C 67 52.4 52.4 67 34.5 67 C 16.6 67 2 52.4 2 34.5 C 2 16.6 16.6 2 34.5 2 z M 35.400391 8.8007812 C 34.500391 8.8007813 33.800781 9.5003906 33.800781 10.400391 C 33.800781 11.300391 34.500391 12 35.400391 12 C 36.300391 12 37.1 11.300391 37 10.400391 C 37 9.5003906 36.300391 8.8007812 35.400391 8.8007812 z M 27 9.6992188 C 26.1 9.6992188 25.400391 10.400781 25.400391 11.300781 C 25.400391 12.200781 26.1 12.900391 27 12.900391 C 27.9 12.900391 28.699609 12.200781 28.599609 11.300781 C 28.599609 10.400781 27.9 9.6992188 27 9.6992188 z M 44.599609 10.099609 C 43.699609 10.099609 43 10.799219 43 11.699219 C 43 12.599219 43.699609 13.300781 44.599609 13.300781 C 45.499609 13.300781 46.299219 12.599219 46.199219 11.699219 C 46.199219 10.799219 45.499609 10.099609 44.599609 10.099609 z M 20.900391 13.599609 C 20.000391 13.599609 19.300781 14.299219 19.300781 15.199219 C 19.300781 16.099219 20.000391 16.800781 20.900391 16.800781 C 21.800391 16.800781 22.5 16.099219 22.5 15.199219 C 22.5 14.299219 21.800391 13.599609 20.900391 13.599609 z M 31.599609 14.199219 C 30.699609 14.199219 30 14.900781 30 15.800781 C 30 16.700781 30.699609 17.400391 31.599609 17.400391 C 32.499609 17.400391 33.199219 16.700781 33.199219 15.800781 C 33.199219 14.900781 32.499609 14.199219 31.599609 14.199219 z M 40 14.199219 C 39.1 14.199219 38.400391 14.900781 38.400391 15.800781 C 38.400391 16.700781 39.1 17.400391 40 17.400391 C 40.9 17.400391 41.599609 16.700781 41.599609 15.800781 C 41.599609 14.900781 40.9 14.199219 40 14.199219 z M 49.5 14.199219 C 48.6 14.199219 47.900391 14.900781 47.900391 15.800781 C 47.900391 16.700781 48.6 17.400391 49.5 17.400391 C 50.4 17.400391 51.099609 16.700781 51.099609 15.800781 C 51.099609 14.900781 50.4 14.199219 49.5 14.199219 z M 25.300781 17.699219 C 24.400781 17.699219 23.699219 18.400781 23.699219 19.300781 C 23.699219 20.200781 24.400781 20.900391 25.300781 20.900391 C 26.200781 20.900391 26.900391 20.200781 26.900391 19.300781 C 26.900391 18.400781 26.200781 17.699219 25.300781 17.699219 z M 15.5 18.199219 C 14.6 18.199219 13.900391 18.900781 13.900391 19.800781 C 13.900391 20.700781 14.6 21.400391 15.5 21.400391 C 16.4 21.400391 17.099609 20.700781 17.099609 19.800781 C 17.099609 18.900781 16.4 18.199219 15.5 18.199219 z M 35.099609 18.199219 C 34.199609 18.199219 33.5 18.900781 33.5 19.800781 C 33.5 20.700781 34.199609 21.400391 35.099609 21.400391 C 35.999609 21.400391 36.699219 20.700781 36.699219 19.800781 C 36.699219 18.900781 35.999609 18.199219 35.099609 18.199219 z M 44.599609 18.199219 C 43.699609 18.199219 43 18.900781 43 19.800781 C 43 20.700781 43.699609 21.400391 44.599609 21.400391 C 45.499609 21.400391 46.299219 20.700781 46.199219 19.800781 C 46.199219 18.900781 45.499609 18.199219 44.599609 18.199219 z M 53.699219 20 C 52.799219 20 52.099609 20.699609 52.099609 21.599609 C 52.099609 22.499609 52.799219 23.199219 53.699219 23.199219 C 54.599219 23.199219 55.400781 22.399609 55.300781 21.599609 C 55.300781 20.699609 54.599219 20 53.699219 20 z M 41.199219 22.599609 C 40.299219 22.599609 39.599609 23.299219 39.599609 24.199219 C 39.599609 25.099219 40.299219 25.800781 41.199219 25.800781 C 42.099219 25.800781 42.800781 25.099219 42.800781 24.199219 C 42.800781 23.299219 42.099219 22.599609 41.199219 22.599609 z M 21 22.900391 C 20.1 22.900391 19.400391 23.6 19.400391 24.5 C 19.400391 25.4 20.1 26.099609 21 26.099609 C 21.9 26.099609 22.699609 25.3 22.599609 24.5 C 22.599609 23.6 21.9 22.900391 21 22.900391 z M 30.599609 22.900391 C 29.699609 22.900391 29 23.6 29 24.5 C 29 25.4 29.699609 26.099609 30.599609 26.099609 C 31.499609 26.099609 32.199219 25.3 32.199219 24.5 C 32.199219 23.6 31.499609 22.900391 30.599609 22.900391 z M 48.699219 23.400391 C 47.799219 23.400391 47.099609 24.1 47.099609 25 C 47.099609 25.9 47.799219 26.599609 48.699219 26.599609 C 49.599219 26.599609 50.400781 25.9 50.300781 25 C 50.300781 24.1 49.599219 23.400391 48.699219 23.400391 z M 12.5 24.099609 C 11.6 24.099609 10.900391 24.799219 10.900391 25.699219 C 10.900391 26.599219 11.6 27.300781 12.5 27.300781 C 13.4 27.300781 14.099609 26.499219 14.099609 25.699219 C 14.099609 24.799219 13.4 24.099609 12.5 24.099609 z M 36.400391 26.5 C 35.500391 26.5 34.800781 27.199609 34.800781 28.099609 C 34.800781 28.999609 35.500391 29.699219 36.400391 29.699219 C 37.300391 29.699219 38 28.899609 38 28.099609 C 38 27.199609 37.300391 26.5 36.400391 26.5 z M 55.5 26.5 C 54.6 26.5 53.900391 27.199609 53.900391 28.099609 C 53.900391 28.999609 54.6 29.699219 55.5 29.699219 C 56.4 29.699219 57.099609 28.899609 57.099609 28.099609 C 57.099609 27.199609 56.4 26.5 55.5 26.5 z M 22.599609 28 C 13.299609 28 6.2992187 33.9 6.1992188 34 C 5.7992188 34.3 5.7996094 34.900781 6.0996094 35.300781 C 6.2996094 35.500781 6.5007813 35.599609 6.8007812 35.599609 C 7.0007812 35.599609 7.2003906 35.500391 7.4003906 35.400391 C 7.7003906 35.200391 14.000391 29.800781 22.400391 29.800781 C 27.300391 29.800781 32.000781 31.700391 36.300781 35.400391 C 36.500781 35.600391 40.399219 39.5 48.199219 39.5 C 52.699219 39.5 57.599609 38.099609 62.599609 35.599609 C 63.099609 35.299609 63.2 34.800781 63 34.300781 C 62.9 34.000781 62.599219 33.800781 62.199219 33.800781 C 62.099219 33.800781 61.900781 33.800391 61.800781 33.900391 C 57.000781 36.300391 52.500781 37.599609 48.300781 37.599609 C 41.600781 37.599609 38.099219 34.4 37.699219 34 C 33.099219 30 27.999609 28 22.599609 28 z M 43.599609 28.199219 C 42.699609 28.199219 42 28.900781 42 29.800781 C 42 30.700781 42.699609 31.400391 43.599609 31.400391 C 44.499609 31.400391 45.299219 30.700781 45.199219 29.800781 C 45.199219 28.900781 44.499609 28.199219 43.599609 28.199219 z M 50.5 30.5 C 49.6 30.5 48.900391 31.199609 48.900391 32.099609 C 48.900391 32.999609 49.6 33.699219 50.5 33.699219 C 51.4 33.699219 52.099609 32.999609 52.099609 32.099609 C 52.099609 31.199609 51.4 30.5 50.5 30.5 z M 23 33.400391 C 22.7 33.400391 22.500781 33.499219 22.300781 33.699219 L 10.400391 48.699219 C 10.100391 49.099219 10.2 49.6 10.5 50 C 10.7 50.1 10.899609 50.199219 11.099609 50.199219 C 11.399609 50.099219 11.600781 50.000781 11.800781 49.800781 L 23.699219 34.900391 C 23.999219 34.500391 23.899609 33.999609 23.599609 33.599609 C 23.399609 33.499609 23.2 33.400391 23 33.400391 z M 16.099609 33.5 C 15.799609 33.5 15.600391 33.600781 15.400391 33.800781 L 7.6992188 43.5 C 7.5992188 43.7 7.5 43.899219 7.5 44.199219 C 7.5 44.399219 7.6007812 44.600781 7.8007812 44.800781 C 8.1007813 44.900781 8.2 45 8.5 45 C 8.7 45 8.9996094 44.899219 9.0996094 44.699219 L 16.800781 35 C 16.900781 34.8 17 34.600781 17 34.300781 C 17 34.100781 16.899219 33.899219 16.699219 33.699219 C 16.499219 33.599219 16.399609 33.5 16.099609 33.5 z M 28.300781 35.599609 C 28.000781 35.599609 27.799609 35.700391 27.599609 35.900391 L 13.800781 53.199219 C 13.700781 53.399219 13.599609 53.600391 13.599609 53.900391 C 13.599609 54.100391 13.700391 54.3 13.900391 54.5 C 14.100391 54.6 14.2 54.699219 14.5 54.699219 C 14.8 54.699219 14.999219 54.600391 15.199219 54.400391 L 29 37.099609 C 29.1 36.899609 29.199219 36.700391 29.199219 36.400391 C 29.199219 36.200391 29.100391 36.000781 28.900391 35.800781 C 28.700391 35.700781 28.600781 35.599609 28.300781 35.599609 z M 33.199219 38.900391 C 32.899219 38.900391 32.7 38.999219 32.5 39.199219 L 18.699219 56.699219 C 18.599219 56.899219 18.5 57.100391 18.5 57.400391 C 18.5 57.600391 18.600781 57.8 18.800781 58 C 19.000781 58.1 19.100391 58.199219 19.400391 58.199219 C 19.600391 58.099219 19.899609 58.000781 20.099609 57.800781 L 33.900391 40.400391 C 34.000391 40.200391 34.099609 39.999219 34.099609 39.699219 C 34.099609 39.499219 34.000781 39.299609 33.800781 39.099609 C 33.600781 38.999609 33.499219 38.900391 33.199219 38.900391 z M 53.800781 41 C 53.500781 41 53.299609 41.100781 53.099609 41.300781 L 38.900391 59.300781 C 38.600391 59.700781 38.7 60.199609 39 60.599609 C 39.2 60.699609 39.299609 60.800781 39.599609 60.800781 C 39.899609 60.700781 40.100781 60.600391 40.300781 60.400391 L 54.5 42.5 C 54.8 42.1 54.700391 41.499219 54.400391 41.199219 C 54.200391 41.099219 54.100781 41 53.800781 41 z M 38.599609 41.300781 C 38.299609 41.300781 38.100391 41.399609 37.900391 41.599609 L 24.199219 58.800781 C 24.099219 59.000781 24 59.2 24 59.5 C 24 59.7 24.100781 59.999609 24.300781 60.099609 C 24.500781 60.199609 24.700391 60.300781 24.900391 60.300781 C 25.200391 60.300781 25.399609 60.100391 25.599609 59.900391 L 39.300781 42.800781 C 39.500781 42.600781 39.5 42.399609 39.5 42.099609 C 39.5 41.899609 39.399219 41.7 39.199219 41.5 C 38.999219 41.4 38.799609 41.300781 38.599609 41.300781 z M 45 42.199219 C 44.7 42.199219 44.500781 42.3 44.300781 42.5 L 30.699219 60 C 30.599219 60.2 30.5 60.399219 30.5 60.699219 C 30.5 60.899219 30.700781 61.100781 30.800781 61.300781 C 31.000781 61.400781 31.100781 61.5 31.300781 61.5 C 31.700781 61.4 31.999609 61.299609 32.099609 61.099609 L 45.699219 43.699219 C 45.999219 43.299219 45.9 42.800391 45.5 42.400391 C 45.3 42.300391 45.2 42.199219 45 42.199219 z M 58.400391 44.300781 C 58.100391 44.300781 57.899219 44.399609 57.699219 44.599609 L 48.300781 56.599609 C 48.200781 56.799609 48.099609 57.000781 48.099609 57.300781 C 48.099609 57.500781 48.200391 57.700391 48.400391 57.900391 C 48.600391 58.000391 48.7 58.099609 49 58.099609 C 49.3 58.099609 49.599219 58.000781 49.699219 57.800781 L 59.099609 45.800781 C 59.299609 45.600781 59.300781 45.399609 59.300781 45.099609 C 59.300781 44.899609 59.2 44.7 59 44.5 C 58.8 44.4 58.700391 44.300781 58.400391 44.300781 z" />
</svg>