<svg xmlns="http://www.w3.org/2000/svg" viewBox="0 0 70 70">
	<g stroke="#000" stroke-width="2" stroke-linecap="round" stroke-linejoin="round">
		<circle fill="none" cx="35" cy="35" r="34" />
		<path fill="none" d="M15 17l12 0m-12 36l12 0m-12 -4l7 0m-7 -4l7 0m-7 -4l7 0m-7 -4l7 0m-7 -4l12 0m-12 -4l7 0m-7 -4l7 0m-7 -4l7 0" />
		<g fill="#000" stroke-width="0">
			<path d="M 41.917969 15.828125 C 40.629969 15.828125 39.648609 16.171328 38.974609 16.861328 C 38.301609 17.550328 37.966797 18.521672 37.966797 19.763672 L 37.966797 26.064453 C 37.966797 27.303453 38.300703 28.269891 38.970703 28.962891 C 39.640703 29.655891 40.623969 30 41.917969 30 C 43.209969 30 44.192234 29.655797 44.865234 28.966797 C 45.539234 28.276797 45.873047 27.310453 45.873047 26.064453 L 45.873047 19.763672 C 45.873047 18.514672 45.539141 17.545375 44.869141 16.859375 C 44.198141 16.172375 43.215969 15.828125 41.917969 15.828125 z M 34.970703 16 L 33 17.316406 L 33 19.326172 L 34.970703 18.117188 L 34.970703 29.857422 L 36.917969 29.857422 L 36.917969 16 L 34.970703 16 z M 48.695312 16 L 48.695312 23.298828 L 50.46875 23.298828 C 50.70275 22.957828 50.975109 22.690047 51.287109 22.498047 C 51.600109 22.309047 51.921766 22.212891 52.259766 22.212891 C 52.880766 22.212891 53.362125 22.421891 53.703125 22.837891 C 54.041125 23.253891 54.212891 23.836891 54.212891 24.587891 L 54.212891 25.748047 C 54.212891 26.506047 54.041125 27.091812 53.703125 27.507812 C 53.362125 27.924813 52.880766 28.132812 52.259766 28.132812 C 51.719766 28.132813 51.280313 27.990031 50.945312 27.707031 C 50.607313 27.424031 50.405984 27.030438 50.333984 26.523438 L 50.333984 26.513672 L 48.392578 26.513672 L 48.392578 26.523438 C 48.506578 27.251437 48.731266 27.879391 49.072266 28.400391 C 49.411266 28.920391 49.853484 29.316844 50.396484 29.589844 C 50.939484 29.862844 51.560766 30 52.259766 30 C 53.079766 30 53.781281 29.833047 54.363281 29.498047 C 54.949281 29.166047 55.396172 28.681922 55.701172 28.044922 C 56.004172 27.410922 56.15625 26.645047 56.15625 25.748047 L 56.15625 24.587891 C 56.15625 23.689891 56.010844 22.925016 55.714844 22.291016 C 55.418844 21.653016 54.986969 21.171844 54.417969 20.839844 C 53.850969 20.511844 53.163281 20.345703 52.363281 20.345703 C 52.051281 20.345703 51.748219 20.400813 51.449219 20.507812 C 51.150219 20.615813 50.881625 20.767797 50.640625 20.966797 L 50.640625 17.851562 L 55.757812 17.851562 L 55.757812 16 L 48.695312 16 z M 41.917969 17.677734 C 42.610969 17.677734 43.118359 17.856844 43.443359 18.214844 C 43.768359 18.575844 43.929688 19.090672 43.929688 19.763672 L 43.929688 26.064453 C 43.929688 26.737453 43.766406 27.254328 43.441406 27.611328 C 43.112406 27.969328 42.604969 28.152344 41.917969 28.152344 C 41.231969 28.152344 40.727438 27.969328 40.398438 27.611328 C 40.070437 27.254328 39.908203 26.737453 39.908203 26.064453 L 39.908203 19.763672 C 39.908203 19.090672 40.071484 18.575844 40.396484 18.214844 C 40.718484 17.856844 41.224969 17.677734 41.917969 17.677734 z M 45.826172 27.816406 L 45.826172 29.857422 L 47.867188 29.857422 L 47.867188 27.816406 L 45.826172 27.816406 z" />
			<path d="M 33.185547 40.171875 L 33.185547 43.964844 L 35.107422 43.964844 L 35.107422 41.998047 L 38.591797 41.998047 L 35.050781 53.859375 L 37.09375 53.859375 L 40.634766 41.882812 L 40.634766 40.171875 L 33.185547 40.171875 z M 43.796875 40.171875 L 43.796875 47.380859 L 45.548828 47.380859 C 45.779828 47.043859 46.048422 46.780797 46.357422 46.591797 C 46.665422 46.404797 46.983359 46.308594 47.318359 46.308594 C 47.931359 46.308594 48.407141 46.514781 48.744141 46.925781 C 49.078141 47.336781 49.246094 47.910344 49.246094 48.652344 L 49.246094 49.800781 C 49.246094 50.548781 49.078141 51.127063 48.744141 51.539062 C 48.407141 51.950062 47.931359 52.15625 47.318359 52.15625 C 46.784359 52.15625 46.351484 52.013375 46.021484 51.734375 C 45.686484 51.454375 45.487016 51.066453 45.416016 50.564453 L 45.416016 50.554688 L 43.498047 50.554688 L 43.498047 50.564453 C 43.611047 51.284453 43.831922 51.905922 44.169922 52.419922 C 44.503922 52.933922 44.940562 53.325703 45.476562 53.595703 C 46.013562 53.865703 46.627359 54 47.318359 54 C 48.127359 54 48.821484 53.836859 49.396484 53.505859 C 49.975484 53.177859 50.41675 52.698359 50.71875 52.068359 C 51.01775 51.441359 51.167969 50.686781 51.167969 49.800781 L 51.167969 48.652344 C 51.167969 47.766344 51.022469 47.011766 50.730469 46.384766 C 50.437469 45.754766 50.011219 45.279172 49.449219 44.951172 C 48.890219 44.626172 48.212875 44.462891 47.421875 44.462891 C 47.113875 44.462891 46.814531 44.517047 46.519531 44.623047 C 46.223531 44.729047 45.95675 44.880172 45.71875 45.076172 L 45.71875 41.998047 L 50.773438 41.998047 L 50.773438 40.171875 L 43.796875 40.171875 z M 40.964844 51.84375 L 40.964844 53.859375 L 42.978516 53.859375 L 42.978516 51.84375 L 40.964844 51.84375 z" />
		</g>
	</g>
</svg>