<svg xmlns="http://www.w3.org/2000/svg" viewBox="0 0 70 70">
	<g stroke="#000" stroke-width="2" stroke-linecap="round" stroke-linejoin="round">
		<circle fill="none" cx="35" cy="35" r="34" />
		<path fill="none" d="M15 17l12 0m-12 36l12 0m-12 -4l7 0m-7 -4l7 0m-7 -4l7 0m-7 -4l7 0m-7 -4l12 0m-12 -4l7 0m-7 -4l7 0m-7 -4l7 0" />
		<path fill="#000" stroke-width="0" d="M 38.863281 22.441406 C 37.609281 22.441406 36.505875 22.698078 35.546875 23.205078 C 34.587875 23.707078 33.807078 24.443203 33.205078 25.408203 C 32.597078 26.372203 32.195 27.531578 32 28.892578 L 32 28.908203 L 35.445312 28.908203 L 35.445312 28.892578 C 35.579312 27.849578 35.942922 27.040797 36.544922 26.466797 C 37.141922 25.898797 37.928438 25.613281 38.898438 25.613281 C 39.918437 25.613281 40.709719 25.869531 41.261719 26.394531 C 41.819719 26.918531 42.099609 27.655516 42.099609 28.603516 L 42.099609 28.636719 C 42.099609 29.222719 41.965266 29.856109 41.697266 30.537109 C 41.430266 31.217109 41.056172 31.875859 40.576172 32.505859 L 32.296875 43.546875 L 32.296875 46.441406 L 45.689453 46.441406 L 45.689453 43.273438 L 36.705078 43.273438 L 43.582031 33.927734 C 44.207031 33.074734 44.692109 32.193297 45.037109 31.279297 C 45.389109 30.364297 45.5625 29.488344 45.5625 28.652344 L 45.5625 28.636719 C 45.5625 27.326719 45.299391 26.211156 44.775391 25.285156 C 44.257391 24.359156 43.492281 23.656875 42.488281 23.171875 C 41.484281 22.686875 40.280281 22.441406 38.863281 22.441406 z M 52.341797 22.6875 L 48.962891 24.945312 L 48.962891 28.390625 L 52.341797 26.316406 L 52.341797 46.441406 L 55.677734 46.441406 L 55.677734 22.6875 L 52.341797 22.6875 z" />
	</g>
</svg>