<svg xmlns="http://www.w3.org/2000/svg" viewBox="0 0 69 69">
	<path fill="#000" d="M 34.5 0 C 15.5 0 0 15.5 0 34.5 C 0 53.5 15.5 69 34.5 69 C 53.5 69 69 53.5 69 34.5 C 69 15.5 53.5 0 34.5 0 z M 34.5 2 C 52.4 2 67 16.6 67 34.5 C 67 52.4 52.4 67 34.5 67 C 16.6 67 2 52.4 2 34.5 C 2 16.6 16.6 2 34.5 2 z M 23.699219 16.199219 C 18.899219 16.199219 14.900391 20.100391 14.900391 24.900391 C 14.900391 29.700391 18.799219 33.599609 23.699219 33.599609 C 28.499219 33.599609 32.5 29.700391 32.5 24.900391 C 32.5 20.100391 28.599219 16.199219 23.699219 16.199219 z M 23.699219 17.599609 C 27.699219 17.599609 31 20.900391 31 24.900391 C 31 28.900391 27.699219 32.199219 23.699219 32.199219 C 19.699219 32.199219 16.400391 28.900391 16.400391 24.900391 C 16.400391 20.900391 19.699219 17.599609 23.699219 17.599609 z M 24.5 19.699219 C 24.2 19.699219 24 19.899219 24 20.199219 C 23.9 20.499219 24.100391 20.699219 24.400391 20.699219 C 24.500391 20.699219 26.399609 20.799609 27.599609 23.599609 C 27.699609 23.799609 27.899609 23.900391 28.099609 23.900391 L 28.300781 23.900391 L 28.599609 23.599609 C 28.699609 23.499609 28.599609 23.299219 28.599609 23.199219 C 27.099609 19.799219 24.6 19.699219 24.5 19.699219 z M 10.287109 31.587891 C 10.049609 31.575391 9.7996094 31.650781 9.5996094 31.800781 C 9.1996094 32.100781 9.2 32.699609 9.5 33.099609 C 9.6 33.199609 14.900391 39.400391 23.900391 39.400391 C 27.600391 39.400391 31.8 38.300391 36.5 35.400391 C 36.6 35.400391 41.200391 32.500391 45.900391 35.900391 C 46.300391 36.300391 49.899609 39.1 52.599609 39 C 53.399609 39.2 57.699609 39.6 60.599609 35 C 60.899609 34.6 60.700781 33.999219 60.300781 33.699219 C 59.900781 33.399219 59.3 33.6 59 34 C 56.6 37.8 52.900781 37.199219 52.800781 37.199219 L 52.599609 37.199219 C 50.899609 37.299219 48 35.3 47 34.5 C 41.2 30.4 35.7 33.800391 35.5 33.900391 C 20.5 43.000391 11.300391 32.400391 10.900391 31.900391 C 10.750391 31.700391 10.524609 31.600391 10.287109 31.587891 z M 11.212891 39.787109 C 10.975391 39.799609 10.749609 39.899609 10.599609 40.099609 C 10.299609 40.499609 10.299219 41.100391 10.699219 41.400391 C 10.999219 41.600391 15.8 45.699219 24 45.699219 C 27.6 45.699219 31.799609 44.999219 36.599609 42.699219 C 36.599609 42.599219 41.200781 40.500391 45.800781 42.900391 C 46.000781 43.000391 49.499219 45.1 52.199219 45 C 52.899219 45.1 57.000391 45.399609 59.900391 42.099609 C 60.200391 41.699609 60.200781 41.100781 59.800781 40.800781 C 59.400781 40.500781 58.8 40.500391 58.5 40.900391 C 56.1 43.600391 52.400391 43.199219 52.400391 43.199219 L 52.199219 43.199219 C 50.499219 43.299219 47.699219 42.000391 46.699219 41.400391 C 41.299219 38.600391 36.000781 40.999609 35.800781 41.099609 C 21.100781 47.699609 12.300391 40.3 11.900391 40 C 11.700391 39.85 11.450391 39.774609 11.212891 39.787109 z M 41.101562 46.599609 C 38.325195 46.632812 36.324219 47.4375 36.199219 47.5 C 21.999219 53 13.199609 46.900781 13.099609 46.800781 C 12.699609 46.500781 12.100781 46.6 11.800781 47 C 11.500781 47.4 11.6 48.000781 12 48.300781 C 12.3 48.500781 16.799609 51.699219 24.599609 51.699219 C 27.999609 51.699219 32.200391 51.099219 36.900391 49.199219 C 37.000391 49.199219 41.400391 47.400781 45.900391 49.300781 C 46.000391 49.400781 49.500391 51.000391 51.900391 50.900391 C 52.100391 50.900391 56.400391 51.3 59.400391 48.5 C 59.800391 48.2 59.800391 47.599219 59.400391 47.199219 C 59.100391 46.799219 58.499609 46.799219 58.099609 47.199219 C 55.799609 49.399219 52.2 49.099609 52 49.099609 C 50.3 49.299609 47.599219 48.099219 46.699219 47.699219 C 44.711719 46.836719 42.767383 46.579687 41.101562 46.599609 z" />
</svg>