<svg xmlns="http://www.w3.org/2000/svg" viewBox="0 0 69 69">
	<path fill="#000" d="M 34.5 0 C 15.5 0 0 15.5 0 34.5 C 0 53.5 15.5 69 34.5 69 C 53.5 69 69 53.5 69 34.5 C 69 15.5 53.5 0 34.5 0 z M 34.5 2 C 52.4 2 67 16.6 67 34.5 C 67 52.4 52.4 67 34.5 67 C 16.6 67 2 52.4 2 34.5 C 2 16.6 16.6 2 34.5 2 z M 15.599609 18.400391 C 15.199609 18.400391 14.800781 18.799219 14.800781 19.199219 C 14.800781 19.399219 14.9 19.599219 15 19.699219 L 15 19.800781 L 15.400391 19.800781 L 15.5 20 L 16.5 20.699219 C 18.9 22.099219 23.399219 24.599609 24.199219 24.599609 C 25.199219 24.599609 26.200781 24.500781 27.300781 24.300781 L 29.300781 23.900391 C 30.300781 23.800391 31.199219 23.600391 32.199219 23.400391 C 33.499219 23.100391 34.899219 22.899219 36.199219 22.699219 C 36.899219 22.599219 37.599219 22.5 38.199219 22.5 L 38.800781 22.5 C 40.700781 22.5 42.300781 23.000781 43.800781 23.800781 C 44.700781 24.300781 45.6 24.899219 46.5 25.699219 C 46.9 26.099219 47.400391 26.5 47.900391 27 L 48.199219 27.400391 C 48.699219 27.800391 49.199219 28.299219 49.699219 28.699219 C 51.399219 30.099219 52.999219 31.400781 54.699219 32.800781 C 55.099219 33.200781 55.599609 33.500391 56.099609 33.900391 L 57.099609 34.599609 C 57.199609 34.699609 57.4 34.8 57.5 35 C 57.7 35.2 57.7 35.399219 57.5 35.699219 C 57.3 35.999219 56.999609 36.099219 56.599609 36.199219 C 56.399609 36.299219 56.200781 36.300781 55.800781 36.300781 C 55.400781 36.200781 54.999609 36.199609 54.599609 36.099609 C 53.499609 35.899609 52.3 35.399609 51 34.599609 C 50.1 33.999609 49.1 33.400391 48 32.400391 C 47.8 32.200391 47.500781 32.000391 47.300781 31.900391 C 47.200781 31.800391 47.1 31.800781 47 31.800781 C 46.8 31.800781 46.600391 31.999219 46.400391 32.199219 C 46.100391 32.399219 46.100781 32.7 46.300781 33 C 46.400781 33.3 46.7 33.500781 47 33.800781 C 48.4 35.100781 50.1 36.100391 52 36.900391 C 53.2 37.500391 54.300391 37.800391 55.400391 37.900391 C 55.700391 38.000391 55.899219 38 56.199219 38 L 56.199219 37.800781 C 56.599219 37.800781 57.000781 37.799219 57.300781 37.699219 C 58.500781 37.299219 59.200391 36.6 59.400391 35.5 C 59.600391 34.7 59.299609 34.000391 58.599609 33.400391 C 58.199609 33.100391 57.700781 32.700391 57.300781 32.400391 L 56.699219 32 C 54.599219 30.3 52.8 28.800781 51 27.300781 L 50.400391 26.800781 L 48.300781 25 C 46.800781 23.8 45.499219 22.899219 44.199219 22.199219 C 42.699219 21.399219 40.999219 20.899219 39.199219 20.699219 L 38.400391 20.699219 L 38 20.699219 L 36.800781 20.699219 C 35.500781 20.699219 34.2 20.999219 33 21.199219 L 27.5 22.300781 C 26.6 22.500781 25.699219 22.699219 24.699219 22.699219 L 24.300781 22.699219 C 23.800781 22.699219 23.300391 22.7 22.900391 22.5 C 22.700391 22.4 22.1 22.099609 20.5 21.099609 C 17.7 19.499609 16.400391 18.699609 15.900391 18.599609 L 15.900391 18.5 C 15.800391 18.4 15.699609 18.400391 15.599609 18.400391 z M 9.4003906 26.599609 C 9.0003906 26.599609 8.5996094 27.000391 8.5996094 27.400391 C 8.5996094 27.600391 8.7007812 27.700391 8.8007812 27.900391 L 9.0996094 28.099609 C 10.899609 29.099609 16.300781 32.800781 18.300781 34.800781 C 18.800781 35.400781 19.500781 36.099219 20.300781 36.699219 C 21.700781 37.699219 23.200391 38.3 24.900391 38.5 C 25.300391 38.6 25.6 38.599609 26 38.599609 L 26.400391 38.5 L 26.699219 38.5 C 27.499219 38.5 28.4 38.399609 29.5 38.099609 C 31 37.699609 32.400781 37.1 33.800781 36.5 L 34.099609 36.400391 C 34.799609 36.100391 35.399609 35.799609 36.099609 35.599609 C 36.499609 35.499609 37 35.400391 37.5 35.400391 L 37.900391 35.400391 C 38.200391 35.500391 38.399219 35.5 38.699219 35.5 L 38.900391 35.5 C 39.400391 35.5 39.800781 35.500391 40.300781 35.400391 C 41.500781 35.200391 42.500391 34.900391 43.400391 34.400391 C 44.200391 33.900391 44.799609 33.399219 45.099609 32.699219 C 45.499609 31.799219 45.299609 30.499219 44.599609 29.699219 C 44.199609 29.299219 43.6 28.899219 43 28.699219 C 41.8 28.299219 40.699219 28.100391 39.699219 27.900391 C 39.499219 27.800391 39.2 27.800781 39 27.800781 L 38.800781 27.800781 C 38.400781 27.800781 37.799219 27.800391 37.199219 27.900391 L 36.900391 27.900391 C 36.000391 28.000391 35.200391 28.099219 34.400391 28.199219 C 34.000391 28.299219 33.499609 28.300781 33.099609 28.300781 L 32.800781 28.300781 C 32.300781 28.300781 31.899219 28.299219 31.199219 28.199219 C 30.899219 28.199219 30.600391 28.399219 30.400391 28.699219 C 30.200391 28.999219 30.200391 29.299609 30.400391 29.599609 C 30.600391 29.899609 30.900781 29.999609 31.300781 30.099609 C 31.700781 30.099609 32.199219 30.199219 32.699219 30.199219 L 32.900391 30.199219 C 33.800391 30.199219 34.699609 30.2 35.599609 30 L 37.699219 29.699219 C 37.999219 29.599219 38.299609 29.599609 38.599609 29.599609 L 38.800781 29.599609 C 39.500781 29.699609 40.200391 29.8 40.900391 30 L 41.300781 30.400391 C 41.300781 30.400391 42.100391 30.599219 42.400391 30.699219 C 42.700391 30.799219 42.999219 31.000781 43.199219 31.300781 C 43.499219 31.600781 43.500781 31.900781 43.300781 32.300781 C 43.100781 32.700781 42.799219 32.899219 42.199219 33.199219 C 41.499219 33.599219 40.699219 33.800391 39.699219 33.900391 C 39.399219 34.000391 39.200391 34 38.900391 34 L 38.699219 34 C 38.399219 34 38.100781 33.900391 37.800781 33.900391 L 37.300781 33.900391 C 36.800781 33.900391 36.400781 33.899609 35.800781 34.099609 C 35.000781 34.299609 34.100781 34.6 33.300781 35 L 33 35.099609 C 31.8 35.599609 30.499219 36.1 29.199219 36.5 C 28.499219 36.7 27.799609 36.800391 27.099609 36.900391 L 26.199219 36.900391 L 26 36.900391 C 25.1 36.900391 24.100781 36.700391 23.300781 36.400391 C 22.400781 36.100391 21.500781 35.500781 20.800781 34.800781 C 20.300781 34.400781 19.9 33.9 19.5 33.5 L 18.800781 32.699219 C 18.100781 31.999219 17.6 31.599219 17 31.199219 C 16.8 31.199219 16.7 31.1 16.5 31 L 15.099609 30.099609 C 10.899609 27.399609 9.8992187 26.799219 9.6992188 26.699219 C 9.5992188 26.599219 9.5003906 26.599609 9.4003906 26.599609 z M 11 39.300781 C 10.8 39.300781 10.600391 39.3 10.400391 39.5 C 10.100391 39.9 10.100391 40.400781 10.400391 40.800781 C 10.600391 41.000781 14.800391 45.399609 22.900391 45.599609 L 23.5 45.599609 C 27.1 45.599609 30.900391 44.799609 34.900391 43.099609 C 35.100391 43.099609 37.099609 42.300781 40.099609 42.300781 L 40.599609 42.300781 C 43.599609 42.400781 46.6 43.199219 49.5 44.699219 C 50 44.999219 51.900781 45.999609 54.300781 46.099609 L 54.5 46.099609 C 56.7 46.099609 58.599609 45.299609 60.099609 43.599609 C 60.199609 43.399609 60.300781 43.100391 60.300781 42.900391 C 60.300781 42.700391 60.2 42.500781 60 42.300781 C 59.8 42.200781 59.600391 42.099609 59.400391 42.099609 C 59.100391 42.099609 58.899219 42.200391 58.699219 42.400391 C 57.599219 43.700391 56.2 44.300781 54.5 44.300781 L 54.300781 44.300781 C 52.200781 44.300781 50.500781 43.299219 50.300781 43.199219 C 47.100781 41.499219 43.8 40.6 40.5 40.5 L 40 40.5 C 36.5 40.5 34.299609 41.4 34.099609 41.5 C 30.399609 43.1 26.800391 43.900391 23.400391 43.900391 L 22.900391 43.900391 C 15.600391 43.700391 11.699219 39.599609 11.699219 39.599609 C 11.499219 39.399609 11.3 39.300781 11 39.300781 z M 40.199219 45.199219 C 36.899219 45.199219 34.600391 45.9 34.400391 46 C 30.500391 47.5 26.800781 48.199219 23.300781 48.199219 L 22.699219 48.199219 C 17.299219 48.099219 14.199609 46.200781 13.599609 45.800781 C 13.499609 45.800781 13.299609 45.699219 13.099609 45.699219 C 12.799609 45.699219 12.500781 45.799609 12.300781 46.099609 C 12.200781 46.299609 12.099219 46.600781 12.199219 46.800781 C 12.299219 47.100781 12.399609 47.300391 12.599609 47.400391 C 13.499609 48.000391 16.899609 49.899609 22.599609 50.099609 L 23.300781 50.099609 C 27.000781 50.099609 30.9 49.299219 35 47.699219 C 35.4 47.599219 37.399219 47 40.199219 47 L 40.699219 47 C 43.799219 47.1 46.599609 47.799219 49.099609 49.199219 C 49.299609 49.399219 51.4 50.499609 54 50.599609 L 54.199219 50.5 C 55.399219 50.5 56.599609 50.199219 57.599609 49.699219 C 57.899609 49.599219 57.999609 49.399219 58.099609 49.199219 C 58.199609 48.999219 58.199609 48.7 58.099609 48.5 C 57.999609 48.2 57.700781 48 57.300781 48 C 57.200781 48 57.000391 47.999609 56.900391 48.099609 C 56.100391 48.499609 55.300781 48.699219 54.300781 48.699219 L 54.099609 48.699219 C 51.899609 48.699219 50.1 47.599609 50 47.599609 C 47.2 46.099609 44.100781 45.299219 40.800781 45.199219 L 40.199219 45.199219 z" />
</svg>