<svg xmlns="http://www.w3.org/2000/svg" viewBox="0 0 70 70">
	<g stroke="#000" stroke-width="2">
		<circle fill="none" cx="35" cy="35" r="34" />
		<g fill="none" stroke-dasharray="4, 6">
			<path d="M 32.172,36.269 C 30.54,24.658 23.042,14.708 12.332,9.94" />
			<path d="M 38.334,36.269 C 39.96,24.658 47.463,14.708 58.174,9.94" />
		</g>
		<path stroke-width="0" d="m 30.761,39 h 8.242 c 0.503,0 0.922,0.366 0.99,0.864 C 40.431,43.07 43,53.067 43,54.531 43,58.864 39.185,62 35,62 30.83,62 27,58.872 27,54.531 27,52.845 29.359,43.272 29.769,39.88 29.83,39.375 30.253,39 30.761,39 Z M 35,49.062 c -3.073,0 -6,2.229 -6,5.469 0,3.241 2.927,5.469 6,5.469 3.082,0 6,-2.24 6,-5.469 0,-3.228 -2.918,-5.469 -6,-5.469 z" />
	</g>
</svg>