<svg xmlns="http://www.w3.org/2000/svg" viewBox="0 0 69 69">
	<path fill="#000" d="M 34.5 0 C 15.5 0 0 15.5 0 34.5 C 0 53.5 15.5 69 34.5 69 C 53.5 69 69 53.5 69 34.5 C 69 15.5 53.5 0 34.5 0 z M 34.5 2 C 52.4 2 67 16.6 67 34.5 C 67 43.937097 62.93883 52.453683 56.478516 58.400391 L 48.023438 58.400391 C 52.246578 55.095956 54.699219 49.940244 54.699219 43.800781 C 54.799219 37.400781 52.800781 33.1 51.800781 31 L 51.699219 30.699219 C 51.599219 29.999219 51.599219 29.600391 51.699219 28.900391 C 51.699219 28.700391 51.800391 28.300391 51.900391 27.900391 C 52.500391 25.200391 54 18.900391 51 14.400391 C 49.3 11.900391 46.600391 10.400781 42.900391 9.8007812 C 40.725391 9.4257812 35.963281 9.3308594 32.410156 9.3496094 C 31.225781 9.3558594 30.175391 9.3753906 29.400391 9.4003906 C 24.400391 9.6003906 20.699609 11.1 18.599609 14 C 14.999609 18.8 16.600781 25.599219 17.300781 28.199219 C 17.400781 28.499219 17.4 28.700391 17.5 28.900391 C 17.7 29.500391 17.7 30 17.5 30.5 C 14.8 34.9 14.5 41.699609 14.5 43.599609 C 14.5 49.799609 17.000781 55.100391 21.300781 58.400391 L 12.599609 58.400391 L 12.599609 58.474609 C 6.0931516 52.524741 2 43.97571 2 34.5 C 2 16.6 16.6 2 34.5 2 z M 32.431641 11.505859 C 35.900391 11.468359 40.55 11.600391 42.5 11.900391 C 45.6 12.400391 47.899219 13.699609 49.199219 15.599609 C 51.699219 19.299609 50.400781 25.000391 49.800781 27.400391 C 49.700781 27.900391 49.599609 28.3 49.599609 28.5 C 49.399609 29.4 49.399609 30.099219 49.599609 31.199219 C 49.599609 31.299219 49.599219 31.300391 49.699219 31.400391 L 49.900391 31.800781 C 50.800391 33.700781 52.699609 37.799219 52.599609 43.699219 C 52.599609 50.499219 49.300391 56 43.900391 58.5 L 25.199219 58.5 C 19.699219 56 16.5 50.499219 16.5 43.699219 C 16.5 41.799219 16.800781 35.499609 19.300781 31.599609 C 19.300781 31.599609 19.400391 31.500391 19.400391 31.400391 C 19.800391 30.400391 19.8 29.400391 19.5 28.400391 C 19.5 28.200391 19.400781 27.999219 19.300781 27.699219 C 18.700781 25.399219 17.300781 19.300781 20.300781 15.300781 C 22.100781 13.000781 25.2 11.699609 29.5 11.599609 C 30.25 11.549609 31.275391 11.518359 32.431641 11.505859 z M 38.761719 14.425781 C 38.074219 14.425781 37.349609 14.45 36.599609 14.5 L 34.400391 14.5 L 32.199219 14.5 C 30.899219 14.5 29.600391 14.4 28.400391 14.5 L 28.300781 14.5 C 25.200781 14.9 23.100781 16.1 21.800781 18 C 19.900781 20.9 20.799609 24.999219 21.599609 27.699219 C 21.599609 27.799219 21.599219 27.800391 21.699219 27.900391 C 22.599219 29.500391 24.199609 29.4 25.099609 29 C 32.299609 27.2 37.500391 27.199609 43.900391 29.099609 C 44.200391 29.199609 44.599609 29.300781 45.099609 29.300781 C 45.899609 29.300781 46.800781 29.000391 47.300781 27.900391 C 47.300781 27.800391 47.400391 27.799219 47.400391 27.699219 C 48.200391 24.899219 49.099219 20.9 47.199219 18 C 45.999219 16.1 43.799219 14.9 40.699219 14.5 C 40.099219 14.45 39.449219 14.425781 38.761719 14.425781 z M 29.285156 16.757812 C 30.105469 16.74375 31.025 16.800781 32 16.800781 L 34.300781 16.800781 L 36.599609 16.800781 C 37.999609 16.800781 39.400391 16.700781 40.400391 16.800781 C 42.800391 17.100781 44.500391 18.000781 45.400391 19.300781 C 46.800391 21.500781 46.100391 24.799609 45.400391 27.099609 C 45.300391 27.199609 45.099219 27.399219 44.699219 27.199219 C 44.599219 27.199219 44.6 27.199609 44.5 27.099609 C 41.1 26.099609 38.000781 25.5 34.800781 25.5 C 31.600781 25.5 28.3 26.099609 24.5 27.099609 C 24.4 27.099609 24.400781 27.099219 24.300781 27.199219 C 23.900781 27.399219 23.699609 27.199609 23.599609 27.099609 C 22.899609 24.699609 22.199609 21.400781 23.599609 19.300781 C 24.499609 18.000781 26.1 17.100781 28.5 16.800781 C 28.75 16.775781 29.011719 16.7625 29.285156 16.757812 z M 29.599609 39.699219 L 29.599609 45.699219 L 31.400391 45.699219 L 31.400391 43.099609 L 33.300781 45.699219 L 35.400391 45.699219 L 32.800781 42.5 L 35.300781 39.699219 L 33.300781 39.699219 L 31.400391 42.099609 L 31.400391 39.699219 L 29.599609 39.699219 z M 36 39.699219 L 36 45.699219 L 37.800781 45.699219 L 37.800781 40.900391 L 40.5 40.900391 L 40.5 39.699219 L 36 39.699219 z M 15.175781 60.599609 L 53.824219 60.599609 C 48.416249 64.617089 41.728316 67 34.5 67 C 27.271684 67 20.583751 64.617089 15.175781 60.599609 z" />
</svg>