<svg xmlns="http://www.w3.org/2000/svg" viewBox="0 0 69 69">
	<path fill="#000" d="M 34.5 0 C 15.5 0 0 15.5 0 34.5 C 0 53.5 15.5 69 34.5 69 C 53.5 69 69 53.5 69 34.5 C 69 15.5 53.5 0 34.5 0 z M 34.5 2 C 52.4 2 67 16.6 67 34.5 C 67 52.4 52.4 67 34.5 67 C 16.6 67 2 52.4 2 34.5 C 2 16.6 16.6 2 34.5 2 z M 28.699219 15.599609 C 22.599219 15.599609 17.6 20.499609 17.5 26.599609 C 12.7 27.099609 9 31.299609 9 36.099609 C 9 41.399609 13.299609 45.699219 18.599609 45.699219 L 18.800781 45.699219 C 19.700781 50.199219 23.599219 53.400391 28.199219 53.400391 C 31.199219 53.400391 33.999219 51.999219 35.699219 49.699219 C 37.299219 51.099219 39.300781 51.800781 41.300781 51.800781 C 45.400781 51.800781 48.899219 48.900391 49.699219 44.900391 C 49.999219 45.000391 50.399219 45 50.699219 45 C 55.799219 45 59.900391 40.900781 59.900391 35.800781 C 59.900391 31.600781 57.1 27.900391 53 26.900391 C 52.1 22.500391 48.199219 19.300781 43.699219 19.300781 C 41.699219 19.300781 39.900781 19.9 38.300781 21 C 36.200781 17.6 32.599219 15.599609 28.699219 15.599609 z M 28.800781 17.800781 C 32.300781 17.800781 35.5 19.899609 37 23.099609 L 37.599609 24.5 L 38.699219 23.5 C 40.099219 22.2 41.899219 21.5 43.699219 21.5 C 47.399219 21.5 50.5 24.200391 51 27.900391 L 51.199219 28.599609 L 52 28.699219 C 55.3 29.299219 57.800781 32.199609 57.800781 35.599609 C 57.800781 39.499609 54.700781 42.599609 50.800781 42.599609 C 50.300781 42.599609 49.699609 42.600391 49.099609 42.400391 L 47.800781 42.099609 L 47.699219 43.5 C 47.499219 46.9 44.800391 49.5 41.400391 49.5 C 39.500391 49.5 37.7 48.699219 36.5 47.199219 L 35.5 45.900391 L 34.699219 47.300781 C 33.299219 49.700781 30.899219 51.199219 28.199219 51.199219 C 24.399219 51.199219 21.200391 48.300391 20.900391 44.400391 L 20.699219 43.300781 L 19.300781 43.5 C 19.000781 43.6 18.799609 43.599609 18.599609 43.599609 C 14.499609 43.599609 11.199219 40.299219 11.199219 36.199219 C 11.199219 32.099219 14.499609 28.800781 18.599609 28.800781 L 19.900391 28.900391 L 19.800781 27.599609 L 19.800781 26.800781 C 19.800781 21.800781 23.800781 17.800781 28.800781 17.800781 z" />
</svg>