<svg xmlns="http://www.w3.org/2000/svg" viewBox="0 0 69 69">
	<path fill="#000" d="M 34.5 0 C 15.5 0 0 15.4 0 34.5 C 0 53.6 15.5 69.099609 34.5 69.099609 C 53.6 69.099609 69 53.5 69 34.5 C 69 15.5 53.5 0 34.5 0 z M 34.5 2 C 52.5 2 67 16.5 67 34.5 C 67 52.5 52.4 67 34.5 67 C 16.6 67 2 52.4 2 34.5 C 2 16.6 16.6 2 34.5 2 z M 41.900391 13.400391 C 34.800391 13.400391 19.599609 13.5 19.099609 13.5 C 17.999609 13.7 17.100391 14.400391 16.400391 15.400391 C 16.000391 16.000391 15.800781 16.799219 15.800781 17.699219 L 15.800781 24.300781 L 15.800781 51.300781 C 15.800781 52.500781 16.200391 53.500781 16.900391 54.300781 C 17.500391 54.900781 18.1 55.3 19 55.5 C 19.5 55.6 20.1 55.599609 20.5 55.599609 L 48.599609 55.599609 C 50.199609 55.599609 51.400781 54.999219 52.300781 53.699219 C 52.800781 52.999219 53 52.199219 53 51.199219 L 53.099609 18 C 53.099609 17.6 53.1 17.200781 53 16.800781 C 52.9 16.400781 52.799609 15.999609 52.599609 15.599609 C 51.999609 14.399609 51.099609 13.6 50.099609 13.5 C 49.599609 13.4 45.400391 13.400391 41.900391 13.400391 z M 20.199219 15 L 48.699219 15 C 49.199219 15 49.800781 15.000391 50.300781 15.400391 C 51.000781 15.900391 51.4 16.4 51.5 17 C 51.6 17.4 51.599609 17.799219 51.599609 18.199219 L 51.599609 51.199219 C 51.599609 52.199219 51.2 52.999609 50.5 53.599609 C 50 53.899609 49.599219 54 49.199219 54 L 20.5 54 L 19.800781 54 C 19.300781 54 18.900391 53.700781 18.400391 53.300781 C 17.900391 52.800781 17.599609 52.099219 17.599609 51.199219 L 17.599609 17.900391 C 17.599609 16.900391 17.999219 16.1 18.699219 15.5 C 19.099219 15.2 19.599219 15 20.199219 15 z M 41.099609 18.5 C 40.199609 18.5 39.400391 19.299219 39.400391 20.199219 C 39.400391 21.099219 40.199609 21.900391 41.099609 21.900391 C 41.999609 21.900391 42.800781 21.099219 42.800781 20.199219 C 42.800781 19.299219 41.999609 18.5 41.099609 18.5 z M 46.5 18.5 C 46 18.5 45.599219 18.7 45.199219 19 C 44.899219 19.3 44.800781 19.699219 44.800781 20.199219 C 44.800781 20.599219 44.899219 21.000781 45.199219 21.300781 C 45.499219 21.600781 46.000391 21.900391 46.400391 21.900391 L 46.5 21.900391 C 47.5 21.900391 48.199219 21.099219 48.199219 20.199219 C 48.199219 19.199219 47.5 18.5 46.5 18.5 z M 34.5 24.400391 C 31.3 24.400391 28.399219 25.600391 26.199219 27.900391 C 23.999219 30.100391 22.799219 33.099219 22.699219 36.199219 C 22.699219 39.299219 23.899609 42.299609 26.099609 44.599609 C 28.299609 46.799609 31.300391 48.099609 34.400391 48.099609 L 34.5 48.099609 C 37.6 48.099609 40.600781 46.899609 42.800781 44.599609 C 45.000781 42.399609 46.300781 39.399219 46.300781 36.199219 C 46.300781 29.699219 41 24.400391 34.5 24.400391 z M 34.199219 25.900391 L 34.699219 25.900391 L 35.300781 25.900391 C 35.700781 25.900391 36.2 26 36.5 26 C 37.2 26.2 38.000781 26.399219 38.800781 26.699219 C 39.600781 26.999219 40.400391 27.600781 41.400391 28.300781 C 42.300391 29.000781 42.999609 29.899609 43.599609 31.099609 C 43.899609 31.999609 44.200391 32.8 44.400391 33.5 L 44.5 34 L 44 34.400391 L 43.599609 34.199219 C 43.099609 33.999219 42.599609 33.900391 42.099609 33.900391 L 41.599609 33.900391 C 41.299609 33.900391 40.899609 33.9 40.599609 34 L 39.400391 34.300781 L 38.300781 34.699219 C 37.800781 34.899219 37.199219 35.099219 36.699219 35.199219 C 35.899219 35.399219 35.2 35.5 34.5 35.5 C 34.1 35.5 33.700391 35.500391 33.400391 35.400391 C 32.700391 35.300391 31.899219 35.100781 31.199219 34.800781 C 30.499219 34.500781 29.799609 34.2 29.099609 34 C 28.599609 33.9 28.099609 33.699219 27.599609 33.699219 L 27.099609 33.699219 C 26.599609 33.799219 26 33.899609 25.5 34.099609 L 25 34.300781 L 24.599609 33.900391 L 24.699219 33.400391 C 24.799219 32.900391 24.999219 32.4 25.199219 32 C 25.999219 30.3 27.1 29.000391 28.5 27.900391 C 29.4 27.300391 30.300781 26.8 31.300781 26.5 C 31.500781 26.4 31.8 26.400781 32 26.300781 L 32.5 26.199219 C 32.8 26.099219 33.100781 26.1 33.300781 26 C 33.600781 26 33.899219 25.900391 34.199219 25.900391 z M 27.800781 35.300781 C 28.100781 35.300781 28.399609 35.300391 28.599609 35.400391 C 29.099609 35.500391 29.599609 35.700391 30.099609 35.900391 C 30.499609 36.100391 30.900781 36.200781 31.300781 36.300781 C 31.800781 36.500781 32.399609 36.600781 33.099609 36.800781 C 33.599609 36.900781 34.099609 36.900391 34.599609 36.900391 L 35.400391 36.900391 C 36.500391 36.800391 37.400781 36.600781 38.300781 36.300781 C 39.200781 36.000781 39.999219 35.7 40.699219 35.5 C 41.099219 35.4 41.400781 35.300781 41.800781 35.300781 C 42.500781 35.300781 43.200781 35.500391 43.800781 35.900391 C 44.100781 36.000391 44.299219 36.200391 44.699219 36.400391 L 44.699219 37 C 44.599219 37.9 44.499219 38.8 44.199219 39.5 C 43.899219 40.5 43.400781 41.399219 42.800781 42.199219 C 42.300781 42.899219 41.799219 43.5 41.199219 44 C 40.399219 44.7 39.7 45.100391 39 45.400391 C 38.4 45.600391 37.799219 45.899609 37.199219 46.099609 C 36.399219 46.299609 35.5 46.5 34.5 46.5 L 33.900391 46.400391 C 33.400391 46.400391 32.999609 46.299219 32.599609 46.199219 C 32.199609 46.099219 31.900391 46.000391 31.400391 45.900391 L 31 45.800781 C 30.4 45.600781 29.7 45.300781 29 44.800781 C 27.8 44.000781 27.000781 43.199219 26.300781 42.199219 C 25.700781 41.399219 25.399609 40.699609 25.099609 40.099609 C 24.699609 39.099609 24.400391 38.000781 24.400391 36.800781 L 24.699219 36.400391 C 25.299219 36.000391 26.000781 35.600391 26.800781 35.400391 C 27.100781 35.300391 27.500781 35.300781 27.800781 35.300781 z" />
</svg>