<svg xmlns="http://www.w3.org/2000/svg" viewBox="0 0 69 69">
	<path fill="#000" d="M 34.5 0 C 15.5 0 0 15.5 0 34.5 C 0 53.5 15.5 69 34.5 69 C 53.5 69 69 53.5 69 34.5 C 69 15.5 53.5 0 34.5 0 z M 34.5 2.4003906 C 52.2 2.4003906 66.5 16.8 66.5 34.5 C 66.5 52.1 52.2 66.5 34.5 66.5 C 16.8 66.5 2.4003906 52.2 2.4003906 34.5 C 2.4003906 16.8 16.8 2.4003906 34.5 2.4003906 z M 36 12.699219 C 33.4 12.799219 30.699219 13.4 28.199219 14.5 C 25.299219 15.8 22.899609 17.699609 21.099609 20.099609 C 18.399609 23.699609 17.2 27.899609 17.5 33.099609 C 17.6 34.799609 17.999609 36.499609 18.599609 38.099609 C 20.199609 41.999609 22.699219 44.899609 26.199219 46.599609 C 27.099219 47.099609 28.1 47.399219 29 47.699219 C 30.2 47.999219 31.500781 48.199219 32.800781 48.199219 C 33.800781 48.199219 34.800781 48.100391 35.800781 47.900391 C 38.000781 47.500391 39.800781 46.900391 41.300781 45.900391 C 45.900781 42.900391 48.2 38.6 48 33 C 47.9 31 47.200391 28.900781 45.900391 26.800781 C 44.300391 24.200781 42.199219 22.499609 39.699219 21.599609 C 39.399219 21.499609 39.2 21.500391 39 21.400391 C 38.2 21.200391 37.4 21.099609 36.5 21.099609 L 35.599609 21.099609 C 35.199609 21.199609 34.699219 21.300391 34.199219 21.400391 L 33.900391 21.5 C 30.300391 22.4 27.800391 24.399609 26.400391 27.599609 C 24.800391 31.199609 25.2 34.500391 27.5 37.400391 C 28.6 38.800391 29.799609 39.6 31.099609 40 C 31.599609 40.1 32.099609 40.199219 32.599609 40.199219 C 33.099609 40.199219 33.5 40.199609 34 40.099609 C 35.9 39.699609 37.300391 38.899609 38.400391 37.599609 C 39.300391 36.399609 39.7 34.999609 39.5 33.599609 C 39.3 32.099609 38.500391 30.9 37.400391 30 C 37.100391 29.8 36.899609 29.699609 36.599609 29.599609 C 36.599609 29.499609 36.500781 29.5 36.300781 29.5 C 35.800781 29.5 35.4 29.800781 35 30.300781 C 34.7 30.800781 34.6 31.199219 35 31.699219 C 35.2 31.999219 35.399609 32.2 35.599609 32.5 L 35.900391 32.900391 C 36.400391 33.600391 36.600391 34.3 36.400391 35 C 36.100391 36.3 34.700781 37.400391 33.300781 37.400391 L 32.900391 37.400391 C 32.800391 37.400391 32.6 37.300781 32.5 37.300781 C 31.6 37.000781 30.900391 36.5 30.400391 36 C 28.000391 33.7 28.000391 30.099219 29.400391 27.699219 C 30.800391 25.199219 33.299219 23.800781 36.199219 23.800781 C 36.699219 23.800781 37.199219 23.800391 37.699219 23.900391 C 37.999219 24.000391 38.2 23.999609 38.5 24.099609 C 40.3 24.599609 41.799609 25.700391 43.099609 27.400391 C 44.799609 29.700391 45.600781 32.400781 45.300781 35.300781 C 45.000781 39.300781 43 42.300781 39.5 44.300781 C 37.6 45.400781 35.5 45.9 33 46 L 32.699219 46 C 31.599219 46 30.599609 45.899609 29.599609 45.599609 C 28.899609 45.399609 28.2 45.100781 27.5 44.800781 C 23.9 43.000781 21.5 40.1 20.5 36 C 20 33.9 19.899219 31.600781 20.199219 29.300781 C 20.899219 24.500781 23.300781 20.699219 27.300781 18.199219 C 29.700781 16.599219 32.5 15.799609 35.5 15.599609 C 36.1 15.499609 36.700781 15.5 37.300781 15.5 C 37.700781 15.5 38.199609 15.599609 38.599609 15.599609 C 39.499609 15.699609 40.399219 15.899609 41.199219 16.099609 C 43.899219 16.799609 46.300781 18.200781 48.300781 20.300781 C 52.800781 25.000781 54.699219 30.699219 53.699219 37.199219 C 52.899219 42.399219 50.399609 46.700391 46.099609 49.900391 C 42.299609 52.800391 37.900391 54.199219 32.900391 54.199219 L 31.800781 54.199219 C 30.300781 54.099219 28.799219 53.9 27.199219 53.5 C 22.199219 52.1 18.099219 49.199219 15.199219 44.699219 C 13.399219 41.999219 12.300781 38.899219 11.800781 35.199219 C 11.600781 33.699219 11.499609 32.400391 11.599609 30.900391 C 11.599609 30.400391 11.699219 30.300781 11.699219 30.300781 C 11.699219 30.300781 11.900781 30.199219 12.300781 30.199219 C 12.400781 30.199219 16 30.300781 16 30.300781 C 16.6 30.300781 17.199219 29.799609 17.199219 29.099609 C 17.199219 28.799609 17.100391 28.399219 16.900391 28.199219 C 16.600391 27.999219 16.3 27.800781 16 27.800781 C 16 27.800781 12.500781 27.599609 12.300781 27.599609 C 11.300781 27.599609 10.599609 27.800781 10.099609 28.300781 C 9.3996094 29.000781 9.2992188 29.499219 9.1992188 30.199219 C 9.0992188 32.499219 9.1007812 33.099219 9.3007812 34.699219 C 9.6007813 36.499219 9.7 37.599219 10 38.699219 C 11.3 43.499219 13.599609 47.399609 17.099609 50.599609 C 19.799609 53.099609 23 54.900781 26.5 55.800781 C 28.2 56.300781 30.099609 56.499609 32.099609 56.599609 C 32.399609 56.599609 33.000391 56.600781 32.900391 56.300781 C 35.900391 56.300781 38.799609 55.800781 41.599609 54.800781 C 45.699609 53.300781 49.200391 50.800781 51.900391 47.300781 C 54.500391 43.800781 56.1 39.800391 56.5 35.400391 C 56.7 33.100391 56.500391 30.8 55.900391 28.5 C 54.800391 24.3 52.800781 20.700391 49.800781 17.900391 C 47.400781 15.700391 44.700781 14.200391 41.800781 13.400391 C 40.200781 12.900391 38.499219 12.699219 36.699219 12.699219 L 36 12.699219 z " />
</svg>