<svg xmlns="http://www.w3.org/2000/svg" viewBox="0 0 69 69">
	<path fill="#000" d="M 34.400391 0 C 15.400391 0 0 15.5 0 34.5 C -4.7369516e-15 53.5 15.400391 68.900391 34.400391 68.900391 C 53.500391 68.900391 68.900391 53.5 68.900391 34.5 C 68.900391 15.5 53.400391 1.0755286e-16 34.400391 0 z M 34.400391 2 C 52.300391 2 66.800781 16.6 66.800781 34.5 C 66.800781 52.4 52.300391 66.900391 34.400391 66.900391 C 16.500391 66.900391 2 52.4 2 34.5 C 2 16.6 16.600391 2 34.400391 2 z M 34.900391 10.099609 C 31.500391 10.099609 28.800781 12.899219 28.800781 16.199219 C 28.800781 19.599219 31.500391 22.300781 34.900391 22.300781 C 38.200391 22.300781 41 19.599219 41 16.199219 C 41 12.799219 38.300391 10.099609 34.900391 10.099609 z M 34.900391 12.099609 C 37.200391 12.099609 39 13.899219 39 16.199219 C 39 18.499219 37.200391 20.300781 34.900391 20.300781 C 32.700391 20.300781 30.800781 18.499219 30.800781 16.199219 C 30.800781 13.999219 32.600391 12.099609 34.900391 12.099609 z M 34 23.800781 C 33.4 23.800781 32.5 23.8 31.5 24 C 29 24.5 27.000781 25.799219 25.800781 27.699219 C 25.800781 27.699219 23.800781 31.000781 22.300781 32.300781 L 15.699219 36.900391 C 15.599219 37.000391 14.900781 37.599609 14.800781 38.599609 C 14.700781 39.099609 14.799609 39.899219 15.599609 40.699219 C 15.699609 40.899219 16.899609 42.099609 19.099609 42.099609 C 20.099609 42.099609 21.3 41.799219 22.5 41.199219 L 25.5 39.5 L 25.699219 39.300781 L 27.900391 36.900391 L 28.5 37.099609 L 28.5 39.900391 C 28.5 40.100391 28.300781 40.700391 27.300781 41.400391 L 19.599609 46.800781 C 19.499609 46.800781 17.9 48.399219 18 50.699219 C 17.9 51.699219 18.600391 53.4 20.900391 54.5 C 21.000391 54.6 21.999609 54.900391 24.099609 54.900391 C 24.599609 54.900391 25.199609 54.899219 26.099609 55.199219 C 26.399609 55.199219 26.600781 55.100391 26.800781 54.900391 C 26.900781 54.700391 27 54.499219 27 54.199219 C 27 53.699219 26.6 53.300781 26 53.300781 C 25.4 53.400781 24.900391 53.400391 24.400391 53.400391 C 22.800391 53.400391 22.100781 53.199609 21.800781 53.099609 C 20.400781 52.399609 20.199219 51.600781 20.199219 51.300781 L 20.199219 51 C 20.099219 49.7 20.799609 48.8 21.099609 48.5 L 28.599609 43.300781 C 30.399609 41.900781 30.599609 40.499219 30.599609 40.199219 L 30.599609 34.099609 C 30.599609 33.699609 30.4 33.299219 30 33.199219 C 29.8 33.099219 29.699609 33.099609 29.599609 33.099609 C 29.299609 33.099609 29.100391 33.200391 28.900391 33.400391 L 24.5 38.099609 L 21.699219 39.699219 C 20.799219 40.099219 19.999219 40.300781 19.199219 40.300781 C 17.899219 40.300781 17.299609 39.699609 17.099609 39.599609 C 16.999609 39.499609 16.800781 39.2 16.800781 39 L 17 38.599609 L 23.599609 34 C 25.299609 32.6 27.4 29.100391 27.5 28.900391 C 29.2 26.200391 32.699609 25.900391 34.099609 25.900391 L 34.900391 25.900391 L 35.099609 25.900391 L 35.900391 25.900391 C 37.300391 25.900391 40.700391 26.200391 42.400391 28.900391 C 42.600391 29.300391 44.700391 32.599609 46.400391 34.099609 L 53 38.699219 L 53.099609 39 C 53.199609 39.2 53.000781 39.399609 52.800781 39.599609 C 52.600781 39.699609 51.999219 40.300781 50.699219 40.300781 C 49.899219 40.300781 49.099219 40.099219 48.199219 39.699219 L 45.300781 38 L 40.800781 33.400391 C 40.600781 33.200391 40.399609 33.099609 40.099609 33.099609 C 39.899609 33.099609 39.799219 33.199219 39.699219 33.199219 C 39.299219 33.299219 39.099609 33.699609 39.099609 34.099609 L 39.099609 40.199219 C 39.199609 40.399219 39.299219 41.799219 41.199219 43.199219 L 48.699219 48.5 C 48.899219 48.7 49.699609 49.7 49.599609 51 C 49.599609 51.2 49.5 52.299609 48 53.099609 L 47.800781 53.099609 L 31.199219 53.099609 C 30.999219 52.999609 29.700391 52.999609 28.900391 52.099609 C 28.400391 51.599609 28.200781 50.9 28.300781 50 L 28.400391 49.800781 C 28.500391 49.700781 28.700781 49.500391 29.300781 49.400391 C 30.500781 49.200391 37.300391 48.499219 39.900391 48.199219 C 40.500391 48.099219 40.900781 47.599609 40.800781 47.099609 C 40.700781 46.599609 40.300781 46.199219 39.800781 46.199219 L 39.599609 46.199219 C 38.099609 46.399219 30.3 47.200391 29 47.400391 C 27.1 47.700391 26.400391 48.799219 26.400391 49.699219 C 26.300391 51.499219 26.9 52.700781 27.5 53.300781 C 28.9 54.800781 30.999219 54.900391 31.199219 54.900391 L 48.199219 54.900391 C 48.299219 54.900391 48.499609 54.900781 48.599609 54.800781 C 50.999609 53.600781 51.599609 51.700781 51.599609 50.800781 C 51.699609 48.400781 50.100391 46.899219 49.900391 46.699219 L 42.300781 41.400391 C 41.400781 40.700391 41.199609 40.100781 41.099609 39.800781 L 41.099609 37 L 41.800781 36.900391 L 44.199219 39.400391 C 44.299219 39.500391 44.300391 39.599609 44.400391 39.599609 L 47.5 41.400391 C 48.6 41.900391 49.800781 42.199219 50.800781 42.199219 C 53.000781 42.199219 54.200781 40.900781 54.300781 40.800781 C 55.000781 40.000781 55.099609 39.199219 55.099609 38.699219 C 54.999609 37.699219 54.299609 37.000391 54.099609 36.900391 L 47.5 32.300781 C 46 31.000781 44 27.699219 44 27.699219 C 42.9 25.799219 40.900781 24.5 38.300781 24 C 37.300781 23.8 36.400781 23.800781 35.800781 23.800781 L 34.900391 23.800781 L 34 23.800781 z" />
</svg>