<svg xmlns="http://www.w3.org/2000/svg" viewBox="0 0 69 69">
	<path fill="#000" d="M 34.5 0 C 15.5 0 0 15.5 0 34.5 C 0 53.5 15.5 69 34.5 69 C 53.5 69 69 53.5 69 34.5 C 69 15.5 53.5 0 34.5 0 z M 34.5 2 C 52.4 2 67 16.6 67 34.5 C 67 52.4 52.4 67 34.5 67 C 16.6 67 2 52.4 2 34.5 C 2 16.6 16.6 2 34.5 2 z M 42.099609 12.5 C 41.699609 12.5 41.399219 12.7 41.199219 13 C 41.099219 13.3 38.4 19.199219 38 24.699219 C 37.9 25.099219 37.600391 28.999219 39.900391 31.699219 C 41.100391 32.999219 42.699219 33.8 44.699219 34 L 45 34 L 45 40.900391 L 40.800781 40.900391 C 40.300781 40.900391 39.900391 41.300781 39.900391 41.800781 C 39.900391 42.300781 40.300781 42.699219 40.800781 42.699219 L 40.800781 42.599609 L 51 42.599609 C 51.5 42.599609 51.900391 42.199219 51.900391 41.699219 C 51.900391 41.199219 51.5 40.800781 51 40.800781 L 46.800781 40.800781 L 46.800781 33.900391 L 47.099609 33.900391 C 49.099609 33.700391 50.800391 32.899609 51.900391 31.599609 C 54.200391 28.899609 53.900781 24.999609 53.800781 24.599609 C 53.400781 18.999609 50.599609 13.1 50.599609 13 C 50.399609 12.7 50.099219 12.5 49.699219 12.5 L 42.099609 12.5 z M 42.599609 14.300781 L 49 14.300781 L 49.099609 14.5 C 49.699609 15.9 51.099609 19.600781 51.599609 23.300781 L 51.699219 23.699219 L 39.900391 23.699219 L 40 23.300781 C 40.5 19.700781 41.9 15.9 42.5 14.5 L 42.599609 14.300781 z M 26.5 24.5 C 26 24.5 25.599609 24.900391 25.599609 25.400391 L 25.599609 31.699219 C 25.599609 33.199219 26.800781 34.400391 28.300781 34.400391 L 30 34.400391 L 23.5 41.800781 C 23.4 41.900781 23.199609 42 23.099609 42 C 22.999609 42 22.799219 41.900781 22.699219 41.800781 L 16.199219 34.400391 L 17.900391 34.400391 C 19.400391 34.400391 20.599609 33.199219 20.599609 31.699219 L 20.599609 25.800781 C 20.599609 25.300781 20.199219 24.900391 19.699219 24.900391 C 19.199219 24.900391 18.800781 25.300781 18.800781 25.800781 L 18.800781 31.699219 C 18.800781 32.099219 18.4 32.5 18 32.5 L 15.900391 32.5 C 14.800391 32.5 14.299219 33.100391 14.199219 33.400391 C 13.999219 33.700391 13.799609 34.400781 14.599609 35.300781 L 21.300781 43 C 21.700781 43.6 22.399609 43.900391 23.099609 43.900391 C 23.799609 43.900391 24.500391 43.6 24.900391 43 L 31.599609 35.300781 C 32.299609 34.400781 32.1 33.700391 32 33.400391 C 31.9 33.200391 31.500781 32.5 30.300781 32.5 L 28.199219 32.5 C 27.799219 32.5 27.400391 32.099219 27.400391 31.699219 L 27.400391 25.400391 C 27.400391 24.900391 27 24.5 26.5 24.5 z M 39.900391 25.699219 L 51.900391 25.699219 L 51.900391 26.099609 C 51.800391 27.299609 51.500391 29.100391 50.400391 30.400391 C 49.500391 31.500391 48.099609 31.999609 46.099609 32.099609 C 45.999609 31.999609 46.000391 32 45.900391 32 C 45.800391 32 45.7 32.099609 45.5 32.099609 C 43.6 31.999609 42.200781 31.400391 41.300781 30.400391 C 40.100781 29.100391 39.800781 27.3 39.800781 26 L 39.900391 25.699219 z M 11.800781 45.300781 C 11.300781 45.300781 10.900391 45.699219 10.900391 46.199219 C 10.900391 46.699219 11.300781 47.099609 11.800781 47.099609 C 14.300781 47.099609 15.600391 47.900781 16.900391 48.800781 C 18.300391 49.800781 19.9 50.800781 23 50.800781 C 26.1 50.800781 27.700781 49.7 29.300781 49 C 30.600781 48.1 31.900391 47.300781 34.400391 47.300781 C 35.700391 47.300781 51.8 47.300391 53 47.400391 C 53.4 47.400391 53.800391 47.099609 53.900391 46.599609 C 54.000391 46.099609 53.599609 45.6 53.099609 45.5 C 52.399609 45.3 35.500781 45.300781 34.300781 45.300781 C 31.200781 45.300781 29.499609 46.400781 28.099609 47.300781 C 26.799609 48.200781 25.5 49 23 49 C 20.5 49 19.200391 48.200781 17.900391 47.300781 C 16.500391 46.300781 14.900781 45.300781 11.800781 45.300781 z M 34.300781 51 C 31.200781 51 29.499609 52.1 28.099609 53 C 26.799609 53.9 25.5 54.699219 23 54.699219 C 20.6 54.699219 19.800391 54.100391 18.900391 53.400391 C 18.400391 52.900391 17.699609 52.4 16.599609 52 C 16.499609 51.9 16.400781 51.900391 16.300781 51.900391 C 15.900781 51.900391 15.500391 52.1 15.400391 52.5 C 15.300391 52.7 15.300391 52.999219 15.400391 53.199219 C 15.500391 53.399219 15.700391 53.599219 15.900391 53.699219 C 16.700391 53.999219 17.199219 54.400781 17.699219 54.800781 C 18.699219 55.700781 19.9 56.599609 23 56.599609 C 26.1 56.599609 27.699219 55.599219 29.199219 54.699219 C 30.499219 53.799219 31.800781 53 34.300781 53 C 35.600781 53 51.100391 53.099609 52.400391 53.099609 C 52.800391 53.099609 53.200781 52.800781 53.300781 52.300781 C 53.400781 51.800781 53 51.299219 52.5 51.199219 C 51.8 50.999219 35.500781 51 34.300781 51 z" />
</svg>