<svg xmlns="http://www.w3.org/2000/svg" viewBox="0 0 69 69">
	<path fill="#000" d="M 34.5 0 C 15.5 0 0 15.4 0 34.5 C 0 53.6 15.5 69 34.5 69 C 53.6 69 69 53.5 69 34.5 C 69 15.5 53.5 0 34.5 0 z M 34.5 2 C 52.4 2 67 16.6 67 34.5 C 67 52.4 52.4 67 34.5 67 C 16.6 67 2 52.4 2 34.5 C 2 16.6 16.6 2 34.5 2 z M 21.5 9.1992188 C 21.3 9.1992187 21.1 9.2007813 21 9.3007812 L 20.900391 9.3007812 C 20.800391 9.4007813 20.799219 9.4996094 20.699219 9.5996094 L 20.699219 9.6992188 L 20.699219 9.9003906 L 20.699219 10.5 C 20.699219 11 20.800391 11.5 20.900391 12 C 21.000391 12.5 21.099219 12.900391 21.199219 13.400391 C 21.399219 14.100391 21.600781 14.700391 21.800781 15.400391 C 21.900781 15.500391 21.900781 15.5 21.800781 15.5 C 21.600781 15.6 21.399219 15.8 21.199219 16 C 20.799219 16.4 20.399609 16.900391 20.099609 17.400391 C 19.899609 17.800391 19.699609 18.1 19.599609 18.5 C 19.499609 18.8 19.500391 19.100391 19.400391 19.400391 C 19.300391 19.700391 19.300781 20.100391 19.300781 20.400391 C 19.300781 20.600391 19.300391 20.700781 19.400391 20.800781 C 19.600391 21.000781 19.799609 21.099609 20.099609 21.099609 C 20.199609 21.099609 20.4 21.000391 20.5 20.900391 C 20.6 20.800391 20.599609 20.6 20.599609 20.5 C 20.599609 20.2 20.599219 19.899609 20.699219 19.599609 C 20.799219 18.999609 21.000781 18.400391 21.300781 17.900391 C 21.500781 17.600391 21.799609 17.3 22.099609 17 L 22.300781 16.800781 L 22.300781 16.900391 C 22.300781 17.000391 22.300391 17.099219 22.400391 17.199219 L 22.400391 17.400391 C 22.200391 17.800391 22.000391 18.199609 21.900391 18.599609 C 21.700391 19.199609 21.6 19.9 21.5 20.5 L 21.5 21.699219 C 21.5 22.299219 21.599219 22.900391 21.699219 23.400391 C 21.899219 24.200391 22.2 24.999219 22.5 25.699219 C 22.8 26.399219 23.199609 26.999609 23.599609 27.599609 C 23.999609 28.199609 24.499609 28.800391 25.099609 29.400391 C 25.499609 29.800391 25.900391 30.2 26.400391 30.5 C 26.600391 30.7 26.899609 30.699609 27.099609 30.599609 C 27.399609 30.499609 27.5 30.3 27.5 30 L 27.5 29.699219 C 27.5 29.399219 27.599609 29.200391 27.599609 28.900391 C 27.599609 28.900391 27.699219 28.999609 27.699219 29.099609 C 27.899219 29.499609 27.999219 29.799219 28.199219 30.199219 C 28.399219 30.599219 28.600781 30.900781 28.800781 31.300781 C 29.000781 31.500781 29.099219 31.8 29.199219 32 C 29.299219 32.1 29.399609 32.200781 29.599609 32.300781 C 29.699609 32.400781 29.9 32.4 30 32.5 C 30.5 32.8 31 32.999219 31.5 33.199219 L 32.699219 33.5 C 33.199219 33.6 33.800391 33.700781 34.400391 33.800781 C 34.700391 33.800781 35.1 33.900391 35.5 33.900391 C 35.9 34.000391 36.299219 34 36.699219 34 C 37.299219 34 37.800781 34.000391 38.300781 33.900391 C 38.700781 33.800391 39.199609 33.799219 39.599609 33.699219 C 40.099609 33.599219 40.500391 33.500391 40.900391 33.400391 C 41.500391 33.200391 42.099219 32.999219 42.699219 32.699219 C 43.499219 32.399219 44.100781 31.999609 44.800781 31.599609 C 45.500781 31.099609 46.099219 30.599609 46.699219 30.099609 C 47.199219 29.699609 47.699219 29.099609 48.199219 28.599609 C 48.499219 28.199609 48.799609 27.9 49.099609 27.5 C 49.399609 27.1 49.7 26.699219 50 26.199219 C 50.2 25.799219 50.4 25.500391 51 24.900391 C 51.1 24.800391 51.099609 24.799219 51.099609 24.699219 C 51.299609 24.299219 51.400391 23.800781 51.400391 23.300781 C 51.400391 22.700781 51.299609 22.199219 51.099609 21.699219 C 50.799609 20.999219 50.299609 20.400391 49.599609 19.900391 C 49.099609 19.600391 48.599609 19.400781 48.099609 19.300781 C 47.299609 19.100781 46.600391 19.100391 45.900391 19.400391 C 45.500391 19.600391 45.200781 19.8 44.800781 20 C 44.300781 20.3 43.900391 20.600391 43.400391 20.900391 C 43.200391 21.000391 42.899219 21.200781 42.699219 21.300781 C 42.299219 21.500781 41.999609 21.599219 41.599609 21.699219 C 41.099609 21.899219 40.5 22 40 22 C 39.4 22.1 38.699609 22.1 38.099609 22 C 37.499609 21.9 37.000391 21.799609 36.400391 21.599609 C 36.100391 21.499609 35.700391 21.399219 35.400391 21.199219 C 34.900391 20.999219 34.499219 20.700391 34.199219 20.400391 C 33.699219 19.900391 33.300391 19.5 32.900391 19 C 32.800391 18.9 32.6 18.800781 32.5 18.800781 C 32 18.700781 31.5 18.500391 31 18.400391 C 30.5 18.300391 30.099609 18.1 29.599609 18 C 29.799609 18 29.9 17.900391 30 17.900391 C 30.2 17.800391 30.500781 17.699219 30.800781 17.699219 C 31.000781 17.699219 31.200781 17.500781 31.300781 17.300781 C 31.400781 16.900781 31.200781 16.500391 30.800781 16.400391 C 30.500781 16.300391 30.299609 16.299219 30.099609 16.199219 L 28.599609 15.900391 C 27.999609 15.800391 27.500391 15.699219 26.900391 15.699219 C 26.400391 15.699219 26 15.700781 25.5 15.800781 C 24.9 15.900781 24.299219 16.000781 23.699219 16.300781 L 23.599609 16.300781 C 23.399609 15.900781 23.199609 15.499609 23.099609 15.099609 C 22.899609 14.399609 22.7 13.700391 22.5 12.900391 C 22.4 12.300391 22.299219 11.799219 22.199219 11.199219 C 22.199219 10.899219 22.099609 10.600781 22.099609 10.300781 L 22.099609 9.9003906 C 22.099609 9.5003906 21.8 9.1992188 21.5 9.1992188 z M 26.826172 17.308594 C 27.149609 17.317969 27.475781 17.350391 27.800781 17.400391 L 27.699219 17.400391 C 27.399219 17.600391 27.200391 17.700391 26.900391 17.900391 C 26.500391 18.100391 26.500781 18.600391 26.800781 18.900391 C 26.900781 18.900391 26.999609 19 27.099609 19 C 27.299609 19.1 27.499219 19.099219 27.699219 19.199219 L 28.900391 19.5 C 29.200391 19.5 29.500781 19.599219 29.800781 19.699219 C 30.300781 19.799219 30.800781 19.899609 31.300781 20.099609 C 31.400781 20.099609 31.499609 20.199219 31.599609 20.199219 C 31.599609 20.299219 31.699219 20.300781 31.699219 20.300781 C 31.899219 20.600781 32.2 20.899219 32.5 21.199219 C 32.7 21.499219 33.000781 21.8 33.300781 22 C 33.400781 22 33.4 22.099609 33.5 22.099609 C 34 22.399609 34.499609 22.700391 35.099609 22.900391 C 35.599609 23.100391 36.199219 23.300391 36.699219 23.400391 C 37.199219 23.500391 37.699219 23.599609 38.199219 23.599609 C 38.799219 23.599609 39.499609 23.6 40.099609 23.5 C 40.699609 23.4 41.300391 23.299609 41.900391 23.099609 C 42.500391 22.899609 42.900391 22.700391 43.400391 22.400391 C 43.900391 22.000391 44.400391 21.700391 44.900391 21.400391 C 45.200391 21.200391 45.500781 21.000391 45.800781 20.900391 C 46.400781 20.700391 46.9 20.700781 47.5 20.800781 C 48 21.000781 48.399219 21.2 48.699219 21.5 C 49.299219 22 49.599609 22.799609 49.599609 23.599609 C 49.599609 23.999609 49.500781 24.399219 49.300781 24.699219 C 48.900781 25.399219 48.5 26.099219 48 26.699219 C 47.6 27.199219 47.199219 27.699219 46.699219 28.199219 L 45.900391 29 C 45.500391 29.3 45.099219 29.7 44.699219 30 C 44.299219 30.3 43.800781 30.600391 43.300781 30.900391 C 42.900781 31.200391 42.5 31.399609 42 31.599609 C 41.4 31.899609 40.900781 31.999219 40.300781 32.199219 C 39.800781 32.299219 39.400391 32.4 38.900391 32.5 C 38.600391 32.5 38.200391 32.599609 37.900391 32.599609 C 37.300391 32.699609 36.600391 32.599609 35.900391 32.599609 C 35.500391 32.599609 34.999609 32.6 34.599609 32.5 C 34.199609 32.4 33.700781 32.299219 33.300781 32.199219 C 32.900781 32.099219 32.4 31.900781 32 31.800781 C 31.4 31.700781 30.800781 31.399219 30.300781 31.199219 C 30.200781 31.199219 30.199219 31.099609 30.199219 31.099609 C 29.999219 30.599609 29.7 30.199219 29.5 29.699219 L 28.900391 28.5 C 28.600391 27.8 28.299609 27.2 28.099609 26.5 C 28.099609 26.4 28 26.299219 28 26.199219 C 27.8 25.699219 27.200391 25.600391 26.900391 25.900391 C 26.800391 26.000391 26.699219 26.200781 26.699219 26.300781 C 26.699219 26.500781 26.599609 26.700391 26.599609 26.900391 C 26.599609 27.400391 26.500391 27.9 26.400391 28.5 C 26.000391 28.2 25.700781 27.799609 25.300781 27.599609 C 25.000781 27.199609 24.600781 26.699219 24.300781 26.199219 C 24.000781 25.699219 23.7 25.199219 23.5 24.699219 L 23.199219 23.800781 C 23.099219 23.400781 23 22.9 23 22.5 L 23 21 C 23 20.5 23.200781 20 23.300781 19.5 C 23.300781 19.4 23.400391 19.299219 23.400391 19.199219 L 23.400391 19.300781 C 23.800391 19.900781 24.1 20.5 24.5 21 L 25.699219 22.5 C 26.199219 23.1 26.700781 23.599609 27.300781 24.099609 C 27.500781 24.299609 27.799609 24.600781 28.099609 24.800781 C 28.399609 25.100781 28.799609 25.399609 29.099609 25.599609 C 29.799609 25.999609 30.399609 26.400781 31.099609 26.800781 C 31.599609 27.100781 32.099609 27.399609 32.599609 27.599609 L 34.099609 28.199219 L 35 28.5 C 35.5 28.6 35.900391 28.700781 36.400391 28.800781 C 36.700391 28.800781 37.100391 28.900391 37.400391 28.900391 C 38.100391 29.000391 38.8 29.000391 39.5 28.900391 C 40.2 28.800391 40.899609 28.600391 41.599609 28.400391 C 42.099609 28.200391 42.599609 27.999219 43.099609 27.699219 C 43.599609 27.499219 44.1 27.200391 44.5 26.900391 C 44.8 26.600391 45.2 26.399609 45.5 26.099609 C 45.7 25.899609 45.800781 25.799609 45.800781 25.599609 C 45.800781 25.299609 45.499609 24.900391 45.099609 24.900391 C 44.999609 24.900391 44.799219 24.9 44.699219 25 C 44.499219 25.2 44.399219 25.300391 44.199219 25.400391 C 43.999219 25.600391 43.7 25.700391 43.5 25.900391 C 43 26.200391 42.5 26.499219 42 26.699219 L 40.199219 27.300781 C 39.299219 27.500781 38.300781 27.6 37.300781 27.5 C 36.800781 27.4 36.199219 27.299219 35.699219 27.199219 C 34.899219 26.999219 34.100391 26.700391 33.400391 26.400391 C 32.800391 26.200391 32.299219 25.899609 31.699219 25.599609 C 31.099219 25.299609 30.5 24.999609 30 24.599609 C 29.5 24.299609 29.099219 23.999219 28.699219 23.699219 C 28.299219 23.399219 27.9 23.099219 27.5 22.699219 C 27 22.199219 26.499609 21.699219 26.099609 21.199219 C 25.699609 20.799219 25.399609 20.400391 25.099609 19.900391 C 24.899609 19.600391 24.7 19.200391 24.5 18.900391 C 24.3 18.600391 24.2 18.3 24 18 L 24 17.900391 C 24.9 17.450391 25.855859 17.280469 26.826172 17.308594 z M 59.099609 35.900391 C 58.399609 35.900391 57.600781 36.100391 56.800781 36.400391 L 47.599609 40.099609 L 47.199219 39.900391 L 47.199219 39.599609 C 47.199219 38.699609 46.900781 37.900781 46.300781 37.300781 C 45.300781 36.300781 43.9 36.199219 43.5 36.199219 L 27.300781 36.199219 C 21.600781 36.199219 17.799219 40.299609 16.699219 41.599609 C 16.199219 41.999609 13.999609 43.300391 12.099609 44.400391 C 11.699609 44.600391 11.600781 45.1 11.800781 45.5 C 12.000781 45.7 12.2 45.900391 12.5 45.900391 C 12.6 45.900391 12.800391 45.900781 12.900391 45.800781 C 17.600391 43.100781 17.8 42.899219 18 42.699219 C 18 42.699219 21.700781 37.900391 27.300781 37.900391 L 43.599609 37.900391 C 43.999609 37.900391 44.800781 38 45.300781 38.5 C 45.500781 38.7 45.800781 39.000781 45.800781 39.800781 C 45.800781 40.700781 45.2 41.699219 43.5 41.699219 L 29.300781 41.699219 C 28.900781 41.699219 28.5 42.1 28.5 42.5 C 28.5 42.9 28.900781 43.300781 29.300781 43.300781 L 43.5 43.300781 C 44.1 43.300781 44.700781 43.2 45.300781 43 L 57.599609 38 C 58.199609 37.7 58.800781 37.599609 59.300781 37.599609 C 59.700781 37.599609 60.000781 37.600781 60.300781 37.800781 C 60.700781 38.000781 60.9 38.399609 61 38.599609 C 61.1 38.999609 61.1 39.400781 61 39.800781 C 60.6 41.000781 59 41.800781 59 41.800781 L 41.5 50.400391 C 39.5 51.500391 37.400391 51.699219 36.400391 51.699219 L 35.900391 51.699219 L 26.5 50.400391 C 26.1 50.300391 25.599609 50.199219 25.099609 50.199219 C 24.099609 50.199219 23.300781 50.400391 23.300781 50.400391 C 23.300781 50.400391 23.199609 50.5 23.099609 50.5 L 17.300781 54 C 17.100781 54.1 17.000391 54.3 16.900391 54.5 C 16.900391 54.7 16.9 54.899609 17 55.099609 C 17.2 55.399609 17.399219 55.5 17.699219 55.5 L 18.099609 55.5 L 23.900391 52 C 24.200391 51.9 24.699609 51.900391 25.099609 51.900391 C 25.499609 51.900391 25.799219 51.9 26.199219 52 L 35.599609 53.099609 L 36.300781 53.099609 C 37.500781 53.099609 39.799219 52.999219 42.199219 51.699219 L 59.599609 43.099609 C 60.999609 42.399609 63.400781 40.400391 62.300781 37.900391 C 62.200781 37.700391 61.699609 36.699219 60.599609 36.199219 C 60.099609 35.999219 59.599609 35.900391 59.099609 35.900391 z " />
</svg>