<svg xmlns="http://www.w3.org/2000/svg" viewBox="0 0 70 70">
	<g stroke="#000" stroke-width="2" stroke-linecap="round" stroke-linejoin="round">
		<circle fill="none" cx="35" cy="35" r="34" />
		<path fill="none" d="M15 17l12 0m-12 36l12 0m-12 -4l7 0m-7 -4l7 0m-7 -4l7 0m-7 -4l7 0m-7 -4l12 0m-12 -4l7 0m-7 -4l7 0m-7 -4l7 0" />
		<g fill="#000" stroke-width="0">
			<path d="M 34.970703 16 L 33 17.316406 L 33 19.326172 L 34.970703 18.117188 L 34.970703 29.857422 L 36.917969 29.857422 L 36.917969 16 L 34.970703 16 z M 38.269531 16 L 38.269531 23.298828 L 40.041016 23.298828 C 40.276016 22.957828 40.549328 22.690047 40.861328 22.498047 C 41.174328 22.309047 41.495984 22.212891 41.833984 22.212891 C 42.454984 22.212891 42.935344 22.421891 43.277344 22.837891 C 43.615344 23.253891 43.785156 23.836891 43.785156 24.587891 L 43.785156 25.748047 C 43.785156 26.506047 43.615344 27.091812 43.277344 27.507812 C 42.935344 27.924813 42.454984 28.132812 41.833984 28.132812 C 41.293984 28.132813 40.854531 27.990031 40.519531 27.707031 C 40.180531 27.424031 39.980203 27.030438 39.908203 26.523438 L 39.908203 26.513672 L 37.966797 26.513672 L 37.966797 26.523438 C 38.080797 27.251437 38.304484 27.879391 38.646484 28.400391 C 38.984484 28.920391 39.427703 29.316844 39.970703 29.589844 C 40.513703 29.862844 41.133984 30 41.833984 30 C 42.653984 30 43.3555 29.833047 43.9375 29.498047 C 44.5235 29.166047 44.969391 28.681922 45.275391 28.044922 C 45.578391 27.410922 45.730469 26.645047 45.730469 25.748047 L 45.730469 24.587891 C 45.730469 23.689891 45.583109 22.925016 45.287109 22.291016 C 44.991109 21.653016 44.560234 21.171844 43.990234 20.839844 C 43.424234 20.511844 42.7375 20.345703 41.9375 20.345703 C 41.6255 20.345703 41.322437 20.400813 41.023438 20.507812 C 40.724438 20.615813 40.455844 20.767797 40.214844 20.966797 L 40.214844 17.851562 L 45.330078 17.851562 L 45.330078 16 L 38.269531 16 z M 49.123047 16 L 49.123047 23.298828 L 50.896484 23.298828 C 51.130484 22.957828 51.403797 22.690047 51.716797 22.498047 C 52.028797 22.309047 52.351453 22.212891 52.689453 22.212891 C 53.310453 22.212891 53.791812 22.421891 54.132812 22.837891 C 54.470813 23.253891 54.640625 23.836891 54.640625 24.587891 L 54.640625 25.748047 C 54.640625 26.506047 54.470813 27.091812 54.132812 27.507812 C 53.791812 27.924813 53.310453 28.132812 52.689453 28.132812 C 52.149453 28.132813 51.71 27.990031 51.375 27.707031 C 51.037 27.424031 50.835672 27.030438 50.763672 26.523438 L 50.763672 26.513672 L 48.822266 26.513672 L 48.822266 26.523438 C 48.936266 27.251437 49.160953 27.879391 49.501953 28.400391 C 49.840953 28.920391 50.281219 29.316844 50.824219 29.589844 C 51.367219 29.862844 51.990453 30 52.689453 30 C 53.509453 30 54.211922 29.833047 54.794922 29.498047 C 55.379922 29.166047 55.824859 28.681922 56.130859 28.044922 C 56.432859 27.410922 56.585938 26.645047 56.585938 25.748047 L 56.585938 24.587891 C 56.585937 23.689891 56.440531 22.925016 56.144531 22.291016 C 55.847531 21.653016 55.414703 21.171844 54.845703 20.839844 C 54.279703 20.511844 53.592969 20.345703 52.792969 20.345703 C 52.480969 20.345703 52.177906 20.400813 51.878906 20.507812 C 51.579906 20.615813 51.309359 20.767797 51.068359 20.966797 L 51.068359 17.851562 L 56.185547 17.851562 L 56.185547 16 L 49.123047 16 z M 46.255859 27.816406 L 46.255859 29.857422 L 48.296875 29.857422 L 48.296875 27.816406 L 46.255859 27.816406 z" />
			<path d="M 41.808594 40 C 40.536594 40 39.566391 40.340484 38.900391 41.021484 C 38.235391 41.702484 37.904297 42.661672 37.904297 43.888672 L 37.904297 50.111328 C 37.904297 51.335328 38.236437 52.290609 38.898438 52.974609 C 39.560438 53.658609 40.529594 54 41.808594 54 C 43.084594 54 44.055703 53.659516 44.720703 52.978516 C 45.386703 52.297516 45.716797 51.342328 45.716797 50.111328 L 45.716797 43.888672 C 45.716797 42.654672 45.386609 41.697531 44.724609 41.019531 C 44.062609 40.341531 43.090594 40 41.808594 40 z M 34.947266 40.171875 L 33 41.472656 L 33 43.457031 L 34.947266 42.261719 L 34.947266 53.859375 L 36.869141 53.859375 L 36.869141 40.171875 L 34.947266 40.171875 z M 41.808594 41.828125 C 42.493594 41.828125 42.995406 42.006375 43.316406 42.359375 C 43.637406 42.716375 43.794922 43.223672 43.794922 43.888672 L 43.794922 50.111328 C 43.794922 50.776328 43.6335 51.288578 43.3125 51.642578 C 42.9885 51.995578 42.486594 52.175781 41.808594 52.175781 C 41.130594 52.175781 40.632594 51.995578 40.308594 51.642578 C 39.983594 51.288578 39.824219 50.776328 39.824219 50.111328 L 39.824219 43.888672 C 39.824219 43.223672 39.984641 42.716375 40.306641 42.359375 C 40.624641 42.006375 41.124594 41.828125 41.808594 41.828125 z" />
		</g>
	</g>
</svg>