<svg xmlns="http://www.w3.org/2000/svg" viewBox="0 0 70 70">
	<g stroke="#000" stroke-width="2" stroke-linecap="round" stroke-linejoin="round">
		<circle fill="none" cx="35" cy="35" r="34" />
		<path fill="none" d="M15 17l12 0m-12 36l12 0m-12 -4l7 0m-7 -4l7 0m-7 -4l7 0m-7 -4l7 0m-7 -4l12 0m-12 -4l7 0m-7 -4l7 0m-7 -4l7 0" />
		<path fill="#000" stroke-width="0" d="M 49.09375 22.675781 C 47.76375 22.675781 46.598609 22.935359 45.599609 23.443359 C 44.594609 23.956359 43.816531 24.679328 43.269531 25.611328 C 42.717531 26.544328 42.441406 27.626562 42.441406 28.851562 L 42.441406 29.421875 C 42.441406 30.370875 42.696219 31.269859 43.199219 32.130859 C 43.695219 32.986859 44.363406 33.643703 45.191406 34.095703 C 44.214406 34.620703 43.430844 35.4055 42.839844 36.4375 C 42.254844 37.4745 41.962891 38.577906 41.962891 39.753906 L 41.962891 40.140625 C 41.962891 41.449625 42.254844 42.590125 42.839844 43.578125 C 43.430844 44.566125 44.263844 45.328281 45.339844 45.863281 C 46.416844 46.405281 47.66975 46.675781 49.09375 46.675781 C 50.51175 46.675781 51.764797 46.405281 52.841797 45.863281 C 53.923797 45.328281 54.751797 44.566125 55.341797 43.578125 C 55.926797 42.590125 56.220703 41.449625 56.220703 40.140625 L 56.220703 39.753906 C 56.220703 38.577906 55.922172 37.473266 55.326172 36.447266 C 54.729172 35.415266 53.935406 34.631703 52.941406 34.095703 C 53.780406 33.654703 54.458797 33.002344 54.966797 32.152344 C 55.479797 31.302344 55.738281 30.393875 55.738281 29.421875 L 55.738281 28.851562 C 55.738281 27.626563 55.464109 26.544328 54.912109 25.611328 C 54.365109 24.679328 53.587031 23.956359 52.582031 23.443359 C 51.583031 22.935359 50.41875 22.675781 49.09375 22.675781 z M 35.345703 22.919922 L 32 25.154297 L 32 28.566406 L 35.345703 26.511719 L 35.345703 46.433594 L 38.646484 46.433594 L 38.646484 22.919922 L 35.345703 22.919922 z M 49.09375 25.849609 C 49.75075 25.849609 50.329891 25.981813 50.837891 26.257812 C 51.345891 26.533812 51.738531 26.925594 52.019531 27.433594 C 52.301531 27.935594 52.439453 28.520734 52.439453 29.177734 L 52.439453 29.404297 C 52.439453 30.094297 52.301531 30.702422 52.019531 31.232422 C 51.738531 31.761422 51.345891 32.164172 50.837891 32.451172 C 50.329891 32.739172 49.75075 32.882812 49.09375 32.882812 C 48.43075 32.882812 47.85175 32.739172 47.34375 32.451172 C 46.83575 32.164172 46.443109 31.760188 46.162109 31.242188 C 45.880109 30.717188 45.742188 30.1155 45.742188 29.4375 L 45.742188 29.195312 C 45.742187 28.527313 45.880109 27.935594 46.162109 27.433594 C 46.443109 26.925594 46.83575 26.533812 47.34375 26.257812 C 47.85175 25.981813 48.43075 25.849609 49.09375 25.849609 z M 49.09375 36.050781 C 49.85575 36.050781 50.528281 36.199906 51.113281 36.503906 C 51.693281 36.807906 52.145938 37.226438 52.460938 37.773438 C 52.780937 38.319438 52.941406 38.954875 52.941406 39.671875 L 52.941406 39.898438 C 52.941406 40.610438 52.780938 41.239156 52.460938 41.785156 C 52.145938 42.326156 51.693281 42.750687 51.113281 43.054688 C 50.528281 43.352688 49.85575 43.507812 49.09375 43.507812 C 48.32675 43.507812 47.653359 43.359547 47.068359 43.060547 C 46.489359 42.762547 46.035703 42.347641 45.720703 41.806641 C 45.400703 41.266641 45.240234 40.643641 45.240234 39.931641 L 45.240234 39.6875 C 45.240234 38.9645 45.400703 38.329203 45.720703 37.783203 C 46.035703 37.230203 46.489359 36.807906 47.068359 36.503906 C 47.653359 36.199906 48.32675 36.050781 49.09375 36.050781 z" />
	</g>
</svg>