<svg xmlns="http://www.w3.org/2000/svg" viewBox="0 0 70 70">
	<g stroke="#000" stroke-width="2" stroke-linecap="round" stroke-linejoin="round">
		<circle fill="none" cx="35" cy="35" r="34" />
		<path fill="none" d="M15 17l12 0m-12 36l12 0m-12 -4l7 0m-7 -4l7 0m-7 -4l7 0m-7 -4l7 0m-7 -4l12 0m-12 -4l7 0m-7 -4l7 0m-7 -4l7 0" />
		<path fill="#000" stroke-width="0" d="M 38.794922 22.675781 C 37.552922 22.675781 36.460719 22.929641 35.511719 23.431641 C 34.561719 23.928641 33.787406 24.656328 33.191406 25.611328 C 32.590406 26.566328 32.193 27.7165 32 29.0625 L 32 29.078125 L 35.410156 29.078125 L 35.410156 29.0625 C 35.543156 28.0305 35.902047 27.229156 36.498047 26.660156 C 37.088047 26.097156 37.868125 25.816406 38.828125 25.816406 C 39.838125 25.816406 40.621969 26.071844 41.167969 26.589844 C 41.719969 27.108844 41.996094 27.837391 41.996094 28.775391 L 41.996094 28.808594 C 41.996094 29.388594 41.864609 30.016453 41.599609 30.689453 C 41.334609 31.363453 40.964234 32.014672 40.490234 32.638672 L 32.292969 43.568359 L 32.292969 46.433594 L 45.550781 46.433594 L 45.550781 43.298828 L 36.658203 43.298828 L 43.464844 34.046875 C 44.082844 33.201875 44.562297 32.330781 44.904297 31.425781 C 45.252297 30.520781 45.423828 29.652219 45.423828 28.824219 L 45.423828 28.808594 C 45.423828 27.511594 45.165484 26.406234 44.646484 25.490234 C 44.133484 24.574234 43.375813 23.878438 42.382812 23.398438 C 41.388813 22.918437 40.196922 22.675781 38.794922 22.675781 z M 53.267578 22.919922 L 48.15625 33.042969 C 48.08425 33.197969 48.007688 33.345859 47.929688 33.505859 C 47.857688 33.659859 47.78575 33.820469 47.71875 33.980469 C 47.33275 34.908469 47.034078 35.8525 46.830078 36.8125 C 46.626078 37.7735 46.527344 38.688547 46.527344 39.560547 L 46.527344 39.576172 C 46.527344 41.072172 46.781922 42.354922 47.294922 43.419922 C 47.808922 44.479922 48.552297 45.284797 49.529297 45.841797 C 50.511297 46.399797 51.694219 46.675781 53.074219 46.675781 C 54.454219 46.675781 55.635047 46.394891 56.623047 45.837891 C 57.611047 45.274891 58.361141 44.457 58.869141 43.375 C 59.383141 42.299 59.642578 41.006141 59.642578 39.494141 L 59.642578 39.478516 C 59.642578 38.004516 59.415891 36.739547 58.962891 35.685547 C 58.504891 34.636547 57.842703 33.837156 56.970703 33.285156 C 56.098703 32.739156 55.050938 32.462891 53.835938 32.462891 C 53.145938 32.462891 52.538391 32.600813 52.025391 32.882812 C 51.858373 32.97324 51.70924 33.077822 51.568359 33.191406 L 56.826172 22.919922 L 53.267578 22.919922 z M 52.914062 35.630859 C 54.012063 35.630859 54.856125 35.990031 55.453125 36.707031 C 56.043125 37.425031 56.341797 38.439906 56.341797 39.753906 L 56.341797 39.771484 C 56.341797 40.968484 56.059234 41.889156 55.490234 42.535156 C 54.927234 43.181156 54.122219 43.507812 53.074219 43.507812 C 52.041219 43.507813 51.241828 43.187969 50.673828 42.542969 C 50.104828 41.901969 49.822266 40.985109 49.822266 39.787109 L 49.822266 39.771484 C 49.822266 38.457484 50.093766 37.435891 50.634766 36.712891 C 51.169766 35.989891 51.931063 35.630859 52.914062 35.630859 z" />
	</g>
</svg>