<svg xmlns="http://www.w3.org/2000/svg" viewBox="0 0 69 69">
	<path fill="#000" d="M 34.5 0 C 15.5 0 0 15.4 0 34.5 C 0 53.6 15.5 69 34.5 69 C 53.5 69 69 53.5 69 34.5 C 69 15.5 53.5 0 34.5 0 z M 34.5 2.0996094 C 52.4 2.0996094 67 16.6 67 34.5 C 67 52.4 52.4 67 34.5 67 C 16.6 67 2 52.4 2 34.5 C 2 16.6 16.6 2.0996094 34.5 2.0996094 z M 34.5 5 C 34.2 5 33.900391 5.2996094 33.900391 5.5996094 L 33.900391 18.599609 C 33.900391 18.999609 34.2 19.199219 34.5 19.199219 C 34.8 19.199219 35.099609 18.899609 35.099609 18.599609 L 35.099609 5.5996094 C 35.099609 5.2996094 34.8 5 34.5 5 z M 20.328125 8.6054688 C 20.2125 8.6179686 20.1 8.6492186 20 8.6992188 C 19.6 8.8992187 19.499219 9.5003906 19.699219 9.9003906 L 23 15.699219 L 24.5 14.800781 L 21.199219 9 C 21.049219 8.7 20.675 8.5679687 20.328125 8.6054688 z M 40.546875 9.5820312 C 40.21875 9.6195313 39.975391 9.8242186 39.900391 10.199219 C 39.700391 10.699219 40.000391 11.100781 40.400391 11.300781 C 47.700391 13.300781 53.6 18.899609 56 26.099609 L 54 25.199219 C 53.6 24.999219 53.100391 25.199609 52.900391 25.599609 C 52.700391 25.999609 52.900781 26.499219 53.300781 26.699219 L 57.300781 28.599609 C 57.400781 28.699609 57.499219 28.699219 57.699219 28.699219 C 57.799219 28.699219 57.9 28.699609 58 28.599609 C 58.2 28.499609 58.4 28.299609 58.5 28.099609 L 60 24.099609 C 60.2 23.699609 59.9 23.2 59.5 23 C 59.1 22.8 58.600391 23.1 58.400391 23.5 L 57.699219 25.400391 C 54.999219 17.700391 48.700391 11.699609 40.900391 9.5996094 C 40.775391 9.5746094 40.65625 9.5695314 40.546875 9.5820312 z M 9.3867188 19.808594 C 9.0679687 19.775781 8.7496094 19.925781 8.5996094 20.300781 C 8.2996094 20.700781 8.5003906 21.2 8.9003906 21.5 L 15 24.599609 C 15.3 24.099609 15.500781 23.599609 15.800781 23.099609 L 9.6992188 19.900391 C 9.5992187 19.850391 9.4929686 19.819531 9.3867188 19.808594 z M 39.5 24.900391 C 38.5 24.900391 33.900391 25.100781 33.900391 33.800781 C 33.900391 42.500781 38.5 42.699219 39.5 42.699219 C 40.5 42.699219 45.099609 42.500781 45.099609 33.800781 C 45.099609 25.100781 40.5 24.900391 39.5 24.900391 z M 27 25.400391 C 26.7 27.400391 24.600781 28.400391 23.300781 28.400391 L 22.900391 28.400391 L 22.900391 30.400391 L 26.199219 30.400391 L 26.199219 42.300781 L 29.5 42.300781 L 29.5 25.400391 L 27 25.400391 z M 39.5 27.900391 C 41.8 27.900391 42 31.400391 42 33.900391 C 42 36.400391 41.9 39.900391 39.5 39.900391 C 37.2 39.900391 37 36.300391 37 33.900391 C 37 31.500391 37.2 27.900391 39.5 27.900391 z M 5.5996094 33.900391 C 5.2996094 33.900391 5 34.2 5 34.5 C 5 34.8 5.2996094 35.099609 5.5996094 35.099609 L 18.599609 35.099609 C 18.899609 35.099609 19.199219 34.8 19.199219 34.5 C 19.199219 34.2 18.899609 33.900391 18.599609 33.900391 L 5.5996094 33.900391 z M 50.400391 33.900391 C 50.100391 33.900391 49.800781 34.2 49.800781 34.5 C 49.800781 34.8 50.100391 35.099609 50.400391 35.099609 L 63.400391 35.099609 C 63.700391 35.099609 64 34.8 64 34.5 C 64 34.2 63.700391 33.900391 63.400391 33.900391 L 50.400391 33.900391 z M 54.400391 43 C 54.200391 43.5 53.899219 44 53.699219 44.5 L 59.199219 47.300781 C 59.299219 47.400781 59.499609 47.400391 59.599609 47.400391 C 59.899609 47.400391 60.200391 47.200391 60.400391 46.900391 C 60.500391 46.600391 60.300391 46.100391 59.900391 45.900391 L 54.400391 43 z M 15.099609 44.099609 L 10 47 C 9.6 47.2 9.4992188 47.799219 9.6992188 48.199219 C 9.8992186 48.499219 10.100391 48.599609 10.400391 48.599609 C 10.500391 48.599609 10.700781 48.6 10.800781 48.5 L 15.900391 45.599609 C 15.600391 45.099609 15.299609 44.599609 15.099609 44.099609 z M 34.5 49.900391 C 34.2 49.900391 33.900391 50.2 33.900391 50.5 L 33.900391 63.5 C 33.900391 63.8 34.2 64.099609 34.5 64.099609 C 34.8 64.099609 35.099609 63.8 35.099609 63.5 L 35.099609 50.5 C 35.099609 50.1 34.8 49.900391 34.5 49.900391 z M 46.300781 52.5 L 44.800781 53.400391 L 47.699219 58.300781 C 47.899219 58.600781 48.100391 58.699219 48.400391 58.699219 C 48.500391 58.699219 48.700781 58.699609 48.800781 58.599609 C 49.200781 58.399609 49.299609 57.800391 49.099609 57.400391 L 46.300781 52.5 z M 23.800781 53 L 20.900391 58.5 C 20.700391 58.9 20.800781 59.399609 21.300781 59.599609 C 21.400781 59.699609 21.599219 59.699219 21.699219 59.699219 C 21.999219 59.699219 22.3 59.499219 22.5 59.199219 L 25.300781 53.800781 C 24.800781 53.600781 24.300781 53.3 23.800781 53 z" />
</svg>