<svg xmlns="http://www.w3.org/2000/svg" viewBox="0 0 70 70">
	<g stroke="#000" stroke-width="2" stroke-linecap="round" stroke-linejoin="round">
		<circle fill="none" cx="35" cy="35" r="34" />
		<path fill="none" d="M15 17l12 0m-12 36l12 0m-12 -4l7 0m-7 -4l7 0m-7 -4l7 0m-7 -4l7 0m-7 -4l12 0m-12 -4l7 0m-7 -4l7 0m-7 -4l7 0" />
		<path fill="#000" stroke-width="0" d="M 48.265625 22.675781 C 47.078625 22.675781 46.029281 22.913672 45.113281 23.388672 C 44.197281 23.863672 43.441844 24.558609 42.839844 25.474609 C 42.243844 26.391609 41.834141 27.489391 41.619141 28.775391 L 44.964844 28.775391 C 45.107844 28.118391 45.329672 27.572859 45.638672 27.130859 C 45.947672 26.694859 46.322672 26.374063 46.763672 26.164062 C 47.205672 25.955062 47.707625 25.849609 48.265625 25.849609 C 49.247625 25.849609 50.004063 26.097469 50.539062 26.605469 C 51.069062 27.113469 51.339844 27.831766 51.339844 28.759766 L 51.339844 29.486328 C 51.339844 30.485328 51.085125 31.264406 50.578125 31.816406 C 50.070125 32.362406 49.358406 32.638672 48.441406 32.638672 L 46.78125 32.638672 L 46.78125 35.773438 L 48.441406 35.773438 C 49.490406 35.773438 50.297094 36.094234 50.871094 36.740234 C 51.440094 37.381234 51.726562 38.285938 51.726562 39.460938 L 51.726562 40.173828 C 51.726562 41.232828 51.422312 42.049766 50.820312 42.634766 C 50.219313 43.214766 49.36925 43.507812 48.28125 43.507812 C 47.59125 43.507812 46.991516 43.403359 46.478516 43.193359 C 45.970516 42.983359 45.550609 42.657562 45.224609 42.226562 C 44.904609 41.795563 44.695703 41.249172 44.595703 40.576172 L 41.234375 40.576172 C 41.394375 41.862172 41.779719 42.960094 42.386719 43.871094 C 42.999719 44.782094 43.805687 45.477031 44.804688 45.957031 C 45.808687 46.432031 46.96825 46.675781 48.28125 46.675781 C 49.70525 46.675781 50.921641 46.422063 51.931641 45.914062 C 52.935641 45.406062 53.702422 44.672172 54.232422 43.701172 C 54.762422 42.729172 55.027344 41.558453 55.027344 40.189453 L 55.027344 39.804688 C 55.027344 38.280688 54.67475 37.033781 53.96875 36.050781 C 53.26175 35.068781 52.267469 34.43725 50.980469 34.15625 C 52.145469 33.75925 53.045547 33.125906 53.685547 32.253906 C 54.320547 31.375906 54.636719 30.353734 54.636719 29.177734 L 54.636719 28.792969 C 54.636719 26.849969 54.084609 25.347344 52.974609 24.277344 C 51.859609 23.211344 50.291625 22.675781 48.265625 22.675781 z M 35.345703 22.919922 L 32 25.154297 L 32 28.566406 L 35.345703 26.511719 L 35.345703 46.433594 L 38.646484 46.433594 L 38.646484 22.919922 L 35.345703 22.919922 z" />
	</g>
</svg>