<svg xmlns="http://www.w3.org/2000/svg" viewBox="0 0 136 136">
	<path fill="#000" d="M 67.949219 -0.009765625 C 30.479219 -0.009765625 -0.001953125 30.473312 -0.001953125 67.945312 C -0.001953125 105.41731 30.479219 135.90234 67.949219 135.90234 C 105.42122 135.90234 135.9082 105.41731 135.9082 67.945312 C 135.9082 30.473312 105.42122 -0.009765625 67.949219 -0.009765625 z M 67.949219 4.8085938 C 102.76322 4.8085937 131.08398 33.133313 131.08398 67.945312 C 131.08398 102.75931 102.76322 131.08398 67.949219 131.08398 C 33.137219 131.08398 4.8203125 102.75931 4.8203125 67.945312 C 4.8203125 33.133312 33.137219 4.8085937 67.949219 4.8085938 z M 73.417969 27.078125 C 72.809969 27.076375 72.20075 27.090187 71.59375 27.117188 C 70.57575 27.169187 69.568406 27.258625 68.566406 27.390625 C 67.566406 27.528625 66.577516 27.709406 65.603516 27.941406 C 64.103516 28.293406 62.642844 28.739062 61.214844 29.289062 C 59.492844 29.959063 57.837766 30.759031 56.259766 31.707031 C 54.655766 32.663031 53.131359 33.735781 51.693359 34.925781 C 50.411359 35.989781 49.188875 37.123703 48.046875 38.345703 C 47.306875 39.133703 46.584344 39.94325 45.902344 40.78125 C 45.196344 41.64925 44.505094 42.529172 43.871094 43.451172 C 43.825094 43.517172 43.76875 43.574814 43.71875 43.632812 C 43.15475 44.500813 42.591344 45.366469 42.027344 46.230469 C 41.969344 46.368469 41.911656 46.51225 41.847656 46.65625 C 41.395656 47.67625 41.138031 48.746812 41.082031 49.882812 C 41.024031 51.150813 41.212438 52.389563 41.648438 53.601562 C 42.286437 55.371564 43.359797 56.845813 44.841797 58.007812 C 45.855797 58.801812 46.981172 59.3535 48.201172 59.6875 C 49.911172 60.1495 51.596141 60.117328 53.244141 59.611328 C 54.186141 59.327328 55.073781 58.907594 55.925781 58.433594 C 57.063781 57.791594 58.174687 57.112937 59.304688 56.460938 C 59.848686 56.148936 60.387078 55.828547 60.955078 55.560547 C 61.757078 55.184547 62.616422 54.950141 63.482422 54.744141 C 64.710422 54.454141 65.960375 54.289953 67.234375 54.251953 C 68.704375 54.201953 70.166953 54.307891 71.626953 54.587891 C 72.966953 54.845891 74.259438 55.253203 75.523438 55.783203 C 76.303438 56.111203 77.047156 56.507922 77.785156 56.919922 C 78.741156 57.451922 79.626672 58.080578 80.388672 58.892578 C 81.380672 59.944578 82.28425 61.068703 83.15625 62.220703 C 83.38025 62.516703 83.648186 62.72575 83.992188 62.84375 C 85.116187 63.23575 86.241187 63.629531 87.367188 64.019531 C 88.409187 64.377531 89.454047 64.726078 90.498047 65.080078 C 90.528047 65.090078 90.559516 65.120344 90.603516 65.152344 C 90.569516 65.172344 90.549391 65.189266 90.525391 65.197266 C 90.237391 65.295266 89.954063 65.400187 89.664062 65.492188 C 89.026063 65.692187 88.383313 65.87425 87.695312 65.90625 C 87.149314 65.92625 86.742 66.226422 86.5 66.732422 C 86.106 67.562422 86.584375 68.622203 87.484375 68.908203 C 87.998375 69.072203 88.511391 69.247547 89.025391 69.435547 C 90.141391 69.835547 91.273687 70.169734 92.429688 70.427734 C 93.701687 70.713734 94.987344 70.910422 96.277344 70.982422 C 97.359344 71.036422 98.426234 71.016437 99.490234 70.898438 C 100.95823 70.730436 102.36842 70.389516 103.73242 69.853516 C 103.79242 69.829516 103.85583 69.816922 103.92383 69.794922 C 103.94783 69.844922 103.96656 69.874297 103.97656 69.904297 C 104.28256 70.840297 104.60886 71.772797 104.88086 72.716797 C 105.38886 74.450797 105.78217 76.200564 106.07617 77.976562 C 106.29817 79.284564 106.47627 80.607686 106.57227 81.929688 C 106.61827 82.649687 106.64578 83.367844 106.67578 84.089844 C 106.68978 84.377844 106.67764 84.663172 106.68164 84.951172 C 106.68164 85.747172 107.23767 86.416594 108.01367 86.558594 C 108.40767 86.624594 108.75214 86.543656 109.07812 86.347656 C 109.14414 86.305656 109.1933 86.244969 109.2793 86.292969 C 109.4313 86.054969 109.58819 85.819937 109.74219 85.585938 C 109.73019 85.527936 109.70889 85.466109 109.71289 85.412109 C 109.71689 85.288109 109.74023 85.167064 109.74023 85.039062 C 109.74023 84.539062 109.74266 84.040969 109.72266 83.542969 C 109.67466 82.350969 109.58597 81.15675 109.41797 79.96875 C 109.26997 78.88675 109.11588 77.810375 108.92188 76.734375 C 108.63787 75.130375 108.24692 73.546609 107.79492 71.974609 C 107.74292 71.804609 107.74253 71.798891 107.89453 71.712891 C 108.44853 71.368891 108.97875 71.000125 109.46875 70.578125 C 110.51475 69.684125 111.4282 68.670234 112.1582 67.490234 C 112.6322 66.726234 113.04723 65.926172 113.36523 65.076172 C 113.60723 64.432172 113.80689 63.77575 113.96289 63.09375 C 114.14089 62.34375 114.25813 61.574828 114.32812 60.798828 C 114.35213 60.510828 114.31002 60.223078 114.16602 59.955078 C 113.89202 59.433078 113.25839 59.085234 112.65039 59.115234 C 112.25839 59.139234 111.91444 59.256781 111.64844 59.550781 C 111.42244 59.800781 111.30939 60.095686 111.27539 60.429688 C 111.21139 61.113687 111.10922 61.798844 110.94922 62.464844 C 110.61122 63.854844 110.09153 65.154453 109.26953 66.314453 C 108.71153 67.112453 108.05544 67.824203 107.27344 68.408203 C 107.11344 68.528203 106.95325 68.639719 106.78125 68.761719 C 106.74125 68.703719 106.71908 68.674719 106.70508 68.636719 C 106.60308 68.378719 106.5122 68.115422 106.4082 67.857422 C 106.3522 67.727422 106.36178 67.625813 106.42578 67.507812 C 106.91978 66.649812 107.33117 65.756125 107.70117 64.828125 C 108.25517 63.434125 108.64481 61.986328 108.88281 60.486328 C 109.03681 59.540328 109.12044 58.581328 109.14844 57.611328 C 109.17844 56.317328 109.09239 55.024469 108.90039 53.730469 C 108.61839 51.862469 108.11411 50.039531 107.41211 48.269531 C 106.78211 46.665531 106.00189 45.137828 105.08789 43.673828 C 104.10189 42.095828 102.9808 40.621906 101.7168 39.253906 C 100.8228 38.283906 99.86175 37.379064 98.84375 36.539062 C 98.36175 36.137062 97.819812 36.035344 97.257812 36.277344 C 96.695813 36.519344 96.397375 36.954078 96.359375 37.580078 C 96.349375 37.804078 96.332875 38.031906 96.296875 38.253906 C 96.200875 38.863906 96.090328 39.473984 95.986328 40.083984 C 95.984328 40.107984 95.961641 40.123781 95.931641 40.175781 C 95.853641 39.951781 95.786656 39.768078 95.722656 39.580078 C 95.422656 38.716078 95.139814 37.841953 94.757812 37.001953 C 94.367813 36.135953 93.991563 35.258672 93.601562 34.388672 C 93.349563 33.824672 93.092078 33.263266 92.830078 32.697266 C 92.658078 32.327266 92.385672 32.043281 92.013672 31.863281 C 91.711672 31.715281 91.407469 31.556344 91.105469 31.402344 C 89.911469 30.804344 88.695312 30.253062 87.445312 29.789062 C 86.547314 29.463063 85.640469 29.157375 84.730469 28.859375 C 83.418469 28.431375 82.082188 28.10975 80.742188 27.84375 C 79.870188 27.66975 78.991328 27.520203 78.111328 27.408203 C 77.157328 27.284203 76.198234 27.194719 75.240234 27.136719 C 74.633234 27.098719 74.025969 27.079875 73.417969 27.078125 z M 73.708984 30.179688 C 74.901953 30.190843 76.094156 30.281922 77.285156 30.419922 C 78.295156 30.533922 79.302734 30.698062 80.302734 30.914062 C 81.334734 31.130063 82.362953 31.385547 83.376953 31.685547 C 84.396953 31.977547 85.402484 32.313219 86.396484 32.699219 C 87.690484 33.207219 88.968844 33.766016 90.214844 34.416016 C 90.298844 34.462016 90.348719 34.527328 90.386719 34.611328 C 90.866719 35.693328 91.356172 36.771516 91.826172 37.853516 C 92.230172 38.779516 92.624094 39.708531 92.996094 40.644531 C 93.620094 42.196531 94.215453 43.761234 94.689453 45.365234 C 94.761453 45.613234 94.818906 45.861328 94.878906 46.111328 C 95.172906 47.325328 96.576859 47.685436 97.380859 47.023438 C 97.642859 46.803437 97.795141 46.515547 97.869141 46.185547 C 97.975141 45.705547 98.079641 45.225953 98.181641 44.751953 C 98.423641 43.595953 98.660297 42.435344 98.904297 41.277344 C 98.908297 41.241344 98.929219 41.208297 98.949219 41.154297 C 98.997219 41.196297 99.036359 41.221859 99.068359 41.255859 C 99.844359 42.047859 100.56019 42.897484 101.24219 43.771484 C 102.07419 44.835484 102.81856 45.954859 103.47656 47.130859 C 104.11656 48.270859 104.6465 49.455406 105.0625 50.691406 C 105.3065 51.415406 105.49639 52.152437 105.65039 52.898438 C 105.86639 53.914437 106.01259 54.93875 106.05859 55.96875 C 106.11459 57.17275 106.07444 58.364828 105.89844 59.548828 C 105.71844 60.776828 105.40409 61.953281 104.99609 63.113281 C 104.91409 63.341281 104.82433 63.566922 104.73633 63.794922 C 104.72433 63.818922 104.70011 63.846578 104.66211 63.892578 C 104.61811 63.814578 104.58459 63.753312 104.55859 63.695312 C 103.87459 62.315312 103.12086 60.975922 102.29688 59.669922 C 101.52886 58.439922 100.68873 57.249422 99.802734 56.107422 C 98.720734 54.723422 97.572313 53.403828 96.320312 52.173828 C 95.700312 51.571828 95.0795 50.966578 94.4375 50.392578 C 93.7075 49.736578 92.945922 49.111812 92.169922 48.507812 C 90.759922 47.403813 89.273672 46.409031 87.763672 45.457031 C 86.653672 44.757031 85.517516 44.11 84.353516 43.5 C 83.259516 42.932 82.147813 42.397359 81.007812 41.943359 C 80.305813 41.663359 79.608436 41.382531 78.898438 41.144531 C 77.874437 40.792531 76.839203 40.479672 75.783203 40.263672 C 75.007203 40.103672 74.225453 39.951797 73.439453 39.841797 C 71.787453 39.599797 70.130609 39.548016 68.474609 39.666016 C 66.752609 39.786016 65.069828 40.086312 63.423828 40.570312 C 62.171828 40.938313 60.951578 41.383922 59.767578 41.919922 C 58.609578 42.443922 57.492203 43.023734 56.408203 43.677734 C 55.540203 44.191734 54.696906 44.742078 53.878906 45.330078 C 53.526906 45.582078 53.282328 45.903469 53.236328 46.355469 C 53.150328 47.193469 53.835969 48.059969 54.667969 48.167969 C 55.047969 48.215969 55.375641 48.112344 55.681641 47.902344 C 56.063641 47.644344 56.436172 47.376906 56.826172 47.128906 C 57.366172 46.784906 57.908844 46.445188 58.464844 46.117188 C 59.598844 45.447187 60.777953 44.865234 62.001953 44.365234 C 63.363953 43.809234 64.770609 43.375797 66.224609 43.091797 C 68.460609 42.653797 70.721813 42.590766 73.007812 42.884766 C 74.279813 43.044766 75.545156 43.309828 76.785156 43.673828 C 78.565156 44.195828 80.29275 44.875312 81.96875 45.695312 C 83.28075 46.339312 84.560547 47.052547 85.810547 47.810547 C 87.102547 48.590547 88.356219 49.430219 89.574219 50.324219 C 90.550219 51.038219 91.492391 51.805375 92.400391 52.609375 C 93.330391 53.427375 94.218172 54.293266 95.076172 55.197266 C 96.168172 56.355266 97.182719 57.583328 98.136719 58.861328 C 98.898719 59.883328 99.610044 60.942969 100.24805 62.042969 C 100.71605 62.846969 101.18323 63.64875 101.61523 64.46875 C 101.99123 65.19275 102.32383 65.937875 102.67383 66.671875 C 102.68983 66.703875 102.6988 66.750781 102.7168 66.800781 C 99.882794 67.962781 96.943186 68.090469 93.867188 67.480469 C 93.939188 67.426469 93.977578 67.393047 94.017578 67.373047 C 94.643578 67.033047 95.272578 66.713281 95.892578 66.363281 C 96.796578 65.855281 96.800531 64.620936 96.144531 63.960938 C 95.974531 63.790937 95.778734 63.657984 95.552734 63.583984 C 95.122734 63.433984 94.689813 63.298437 94.257812 63.148438 C 93.371814 62.850437 92.483609 62.550047 91.599609 62.248047 C 90.921609 62.020047 90.251984 61.798453 89.583984 61.564453 C 88.409984 61.160453 87.238314 60.747891 86.070312 60.337891 C 85.854312 60.261891 85.639781 60.193328 85.425781 60.111328 C 85.347781 60.081328 85.261031 60.028891 85.207031 59.962891 C 84.633031 59.196891 84.036016 58.452562 83.416016 57.726562 C 82.828016 57.038564 82.213156 56.386922 81.535156 55.794922 C 81.399156 55.676922 81.249516 55.564936 81.103516 55.460938 C 79.955516 54.634937 78.732844 53.941984 77.464844 53.333984 C 76.298844 52.775984 75.091328 52.330422 73.861328 51.982422 C 72.695328 51.654422 71.516219 51.41125 70.324219 51.28125 C 68.824219 51.11525 67.329891 51.09275 65.837891 51.21875 C 64.411891 51.33875 63.012484 51.58675 61.646484 51.96875 C 60.414484 52.32075 59.261969 52.82275 58.167969 53.46875 C 56.977969 54.18075 55.781891 54.872406 54.587891 55.566406 C 53.897891 55.964406 53.183828 56.314078 52.423828 56.580078 C 51.159828 57.028078 49.868453 57.011656 48.564453 56.597656 C 47.554453 56.273656 46.671594 55.719594 45.933594 54.933594 C 44.565594 53.475594 43.976109 51.770219 44.162109 49.824219 C 44.254109 48.868219 44.579844 47.998891 45.089844 47.212891 C 46.097844 45.660891 47.185469 44.166375 48.355469 42.734375 C 49.339469 41.530375 50.372188 40.378687 51.492188 39.304688 C 52.108187 38.712688 52.748578 38.147984 53.392578 37.583984 C 54.332578 36.751984 55.346766 36.010547 56.384766 35.310547 C 57.468766 34.578547 58.587812 33.915891 59.757812 33.337891 C 60.785812 32.827891 61.836016 32.372516 62.916016 31.978516 C 64.214016 31.508516 65.54225 31.123703 66.90625 30.845703 C 67.98425 30.625703 69.070109 30.437938 70.162109 30.335938 C 70.944109 30.267938 71.733625 30.221312 72.515625 30.195312 C 72.913125 30.179813 73.311328 30.175969 73.708984 30.179688 z M 24.914062 51.136719 C 24.63675 51.134656 24.378359 51.212969 24.130859 51.355469 C 24.070859 51.393469 24.013687 51.454203 23.929688 51.408203 C 23.773687 51.642203 23.613031 51.873422 23.457031 52.107422 C 23.467031 52.165422 23.488328 52.223297 23.486328 52.279297 C 23.478328 52.403297 23.449219 52.522438 23.449219 52.648438 C 23.439219 53.148438 23.429453 53.648438 23.439453 54.148438 C 23.467453 55.342436 23.535641 56.538516 23.681641 57.728516 C 23.813641 58.810516 23.945141 59.89475 24.119141 60.96875 C 24.377141 62.58075 24.739969 64.172 25.167969 65.75 C 25.211969 65.924 25.2125 65.925719 25.0625 66.011719 C 24.5065 66.341719 23.96875 66.703234 23.46875 67.115234 C 22.40875 67.993234 21.476609 68.990156 20.724609 70.160156 C 20.238609 70.914156 19.806656 71.706828 19.472656 72.548828 C 19.222656 73.190828 19.01175 73.843531 18.84375 74.519531 C 18.65375 75.267531 18.5235 76.036547 18.4375 76.810547 C 18.4095 77.098547 18.447937 77.38425 18.585938 77.65625 C 18.849937 78.18225 19.479844 78.541578 20.089844 78.517578 C 20.479844 78.505578 20.825656 78.397609 21.097656 78.099609 C 21.329656 77.857609 21.444422 77.564469 21.482422 77.230469 C 21.560422 76.548469 21.673703 75.865125 21.845703 75.203125 C 22.205703 73.819125 22.751797 72.528813 23.591797 71.382812 C 24.165797 70.594814 24.831047 69.898172 25.623047 69.326172 C 25.785047 69.206172 25.949094 69.100516 26.121094 68.978516 C 26.161094 69.036516 26.183266 69.069516 26.197266 69.103516 C 26.293266 69.365516 26.382375 69.628625 26.484375 69.890625 C 26.534375 70.018625 26.523172 70.120281 26.451172 70.238281 C 25.945172 71.088281 25.518766 71.974484 25.134766 72.896484 C 24.556766 74.282484 24.142859 75.724797 23.880859 77.216797 C 23.710859 78.160797 23.606453 79.117984 23.564453 80.083984 C 23.510453 81.377984 23.574141 82.678656 23.744141 83.972656 C 23.992141 85.846656 24.464766 87.671078 25.134766 89.455078 C 25.740766 91.071078 26.490906 92.611703 27.378906 94.095703 C 28.338906 95.687703 29.433828 97.178314 30.673828 98.570312 C 31.549828 99.556313 32.496094 100.47598 33.496094 101.33398 C 33.970094 101.74598 34.512078 101.85109 35.080078 101.62109 C 35.644078 101.39109 35.948047 100.96189 35.998047 100.33789 C 36.012047 100.11189 36.030172 99.883969 36.076172 99.667969 C 36.180172 99.055969 36.300016 98.445797 36.416016 97.841797 C 36.422016 97.817797 36.442656 97.8 36.472656 97.75 C 36.548656 97.974 36.611828 98.161656 36.673828 98.347656 C 36.955828 99.217656 37.223891 100.09341 37.587891 100.94141 C 37.965891 101.81541 38.325219 102.70003 38.699219 103.58203 C 38.939219 104.14603 39.191453 104.7113 39.439453 105.2793 C 39.609453 105.6553 39.876141 105.94095 40.244141 106.12695 C 40.542141 106.28095 40.842531 106.44547 41.144531 106.60547 C 42.324531 107.22547 43.533391 107.79534 44.775391 108.27734 C 45.667391 108.62534 46.572562 108.94177 47.476562 109.25977 C 48.776564 109.71377 50.105313 110.0577 51.445312 110.3457 C 52.313313 110.5357 53.186453 110.70017 54.064453 110.82617 C 55.016453 110.96617 55.975594 111.07439 56.933594 111.15039 C 58.147594 111.24439 59.364078 111.26247 60.580078 111.23047 C 61.596078 111.19647 62.607328 111.12377 63.611328 111.00977 C 64.613328 110.89377 65.599984 110.72377 66.583984 110.50977 C 68.085984 110.18177 69.554141 109.76428 70.994141 109.23828 C 72.728141 108.59828 74.394188 107.82816 75.992188 106.91016 C 77.612188 105.98216 79.149328 104.93553 80.611328 103.76953 C 81.913328 102.72953 83.156266 101.61802 84.322266 100.41602 C 85.072266 99.640012 85.805813 98.843672 86.507812 98.013672 C 87.223814 97.161672 87.928031 96.294859 88.582031 95.380859 C 88.628031 95.318859 88.686281 95.263078 88.738281 95.205078 C 89.320281 94.347078 89.894656 93.494625 90.472656 92.640625 C 90.536656 92.498625 90.594109 92.35675 90.662109 92.21875 C 91.128109 91.20475 91.408422 90.135953 91.482422 89.001953 C 91.564422 87.735953 91.396422 86.491437 90.982422 85.273438 C 90.372422 83.493437 89.325281 82.004547 87.863281 80.810547 C 86.867281 79.998547 85.74925 79.428125 84.53125 79.078125 C 82.83525 78.584125 81.152234 78.584453 79.490234 79.064453 C 78.544234 79.332453 77.649062 79.733359 76.789062 80.193359 C 75.639062 80.813359 74.518859 81.473469 73.380859 82.105469 C 72.834859 82.411469 72.282938 82.722562 71.710938 82.976562 C 70.906937 83.342562 70.039875 83.557953 69.171875 83.751953 C 67.939875 84.019953 66.684062 84.159687 65.414062 84.179688 C 63.940064 84.199687 62.479344 84.067672 61.027344 83.763672 C 59.689344 83.483672 58.406437 83.051953 57.148438 82.501953 C 56.376437 82.161953 55.636203 81.750219 54.908203 81.324219 C 53.958203 80.772219 53.089797 80.134594 52.341797 79.308594 C 51.363797 78.240594 50.484766 77.097688 49.634766 75.929688 C 49.414766 75.631687 49.148594 75.420875 48.808594 75.296875 C 47.688594 74.882875 46.571172 74.466594 45.451172 74.058594 C 44.415172 73.680594 43.373797 73.313406 42.341797 72.941406 C 42.307797 72.935406 42.280328 72.901094 42.236328 72.871094 C 42.270328 72.849094 42.290453 72.836219 42.314453 72.824219 C 42.602453 72.730219 42.887734 72.638828 43.177734 72.548828 C 43.819734 72.358828 44.46625 72.183969 45.15625 72.167969 C 45.70425 72.157969 46.113328 71.863328 46.361328 71.361328 C 46.773328 70.539328 46.311875 69.467922 45.421875 69.169922 C 44.907875 68.995922 44.398672 68.811281 43.888672 68.613281 C 42.780672 68.195281 41.651953 67.844453 40.501953 67.564453 C 39.233953 67.256453 37.954062 67.035406 36.664062 66.941406 C 35.586062 66.865406 34.513219 66.870703 33.449219 66.970703 C 31.981219 67.112703 30.563453 67.427406 29.189453 67.941406 C 29.127453 67.961406 29.068094 67.976094 28.996094 67.996094 C 28.972094 67.948094 28.955266 67.916766 28.947266 67.884766 C 28.655266 66.944766 28.349797 66.008594 28.091797 65.058594 C 27.615797 63.318594 27.252281 61.55925 26.988281 59.78125 C 26.790281 58.46525 26.636406 57.140453 26.566406 55.814453 C 26.528406 55.094453 26.514141 54.37625 26.494141 53.65625 C 26.488141 53.36625 26.503906 53.082969 26.503906 52.792969 C 26.515906 52.000969 25.973266 51.324016 25.197266 51.166016 C 25.100766 51.146516 25.0065 51.137406 24.914062 51.136719 z M 35.613281 70.068359 C 36.729492 70.093637 37.861969 70.238828 39.011719 70.486328 C 38.939719 70.540328 38.903375 70.569797 38.859375 70.591797 C 38.229375 70.917797 37.596703 71.226406 36.970703 71.566406 C 36.058703 72.060406 36.033734 73.294797 36.677734 73.966797 C 36.843734 74.136797 37.035719 74.271516 37.261719 74.353516 C 37.689719 74.511516 38.118875 74.654547 38.546875 74.810547 C 39.428875 75.122547 40.3115 75.441766 41.1875 75.759766 C 41.8615 75.997766 42.527359 76.232563 43.193359 76.476562 C 44.355359 76.902563 45.521641 77.333672 46.681641 77.763672 C 46.901641 77.843672 47.110172 77.914 47.326172 78 C 47.404172 78.032 47.485063 78.088344 47.539062 78.152344 C 48.099063 78.930344 48.684922 79.683922 49.294922 80.419922 C 49.864922 81.115922 50.474672 81.782766 51.138672 82.384766 C 51.272672 82.508766 51.420406 82.620563 51.566406 82.726562 C 52.700406 83.572564 53.908016 84.285969 55.166016 84.917969 C 56.326016 85.493969 57.518094 85.961984 58.746094 86.333984 C 59.906094 86.677984 61.081484 86.93975 62.271484 87.09375 C 63.767484 87.28375 65.261906 87.332375 66.753906 87.234375 C 68.177906 87.142375 69.585078 86.918641 70.955078 86.556641 C 72.191078 86.230641 73.358844 85.743188 74.464844 85.117188 C 75.666844 84.427188 76.872078 83.756031 78.080078 83.082031 C 78.776078 82.698031 79.497812 82.359422 80.257812 82.107422 C 81.529813 81.679422 82.821141 81.718203 84.119141 82.158203 C 85.125141 82.502203 85.99475 83.067234 86.71875 83.865234 C 88.06475 85.347234 88.622344 87.067766 88.402344 89.009766 C 88.292344 89.959766 87.951734 90.823563 87.427734 91.601562 C 86.395734 93.135564 85.279891 94.609484 84.087891 96.021484 C 83.077891 97.205484 82.028625 98.344436 80.890625 99.398438 C 80.262625 99.976438 79.612891 100.52994 78.962891 101.08594 C 78.004891 101.89794 76.979734 102.62459 75.927734 103.30859 C 74.831734 104.01859 73.697578 104.6587 72.517578 105.2207 C 71.485578 105.7127 70.427797 106.14753 69.341797 106.51953 C 68.031797 106.96953 66.698078 107.33194 65.330078 107.58594 C 64.252078 107.78594 63.164453 107.95111 62.064453 108.03711 C 61.282453 108.09311 60.493031 108.12272 59.707031 108.13672 C 58.115031 108.17272 56.527453 108.04203 54.939453 107.83203 C 53.937453 107.69403 52.9335 107.51325 51.9375 107.28125 C 50.9095 107.04725 49.886953 106.77294 48.876953 106.46094 C 47.862953 106.14894 46.862906 105.79462 45.878906 105.39062 C 44.594906 104.86263 43.323844 104.27938 42.089844 103.60938 C 42.005844 103.56337 41.955922 103.49211 41.919922 103.41211 C 41.455922 102.32411 40.987156 101.23448 40.535156 100.14648 C 40.147156 99.212488 39.770063 98.271937 39.414062 97.335938 C 38.822063 95.769937 38.252734 94.192031 37.802734 92.582031 C 37.738734 92.334031 37.686906 92.081984 37.628906 91.833984 C 37.356906 90.615984 35.960531 90.232813 35.144531 90.882812 C 34.878531 91.094814 34.718719 91.377031 34.636719 91.707031 C 34.524719 92.181031 34.414781 92.664719 34.300781 93.136719 C 34.042781 94.288719 33.779531 95.44375 33.519531 96.59375 C 33.513531 96.62975 33.496703 96.666703 33.470703 96.720703 C 33.424703 96.678703 33.389516 96.647234 33.353516 96.615234 C 32.589516 95.811234 31.894609 94.948547 31.224609 94.060547 C 30.414609 92.984547 29.686781 91.850063 29.050781 90.664062 C 28.430781 89.514063 27.921391 88.318125 27.525391 87.078125 C 27.295391 86.348125 27.120563 85.607281 26.976562 84.863281 C 26.776563 83.841281 26.649094 82.81725 26.621094 81.78125 C 26.585094 80.57925 26.649703 79.385078 26.845703 78.205078 C 27.047703 76.981078 27.382547 75.810203 27.810547 74.658203 C 27.894547 74.432203 27.990031 74.208375 28.082031 73.984375 C 28.094031 73.956375 28.11825 73.932766 28.15625 73.884766 C 28.19625 73.964766 28.231766 74.024031 28.259766 74.082031 C 28.917766 75.476031 29.649266 76.830438 30.447266 78.148438 C 31.195266 79.394437 32.012813 80.593859 32.882812 81.755859 C 33.936813 83.157859 35.066875 84.498047 36.296875 85.748047 C 36.902875 86.362047 37.512578 86.978453 38.142578 87.564453 C 38.862578 88.234453 39.610859 88.864375 40.380859 89.484375 C 41.770859 90.616375 43.236422 91.631328 44.732422 92.611328 C 45.830422 93.329328 46.953516 94.004906 48.103516 94.628906 C 49.187516 95.216906 50.293828 95.770047 51.423828 96.248047 C 52.121828 96.536047 52.815531 96.828078 53.519531 97.080078 C 54.539531 97.446078 55.567187 97.779672 56.617188 98.013672 C 57.393186 98.183672 58.171125 98.350516 58.953125 98.478516 C 60.601125 98.746516 62.261969 98.828186 63.917969 98.742188 C 65.641969 98.648186 67.328375 98.377828 68.984375 97.923828 C 70.238375 97.579828 71.470062 97.152672 72.664062 96.638672 C 73.826062 96.134672 74.958734 95.573453 76.052734 94.939453 C 76.928734 94.439453 77.777328 93.903984 78.611328 93.333984 C 78.965328 93.085984 79.213578 92.768406 79.267578 92.316406 C 79.369578 91.480406 78.699186 90.602516 77.867188 90.478516 C 77.489187 90.426516 77.157609 90.524516 76.849609 90.728516 C 76.467609 90.980516 76.087359 91.240375 75.693359 91.484375 C 75.147359 91.816375 74.595156 92.146891 74.035156 92.462891 C 72.893156 93.112891 71.700703 93.674344 70.470703 94.152344 C 69.098703 94.686344 67.684562 95.091563 66.226562 95.351562 C 63.986562 95.753563 61.721453 95.775359 59.439453 95.443359 C 58.171453 95.257359 56.909734 94.971891 55.677734 94.587891 C 53.907734 94.031891 52.19325 93.324656 50.53125 92.472656 C 49.22925 91.810656 47.964609 91.072922 46.724609 90.294922 C 45.448609 89.492922 44.207814 88.628797 43.007812 87.716797 C 42.041812 86.986797 41.116609 86.200859 40.224609 85.380859 C 39.306609 84.544859 38.429797 83.664094 37.591797 82.746094 C 36.511797 81.570094 35.523703 80.325344 34.595703 79.027344 C 33.849703 77.991344 33.153156 76.922547 32.535156 75.810547 C 32.083156 75.000547 31.628891 74.185375 31.212891 73.359375 C 30.848891 72.633375 30.529406 71.882578 30.191406 71.142578 C 30.177406 71.106578 30.17425 71.063719 30.15625 71.011719 C 31.9375 70.315469 33.75293 70.02623 35.613281 70.068359 z" />
</svg>