<svg xmlns="http://www.w3.org/2000/svg" viewBox="0 0 69 69">
	<path fill="#000" d="M 34.5 0 C 15.5 0 0 15.5 0 34.5 C 0 53.5 15.5 69 34.5 69 C 53.5 69 69 53.5 69 34.5 C 69 15.5 53.5 0 34.5 0 z M 34.5 2 C 52.4 2 67 16.6 67 34.5 C 67 52.4 52.4 67 34.5 67 C 16.6 67 2 52.4 2 34.5 C 2 16.6 16.6 2 34.5 2 z M 34.900391 11.199219 C 28.800391 11.199219 23.800781 16.099219 23.800781 22.199219 C 23.800781 28.299219 28.800391 33.199219 34.900391 33.199219 C 41.000391 33.199219 46 28.299219 46 22.199219 C 46 16.099219 41.000391 11.199219 34.900391 11.199219 z M 34.900391 13 C 40.000391 13 44.199219 17.099219 44.199219 22.199219 C 44.199219 27.299219 40.000391 31.400391 34.900391 31.400391 C 29.800391 31.400391 25.599609 27.299219 25.599609 22.199219 C 25.699609 17.099219 29.800391 13 34.900391 13 z M 35.900391 15.5 C 35.500391 15.5 35.300781 15.799609 35.300781 16.099609 C 35.200781 16.599609 35.500781 16.900391 35.800781 16.900391 C 35.900781 16.900391 38.300391 17 39.900391 20.5 C 40.000391 20.7 40.2 20.900391 40.5 20.900391 C 40.6 20.900391 40.700781 20.900781 40.800781 20.800781 C 41.000781 20.700781 41.099609 20.600391 41.099609 20.400391 C 41.199609 20.200391 41.199609 20.100391 41.099609 19.900391 C 39.199609 15.600391 36.000391 15.5 35.900391 15.5 z M 63.400391 31.150391 C 63.150391 31.125391 62.899219 31.200391 62.699219 31.400391 C 55.899219 37.300391 46 40.799609 35.5 41.099609 C 24.2 41.399609 13.500781 37.999219 6.3007812 31.699219 C 5.9007812 31.299219 5.3003906 31.400781 4.9003906 31.800781 C 4.5003906 32.200781 4.6 32.799219 5 33.199219 C 12.3 39.499219 22.8 43 34 43 L 35.5 43 C 46.4 42.7 56.800391 39.000391 63.900391 32.900391 C 64.400391 32.600391 64.399609 31.9 64.099609 31.5 C 63.899609 31.3 63.650391 31.175391 63.400391 31.150391 z M 61.486328 43.539062 C 61.356641 43.53125 61.224609 43.549609 61.099609 43.599609 C 54.499609 46.199609 45.100781 47.799609 35.300781 48.099609 C 25.000781 48.399609 15.200391 47.199219 8.4003906 44.699219 C 7.9003906 44.499219 7.2996094 44.800781 7.0996094 45.300781 C 6.8996094 45.800781 7.1992188 46.399609 7.6992188 46.599609 C 14.099219 48.899609 22.900391 50.099609 32.400391 50.099609 L 35.300781 50.099609 C 45.500781 49.799609 54.900781 48.2 61.800781 45.5 C 62.300781 45.3 62.600391 44.699219 62.400391 44.199219 C 62.250391 43.824219 61.875391 43.5625 61.486328 43.539062 z M 18.900391 56 C 18.400391 56 17.900391 56.4 17.900391 57 C 17.900391 57.5 18.300391 58 18.900391 58 L 49.900391 58 C 50.400391 58 50.900391 57.5 50.900391 57 C 50.900391 56.5 50.500391 56 49.900391 56 L 18.900391 56 z" />
</svg>