<svg xmlns="http://www.w3.org/2000/svg" viewBox="0 0 55.738 55.738">
	<path fill="#000" d="M 27.869141 0 C 12.486401 -4.8651466e-15 -5.1050807e-08 12.486401 0 27.869141 C -5.6723112e-07 43.251881 12.486401 55.738281 27.869141 55.738281 C 43.251881 55.738282 55.738282 43.251881 55.738281 27.869141 C 55.738281 12.486401 43.251881 -5.6723111e-07 27.869141 0 z M 27.869141 1.5 C 42.441221 1.4999995 54.238281 13.297061 54.238281 27.869141 C 54.238282 42.441221 42.441221 54.238282 27.869141 54.238281 C 17.865201 54.238281 9.1702393 48.677383 4.7011719 40.476562 A 7.72 7.72 0 0 0 7.8261719 38.902344 A 8.01 8.01 0 0 0 9.4355469 37.070312 A 1.347 1.347 0 0 1 9.5351562 36.927734 A 0.306 0.306 0 0 1 9.7695312 36.816406 L 9.9941406 36.931641 L 10.005859 37.074219 L 10.011719 38.273438 A 2.9 2.9 0 0 0 10.095703 38.974609 A 2.357 2.357 0 0 0 12.21875 40.708984 C 12.32075 40.718984 12.427344 40.71875 12.527344 40.71875 L 28.044922 40.699219 L 28.044922 40.693359 L 43.828125 40.683594 A 2.57 2.57 0 0 0 44.658203 40.574219 A 2.324 2.324 0 0 0 46.248047 38.833984 A 2.127 2.127 0 0 0 46.310547 38.285156 L 46.310547 36.654297 C 46.313547 35.379297 46.315734 34.103172 46.302734 32.826172 A 6.416 6.416 0 0 0 44.935547 28.873047 A 5.653 5.653 0 0 0 42.222656 26.988281 A 6.593 6.593 0 0 0 40.447266 26.638672 L 40.230469 26.625 C 40.105469 26.616 39.979297 26.607422 39.779297 26.607422 L 39.720703 26.607422 A 8.43 8.43 0 0 0 36.681641 27.298828 A 1.246 1.246 0 0 1 36.380859 27.394531 A 0.251 0.251 0 0 1 36.175781 27.287109 L 36.117188 27.134766 L 36.146484 27.054688 A 1.737 1.737 0 0 1 36.228516 26.880859 A 6.829 6.829 0 0 0 36.892578 24.839844 A 6.923 6.923 0 0 0 36.970703 23.316406 A 7.567 7.567 0 0 0 34.736328 18.308594 A 7.293 7.293 0 0 0 31.101562 16.324219 A 15.421 15.421 0 0 0 29.574219 16.083984 A 16.593 16.593 0 0 0 27.589844 15.96875 C 27.260844 15.96875 26.933469 15.979141 26.605469 15.994141 A 16.3 16.3 0 0 0 24.605469 16.214844 A 18.638 18.638 0 0 0 22.455078 16.714844 A 13.034 13.034 0 0 0 20.779297 17.335938 A 15.7 15.7 0 0 1 18.980469 18.017578 A 6.108 6.108 0 0 1 17.742188 18.294922 C 17.527187 18.315922 17.31075 18.330078 17.09375 18.330078 A 3.458 3.458 0 0 1 16.28125 18.242188 A 3.427 3.427 0 0 1 14.681641 17.365234 A 4.989 4.989 0 0 1 13.724609 16.107422 C 13.489609 15.677422 13.268641 15.240875 13.056641 14.796875 C 12.723641 14.112875 12.426438 13.406313 12.148438 12.695312 C 12.148438 12.695312 11.732 11.622375 11.625 11.359375 A 12.632 12.632 0 0 0 10.892578 9.8398438 A 6.532 6.532 0 0 0 9.921875 8.5507812 C 14.627729 4.1775453 20.932471 1.5 27.869141 1.5 z M 9.0019531 9.4511719 L 9.0039062 9.453125 L 8.9863281 9.4726562 A 5.519 5.519 0 0 1 9.8652344 10.71875 C 10.020234 11.00975 10.176547 11.297656 10.310547 11.597656 C 10.408547 11.812656 10.493172 12.034859 10.576172 12.255859 L 10.777344 12.767578 C 11.131344 13.668578 11.500828 14.602281 11.923828 15.488281 C 12.151828 15.968281 12.389156 16.445391 12.660156 16.900391 A 6.18 6.18 0 0 0 14.212891 18.701172 A 4.652 4.652 0 0 0 16.285156 19.587891 A 4.938 4.938 0 0 0 17.107422 19.654297 A 6.771 6.771 0 0 0 18.183594 19.560547 A 10.564 10.564 0 0 0 20.519531 18.871094 C 20.796531 18.761094 21.067797 18.643438 21.341797 18.523438 L 21.564453 18.423828 A 12.058 12.058 0 0 1 23.105469 17.896484 A 15.969 15.969 0 0 1 25.337891 17.4375 A 17.211 17.211 0 0 1 27.589844 17.28125 C 27.795177 17.28125 28.001031 17.286922 28.207031 17.294922 C 28.516031 17.306922 28.824859 17.337141 29.130859 17.369141 C 29.478859 17.405141 29.825875 17.442187 30.171875 17.492188 A 6.147 6.147 0 0 1 35.183594 21.298828 A 5.365 5.365 0 0 1 35.570312 22.617188 A 6.082 6.082 0 0 1 35.439453 25.339844 A 5.708 5.708 0 0 1 33.792969 27.966797 A 8.289 8.289 0 0 1 30.392578 29.841797 C 30.036578 29.940797 29.667969 30.00475 29.167969 30.09375 C 28.800969 30.15975 28.427641 30.211766 28.056641 30.259766 C 27.522641 30.329766 26.992031 30.356906 26.457031 30.378906 C 26.327031 30.387906 26.194453 30.386719 26.064453 30.386719 C 25.743453 30.386719 25.423469 30.370562 25.105469 30.351562 A 18.089 18.089 0 0 1 23.21875 30.138672 A 26.7 26.7 0 0 1 19.902344 29.339844 A 11.808 11.808 0 0 0 18.439453 29.027344 A 11.767 11.767 0 0 0 16.486328 28.855469 C 16.317328 28.855469 16.148469 28.859141 15.980469 28.869141 A 6.918 6.918 0 0 0 12.871094 29.703125 A 5.4 5.4 0 0 0 10.742188 31.845703 A 5.467 5.467 0 0 0 10.248047 33.123047 A 1.788 1.788 0 0 1 10.035156 33.623047 C 10.035156 33.623047 8.7350938 35.719828 8.3710938 36.298828 A 6.632 6.632 0 0 1 5.6347656 38.763672 A 7.285 7.285 0 0 1 4.1875 39.257812 A 0.649 0.649 0 0 0 4.09375 39.291016 C 2.4321662 35.835727 1.4999999 31.962257 1.5 27.869141 C 1.5 20.697575 4.3627461 14.203055 9.0019531 9.4511719 z M 40.005859 27.916016 A 2.5 2.5 0 0 1 40.535156 27.964844 C 40.635156 27.985844 40.735937 27.998719 40.835938 28.011719 A 4.624 4.624 0 0 1 42.027344 28.320312 L 42.212891 28.394531 L 34.835938 39.384766 L 32.056641 39.392578 L 39.748047 27.919922 A 6.639 6.639 0 0 1 39.970703 27.917969 L 39.978516 27.917969 A 2.5 2.5 0 0 1 40.005859 27.916016 z M 38.291016 28.125 L 38.291016 28.126953 L 30.847656 39.289062 L 30.771484 39.394531 L 27.957031 39.394531 L 34.220703 30.058594 L 34.246094 29.972656 L 34.3125 29.943359 A 20.1 20.1 0 0 0 36.318359 28.943359 A 8.142 8.142 0 0 1 37.855469 28.267578 L 38.109375 28.183594 L 38.291016 28.125 z M 43.158203 28.958984 A 4.313 4.313 0 0 1 44.498047 30.658203 A 5.433 5.433 0 0 1 44.615234 30.943359 L 38.980469 39.369141 L 38.417969 39.375 L 36.173828 39.380859 L 43.158203 28.958984 z M 16.414062 30.193359 L 16.427734 30.193359 L 11.642578 37.263672 L 11.322266 37.693359 L 11.322266 35.085938 A 6.781 6.781 0 0 1 11.470703 33.574219 A 3.94 3.94 0 0 1 11.931641 32.398438 A 4.309 4.309 0 0 1 13.675781 30.765625 A 5.422 5.422 0 0 1 15.761719 30.207031 L 16.414062 30.193359 z M 17.707031 30.251953 A 8.925 8.925 0 0 1 18.169922 30.316406 C 18.712922 30.413406 19.24925 30.532781 19.78125 30.675781 L 20.126953 30.775391 L 14.380859 39.400391 L 12.320312 39.400391 C 12.036312 39.387391 11.889266 39.4175 11.697266 39.1875 L 17.707031 30.251953 z M 32.533203 30.607422 L 26.746094 39.294922 L 26.671875 39.402344 L 23.855469 39.402344 L 29.279297 31.402344 C 29.279297 31.402344 29.706641 31.343219 29.806641 31.324219 A 20.8 20.8 0 0 0 32.107422 30.738281 L 32.533203 30.607422 z M 21.261719 31.050781 L 21.642578 31.167969 C 22.240578 31.310969 22.847984 31.420859 23.458984 31.505859 L 23.710938 31.539062 L 18.470703 39.400391 L 15.658203 39.400391 L 21.183594 31.15625 L 21.261719 31.050781 z M 27.755859 31.623047 L 22.650391 39.294922 L 22.576172 39.400391 L 19.757812 39.400391 L 24.947266 31.662109 L 25.488281 31.691406 C 25.700281 31.700406 25.912 31.705078 26.125 31.705078 C 26.556 31.705078 26.991781 31.685391 27.425781 31.650391 L 27.755859 31.623047 z M 44.931641 32.207031 A 5.433 5.433 0 0 1 44.957031 32.443359 L 44.982422 32.410156 L 44.982422 38.398438 A 1.024 1.024 0 0 1 44.027344 39.357422 L 43.748047 39.357422 L 41.570312 39.345703 L 40.273438 39.361328 L 44.673828 32.802734 L 44.941406 32.390625 A 5.043 5.043 0 0 0 44.931641 32.207031 z" />
</svg>