<svg xmlns="http://www.w3.org/2000/svg" viewBox="0 0 69 69">
	<path fill="#000" d="M 34.5 0 C 15.5 0 0 15.5 0 34.5 C 0 53.5 15.5 69 34.5 69 C 53.5 69 69 53.5 69 34.5 C 69 15.5 53.5 0 34.5 0 z M 34.5 2 C 52.4 2 67 16.6 67 34.5 C 67 52.4 52.4 67 34.5 67 C 16.6 67 2 52.4 2 34.5 C 2 16.6 16.6 2 34.5 2 z M 34.900391 9 C 34.200391 9 33.599609 9.3003906 33.099609 9.9003906 L 26 18 C 25.3 18.9 25.499609 19.600391 25.599609 19.900391 C 25.699609 20.200391 26.100781 20.800781 27.300781 20.800781 L 29.5 20.800781 C 30.1 20.800781 30.5 21.300781 30.5 21.800781 L 30.5 28.400391 C 30.5 28.800391 30.800781 29.199219 31.300781 29.199219 C 31.700781 29.199219 32.099609 28.800391 32.099609 28.400391 L 32.099609 21.800781 C 32.099609 20.300781 30.900391 19.099609 29.400391 19.099609 L 27.900391 19.099609 L 27.699219 18.599609 L 34.300781 11 C 34.500781 10.8 34.700391 10.699219 34.900391 10.699219 C 35.100391 10.699219 35.4 10.8 35.5 11 L 42.099609 18.599609 L 41.900391 19.099609 L 40.400391 19.099609 C 38.900391 19.099609 37.699219 20.300781 37.699219 21.800781 L 37.699219 28 C 37.699219 28.4 38 28.800781 38.5 28.800781 C 38.9 28.800781 39.300781 28.5 39.300781 28 L 39.300781 21.800781 C 39.300781 21.200781 39.800781 20.800781 40.300781 20.800781 L 42.5 20.800781 C 43.6 20.800781 43.999219 20.200391 44.199219 19.900391 C 44.399219 19.600391 44.600781 18.9 43.800781 18 L 36.699219 9.9003906 C 36.299219 9.3003906 35.600391 9 34.900391 9 z M 58.5 35.199219 C 57.8 35.199219 56.999609 35.299219 56.099609 35.699219 L 46.5 39.599609 L 46.099609 39.300781 L 46.099609 39.099609 C 46.099609 37.999609 45.799609 37.1 45.099609 36.5 C 43.999609 35.5 42.499609 35.400391 42.099609 35.400391 L 25.099609 35.400391 C 18.399609 35.400391 14.199609 40.9 14.099609 41 C 13.699609 41.3 11.299219 42.700391 9.1992188 43.900391 C 8.7992187 44.100391 8.7003906 44.6 8.9003906 45 C 9.0003906 45.2 9.2996094 45.400391 9.5996094 45.400391 C 9.6996094 45.400391 9.9 45.400781 10 45.300781 C 15 42.500781 15.200391 42.2 15.400391 42 C 15.500391 41.7 19.199609 36.900391 25.099609 36.900391 L 42.199219 36.900391 C 42.299219 36.900391 43.4 36.9 44 37.5 C 44.3 37.9 44.5 38.300391 44.5 38.900391 C 44.5 39.100391 44.399609 40.900391 42.099609 40.900391 L 27.199219 40.900391 C 26.799219 40.900391 26.400391 41.199219 26.400391 41.699219 C 26.400391 42.099219 26.699219 42.5 27.199219 42.5 L 42.099609 42.5 C 42.699609 42.5 43.2 42.399609 44 42.099609 L 57 36.800781 C 57.7 36.500781 58.300781 36.400391 58.800781 36.400391 C 59.200781 36.400391 59.499219 36.499609 59.699219 36.599609 C 59.999219 36.799609 60.399609 36.999609 60.599609 37.599609 C 61.399609 39.299609 58.5 40.800781 58.5 40.800781 L 40.199219 49.900391 C 37.999219 51.000391 35.900781 51.199219 34.800781 51.199219 L 34.199219 51.199219 L 24.300781 49.800781 C 23.900781 49.700781 23.400781 49.599609 22.800781 49.599609 C 21.900781 49.599609 21.1 49.800781 21 49.800781 C 20.9 49.800781 20.799219 49.900391 20.699219 49.900391 L 14.599609 53.599609 C 14.199609 53.899609 14.100781 54.400781 14.300781 54.800781 C 14.400781 55.000781 14.7 55.199219 15 55.199219 C 15.2 55.199219 15.300391 55.100781 15.400391 55.300781 L 21.400391 51.699219 C 21.600391 51.699219 22.200781 51.599609 22.800781 51.599609 C 23.200781 51.599609 23.6 51.700781 24 51.800781 L 34 53.199219 L 34.800781 53.199219 C 36.000781 53.199219 38.400391 52.999219 40.900391 51.699219 L 59.099609 42.699219 C 60.599609 41.999219 63.100391 39.900781 61.900391 37.300781 C 61.700391 37.000781 61.299609 36 60.099609 35.5 C 59.599609 35.3 59.1 35.199219 58.5 35.199219 z" />
</svg>