<svg xmlns="http://www.w3.org/2000/svg" viewBox="0 0 69 69">
	<path fill="#000" d="M 34.5 0 C 15.5 0 0 15.5 0 34.5 C 0 53.5 15.5 69 34.5 69 C 53.5 69 69 53.5 69 34.5 C 69 15.5 53.5 0 34.5 0 z M 34.5 2 C 52.4 2 67 16.6 67 34.5 C 67 52.4 52.4 67 34.5 67 C 16.6 67 2 52.4 2 34.5 C 2 16.6 16.6 2 34.5 2 z M 33.900391 7.5996094 C 33.400391 7.5996094 33 8 33 8.5 L 33 10.699219 L 33 12.900391 L 33 15.099609 C 33.1 15.599609 33.500391 16 33.900391 16 C 34.400391 16 34.800781 15.599609 34.800781 15.099609 L 34.800781 12.900391 L 34.800781 10.699219 L 34.800781 8.5 C 34.800781 8 34.400391 7.5996094 33.900391 7.5996094 z M 42.787109 10.980469 C 42.468359 11.013281 42.15 11.2 42 11.5 L 40.599609 15.699219 C 40.399609 16.299219 40.699609 16.700391 41.099609 16.900391 L 41.400391 16.900391 C 41.800391 16.900391 42.099219 16.700781 42.199219 16.300781 L 43.599609 12.099609 C 43.699609 11.699609 43.499609 11.2 43.099609 11 C 42.999609 10.975 42.893359 10.969531 42.787109 10.980469 z M 24.869141 11.136719 C 24.750391 11.130469 24.625 11.149219 24.5 11.199219 C 24.1 11.299219 23.8 11.800781 24 12.300781 L 25.400391 16.400391 C 25.500391 16.800391 25.899219 17 26.199219 17 L 26.5 17 C 26.9 16.9 27.2 16.400391 27 15.900391 L 25.599609 11.699219 C 25.524609 11.399219 25.225391 11.155469 24.869141 11.136719 z M 17.037109 14.837891 C 16.824609 14.800391 16.600391 14.85 16.400391 15 C 16.000391 15.3 15.899219 15.799219 16.199219 16.199219 L 18.800781 19.800781 C 19.000781 20.000781 19.2 20.099609 19.5 20.099609 C 19.7 20.099609 19.9 20.000391 20 19.900391 C 20.4 19.600391 20.499219 19.099219 20.199219 18.699219 L 17.599609 15.199219 C 17.449609 14.999219 17.249609 14.875391 17.037109 14.837891 z M 50.662109 15.037109 C 50.449609 15.074609 50.249609 15.200391 50.099609 15.400391 L 47.5 18.900391 C 47.2 19.300391 47.299219 19.799609 47.699219 20.099609 C 47.799219 20.099609 47.999219 20.199219 48.199219 20.199219 C 48.499219 20.199219 48.700391 20.100391 48.900391 19.900391 L 51.5 16.400391 C 51.8 16.000391 51.700781 15.499219 51.300781 15.199219 C 51.100781 15.049219 50.874609 14.999609 50.662109 15.037109 z M 34.099609 17.900391 C 28.999609 17.900391 24.199219 19.999609 20.699219 23.599609 C 20.399219 23.899609 20.399219 24.500781 20.699219 24.800781 C 20.899219 25.000781 21.100781 25.099609 21.300781 25.099609 C 21.500781 25.099609 21.700391 25.000781 21.900391 24.800781 C 25.100391 21.500781 29.499609 19.699609 34.099609 19.599609 C 38.699609 19.599609 43.100391 21.299609 46.400391 24.599609 C 46.700391 24.899609 47.299609 24.899609 47.599609 24.599609 C 47.899609 24.299609 47.899609 23.700391 47.599609 23.400391 C 43.999609 19.800391 39.199609 17.900391 34.099609 17.900391 z M 34.599609 29.5 C 30.499609 29.5 28.300781 31.6 28.300781 34.5 C 28.300781 38.5 31.799609 39.000781 34.599609 39.300781 C 36.499609 39.500781 38.199219 39.900391 38.199219 41.400391 C 38.199219 43.100391 36.9 43.800781 34.5 43.800781 C 32.7 43.800781 31.500391 42.999219 30.900391 41.699219 C 30.700391 41.099219 30.400391 40.999219 29.900391 41.199219 L 28.599609 41.699219 C 27.999609 41.899219 27.899609 42.099219 28.099609 42.699219 C 28.999609 45.199219 30.900391 46.5 34.400391 46.5 C 38.600391 46.5 41 44.400781 41 41.300781 C 41.1 37.700781 38.000781 36.999219 35.300781 36.699219 C 33.200781 36.499219 31.300781 36.2 31.300781 34.5 C 31.300781 33.1 32.399609 32.400391 34.599609 32.400391 C 36.399609 32.400391 37.3 33.100781 38 34.300781 C 38.3 34.800781 38.5 34.899219 39 34.699219 L 40.300781 34.099609 C 40.900781 33.799609 40.999219 33.6 40.699219 33 C 39.599219 30.7 37.899609 29.5 34.599609 29.5 z M 13.699219 30 C 13.099219 30 12.900391 30.200781 12.900391 30.800781 L 12.900391 40.699219 C 12.900391 44.299219 15.100781 46.699219 19.300781 46.699219 C 23.500781 46.699219 25.699219 44.399219 25.699219 40.699219 L 25.699219 30.800781 C 25.699219 30.200781 25.500391 30 24.900391 30 L 23.599609 30 C 22.999609 30 22.800781 30.200781 22.800781 30.800781 L 22.800781 40.800781 C 22.800781 42.800781 21.600781 44 19.300781 44 C 16.900781 44 15.800781 42.800781 15.800781 40.800781 L 15.800781 30.800781 C 15.800781 30.200781 15.6 30 15 30 L 13.699219 30 z M 44.5 30 C 43.9 30 43.699219 30.200781 43.699219 30.800781 L 43.699219 45.599609 C 43.699219 46.199609 43.9 46.400391 44.5 46.400391 L 51 46.400391 C 54 46.400391 56.199219 44.800391 56.199219 41.900391 C 56.199219 39.800391 55.400391 38.400391 53.900391 37.900391 C 55.100391 37.100391 55.599609 36.000781 55.599609 34.300781 C 55.599609 31.500781 53.900391 30 50.900391 30 L 44.5 30 z M 46.599609 32.699219 L 50.5 32.699219 C 51.9 32.699219 52.599609 33.399219 52.599609 34.699219 C 52.599609 36.099219 51.8 36.699219 50.5 36.699219 L 46.599609 36.699219 L 46.599609 32.699219 z M 46.699219 39.400391 L 51 39.400391 C 52.4 39.400391 53.199219 40.199609 53.199219 41.599609 C 53.099219 42.999609 52.4 43.699219 51 43.699219 L 46.699219 43.699219 L 46.699219 39.400391 z M 33.800781 50.400391 C 33.500781 50.400391 33.300781 50.500391 33.300781 50.900391 L 33.300781 55.099609 L 29.099609 55.099609 C 28.799609 55.099609 28.599609 55.199609 28.599609 55.599609 L 28.599609 56.199219 C 28.599609 56.499219 28.699609 56.599609 29.099609 56.599609 L 33.300781 56.599609 L 33.300781 60.900391 C 33.300781 61.200391 33.400781 61.400391 33.800781 61.400391 L 34.400391 61.400391 C 34.700391 61.400391 34.900391 61.300391 34.900391 60.900391 L 34.900391 56.599609 L 39.199219 56.599609 C 39.499219 56.599609 39.599609 56.499219 39.599609 56.199219 L 39.599609 55.599609 C 39.599609 55.299609 39.499219 55.099609 39.199219 55.099609 L 34.900391 55.099609 L 34.900391 50.900391 C 34.900391 50.600391 34.800391 50.400391 34.400391 50.400391 L 33.800781 50.400391 z " />
</svg>