<svg xmlns="http://www.w3.org/2000/svg" viewBox="0 0 69 69">
	<path fill="#000" d="M 34.5 0 C 15.5 0 0 15.5 0 34.5 C 0 53.5 15.5 69 34.5 69 C 53.5 69 69 53.5 69 34.5 C 69 15.5 53.5 0 34.5 0 z M 34.5 2 C 52.4 2 67 16.6 67 34.5 C 67 52.4 52.4 67 34.5 67 C 16.6 67 2 52.4 2 34.5 C 2 16.6 16.6 2 34.5 2 z M 19.900391 20.300781 C 15.900391 20.300781 13.800391 21.5 11.900391 22.5 L 11.199219 22.900391 C 10.999219 23.000391 10.900781 23.200391 10.800781 23.400391 C 10.800781 23.600391 10.800391 23.8 10.900391 24 C 11.000391 24.2 11.299609 24.400391 11.599609 24.400391 C 11.799609 24.400391 11.9 24.400781 12 24.300781 L 12.599609 23.900391 C 14.599609 22.800391 16.200781 21.900391 19.800781 21.900391 C 23.400781 21.900391 25.1 22.800391 27 23.900391 C 28.9 24.900391 31 26.099609 35 26.099609 C 39 26.099609 41.100391 24.900391 42.900391 23.900391 C 44.900391 22.800391 46.499609 21.900391 50.099609 21.900391 C 53.699609 21.900391 55.400781 22.900391 57.300781 23.900391 C 57.400781 24.000391 57.599219 24 57.699219 24 C 57.999219 24 58.299609 23.899609 58.599609 23.599609 C 58.899609 23.199609 58.700781 22.7 58.300781 22.5 C 56.400781 21.4 54.300781 20.300781 50.300781 20.300781 C 46.300781 20.300781 44.200781 21.5 42.300781 22.5 C 40.300781 23.6 38.699609 24.5 35.099609 24.5 C 31.499609 24.5 29.800391 23.6 27.900391 22.5 C 26.000391 21.4 23.900391 20.300781 19.900391 20.300781 z M 58.400391 33.599609 C 57.700391 33.599609 56.9 33.699609 56 34.099609 L 46.099609 38.099609 L 46.099609 37.400391 C 46.099609 36.400391 45.699609 35.6 45.099609 35 C 43.999609 34 42.499609 33.900391 42.099609 33.900391 L 25.300781 33.900391 C 19.200781 33.900391 15.200391 38.5 14.400391 39.5 C 13.800391 39.9 11.499609 41.200781 9.5996094 42.300781 C 9.3996094 42.400781 9.2992187 42.600781 9.1992188 42.800781 C 9.1992188 43.000781 9.2007812 43.200391 9.3007812 43.400391 C 9.4007812 43.600391 9.7 43.800781 10 43.800781 C 10.1 43.800781 10.300391 43.799219 10.400391 43.699219 C 13.600391 41.899219 15.399219 40.9 15.699219 40.5 C 15.699219 40.4 19.400781 35.5 25.300781 35.5 L 42.099609 35.5 C 42.099609 35.5 43.200781 35.499609 43.800781 36.099609 C 44.100781 36.399609 44.300781 36.800391 44.300781 37.400391 C 44.300781 38.300391 43.7 39.400391 42 39.400391 L 27.300781 39.400391 C 26.900781 39.400391 26.5 39.699219 26.5 40.199219 C 26.5 40.599219 26.800781 41 27.300781 41 L 42.099609 41 C 42.799609 41 43.4 40.799609 44 40.599609 L 56.599609 35.5 C 57.299609 35.2 57.900391 35.099609 58.400391 35.099609 C 58.800391 35.099609 59.100391 35.100781 59.400391 35.300781 C 59.800391 35.600781 59.999609 35.899219 60.099609 36.199219 C 60.899609 37.899219 58.099609 39.400391 58.099609 39.400391 L 40.099609 48.300781 C 37.999609 49.400781 35.900781 49.599609 34.800781 49.599609 L 34.199219 49.599609 L 24.5 48.199219 C 24 48.099219 23.6 48 23 48 C 22.1 48 21.299219 48.199219 21.199219 48.199219 C 21.099219 48.199219 21.000391 48.300781 20.900391 48.300781 L 14.900391 51.900391 C 14.700391 52.000391 14.6 52.200391 14.5 52.400391 C 14.4 52.600391 14.499609 52.8 14.599609 53 C 14.699609 53.2 15.000781 53.400391 15.300781 53.400391 C 15.500781 53.400391 15.600781 53.399609 15.800781 53.599609 L 21.699219 50 L 21.800781 50 C 22.200781 49.9 22.699609 49.900391 23.099609 49.900391 C 23.499609 49.900391 23.900781 49.999609 24.300781 50.099609 L 34.099609 51.5 L 34.800781 51.5 C 36.100781 51.5 38.500391 51.3 40.900391 50 L 58.900391 41.099609 C 60.400391 40.299609 62.899219 38.299219 61.699219 35.699219 C 61.599219 35.399219 61.1 34.400391 60 33.900391 C 59.5 33.700391 59.000391 33.599609 58.400391 33.599609 z" />
</svg>