<svg xmlns="http://www.w3.org/2000/svg" viewBox="0 0 69 69">
	<path fill="#000" d="M 34.5 0 C 15.5 0 0 15.5 0 34.5 C 0 53.5 15.5 69 34.5 69 C 53.5 69 69 53.5 69 34.5 C 69 15.5 53.5 0 34.5 0 z M 34.5 2 C 52.4 2 67 16.6 67 34.5 C 67 52.4 52.4 67 34.5 67 C 16.6 67 2 52.4 2 34.5 C 2 16.6 16.6 2 34.5 2 z M 14.5 16 C 14.2 16 14.000781 15.999609 13.800781 16.099609 C 13.200781 16.299609 13 16.700781 13 16.800781 L 13 17.199219 C 13.1 17.999219 13.899219 19.5 14.199219 20 C 19.099219 29.2 27.000781 30.200391 27.800781 30.400391 C 29.300781 30.600391 30.799609 30.699219 32.099609 30.699219 C 36.099609 30.699219 37.999609 29.600781 38.599609 29.300781 C 39.699609 29.200781 41.200781 28.800781 42.800781 28.300781 C 43.300781 28.200781 43.700391 28.1 43.900391 28 C 44.100391 28 44.300391 27.899219 44.400391 27.699219 C 44.500391 27.499219 44.5 27.299609 44.5 27.099609 C 44.5 26.699609 44.200781 26.5 43.800781 26.5 L 43.599609 26.5 C 43.299609 26.5 42.900391 26.700781 42.400391 26.800781 C 41.300391 27.100781 39.300781 27.699219 38.300781 27.699219 C 38.100781 27.699219 37.900781 27.800391 37.800781 27.900391 C 37.100781 28.500391 35.2 29.199219 32 29.199219 C 30.7 29.199219 29.400391 29.100391 27.900391 28.900391 C 27.800391 28.900391 20.100391 28.200391 15.400391 19.400391 C 15.200391 18.900391 14.899219 18.400391 14.699219 17.900391 L 14.900391 17.699219 C 15.200391 17.799219 15.6 17.999219 16 18.199219 C 16.3 18.399219 19.599219 20.6 23.699219 22 L 28 23.300781 L 28.199219 23.300781 C 28.399219 23.300781 28.599219 23.199609 28.699219 23.099609 C 28.899219 22.899609 29 22.700391 29 22.400391 L 29 22.199219 L 29.400391 22.099609 C 31.000391 22.699609 33.299609 23.599609 34.599609 24.099609 C 35.899609 24.499609 37.300781 25.300781 37.300781 25.800781 C 37.300781 26.200781 37.699609 26.5 38.099609 26.5 C 38.499609 26.5 38.800781 26.099219 38.800781 25.699219 C 38.700781 23.899219 35.999609 22.899609 35.099609 22.599609 C 33.299609 21.799609 29.699609 20.499609 28.599609 20.099609 L 28.300781 20.099609 C 28.100781 20.099609 27.900781 20.200781 27.800781 20.300781 C 27.600781 20.500781 27.5 20.7 27.5 21 L 27.5 21.300781 L 27.300781 21.400391 L 24.300781 20.5 C 20.400781 19.1 17.000391 16.900781 16.900391 16.800781 C 15.900391 16.300781 15.1 16 14.5 16 z M 59.900391 25.400391 C 59.100391 25.400391 58 25.799609 56.5 26.599609 C 55.1 27.399609 48.299609 31.6 42.599609 34.5 C 42.499609 34.5 42.400781 34.599219 42.300781 34.699219 L 39.5 38.599609 L 38.900391 38.5 L 38.300781 36.199219 C 38.300781 35.999219 38.100391 35.799219 37.900391 35.699219 C 37.800391 35.599219 37.699609 35.599609 37.599609 35.599609 C 37.499609 35.599609 37.400781 35.599219 37.300781 35.699219 C 37.300781 35.699219 32.000391 38.199609 28.900391 40.099609 C 28.400391 40.499609 23.899219 43.499609 24.199219 46.099609 C 24.199219 46.499609 24.5 46.800781 25 46.800781 C 25.4 46.700781 25.699219 46.300391 25.699219 45.900391 C 25.599219 44.700391 27.999219 42.600391 29.699219 41.400391 C 31.799219 40.200391 35.100781 38.599219 36.800781 37.699219 L 37.300781 37.900391 L 38.099609 41.099609 C 38.199609 41.399609 38.500391 41.599219 38.900391 41.699219 C 39.100391 41.699219 39.4 41.600391 39.5 41.400391 L 43.699219 35.800781 C 49.299219 32.800781 56.100391 28.700391 57.400391 27.900391 C 58.600391 27.300391 59.299219 27.1 59.699219 27 L 60 27.300781 C 59.8 28.100781 59.399219 29.4 59.199219 30 C 56.699219 37 53.399609 41.200391 51.099609 43.400391 C 48.899609 45.500391 47.199609 46.399609 46.599609 46.599609 C 44.099609 46.899609 40.499609 46.900391 39.099609 46.900391 L 38.400391 46.900391 C 38.100391 46.900391 37.799219 47.2 37.699219 47.5 C 37.599219 47.8 37.7 48.200391 38 48.400391 L 41.099609 50.400391 L 41 51 L 40.400391 51.099609 C 39.000391 51.399609 37.600781 51.5 36.300781 51.5 C 29.900781 51.5 26.699609 48.299219 26.599609 48.199219 C 26.499609 48.099219 26.3 48 26 48 L 25.900391 48 C 21.500391 48.7 18.600391 48.900391 16.900391 48.900391 C 15.500391 48.900391 14.400391 48.799609 13.900391 48.599609 L 13.699219 48.400391 C 13.599219 48.200391 13.399609 48.000391 13.099609 47.900391 L 12.900391 47.900391 C 12.500391 47.900391 12.199609 48.1 12.099609 48.5 C 11.999609 48.9 12.100391 49.299609 12.400391 49.599609 C 12.800391 49.999609 13.700781 50.5 16.800781 50.5 L 17.199219 50.5 C 19.499219 50.5 22.399609 50.199219 25.599609 49.699219 L 25.900391 49.800781 C 27.100391 50.800781 30.500781 53.199219 36.300781 53.199219 C 37.700781 53.199219 39.2 53.100781 41 52.800781 L 43.900391 51.900391 C 44.100391 51.900391 44.400391 51.600781 44.400391 51.300781 C 44.400391 51.000781 44.3 50.7 44 50.5 L 42 49.199219 L 42 48.400391 C 44 48.400391 45.700391 48.299609 46.900391 48.099609 L 47.099609 48.099609 C 47.499609 47.999609 55.699219 44.799609 60.699219 30.599609 C 60.699219 30.599609 61.599609 28.499609 61.599609 27.099609 C 61.699609 26.599609 61.5 26.099219 61 25.699219 C 60.7 25.499219 60.300391 25.400391 59.900391 25.400391 z M 53.400391 33 C 53.200391 33 52.900781 33.100781 52.800781 33.300781 C 52.500781 33.700781 44.799219 41.999219 34.699219 44.699219 C 34.199219 44.899219 33.999609 45.299219 34.099609 45.699219 C 34.199609 46.099219 34.500391 46.300781 34.900391 46.300781 C 35.000391 46.300781 35.099609 46.299609 35.099609 46.099609 C 45.799609 43.299609 53.7 34.700781 54 34.300781 C 54.1 34.100781 54.199219 33.899219 54.199219 33.699219 C 54.099219 33.499219 54.100391 33.299219 53.900391 33.199219 C 53.800391 33.099219 53.600391 33 53.400391 33 z" />
</svg>