<svg xmlns="http://www.w3.org/2000/svg" viewBox="0 0 69 69">
	<path fill="#000" d="M 34.5 0 C 15.5 0 0 15.5 0 34.5 C 0 53.5 15.5 69 34.5 69 C 53.5 69 69 53.5 69 34.5 C 69 15.5 53.5 0 34.5 0 z M 34.5 2.4003906 C 52.2 2.4003906 66.5 16.8 66.5 34.5 C 66.5 52.2 52.2 66.599609 34.5 66.599609 C 16.8 66.599609 2.4003906 52.2 2.4003906 34.5 C 2.4003906 16.8 16.8 2.4003906 34.5 2.4003906 z M 33.5 17.599609 C 33.2 17.599609 32.899219 17.7 32.699219 18 L 30 22.099609 C 29.7 22.499609 29.799219 23.000781 30.199219 23.300781 C 30.299219 23.400781 30.499219 23.5 30.699219 23.5 C 30.999219 23.5 31.200391 23.399609 31.400391 23.099609 L 32.699219 21.199219 L 32.699219 27.099609 L 26 27.099609 L 26 22 C 26 21.5 25.599609 21.099609 25.099609 21.099609 C 24.599609 21.099609 24.199219 21.5 24.199219 22 L 24.199219 27.099609 L 17.099609 27.099609 L 17.099609 21.199219 L 18.400391 23.099609 C 18.600391 23.299609 18.799609 23.5 19.099609 23.5 C 19.299609 23.5 19.399609 23.500781 19.599609 23.300781 C 19.999609 23.000781 20.100781 22.499609 19.800781 22.099609 L 17 18.099609 C 16.8 17.799609 16.499219 17.699219 16.199219 17.699219 C 15.899219 17.699219 15.600391 17.799609 15.400391 18.099609 L 12.599609 22.199219 C 12.299609 22.599219 12.400781 23.100391 12.800781 23.400391 C 13.000781 23.400391 13.200391 23.5 13.400391 23.5 C 13.700391 23.5 13.899609 23.399609 14.099609 23.099609 L 15.400391 21.199219 L 15.400391 27.099609 L 11.099609 27.099609 C 8.6996098 27.099609 6.8007812 29.000391 6.8007812 31.400391 L 6.8007812 38.300781 C 6.8007813 40.700781 8.6996098 42.599609 11.099609 42.599609 L 15.400391 42.599609 L 15.400391 46.5 C 15.400391 47 15.800781 47.400391 16.300781 47.400391 C 16.800781 47.400391 17.199219 47 17.199219 46.5 L 17.199219 42.599609 L 24.300781 42.599609 L 24.300781 47.300781 L 23 45.400391 C 22.7 45.000391 22.200781 44.899219 21.800781 45.199219 C 21.400781 45.499219 21.299609 46.000391 21.599609 46.400391 L 24.400391 50.5 C 24.600391 50.7 24.799609 50.900391 25.099609 50.900391 L 25.199219 50.900391 L 25.300781 50.900391 C 25.600781 50.900391 25.8 50.8 26 50.5 L 28.800781 46.400391 C 29.100781 46.000391 28.999609 45.499219 28.599609 45.199219 C 28.199609 44.899219 27.700391 45.000391 27.400391 45.400391 L 26 47.300781 L 26 42.599609 L 32.699219 42.599609 L 32.699219 46.5 C 32.699219 47 33.099609 47.400391 33.599609 47.400391 C 34.099609 47.400391 34.5 47 34.5 46.5 L 34.5 42.599609 L 41.699219 42.599609 L 41.699219 47.300781 L 40.400391 45.400391 C 40.100391 45.000391 39.599219 44.899219 39.199219 45.199219 C 38.799219 45.499219 38.7 46.000391 39 46.400391 L 41.800781 50.5 C 42.000781 50.7 42.2 50.900391 42.5 50.900391 L 42.599609 50.900391 L 42.699219 50.900391 C 42.999219 50.900391 43.200391 50.8 43.400391 50.5 L 46.199219 46.400391 C 46.499219 46.000391 46.4 45.499219 46 45.199219 C 45.5 44.899219 44.999219 45.000391 44.699219 45.400391 L 43.400391 47.300781 L 43.400391 42.599609 L 50.599609 42.599609 L 50.599609 46.5 C 50.599609 47 51 47.400391 51.5 47.400391 C 52 47.400391 52.400391 47 52.400391 46.5 L 52.400391 42.599609 L 56.699219 42.599609 C 59.099219 42.599609 61 40.600781 61 38.300781 L 61 31.400391 C 61 29.000391 59.099219 27.099609 56.699219 27.099609 L 52.300781 27.099609 L 52.300781 21.199219 L 53.599609 23.099609 C 53.799609 23.299609 54.000781 23.5 54.300781 23.5 C 54.500781 23.5 54.600781 23.500781 54.800781 23.300781 C 55.200781 23.000781 55.3 22.499609 55 22.099609 L 52.199219 18 C 51.999219 17.7 51.700391 17.599609 51.400391 17.599609 C 51.100391 17.599609 50.799609 17.7 50.599609 18 L 47.800781 22.099609 C 47.500781 22.499609 47.6 23.000781 48 23.300781 C 48.2 23.400781 48.399609 23.5 48.599609 23.5 C 48.899609 23.5 49.100781 23.399609 49.300781 23.099609 L 50.599609 21.199219 L 50.599609 27.099609 L 43.400391 27.099609 L 43.400391 22 C 43.400391 21.5 43 21.099609 42.5 21.099609 C 42 21.099609 41.599609 21.5 41.599609 22 L 41.599609 27.099609 L 34.400391 27.099609 L 34.400391 21.199219 L 35.699219 23.099609 C 35.899219 23.299609 36.100391 23.5 36.400391 23.5 C 36.600391 23.5 36.700391 23.500781 36.900391 23.300781 C 37.300391 23.000781 37.399609 22.499609 37.099609 22.099609 L 34.300781 18 C 34.100781 17.7 33.8 17.599609 33.5 17.599609 z M 11.099609 28.800781 L 15.400391 28.800781 L 15.400391 31.599609 L 17.099609 31.599609 L 17.099609 28.800781 L 24.199219 28.800781 L 24.199219 31.599609 L 26 31.599609 L 26 28.800781 L 32.699219 28.800781 L 32.699219 31.599609 L 34.400391 31.599609 L 34.400391 28.800781 L 41.599609 28.800781 L 41.599609 31.599609 L 43.400391 31.599609 L 43.400391 28.800781 L 50.599609 28.800781 L 50.599609 31.599609 L 52.300781 31.599609 L 52.300781 28.800781 L 56.699219 28.800781 C 58.199219 28.800781 59.300781 30.000391 59.300781 31.400391 L 59.300781 33.900391 L 8.5 33.900391 L 8.5 31.400391 C 8.5 29.900391 9.6996098 28.800781 11.099609 28.800781 z M 8.5 35.599609 L 59.300781 35.599609 L 59.300781 38.300781 C 59.300781 39.800781 58.099219 40.900391 56.699219 40.900391 L 52.400391 40.900391 L 52.400391 38.099609 L 50.599609 38.099609 L 50.599609 40.900391 L 43.400391 40.900391 L 43.400391 38.099609 L 41.699219 38.099609 L 41.699219 40.900391 L 34.5 40.900391 L 34.5 38.099609 L 32.699219 38.099609 L 32.699219 40.900391 L 26 40.900391 L 26 38.099609 L 24.300781 38.099609 L 24.300781 40.900391 L 17.199219 40.900391 L 17.199219 38.099609 L 15.400391 38.099609 L 15.400391 40.900391 L 11.099609 40.900391 C 9.5996098 40.900391 8.5 39.700781 8.5 38.300781 L 8.5 35.599609 z" />
</svg>