<svg xmlns="http://www.w3.org/2000/svg" viewBox="0 0 69 69">
	<path fill="#000" d="M 34.5 0 C 15.5 0 0 15.5 0 34.5 C 0 53.5 15.5 69 34.5 69 C 53.5 69 69 53.5 69 34.5 C 69 15.5 53.5 0 34.5 0 z M 34.5 2 C 52.4 2 67 16.6 67 34.5 C 67 52.4 52.4 67 34.5 67 C 16.6 67 2 52.4 2 34.5 C 2 16.6 16.6 2 34.5 2 z M 30.419922 7.9785156 C 30.162109 7.9503906 29.975391 8.1753906 29.900391 8.4003906 C 29.800391 8.8003906 29.799219 9.1 29.699219 9.5 C 29.499219 10.1 29.399219 10.599219 29.199219 11.199219 C 28.999219 11.699219 28.7 12.199219 28.5 12.699219 C 27.9 13.699219 27.3 14.7 26.5 15.5 C 25.6 16.4 24.699219 17.399219 23.699219 18.199219 C 22.699219 18.999219 21.800781 19.799609 20.800781 20.599609 C 20.000781 21.299609 19.100781 21.999219 18.300781 22.699219 C 17.600781 23.399219 16.900781 24.100391 16.300781 24.900391 C 15.600781 25.800391 15.099219 26.9 14.699219 28 C 14.499219 28.7 14.300781 29.399609 14.300781 30.099609 C 14.300781 30.699609 14.200781 31.300391 14.300781 31.900391 C 14.400781 32.500391 14.399609 33.099219 14.599609 33.699219 C 14.799609 34.499219 15.100391 35.200391 15.400391 35.900391 C 15.500391 36.200391 15.599219 36.399219 15.699219 36.699219 L 15.599609 36.800781 C 15.399609 36.700781 15.299609 36.6 15.099609 36.5 C 14.199609 35.9 13.4 35.199609 12.5 34.599609 C 12.1 34.299609 11.799219 34.400391 11.699219 34.900391 C 11.699219 35.600391 11.599609 36.200781 11.599609 36.800781 L 11.599609 37.400391 C 11.599609 38.100391 11.700781 38.899609 11.800781 39.599609 C 11.800781 39.999609 11.9 40.500391 12 40.900391 C 12 41.300391 12.200781 41.699609 12.300781 42.099609 C 12.500781 42.799609 12.600391 43.4 12.900391 44 C 13.200391 44.8 13.6 45.600391 14 46.400391 C 14.4 47.100391 14.799219 47.700781 15.199219 48.300781 C 15.499219 48.800781 15.799219 49.199609 16.199219 49.599609 C 16.699219 50.099609 17.099609 50.699609 17.599609 51.099609 C 18.199609 51.699609 18.899609 52.199219 19.599609 52.699219 C 20.199609 53.099219 20.899609 53.500781 21.599609 53.800781 C 22.099609 54.100781 22.599609 54.200391 23.099609 54.400391 C 23.799609 54.600391 24.499219 54.800391 25.199219 54.900391 C 25.899219 55.000391 26.600781 55.099609 27.300781 55.099609 C 28.000781 55.099609 28.8 55.1 29.5 55 C 30.1 54.9 30.599609 54.799219 31.099609 54.699219 C 31.699609 54.599219 32.199219 54.500391 32.699219 54.400391 C 32.799219 54.400391 32.999609 54.300391 33.099609 54.400391 C 34.099609 54.900391 35.099609 55.399219 36.099609 55.699219 C 36.599609 55.899219 37.099609 56.099219 37.599609 56.199219 C 38.199609 56.399219 38.800391 56.499609 39.400391 56.599609 C 40.200391 56.699609 41.100391 56.700781 41.900391 56.800781 C 42.400391 56.800781 42.800781 56.400391 42.800781 55.900391 C 42.800781 55.400391 42.400391 55 41.900391 55 L 40.300781 55 L 40 55 C 39.6 54.9 39.300391 54.900781 38.900391 54.800781 C 38.400391 54.700781 37.9 54.6 37.5 54.5 L 36.300781 54.199219 C 35.500781 53.999219 34.799609 53.700391 34.099609 53.400391 C 33.999609 53.300391 33.9 53.199609 34 53.099609 C 34.1 52.899609 34.300391 52.600781 34.400391 52.300781 C 34.500391 52.200781 34.599609 52.000781 34.599609 51.800781 C 34.599609 51.400781 34.200391 51.1 33.900391 51 C 33.600391 50.9 33.199609 51.100391 33.099609 51.400391 C 32.899609 51.700391 32.799609 52.000781 32.599609 52.300781 C 32.499609 52.400781 32.400781 52.500391 32.300781 52.400391 C 31.300781 51.700391 30.300391 50.999609 29.400391 50.099609 C 28.300391 48.999609 27.3 47.899609 26.5 46.599609 C 25.8 45.599609 25.200781 44.500391 24.800781 43.400391 C 24.500781 42.700391 24.2 41.899219 24 41.199219 L 23.699219 40 C 23.599219 39.6 23.6 39.099219 23.5 38.699219 C 23.3 37.799219 23.199219 36.9 23.199219 36 C 23.199219 35 23.200781 34.099609 23.300781 33.099609 C 23.400781 32.399609 23.599219 31.7 23.699219 31 C 23.799219 30.4 23.899609 29.900781 24.099609 29.300781 C 24.299609 28.700781 24.600781 28.1 24.800781 27.5 C 25.600781 25.6 26.699609 23.9 28.099609 22.5 L 28.599609 22 C 28.399609 22.1 28.299609 22.300391 28.099609 22.400391 C 27.899609 22.500391 27.699609 22.600781 27.599609 22.800781 C 26.199609 24.300781 25.100781 25.899219 24.300781 27.699219 C 23.800781 28.699219 23.399219 29.700781 23.199219 30.800781 C 22.999219 31.700781 22.799219 32.500391 22.699219 33.400391 C 22.599219 34.200391 22.5 35.100391 22.5 35.900391 C 22.5 37.000391 22.599219 37.999609 22.699219 39.099609 C 22.799219 39.499609 22.800391 40 22.900391 40.5 C 23.000391 41.1 23.100781 41.599609 23.300781 42.099609 C 23.500781 42.899609 23.799609 43.7 24.099609 44.5 C 24.499609 45.4 24.900391 46.299609 25.400391 47.099609 C 26.100391 48.299609 26.799219 49.300781 27.699219 50.300781 C 28.399219 51.200781 29.2 51.899609 30 52.599609 C 30.153927 52.8305 30.372803 52.998238 30.599609 53.15625 C 30.271679 53.198511 29.956697 53.229364 29.599609 53.300781 C 28.799609 53.400781 27.999219 53.500391 27.199219 53.400391 C 26.399219 53.400391 25.600781 53.299609 24.800781 53.099609 C 24.100781 52.899609 23.500781 52.7 22.800781 52.5 C 22.000781 52.2 21.200391 51.699219 20.400391 51.199219 C 19.700391 50.599219 18.900781 50.100391 18.300781 49.400391 C 17.400781 48.500391 16.6 47.500391 16 46.400391 C 15.5 45.500391 15.099219 44.700781 14.699219 43.800781 C 14.399219 43.100781 14.200391 42.299609 13.900391 41.599609 C 13.800391 41.199609 13.699609 40.9 13.599609 40.5 C 13.499609 40.1 13.500391 39.599219 13.400391 39.199219 C 13.300391 38.599219 13.199219 37.900781 13.199219 37.300781 C 13.199219 37.100781 13.300391 37.099219 13.400391 37.199219 C 13.600391 37.299219 13.8 37.499609 14 37.599609 C 15.1 38.399609 16.299609 39 17.599609 39.5 C 17.799609 39.6 17.899609 39.500391 18.099609 39.400391 C 18.299609 39.200391 18.299219 39.000781 18.199219 38.800781 C 17.799219 37.800781 17.300391 36.699219 16.900391 35.699219 C 16.600391 35.099219 16.299609 34.500781 16.099609 33.800781 C 15.799609 33.100781 15.799219 32.299609 15.699219 31.599609 C 15.599219 30.399609 15.699219 29.199609 16.199219 28.099609 C 16.799219 26.699609 17.599219 25.5 18.699219 24.5 C 19.699219 23.6 20.800781 22.800391 21.800781 21.900391 L 25.099609 19.199219 C 26.499609 17.899219 27.800391 16.599609 28.900391 15.099609 C 29.800391 13.899609 30.500391 12.599219 30.900391 11.199219 L 31 11.099609 L 31.099609 11.199219 C 31.699609 12.099219 32.299219 13.000391 32.699219 13.900391 C 33.099219 14.700391 33.399219 15.600391 33.699219 16.400391 C 33.899219 17.000391 34.099219 17.599219 34.199219 18.199219 C 34.299219 18.699219 34.300391 19.199219 34.400391 19.699219 C 34.500391 20.299219 34.599609 20.999219 34.599609 21.699219 C 34.599609 22.099219 34.799219 22.4 35.199219 22.5 C 35.599219 22.6 36.199219 22.300391 36.199219 21.900391 C 36.299219 20.900391 36.1 19.900391 36 18.900391 C 36 18.300391 35.799219 17.799219 35.699219 17.199219 C 35.499219 16.599219 35.399219 16.000391 35.199219 15.400391 C 35.099219 15.100391 35.000391 14.899609 34.900391 14.599609 C 34.600391 13.799609 34.300391 13.000781 33.900391 12.300781 C 33.300391 11.100781 32.599219 10.099609 31.699219 9.0996094 C 31.399219 8.6996094 31.099219 8.3996094 30.699219 8.0996094 C 30.599219 8.0246094 30.505859 7.9878906 30.419922 7.9785156 z M 41.699219 15 C 41.599219 15 41.400391 14.999609 41.400391 15.099609 C 41.300391 15.199609 41.300781 15.3 41.300781 15.5 C 41.300781 15.8 41.3 15.800781 41 15.800781 L 40.900391 15.800781 C 40.700391 15.800781 40.5 15.999219 40.5 16.199219 C 40.5 16.399219 40.700391 16.499609 40.900391 16.599609 C 41.300391 16.599609 41.300781 16.6 41.300781 17 C 41.300781 17.3 41.600391 17.400781 41.900391 17.300781 C 42.100391 17.200781 42.099609 17.000391 42.099609 16.900391 C 42.099609 16.600391 42.100391 16.599609 42.400391 16.599609 L 42.599609 16.599609 C 42.799609 16.599609 42.900391 16.399219 42.900391 16.199219 C 42.800391 15.999219 42.600781 15.800781 42.300781 15.800781 C 42.000781 15.800781 42 15.8 42 15.5 L 42 15.400391 C 41.9 15.300391 41.799219 15.1 41.699219 15 z M 47.699219 17.099609 C 47.499219 17.099609 47.300781 17.299609 47.300781 17.599609 C 47.300781 17.899609 47.3 17.900391 47 17.900391 C 46.7 17.900391 46.5 18.100781 46.5 18.300781 C 46.5 18.500781 46.7 18.699219 47 18.699219 C 47.3 18.699219 47.300781 18.7 47.300781 19 L 47.300781 19.199219 C 47.400781 19.399219 47.499219 19.5 47.699219 19.5 C 47.899219 19.5 48.099609 19.299609 48.099609 19.099609 L 48.099609 18.900391 C 48.099609 18.700391 48.200781 18.599219 48.300781 18.699219 L 48.5 18.699219 C 48.7 18.699219 48.800391 18.500781 48.900391 18.300781 C 48.900391 18.000781 48.700391 17.900391 48.400391 17.900391 C 48.100391 17.900391 48.099609 17.899609 48.099609 17.599609 C 48.099609 17.299609 47.899219 17.099609 47.699219 17.099609 z M 38.699219 18.5 C 38.499219 18.6 38.400391 18.8 38.400391 19 C 38.400391 19.1 38.400781 19.300391 38.300781 19.400391 C 38.200781 19.500391 38.000391 19.5 37.900391 19.5 C 37.500391 19.6 37.3 19.899219 37.5 20.199219 C 37.6 20.399219 37.8 20.400391 38 20.400391 C 38.3 20.400391 38.300781 20.399219 38.300781 20.699219 C 38.300781 20.799219 38.300391 21 38.400391 21 C 38.500391 21.2 38.700391 21.299219 38.900391 21.199219 C 39.100391 21.099219 39.199219 20.999219 39.199219 20.699219 C 39.199219 20.299219 39.199609 20.300781 39.599609 20.300781 C 39.899609 20.300781 40.099609 20.100391 40.099609 19.900391 C 40.099609 19.600391 39.899609 19.400391 39.599609 19.400391 C 39.199609 19.400391 39.199219 19.4 39.199219 19 C 39.199219 18.7 38.999219 18.5 38.699219 18.5 z M 43.300781 18.900391 C 43.100781 18.900391 43 19.100781 43 19.300781 C 43 19.500781 42.899219 19.599609 42.699219 19.599609 C 42.599219 19.599609 42.500391 19.599219 42.400391 19.699219 C 42.300391 19.799219 42.300781 19.9 42.300781 20 C 42.300781 20.1 42.399609 20.199219 42.599609 20.199219 C 42.899609 20.199219 42.900391 20.2 42.900391 20.5 C 42.900391 20.6 43 20.700781 43 20.800781 C 43.1 20.900781 43.200781 20.900781 43.300781 20.800781 C 43.400781 20.700781 43.5 20.600391 43.5 20.400391 C 43.5 20.200391 43.600781 20.099609 43.800781 20.099609 C 44.000781 20.099609 44.099609 20.000781 44.099609 19.800781 C 44.499609 19.700781 44.299609 19.599609 44.099609 19.599609 C 43.899609 19.599609 43.699219 19.500781 43.699219 19.300781 C 43.699219 19.100781 43.500781 18.900391 43.300781 18.900391 z M 49.626953 20.675781 C 49.556641 20.699219 49.5 20.85 49.5 21 C 49.5 21.3 49.499219 21.300781 49.199219 21.300781 C 48.999219 21.300781 48.900781 21.399609 48.800781 21.599609 C 48.800781 21.799609 48.899609 21.900391 49.099609 21.900391 C 49.399609 21.900391 49.400391 21.900781 49.400391 22.300781 C 49.400391 22.500781 49.499609 22.599609 49.599609 22.599609 C 49.699609 22.599609 49.9 22.6 50 22.5 C 50.1 22.4 50.099609 22.299219 50.099609 22.199219 C 50.099609 22.099219 50.200781 22 50.300781 22 L 50.400391 22 C 50.600391 22 50.699219 21.899219 50.699219 21.699219 C 50.699219 21.499219 50.600391 21.400391 50.400391 21.400391 C 50.000391 21.400391 50 21.4 50 21 C 50 20.8 49.899219 20.699219 49.699219 20.699219 C 49.674219 20.674219 49.650391 20.667969 49.626953 20.675781 z M 57.453125 22.59375 C 57.1875 22.5875 56.899609 22.650781 56.599609 22.800781 C 55.899609 23.200781 55.2 23.500391 54.5 23.900391 C 53.5 24.500391 52.4 25.100781 51.5 25.800781 C 50.3 26.600781 49.199609 27.500391 48.099609 28.400391 C 46.799609 29.500391 45.600391 30.600781 44.400391 31.800781 C 43.400391 32.800781 42.499609 33.9 41.599609 35 C 41.399609 35.2 41.399219 35.2 41.199219 35 C 39.899219 33.7 38.599219 32.3 37.199219 31 C 36.799219 30.6 36.400781 30.400391 35.800781 30.400391 C 35.600781 30.500391 35.399219 30.499609 35.199219 30.599609 C 34.599219 30.799609 34.199219 31.2 33.699219 31.5 C 33.099219 32 32.899219 32.899609 33.199219 33.599609 C 33.299219 33.999609 33.499219 34.299609 33.699219 34.599609 C 34.099219 35.399609 34.6 36.199609 35 37.099609 C 35.6 38.199609 36.199219 39.300391 36.699219 40.400391 L 38.800781 44.300781 C 39.000781 44.700781 39.299609 45.199609 39.599609 45.599609 C 40.299609 46.399609 41.400781 46.599219 42.300781 46.199219 C 43.000781 45.899219 43.400781 45.400781 43.800781 44.800781 C 44.400781 43.600781 45.100781 42.399219 45.800781 41.199219 C 46.800781 39.499219 47.800391 37.799219 48.900391 36.199219 C 50.000391 34.699219 51.100781 33.099219 52.300781 31.699219 C 53.200781 30.699219 54.099609 29.699219 55.099609 28.699219 C 56.199609 27.599219 57.4 26.6 58.5 25.5 C 58.9 25.1 59.1 24.6 59 24 C 58.85 23.25 58.25 22.6125 57.453125 22.59375 z M 42.152344 22.615234 C 41.407031 22.587109 40.675 22.699219 40 22.699219 C 39.3 22.799219 38.600781 22.999609 37.800781 23.099609 C 36.900781 23.299609 36.100781 23.6 35.300781 24 C 34.200781 24.6 33.199219 25.199609 32.199219 26.099609 C 31.199219 26.999609 30.299609 27.999609 29.599609 29.099609 C 28.499609 30.699609 27.800391 32.500391 27.400391 34.400391 C 27.300391 35.000391 27.199609 35.499609 27.099609 36.099609 C 26.999609 37.099609 27.099219 38.199219 27.199219 39.199219 C 27.299219 39.799219 27.399609 40.4 27.599609 41 C 27.799609 41.6 27.999219 42.199219 28.199219 42.699219 C 28.699219 43.999219 29.400781 45.099219 30.300781 46.199219 C 31.100781 47.099219 31.900781 47.999219 32.800781 48.699219 C 34.500781 49.999219 36.300781 50.800781 38.300781 51.300781 C 39.200781 51.500781 40.1 51.599219 41 51.699219 C 41.6 51.699219 42.200781 51.599609 42.800781 51.599609 C 43.700781 51.599609 44.600391 51.399219 45.400391 51.199219 C 46.300391 50.899219 47.199609 50.599219 48.099609 50.199219 C 48.999609 49.799219 49.7 49.299219 50.5 48.699219 C 51.7 47.799219 52.699609 46.7 53.599609 45.5 C 54.499609 44.3 55.199609 42.9 55.599609 41.5 C 55.799609 40.8 55.899609 40.1 56.099609 39.5 C 56.299609 38.7 56.300781 37.8 56.300781 37 C 56.300781 36.2 56.299609 35.3 56.099609 34.5 C 55.999609 34.1 56.000391 33.700391 55.900391 33.400391 C 55.700391 32.900391 55.600391 32.300781 55.400391 31.800781 C 55.300391 31.400781 54.899609 31.199219 54.599609 31.199219 C 53.999609 31.299219 53.800391 31.900781 53.900391 32.300781 C 54.200391 33.000781 54.399609 33.7 54.599609 34.5 C 54.499609 35.6 54.699609 36.500391 54.599609 37.400391 C 54.599609 38.000391 54.5 38.499609 54.5 39.099609 C 54.4 39.799609 54.299609 40.399609 54.099609 41.099609 C 53.899609 41.899609 53.599219 42.600781 53.199219 43.300781 C 52.699219 44.300781 51.999219 45.299609 51.199219 46.099609 C 50.299219 47.099609 49.299609 47.899609 48.099609 48.599609 C 46.999609 49.299609 45.8 49.7 44.5 50 C 43.6 50.2 42.599219 50.300781 41.699219 50.300781 C 40.899219 50.300781 40.100391 50.199609 39.400391 50.099609 C 38.900391 49.999609 38.5 49.900781 38 49.800781 C 37.3 49.600781 36.600391 49.3 35.900391 49 C 35.000391 48.6 34.200391 48.1 33.400391 47.5 C 32.500391 46.8 31.7 45.9 31 45 C 30.4 44.2 29.899609 43.4 29.599609 42.5 C 29.199609 41.7 28.900781 40.800391 28.800781 39.900391 C 28.700781 39.300391 28.599609 38.799219 28.599609 38.199219 C 28.499609 36.799219 28.600391 35.499219 28.900391 34.199219 C 29.200391 33.199219 29.5 32.199219 30 31.199219 C 30.7 29.999219 31.5 28.900391 32.5 27.900391 C 33.4 27.100391 34.300391 26.400781 35.400391 25.800781 C 36.600391 25.200781 37.799219 24.7 39.199219 24.5 C 39.899219 24.4 40.700391 24.300781 41.400391 24.300781 C 42.300391 24.300781 43.1 24.3 44 24.5 C 44.7 24.7 45.399609 24.8 46.099609 25 C 46.899609 25.3 47.600781 25.7 48.300781 26 C 48.700781 26.2 49.200391 26.099219 49.400391 25.699219 C 49.600391 25.299219 49.499609 24.899609 49.099609 24.599609 C 48.899609 24.499609 48.799609 24.400391 48.599609 24.400391 C 47.799609 24.100391 47.000781 23.700391 46.300781 23.400391 C 46.000781 23.300391 45.599219 23.199609 45.199219 23.099609 L 44 22.800781 C 43.6 22.700781 43.300391 22.799219 42.900391 22.699219 C 42.650391 22.649219 42.400781 22.624609 42.152344 22.615234 z M 57.300781 24.199219 L 57.5 24.199219 C 57.5 24.299219 57.500391 24.400391 57.400391 24.400391 C 56.600391 25.100391 55.8 25.899609 55 26.599609 C 54 27.599609 53 28.599219 52 29.699219 C 50.7 31.099219 49.500391 32.599219 48.400391 34.199219 C 47.000391 35.999219 45.799609 38.000391 44.599609 39.900391 C 44.099609 40.700391 43.599219 41.600391 43.199219 42.400391 C 42.899219 42.900391 42.600781 43.5 42.300781 44 C 42.100781 44.4 41.800391 44.599609 41.400391 44.599609 C 41.000391 44.599609 40.7 44.4 40.5 44 C 40 43.1 39.5 42.099219 39 41.199219 L 36.900391 37.300781 C 36.500391 36.600781 36.099219 35.899609 35.699219 35.099609 C 35.399219 34.499609 35.100781 34.000391 34.800781 33.400391 C 34.700781 33.300391 34.699609 33.100391 34.599609 32.900391 C 34.699609 32.800391 34.700391 32.699609 34.900391 32.599609 C 35.100391 32.499609 35.3 32.299219 35.5 32.199219 C 35.8 31.999219 35.999219 32.000781 36.199219 32.300781 C 36.999219 33.100781 37.799609 33.900781 38.599609 34.800781 C 39.399609 35.600781 40.100391 36.399609 40.900391 37.099609 C 41.200391 37.399609 41.7 37.499219 42 37.199219 C 42.2 37.099219 42.300391 36.899219 42.400391 36.699219 C 44.100391 34.499219 46 32.599219 48 30.699219 C 49.2 29.599219 50.500391 28.5 51.900391 27.5 C 53.300391 26.5 54.800781 25.499219 56.300781 24.699219 C 56.600781 24.499219 57.000781 24.299219 57.300781 24.199219 z" />
</svg>