<svg xmlns="http://www.w3.org/2000/svg" viewBox="0 0 55.738 55.738">
	<path fill="#000" d="M 28.763672 -0.0390625 C 24.786317 -0.14140872 20.83705 0.61606842 17.203125 2.1210938 C 7.5126574 6.1344945 0 15.485837 0 27.869141 C 3.6488599e-15 43.251881 12.4864 55.738281 27.869141 55.738281 C 39.138935 55.738281 49.30466 48.944968 53.617188 38.533203 C 57.929707 28.121458 55.543107 16.132951 47.574219 8.1640625 C 42.102163 2.6920063 35.392597 0.13151454 28.763672 -0.0390625 z M 28.710938 1.4492188 C 34.973273 1.6019801 41.308769 4.0197067 46.513672 9.2246094 C 54.056659 16.767597 56.31246 28.105757 52.230469 37.960938 C 48.148469 47.816139 38.536546 54.238281 27.869141 54.238281 C 13.297061 54.238281 1.5 42.441221 1.5 27.869141 C 1.5 16.090315 8.5915674 7.3121904 17.777344 3.5078125 C 21.22201 2.0811708 24.953536 1.3575618 28.710938 1.4492188 z M 27.890625 6.5351562 A 0.584 0.584 0 0 0 27.324219 7.1191406 L 27.324219 13.435547 L 26.90625 13.634766 L 23.173828 10.675781 A 0.564 0.564 0 0 0 22.8125 10.546875 A 0.582 0.582 0 0 0 22.355469 10.767578 A 0.588 0.588 0 0 0 22.455078 11.591797 L 27.226562 15.382812 L 27.326172 15.582031 L 27.326172 26.253906 L 26.939453 26.478516 L 17.755859 21.207031 L 17.630859 21.023438 L 16.716797 14.994141 A 0.609 0.609 0 0 0 16.052734 14.505859 A 0.57 0.57 0 0 0 15.673828 14.734375 A 0.574 0.574 0 0 0 15.564453 15.171875 L 16.275391 19.871094 L 15.892578 20.134766 L 10.417969 17.001953 A 0.59 0.59 0 0 0 10.128906 16.923828 A 0.586 0.586 0 0 0 9.6289062 17.214844 A 0.589 0.589 0 0 0 9.84375 18.015625 L 15.3125 21.154297 L 15.279297 21.619141 L 10.861328 23.373047 A 0.593 0.593 0 0 0 10.533203 24.136719 A 0.585 0.585 0 0 0 11.076172 24.505859 A 0.594 0.594 0 0 0 11.289062 24.464844 L 16.955078 22.210938 L 17.179688 22.224609 L 26.349609 27.490234 L 26.349609 27.9375 L 17.476562 33.029297 L 17.253906 33.048828 L 11.589844 30.794922 A 0.579 0.579 0 0 0 11.373047 30.751953 A 0.579 0.579 0 0 0 10.833984 31.121094 A 0.583 0.583 0 0 0 11.158203 31.880859 L 15.576172 33.640625 L 15.609375 34.103516 L 9.8457031 37.412109 A 0.589 0.589 0 0 0 9.6289062 38.212891 A 0.589 0.589 0 0 0 10.136719 38.505859 A 0.568 0.568 0 0 0 10.423828 38.427734 L 16.195312 35.115234 L 16.578125 35.378906 L 15.865234 40.078125 A 0.534 0.534 0 0 0 15.966797 40.484375 A 0.744 0.744 0 0 0 16.445312 40.753906 A 0.584 0.584 0 0 0 17.019531 40.253906 L 17.933594 34.228516 L 18.060547 34.042969 L 26.945312 28.943359 L 27.332031 29.167969 L 27.332031 39.330078 L 27.232422 39.529297 L 22.460938 43.322266 A 0.589 0.589 0 0 0 22.361328 44.144531 A 0.582 0.582 0 0 0 22.818359 44.365234 A 0.579 0.579 0 0 0 23.179688 44.238281 L 26.90625 41.279297 L 27.324219 41.478516 L 27.324219 48.130859 A 0.585 0.585 0 0 0 27.908203 48.716797 L 27.904297 48.720703 A 0.585 0.585 0 0 0 28.488281 48.134766 L 28.488281 41.474609 L 28.908203 41.275391 L 32.632812 44.234375 A 0.578 0.578 0 0 0 32.998047 44.363281 A 0.578 0.578 0 0 0 33.453125 44.142578 A 0.59 0.59 0 0 0 33.361328 43.318359 L 28.591797 39.525391 L 28.490234 39.326172 L 28.490234 29.164062 L 28.878906 28.939453 L 37.759766 34.039062 L 37.888672 34.224609 L 38.798828 40.25 A 0.617 0.617 0 0 0 39.466797 40.740234 A 0.588 0.588 0 0 0 39.953125 40.074219 L 39.242188 35.373047 L 39.626953 35.111328 L 45.394531 38.423828 A 0.571 0.571 0 0 0 45.683594 38.501953 A 0.585 0.585 0 0 0 46.191406 38.207031 A 0.587 0.587 0 0 0 45.976562 37.40625 L 40.207031 34.097656 L 40.242188 33.634766 L 44.658203 31.878906 A 0.586 0.586 0 0 0 44.984375 31.119141 A 0.58 0.58 0 0 0 44.443359 30.748047 A 0.589 0.589 0 0 0 44.226562 30.792969 L 38.564453 33.044922 L 38.339844 33.027344 L 29.46875 27.935547 L 29.46875 27.482422 L 38.636719 22.216797 L 38.859375 22.201172 L 44.523438 24.453125 A 0.592 0.592 0 0 0 44.742188 24.496094 A 0.579 0.579 0 0 0 45.28125 24.130859 A 0.591 0.591 0 0 0 44.957031 23.365234 L 40.537109 21.609375 L 40.505859 21.146484 L 45.972656 18.005859 A 0.587 0.587 0 0 0 46.189453 17.205078 A 0.586 0.586 0 0 0 45.683594 16.912109 A 0.591 0.591 0 0 0 45.394531 16.990234 L 39.921875 20.132812 L 39.537109 19.869141 L 40.25 15.169922 A 0.524 0.524 0 0 0 40.150391 14.763672 A 0.733 0.733 0 0 0 39.673828 14.496094 A 0.588 0.588 0 0 0 39.097656 14.996094 L 38.185547 21.025391 L 38.058594 21.208984 L 28.876953 26.478516 L 28.490234 26.255859 L 28.490234 15.582031 L 28.589844 15.382812 L 33.361328 11.591797 A 0.59 0.59 0 0 0 33.455078 10.767578 A 0.582 0.582 0 0 0 32.998047 10.546875 A 0.577 0.577 0 0 0 32.634766 10.675781 L 28.912109 13.634766 L 28.492188 13.435547 L 28.492188 7.1191406 A 0.584 0.584 0 0 0 27.908203 6.5351562 A 0.584 0.584 0 0 0 27.890625 6.5351562 z" />
</svg>