<svg xmlns="http://www.w3.org/2000/svg" viewBox="0 0 70 70">
	<g stroke="#000" stroke-width="2" stroke-linecap="round" stroke-linejoin="round">
		<circle fill="none" cx="35" cy="35" r="34" />
		<path fill="none" d="M15 17l12 0m-12 36l12 0m-12 -4l7 0m-7 -4l7 0m-7 -4l7 0m-7 -4l7 0m-7 -4l12 0m-12 -4l7 0m-7 -4l7 0m-7 -4l7 0" />
		<path fill="#000" stroke-width="0" d="M 35.378906 22.675781 L 32 24.933594 L 32 28.380859 L 35.378906 26.306641 L 35.378906 46.429688 L 38.714844 46.429688 L 38.714844 22.675781 L 35.378906 22.675781 z M 42.828125 22.675781 L 42.828125 35.189453 L 45.867188 35.189453 C 46.268188 34.603453 46.736484 34.145406 47.271484 33.816406 C 47.807484 33.493406 48.359453 33.326172 48.939453 33.326172 C 50.004453 33.326172 50.829062 33.682484 51.414062 34.396484 C 51.994063 35.110484 52.285156 36.108484 52.285156 37.396484 L 52.285156 39.388672 C 52.285156 40.687672 51.994062 41.691297 51.414062 42.404297 C 50.829062 43.118297 50.004453 43.474609 48.939453 43.474609 C 48.014453 43.474609 47.2615 43.229141 46.6875 42.744141 C 46.1075 42.259141 45.761672 41.584844 45.638672 40.714844 L 45.638672 40.697266 L 42.308594 40.697266 L 42.308594 40.714844 C 42.503594 41.963844 42.888609 43.039641 43.474609 43.931641 C 44.054609 44.824641 44.813141 45.504656 45.744141 45.972656 C 46.675141 46.441656 47.741453 46.675781 48.939453 46.675781 C 50.345453 46.675781 51.548875 46.390406 52.546875 45.816406 C 53.550875 45.247406 54.315844 44.417219 54.839844 43.324219 C 55.358844 42.236219 55.619141 40.927672 55.619141 39.388672 L 55.619141 37.396484 C 55.619141 35.857484 55.369328 34.548938 54.861328 33.460938 C 54.354328 32.367938 53.612719 31.541656 52.636719 30.972656 C 51.666719 30.409656 50.489187 30.126953 49.117188 30.126953 C 48.582188 30.126953 48.063781 30.220297 47.550781 30.404297 C 47.037781 30.588297 46.574109 30.850406 46.162109 31.191406 L 46.162109 25.849609 L 54.933594 25.849609 L 54.933594 22.675781 L 42.828125 22.675781 z" />
	</g>
</svg>