<svg xmlns="http://www.w3.org/2000/svg" viewBox="0 0 70 70">
	<g stroke="#000" stroke-width="2" stroke-linecap="round" stroke-linejoin="round">
		<circle fill="none" cx="35" cy="35" r="34" />
		<path fill="none" d="M15 17l12 0m-12 36l12 0m-12 -4l7 0m-7 -4l7 0m-7 -4l7 0m-7 -4l7 0m-7 -4l12 0m-12 -4l7 0m-7 -4l7 0m-7 -4l7 0" />
		<path fill="#000" stroke-width="0" d="M 35.378906 22.675781 L 32 24.933594 L 32 28.380859 L 35.378906 26.306641 L 35.378906 46.429688 L 38.714844 46.429688 L 38.714844 22.675781 L 35.378906 22.675781 z M 48.626953 22.675781 L 43.464844 32.902344 C 43.391844 33.058344 43.312375 33.209094 43.234375 33.371094 C 43.161375 33.527094 43.090438 33.689563 43.023438 33.851562 C 42.633437 34.787562 42.332 35.740938 42.125 36.710938 C 41.919 37.680937 41.818359 38.607281 41.818359 39.488281 L 41.818359 39.505859 C 41.818359 41.016859 42.07475 42.310719 42.59375 43.386719 C 43.11175 44.456719 43.864562 45.270984 44.851562 45.833984 C 45.844562 46.396984 47.037641 46.675781 48.431641 46.675781 C 49.825641 46.675781 51.018578 46.391125 52.017578 45.828125 C 53.015578 45.259125 53.774109 44.434797 54.287109 43.341797 C 54.806109 42.254797 55.068359 40.949875 55.068359 39.421875 L 55.068359 39.404297 C 55.068359 37.915297 54.839813 36.638266 54.382812 35.572266 C 53.919812 34.513266 53.250141 33.705438 52.369141 33.148438 C 51.488141 32.596438 50.427172 32.316406 49.201172 32.316406 C 48.504172 32.316406 47.890094 32.455234 47.371094 32.740234 C 47.202955 32.831363 47.053949 32.938377 46.912109 33.052734 L 52.224609 22.675781 L 48.626953 22.675781 z M 48.269531 35.517578 C 49.379531 35.517578 50.233938 35.880469 50.835938 36.605469 C 51.432938 37.330469 51.732422 38.356594 51.732422 39.683594 L 51.732422 39.699219 C 51.732422 40.909219 51.448047 41.841141 50.873047 42.494141 C 50.305047 43.146141 49.491641 43.474609 48.431641 43.474609 C 47.388641 43.474609 46.580859 43.151047 46.005859 42.498047 C 45.431859 41.851047 45.146484 40.926797 45.146484 39.716797 L 45.146484 39.699219 C 45.146484 38.372219 45.420797 37.341328 45.966797 36.611328 C 46.507797 35.880328 47.277531 35.517578 48.269531 35.517578 z" />
	</g>
</svg>