<svg xmlns="http://www.w3.org/2000/svg" viewBox="0 0 70 70">
	<g stroke="#000" stroke-width="2" stroke-linecap="round" stroke-linejoin="round">
		<circle fill="none" cx="35" cy="35" r="34" />
		<path fill="none" d="M15 17l12 0m-12 36l12 0m-12 -4l7 0m-7 -4l7 0m-7 -4l7 0m-7 -4l7 0m-7 -4l12 0m-12 -4l7 0m-7 -4l7 0m-7 -4l7 0" />
		<path fill="#000" stroke-width="0" d="M 54.644531 22.675781 C 52.463531 22.675781 50.798203 23.259734 49.658203 24.427734 C 48.518203 25.594734 47.951172 27.237797 47.951172 29.341797 L 47.951172 40.011719 C 47.951172 42.110719 48.518344 43.745922 49.652344 44.919922 C 50.787344 46.092922 52.452531 46.675781 54.644531 46.675781 C 56.831531 46.675781 58.493766 46.091828 59.634766 44.923828 C 60.774766 43.756828 61.341797 42.120719 61.341797 40.011719 L 61.341797 29.341797 C 61.341797 27.226797 60.775625 25.583875 59.640625 24.421875 C 58.505625 23.259875 56.842531 22.675781 54.644531 22.675781 z M 38.78125 22.724609 C 37.54225 22.724609 36.451906 22.979469 35.503906 23.480469 C 34.556906 23.976469 33.784453 24.70325 33.189453 25.65625 C 32.588453 26.60925 32.193 27.755609 32 29.099609 L 32 29.115234 L 35.404297 29.115234 L 35.404297 29.099609 C 35.537297 28.069609 35.895234 27.269172 36.490234 26.701172 C 37.079234 26.140172 37.856453 25.859375 38.814453 25.859375 C 39.822453 25.859375 40.603437 26.112859 41.148438 26.630859 C 41.700437 27.148859 41.976562 27.8765 41.976562 28.8125 L 41.976562 28.845703 C 41.976562 29.424703 41.843125 30.052609 41.578125 30.724609 C 41.314125 31.396609 40.946656 32.045969 40.472656 32.667969 L 32.292969 43.574219 L 32.292969 46.433594 L 45.523438 46.433594 L 45.523438 43.304688 L 36.648438 43.304688 L 43.441406 34.072266 C 44.058406 33.229266 44.536906 32.359078 44.878906 31.455078 C 45.225906 30.552078 45.396484 29.687328 45.396484 28.861328 L 45.396484 28.845703 C 45.396484 27.551703 45.137141 26.449156 44.619141 25.535156 C 44.106141 24.620156 43.353328 23.926266 42.361328 23.447266 C 41.370328 22.968266 40.18025 22.724609 38.78125 22.724609 z M 54.644531 25.810547 C 55.817531 25.810547 56.676563 26.11275 57.226562 26.71875 C 57.777562 27.33075 58.048828 28.201797 58.048828 29.341797 L 58.048828 40.011719 C 58.048828 41.151719 57.773656 42.026812 57.222656 42.632812 C 56.666656 43.238813 55.806531 43.546875 54.644531 43.546875 C 53.482531 43.546875 52.628266 43.238813 52.072266 42.632812 C 51.515266 42.026813 51.240234 41.151719 51.240234 40.011719 L 51.240234 29.341797 C 51.240234 28.201797 51.515406 27.33075 52.066406 26.71875 C 52.611406 26.11275 53.471531 25.810547 54.644531 25.810547 z" />
	</g>
</svg>