<svg xmlns="http://www.w3.org/2000/svg" viewBox="0 0 69 69">
	<path fill="#000" d="M 34.5 0 C 15.5 0 0 15.5 0 34.5 C 0 53.5 15.5 69 34.5 69 C 53.5 69 69 53.5 69 34.5 C 69 15.5 53.5 0 34.5 0 z M 34.5 2 C 52.4 2 67 16.6 67 34.5 C 67 52.4 52.4 67 34.5 67 C 16.6 67 2 52.4 2 34.5 C 2 16.6 16.6 2 34.5 2 z M 26.019531 12.152344 C 24.705664 12.103125 23.687891 12.475 22.900391 13 C 22.000391 13.6 21.300391 14.599219 20.900391 15.699219 C 20.900391 15.799219 20.800781 15.9 20.800781 16 L 20.699219 19 L 19.300781 19 C 18.000781 18.1 16.600781 17.800781 15.300781 17.800781 C 14.200781 17.800781 13.199219 18.1 12.199219 18.5 C 11.299219 19 10.500391 19.7 9.9003906 20.5 C 9.2003906 21.5 8.8007813 22.7 8.8007812 24 C 8.8007812 25.3 9.2003906 26.5 9.9003906 27.5 C 10.500391 28.3 11.299219 29 12.199219 29.5 C 13.099219 30 14.200781 30.199219 15.300781 30.199219 C 16.600781 30.199219 18.000781 29.8 19.300781 29 L 20.699219 29 L 20.699219 29.5 C 20.699219 29.8 20.800781 30.099219 20.800781 30.699219 C 20.800781 30.799219 20.800391 30.9 20.900391 31 C 21.400391 32.1 22.000391 33.099219 22.900391 33.699219 C 23.800391 34.299219 24.999609 34.699609 26.599609 34.599609 L 26.699219 34.599609 C 30.399219 33.799609 32.600391 32.599609 34.400391 31.599609 C 36.200391 30.599609 37.600781 29.899609 39.800781 30.099609 C 40.500781 30.199609 40.700391 30.199219 41.400391 30.699219 C 43.700391 32.199219 47.600781 34.699219 54.300781 31.199219 C 56.000781 30.299219 58 29.700781 60 29.300781 C 60.4 29.200781 60.900781 29.099609 61.300781 29.099609 C 61.200781 28.599609 61.100391 28 60.900391 27.5 C 60.500391 27.6 59.999609 27.599219 59.599609 27.699219 C 57.499609 28.099219 55.4 28.800781 53.5 29.800781 C 49.2 32.100781 46.199219 32.000391 42.199219 29.400391 L 39.599609 28.5 C 37.199609 28.4 35.6 29.099219 33.5 30.199219 C 31 31.499219 28.999219 32.4 26.199219 33 C 25.299219 33.1 24.399219 32.900391 23.699219 32.400391 C 23.099219 32.000391 22.600781 31.299609 22.300781 30.599609 C 22.300781 30.199609 22.299219 29.9 22.199219 29.5 L 22.199219 29.400391 L 22 27.400391 L 18.599609 27.400391 L 18.199219 27.699219 C 17.299219 28.299219 16.199609 28.699219 15.099609 28.699219 C 14.299609 28.699219 13.500781 28.499609 12.800781 28.099609 C 12.100781 27.699609 11.499609 27.199609 11.099609 26.599609 C 10.599609 25.899609 10.300781 25 10.300781 24 C 10.300781 23.1 10.599609 22.200391 11.099609 21.400391 C 11.499609 20.800391 12.100781 20.300391 12.800781 19.900391 C 13.500781 19.500391 14.299609 19.300781 15.099609 19.300781 C 16.199609 19.300781 17.299219 19.700781 18.199219 20.300781 L 18.599609 20.599609 L 22 20.599609 L 22.199219 16.099609 C 22.499219 15.399609 22.899609 14.700781 23.599609 14.300781 C 24.399609 13.800781 25.299219 13.699219 26.199219 13.699219 C 28.999219 14.299219 31.999219 15.200391 34.699219 16.400391 C 36.199219 17.100391 37.500781 17.9 38.800781 19 C 37.100781 20.1 35.200781 19.299219 32.800781 18.199219 C 30.900781 17.399219 28.6 16.399609 26 16.099609 C 24.9 15.999609 24.700781 17.600781 25.800781 17.800781 C 28.200781 18.100781 30.299609 19.000781 32.099609 19.800781 C 35.199609 21.100781 37.6 22.199219 40 20.199219 L 42.199219 18.800781 C 46.199219 16.200781 49.1 16.100391 53.5 18.400391 C 54.9 19.200391 56.4 19.699609 58 20.099609 C 57.6 19.399609 57.099219 18.600391 56.699219 17.900391 C 55.899219 17.600391 55.100781 17.300391 54.300781 16.900391 C 47.600781 13.400391 43.700391 15.900391 41.400391 17.400391 L 40.300781 18.099609 C 39.200781 16.999609 37.699609 16 35.599609 15 C 33.399609 14 30.599219 13.099219 26.699219 12.199219 L 26.599609 12.199219 C 26.399609 12.174219 26.207227 12.159375 26.019531 12.152344 z M 7.8007812 29.699219 C 7.818643 29.699219 7.8356961 29.705634 7.8535156 29.707031 C 7.8693314 29.706096 7.88455 29.699219 7.9003906 29.699219 L 7.8007812 29.699219 z M 7.8535156 29.707031 C 7.4699587 29.729701 7.0996094 30.019801 7.0996094 30.5 L 7.0996094 45 C 7.0996094 50 11.599609 54 17.099609 54 L 54.5 54 C 54.9 53.5 55.400781 53 55.800781 52.5 L 17.099609 52.5 C 12.399609 52.5 8.5996094 49.199609 8.5996094 45.099609 L 8.5996094 32.599609 C 9.3996094 33.499609 10.399219 34.199219 11.699219 34.699219 C 13.999219 35.599219 16.7 35.5 19 34.5 L 19 34.599609 C 19 34.699609 18.999609 34.800391 19.099609 34.900391 L 19.199219 35.099609 C 20.499219 37.999609 23.1 39.399219 26.5 39.199219 L 26.699219 39.199219 L 26.800781 39.199219 C 29.200781 38.699219 31.399609 38 33.599609 37 C 33.999609 36.8 34.299219 36.7 34.699219 36.5 C 35.599219 36.1 36.500781 35.700391 37.300781 35.400391 C 38.000781 35.200391 38.7 35.099219 39.5 35.199219 L 40 35.199219 C 40.4 35.399219 40.799219 35.600391 41.199219 35.900391 C 41.999219 36.400391 43 36.899219 44 37.199219 C 47.3 38.199219 51.000781 37.8 54.800781 36 C 56.900781 35 59.199219 34.499219 61.699219 34.199219 C 61.699219 33.699219 61.699609 33.199609 61.599609 32.599609 C 58.899609 32.999609 56.299609 33.499609 54.099609 34.599609 C 50.599609 36.299609 47.400391 36.599219 44.400391 35.699219 C 43.500391 35.399219 42.700391 35 41.900391 34.5 C 41.300391 34.2 40.800781 33.899219 40.300781 33.699219 C 40.200781 33.699219 40.100391 33.599219 39.900391 33.699219 L 39.5 33.699219 C 38.5 33.599219 37.600781 33.7 36.800781 34 C 35.800781 34.3 34.9 34.699219 34 35.199219 C 33.6 35.399219 33.300391 35.499219 32.900391 35.699219 C 30.800391 36.599219 28.700391 37.300781 26.400391 37.800781 L 26.599609 38.599609 L 26.300781 37.900391 C 23.500781 38.100391 21.5 36.999219 20.5 34.699219 L 20.400391 34.5 C 20.400391 34.2 20.400781 33.899219 20.300781 33.699219 C 20.300781 33.299219 19.9 33 19.5 33 L 19.099609 33 C 18.999609 33 18.799219 32.999609 18.699219 33.099609 C 16.699219 34.199609 14.2 34.399609 12 33.599609 C 10.3 32.899609 9 31.699219 8.5 30.199219 C 8.4059539 29.917081 8.1349871 29.729096 7.8535156 29.707031 z M 13.599609 39.300781 C 12.099609 39.300781 10.800781 40.499609 10.800781 42.099609 C 10.800781 43.599609 11.999609 44.900391 13.599609 44.900391 C 15.099609 44.900391 16.400391 43.699609 16.400391 42.099609 C 16.400391 40.499609 15.099609 39.300781 13.599609 39.300781 z M 21.900391 39.300781 C 20.400391 39.300781 19.099609 40.499609 19.099609 42.099609 C 19.099609 43.599609 20.300391 44.900391 21.900391 44.900391 C 23.500391 44.900391 24.699219 43.599609 24.699219 42.099609 C 24.699219 40.599609 23.500391 39.300781 21.900391 39.300781 z M 30.300781 39.300781 C 28.800781 39.300781 27.5 40.499609 27.5 42.099609 C 27.5 43.599609 28.700781 44.900391 30.300781 44.900391 C 31.800781 44.900391 33.099609 43.599609 33.099609 42.099609 C 33.099609 40.599609 31.900781 39.300781 30.300781 39.300781 z M 38.599609 39.300781 C 37.099609 39.300781 35.800781 40.499609 35.800781 42.099609 C 35.800781 43.599609 36.999609 44.900391 38.599609 44.900391 C 40.199609 44.900391 41.400391 43.599609 41.400391 42.099609 C 41.400391 40.599609 40.199609 39.300781 38.599609 39.300781 z M 47 39.300781 C 45.5 39.300781 44.199219 40.499609 44.199219 42.099609 C 44.199219 43.599609 45.4 44.900391 47 44.900391 C 48.5 44.900391 49.800781 43.599609 49.800781 42.099609 C 49.800781 40.599609 48.6 39.300781 47 39.300781 z M 55.300781 39.300781 C 53.800781 39.300781 52.5 40.499609 52.5 42.099609 C 52.5 43.599609 53.700781 44.900391 55.300781 44.900391 C 56.900781 44.900391 58.099609 43.599609 58.099609 42.099609 C 58.099609 40.599609 56.900781 39.300781 55.300781 39.300781 z M 13.599609 40.599609 C 14.399609 40.599609 15.099609 41.299609 15.099609 42.099609 C 15.099609 42.899609 14.399609 43.599609 13.599609 43.599609 C 12.799609 43.599609 12.099609 42.899609 12.099609 42.099609 C 12.099609 41.299609 12.799609 40.599609 13.599609 40.599609 z M 21.900391 40.599609 C 22.700391 40.599609 23.400391 41.299609 23.400391 42.099609 C 23.400391 42.899609 22.700391 43.599609 21.900391 43.599609 C 21.100391 43.599609 20.400391 42.899609 20.400391 42.099609 C 20.400391 41.299609 21.100391 40.599609 21.900391 40.599609 z M 30.300781 40.599609 C 31.100781 40.599609 31.800781 41.299609 31.800781 42.099609 C 31.800781 42.899609 31.100781 43.599609 30.300781 43.599609 C 29.500781 43.599609 28.800781 42.899609 28.800781 42.099609 C 28.800781 41.299609 29.500781 40.599609 30.300781 40.599609 z M 38.699219 40.599609 C 39.499219 40.599609 40.199219 41.299609 40.199219 42.099609 C 40.199219 42.899609 39.499219 43.599609 38.699219 43.599609 C 37.799219 43.599609 37.199219 42.899609 37.199219 42.099609 C 37.199219 41.299609 37.899219 40.599609 38.699219 40.599609 z M 47 40.599609 C 47.8 40.599609 48.5 41.299609 48.5 42.099609 C 48.5 42.899609 47.8 43.599609 47 43.599609 C 46.2 43.599609 45.5 42.899609 45.5 42.099609 C 45.5 41.299609 46.2 40.599609 47 40.599609 z M 55.400391 40.599609 C 56.200391 40.599609 56.900391 41.299609 56.900391 42.099609 C 56.900391 42.899609 56.200391 43.599609 55.400391 43.599609 C 54.500391 43.599609 53.900391 42.899609 53.900391 42.099609 C 53.900391 41.299609 54.600391 40.599609 55.400391 40.599609 z M 17.800781 45 C 16.300781 45 15 46.200781 15 47.800781 C 15 49.400781 16.300781 50.599609 17.800781 50.599609 C 19.300781 50.599609 20.599609 49.400781 20.599609 47.800781 C 20.599609 46.300781 19.400781 45 17.800781 45 z M 26.199219 45 C 24.699219 45 23.400391 46.200781 23.400391 47.800781 C 23.400391 49.400781 24.599219 50.599609 26.199219 50.599609 C 27.699219 50.599609 29 49.400781 29 47.800781 C 29 46.300781 27.799219 45 26.199219 45 z M 34.599609 45.099609 C 33.099609 45.099609 31.800781 46.300391 31.800781 47.900391 C 31.800781 49.400391 32.999609 50.699219 34.599609 50.699219 C 36.099609 50.699219 37.400391 49.500391 37.400391 47.900391 C 37.400391 46.400391 36.199609 45.099609 34.599609 45.099609 z M 42.900391 45.099609 C 41.400391 45.099609 40.099609 46.300391 40.099609 47.900391 C 40.099609 49.400391 41.400391 50.699219 42.900391 50.699219 C 44.400391 50.699219 45.699219 49.500391 45.699219 47.900391 C 45.699219 46.400391 44.500391 45.099609 42.900391 45.099609 z M 51.300781 45.099609 C 49.800781 45.099609 48.5 46.300391 48.5 47.900391 C 48.5 49.400391 49.700781 50.699219 51.300781 50.699219 C 52.800781 50.699219 54.099609 49.500391 54.099609 47.900391 C 54.099609 46.400391 52.900781 45.099609 51.300781 45.099609 z M 17.800781 46.400391 C 18.600781 46.400391 19.300781 47.100391 19.300781 47.900391 C 19.300781 48.700391 18.600781 49.400391 17.800781 49.400391 C 17.000781 49.400391 16.300781 48.700391 16.300781 47.900391 C 16.300781 47.000391 17.000781 46.400391 17.800781 46.400391 z M 26.199219 46.400391 C 26.999219 46.400391 27.699219 47.100391 27.699219 47.900391 C 27.699219 48.700391 26.999219 49.400391 26.199219 49.400391 C 25.399219 49.400391 24.699219 48.700391 24.699219 47.900391 C 24.699219 47.000391 25.299219 46.400391 26.199219 46.400391 z M 34.599609 46.400391 C 35.399609 46.400391 36.099609 47.100391 36.099609 47.900391 C 36.099609 48.700391 35.399609 49.400391 34.599609 49.400391 C 33.799609 49.400391 33.099609 48.700391 33.099609 47.900391 C 33.099609 47.100391 33.699609 46.400391 34.599609 46.400391 z M 42.900391 46.400391 C 43.700391 46.400391 44.400391 47.100391 44.400391 47.900391 C 44.400391 48.700391 43.700391 49.400391 42.900391 49.400391 C 42.100391 49.400391 41.400391 48.700391 41.400391 47.900391 C 41.400391 47.100391 42.100391 46.400391 42.900391 46.400391 z M 51.300781 46.400391 C 52.100781 46.400391 52.800781 47.100391 52.800781 47.900391 C 52.800781 48.700391 52.100781 49.400391 51.300781 49.400391 C 50.500781 49.400391 49.800781 48.700391 49.800781 47.900391 C 49.800781 47.100391 50.500781 46.400391 51.300781 46.400391 z" />
</svg>