<svg xmlns="http://www.w3.org/2000/svg" viewBox="0 0 69 69">
	<path fill="#000" d="M 34.5 0 C 15.5 0 0 15.5 0 34.5 C 0 53.5 15.5 69 34.5 69 C 53.5 69 69 53.5 69 34.5 C 69 15.5 53.5 0 34.5 0 z M 34.5 2 C 52.4 2 67 16.6 67 34.5 C 67 52.4 52.4 67 34.5 67 C 16.6 67 2 52.4 2 34.5 C 2 16.6 16.6 2 34.5 2 z M 21.599609 10.900391 C 18.399609 10.900391 15.699219 13.500781 15.699219 16.800781 L 15.699219 52.199219 C 15.699219 55.399219 18.299609 58.099609 21.599609 58.099609 L 38.099609 58.099609 C 41.299609 58.099609 44 55.499219 44 52.199219 L 44 16.800781 C 44 13.600781 41.299609 10.900391 38.099609 10.900391 L 21.599609 10.900391 z M 21.599609 13 L 38.099609 13 C 40.199609 13 41.900391 14.700781 41.900391 16.800781 L 41.900391 17.599609 L 17.800781 17.599609 L 17.800781 16.800781 C 17.800781 14.700781 19.499609 13 21.599609 13 z M 17.800781 19.800781 L 41.900391 19.800781 L 41.900391 48.900391 L 17.800781 48.900391 L 17.800781 19.800781 z M 54.900391 22.699219 L 53.699219 23.900391 C 56.499219 26.700391 58.099609 30.300781 58.099609 34.300781 C 58.099609 38.200781 56.600391 41.899219 53.900391 44.699219 L 55.099609 45.900391 C 58.199609 42.800391 59.800781 38.599219 59.800781 34.199219 C 59.800781 29.899219 58.100391 25.799219 54.900391 22.699219 z M 51.099609 26.599609 L 49.900391 27.800781 C 51.700391 29.500781 52.599219 31.900781 52.699219 34.300781 C 52.699219 36.800781 51.8 39.100391 50 40.900391 L 51.199219 42.099609 C 53.299219 39.999609 54.400781 37.200781 54.300781 34.300781 C 54.400781 31.400781 53.199609 28.599609 51.099609 26.599609 z M 47.199219 30.5 L 46.099609 31.699219 C 47.599609 33.199219 47.599609 35.599609 46.099609 37.099609 L 47.300781 38.300781 C 49.400781 36.100781 49.399219 32.7 47.199219 30.5 z M 17.800781 51 L 41.900391 51 L 41.900391 52.199219 C 41.900391 54.299219 40.199609 56 38.099609 56 L 21.599609 56 C 19.499609 56 17.800781 54.299219 17.800781 52.199219 L 17.800781 51 z M 29.800781 51.699219 C 29.000781 51.699219 28.300781 52.399219 28.300781 53.199219 C 28.300781 53.999219 29.000781 54.699219 29.800781 54.699219 C 30.600781 54.699219 31.300781 53.999219 31.300781 53.199219 C 31.300781 52.399219 30.700781 51.699219 29.800781 51.699219 z" />
</svg>