<svg xmlns="http://www.w3.org/2000/svg" viewBox="0 0 69 69">
	<path fill="#000" d="M 34.5 0 C 15.5 0 0 15.5 0 34.5 C 0 53.5 15.5 69 34.5 69 C 53.5 69 69 53.5 69 34.5 C 69 15.5 53.5 0 34.5 0 z M 34.5 2 C 52.4 2 67 16.6 67 34.5 C 67 52.4 52.4 67 34.5 67 C 16.6 67 2 52.4 2 34.5 C 2 16.6 16.6 2 34.5 2 z M 43.199219 11.400391 C 41.299219 11.400391 40.300781 12.300391 40.300781 13.900391 L 40.300781 15.900391 C 40.300781 17.500391 41.399219 18.400391 43.199219 18.400391 C 45.099219 18.400391 46.199219 17.500391 46.199219 15.900391 L 46.199219 13.900391 C 46.199219 12.300391 45.099219 11.400391 43.199219 11.400391 z M 43.199219 12.300781 C 44.299219 12.300781 45 12.800781 45 13.800781 L 45 15.800781 C 45 16.800781 44.399219 17.300781 43.199219 17.300781 C 42.099219 17.300781 41.400391 16.800781 41.400391 15.800781 L 41.400391 13.800781 C 41.500391 12.900781 42.099219 12.300781 43.199219 12.300781 z M 31.099609 14.300781 C 30.599609 14.300781 30.599609 14.300781 30.599609 14.800781 L 30.599609 18.400391 L 27.699219 18.400391 C 27.199219 18.400391 27.199219 18.400391 27.199219 18.900391 L 27.199219 20.5 C 26.999219 20.9 27 20.900391 27.5 20.900391 L 30.400391 20.900391 L 30.400391 28.400391 C 30.400391 33.600391 32.1 35.400391 37 35.400391 L 37.699219 35.400391 C 38.299219 35.400391 38.300781 35.300781 38.300781 34.800781 L 38.300781 33.199219 C 38.300781 32.699219 38.299219 32.699219 37.699219 32.699219 C 34.799219 32.699219 33.400391 32.000781 33.400391 28.300781 L 33.400391 21 L 37.800781 21 C 38.300781 21 38.300781 21 38.300781 20.5 L 38.300781 18.900391 C 38.300781 18.400391 38.300781 18.400391 37.800781 18.400391 L 33.400391 18.400391 L 33.400391 14.800781 C 33.400391 14.300781 33.400391 14.300781 32.900391 14.300781 L 31.099609 14.300781 z M 53.599609 28.199219 C 53.199609 28.199219 52.900391 28.500391 52.900391 28.900391 L 52.900391 32.5 C 52.900391 33.4 53.6 34.099219 54.5 34.199219 L 55.199219 34.199219 L 51.699219 38.300781 L 48 34.199219 L 48.699219 34.199219 C 49.599219 34.099219 50.300781 33.4 50.300781 32.5 L 50.300781 29.099609 C 50.300781 28.699609 49.999609 28.400391 49.599609 28.400391 C 49.199609 28.400391 48.900391 28.699609 48.900391 29.099609 L 48.900391 32.800781 L 47.5 32.800781 C 47 32.800781 46.600391 33.000391 46.400391 33.400391 C 46.200391 33.800391 46.299219 34.299219 46.699219 34.699219 L 50.300781 39.099609 C 50.600781 39.499609 51 39.699219 51.5 39.699219 C 51.9 39.699219 52.399219 39.499609 52.699219 39.099609 L 56.5 34.699219 C 56.8 34.299219 56.900781 33.800391 56.800781 33.400391 C 56.600781 33.000391 56.199219 32.800781 55.699219 32.800781 L 54.300781 32.800781 L 54.300781 28.900391 C 54.300781 28.500391 53.999609 28.199219 53.599609 28.199219 z M 19.800781 32.5 C 19.300781 32.5 18.899609 32.699609 18.599609 33.099609 L 15 37.5 C 14.7 37.9 14.599219 38.400781 14.699219 38.800781 C 14.899219 39.200781 15.300391 39.400391 15.900391 39.400391 L 17.300781 39.400391 L 17.300781 43.300781 C 17.300781 43.700781 17.6 44 18 44 C 18.4 44 18.699219 43.700781 18.699219 43.300781 L 18.699219 39.699219 C 18.699219 38.799219 17.999609 38.1 17.099609 38 L 16.400391 38 L 19.900391 33.900391 L 23.400391 38 L 22.699219 38 C 21.799219 38.1 21.199219 38.799219 21.199219 39.699219 L 21.199219 43.099609 C 21.199219 43.499609 21.500391 43.800781 21.900391 43.800781 C 22.300391 43.800781 22.599609 43.499609 22.599609 43.099609 L 22.599609 39.400391 L 24 39.400391 C 24.5 39.400391 24.899609 39.200781 25.099609 38.800781 C 25.299609 38.400781 25.200781 37.9 24.800781 37.5 L 21 33.099609 C 20.7 32.699609 20.300781 32.5 19.800781 32.5 z M 47.599609 42.900391 C 41.499609 42.900391 38.400391 44.799609 35.400391 46.599609 C 32.400391 48.399609 29.6 50 24 50 C 17.9 50 15.399609 48.400391 12.099609 46.400391 C 11.399609 46.000391 10.600781 45.5 9.8007812 45 C 9.7007812 44.9 9.5003906 44.900391 9.4003906 44.900391 C 9.1003906 44.900391 8.7992188 45.100781 8.6992188 45.300781 C 8.5992188 45.500781 8.5996094 45.700391 8.5996094 45.900391 C 8.6996094 46.100391 8.8 46.300391 9 46.400391 C 9.8 46.800391 10.499219 47.299219 11.199219 47.699219 C 14.399219 49.699219 17.4 51.599609 24 51.599609 C 30.1 51.599609 33.199219 49.700391 36.199219 47.900391 C 39.099219 46.100391 41.9 44.5 47.5 44.5 C 53.2 44.5 55.900781 46.200391 58.800781 47.900391 C 58.900781 48.000391 59.099219 48 59.199219 48 C 59.499219 48 59.800391 47.799609 59.900391 47.599609 C 60.300391 47.399609 60.200781 46.799609 59.800781 46.599609 C 56.800781 44.799609 53.699609 42.900391 47.599609 42.900391 z M 48.699219 49.300781 C 42.599219 49.300781 39.5 51.2 36.5 53 C 33.6 54.8 30.799219 56.400391 25.199219 56.400391 C 21.299219 56.400391 18.8 55.100391 16.5 53.900391 L 16.199219 53.699219 C 16.099219 53.599219 15.900781 53.599609 15.800781 53.599609 C 15.500781 53.599609 15.2 53.799609 15 54.099609 C 14.9 54.299609 14.900391 54.500781 14.900391 54.800781 C 15.000391 55.000781 15.100781 55.200781 15.300781 55.300781 L 15.599609 55.5 C 17.899609 56.7 20.699609 58.199219 25.099609 58.199219 C 31.199609 58.199219 34.300781 56.3 37.300781 54.5 C 40.200781 52.7 42.999609 51.099609 48.599609 51.099609 C 51.399609 51.099609 53.599609 51.599219 55.099609 52.699219 C 55.199609 52.799219 55.399609 52.900391 55.599609 52.900391 C 55.899609 52.900391 56.100781 52.8 56.300781 52.5 C 56.400781 52.3 56.500391 52.100391 56.400391 51.900391 C 56.300391 51.700391 56.2 51.500781 56 51.300781 C 54.4 49.900781 51.899219 49.300781 48.699219 49.300781 z" />
</svg>