<svg width="24" height="24" viewBox="0 0 24 24" fill="none" xmlns="http://www.w3.org/2000/svg">
<path d="M21.7301 6.87814L21.7382 6.88853L21.7466 6.89871C21.9752 7.17539 22.0531 7.54069 21.9644 7.89543L21.9644 7.89542L21.9629 7.90137L20.2258 15.0353L20.2257 15.0353L20.2234 15.0454C20.1003 15.5743 19.612 15.9627 19.0433 15.9627H9.8016C9.25022 15.9627 8.76154 15.5883 8.61681 15.0259C8.61665 15.0253 8.61649 15.0247 8.61633 15.0241L6.45267 6.40483H6.67472H20.7804C21.1352 6.40483 21.4968 6.58009 21.7301 6.87814Z" stroke="#AAAAAA" stroke-width="2"/>
<path d="M9.87891 18.8906C8.78275 18.8906 7.87891 19.7945 7.87891 20.8906C7.87891 21.9868 8.78275 22.8906 9.87891 22.8906C10.9751 22.8906 11.8789 21.9868 11.8789 20.8906C11.8789 19.7945 10.9751 18.8906 9.87891 18.8906Z" stroke="#AAAAAA" stroke-width="2"/>
<path d="M18.8477 18.8906C17.7515 18.8906 16.8477 19.7945 16.8477 20.8906C16.8477 21.9868 17.7515 22.8906 18.8477 22.8906C19.9438 22.8906 20.8477 21.9868 20.8477 20.8906C20.8284 19.7945 19.9438 18.8906 18.8477 18.8906Z" stroke="#AAAAAA" stroke-width="2"/>
</svg>
