<svg width="24" height="24" viewBox="0 0 24 24" fill="none" xmlns="http://www.w3.org/2000/svg">
<path fill-rule="evenodd" clip-rule="evenodd" d="M4 5H9V9H4L4 5ZM2 5C2 3.89543 2.89543 3 4 3H9C10.1046 3 11 3.89543 11 5V9C11 10.1046 10.1046 11 9 11H4C2.89543 11 2 10.1046 2 9V5ZM4 15H9V19H4L4 15ZM2 15C2 13.8954 2.89543 13 4 13H9C10.1046 13 11 13.8954 11 15V19C11 20.1046 10.1046 21 9 21H4C2.89543 21 2 20.1046 2 19V15ZM20 5H15V9H20V5ZM15 3C13.8954 3 13 3.89543 13 5V9C13 10.1046 13.8954 11 15 11H20C21.1046 11 22 10.1046 22 9V5C22 3.89543 21.1046 3 20 3H15ZM15 15H20V19H15V15ZM13 15C13 13.8954 13.8954 13 15 13H20C21.1046 13 22 13.8954 22 15V19C22 20.1046 21.1046 21 20 21H15C13.8954 21 13 20.1046 13 19V15Z" fill="black"/>
</svg>
