<svg width="24" height="24" viewBox="0 0 24 24" fill="none" xmlns="http://www.w3.org/2000/svg">
<path d="M12.0169 2.00008C11.7998 2.00341 11.5926 2.0907 11.4391 2.24422L2.27247 11.4108C1.4543 12.1963 2.66542 13.4074 3.45085 12.5892L4.52832 11.5118V19.5C4.52832 20.8706 5.65772 22 7.02831 22C10.3616 22 13.695 22 17.0283 22C18.3988 22 19.5283 20.8706 19.5283 19.5V11.5118L20.6057 12.5892C21.3912 13.4074 22.6023 12.1963 21.7841 11.4108L12.6175 2.24422C12.4584 2.08512 12.2418 1.99706 12.0169 2.00008ZM12.0283 4.01178L17.8616 9.8451V19.5C17.8616 19.9761 17.5044 20.3333 17.0283 20.3333H15.3616V14.5C15.3616 14.0398 14.9885 13.6667 14.5283 13.6667H9.52832C9.0681 13.6667 8.69504 14.0398 8.69499 14.5V20.3333H7.02833C6.55224 20.3333 6.19499 19.9761 6.19499 19.5V9.8451L12.0283 4.01178ZM10.3616 15.3334H13.695V20.3333H10.3616V15.3334Z" fill="black"/>
</svg>
