<svg width="40" height="40" viewBox="0 0 40 40" fill="none" xmlns="http://www.w3.org/2000/svg">
<path fill-rule="evenodd" clip-rule="evenodd" d="M20 40C31.0457 40 40 31.0457 40 20C40 8.9543 31.0457 0 20 0C8.9543 0 0 8.9543 0 20C0 31.0457 8.9543 40 20 40ZM24.6667 13.3208H22.841C21.4094 13.3208 21.1328 14.0242 21.132 15.0517V17.5008H24.3625L23.9201 21.0558H21.1328V30H17.5714V21.055H14.6667V17.5H17.5714V14.6992C17.5714 11.6558 19.3746 10 22.0069 10C23.2684 10 24.3517 10.0975 24.6667 10.1408V13.3208Z" fill="#FBFBFB"/>
</svg>
