<svg width="40" height="40" viewBox="0 0 40 40" fill="none" xmlns="http://www.w3.org/2000/svg">
<path fill-rule="evenodd" clip-rule="evenodd" d="M20 40C31.0457 40 40 31.0457 40 20C40 8.9543 31.0457 0 20 0C8.9543 0 0 8.9543 0 20C0 31.0457 8.9543 40 20 40ZM10.3747 10.3747C11.0415 9.70794 11.9459 9.33333 12.8889 9.33333H27.1111C28.0541 9.33333 28.9585 9.70794 29.6253 10.3747C30.2921 11.0415 30.6667 11.9459 30.6667 12.8889V27.1111C30.6667 28.0541 30.2921 28.9585 29.6253 29.6253C28.9585 30.2921 28.0541 30.6667 27.1111 30.6667H12.8889C11.9459 30.6667 11.0415 30.2921 10.3747 29.6253C9.70794 28.9585 9.33333 28.0541 9.33333 27.1111V12.8889C9.33333 11.9459 9.70794 11.0415 10.3747 10.3747ZM28.3682 28.3682C28.7016 28.0348 28.8889 27.5826 28.8889 27.1111V12.8889C28.8889 12.4174 28.7016 11.9652 28.3682 11.6318C28.0348 11.2984 27.5826 11.1111 27.1111 11.1111H12.8889C12.4174 11.1111 11.9652 11.2984 11.6318 11.6318C11.2984 11.9652 11.1111 12.4174 11.1111 12.8889V27.1111C11.1111 27.5826 11.2984 28.0348 11.6318 28.3682C11.9652 28.7016 12.4174 28.8889 12.8889 28.8889H27.1111C27.5826 28.8889 28.0348 28.7016 28.3682 28.3682ZM17.0368 15.5653C17.9139 14.9793 18.945 14.6665 19.9998 14.6665C21.4143 14.6665 22.7709 15.2284 23.7711 16.2286C24.7713 17.2288 25.3332 18.5853 25.3332 19.9998C25.3332 21.0547 25.0204 22.0858 24.4343 22.9629C23.8483 23.8399 23.0154 24.5235 22.0408 24.9272C21.0663 25.3309 19.9939 25.4365 18.9594 25.2307C17.9248 25.0249 16.9745 24.517 16.2286 23.7711C15.4827 23.0252 14.9748 22.0749 14.769 21.0403C14.5632 20.0058 14.6688 18.9334 15.0725 17.9589C15.4761 16.9843 16.1597 16.1514 17.0368 15.5653ZM18.0245 22.9562C18.6092 23.3469 19.2966 23.5554 19.9998 23.5554C20.9428 23.5554 21.8472 23.1808 22.514 22.514C23.1808 21.8472 23.5554 20.9428 23.5554 19.9998C23.5554 19.2966 23.3469 18.6092 22.9562 18.0245C22.5655 17.4398 22.0102 16.984 21.3605 16.7149C20.7108 16.4458 19.9959 16.3754 19.3062 16.5126C18.6165 16.6498 17.9829 16.9884 17.4857 17.4857C16.9884 17.9829 16.6498 18.6165 16.5126 19.3062C16.3754 19.9959 16.4458 20.7108 16.7149 21.3605C16.984 22.0102 17.4398 22.5655 18.0245 22.9562ZM25.7775 15.5555C26.5139 15.5555 27.1108 14.9585 27.1108 14.2222C27.1108 13.4858 26.5139 12.8888 25.7775 12.8888C25.0411 12.8888 24.4442 13.4858 24.4442 14.2222C24.4442 14.9585 25.0411 15.5555 25.7775 15.5555Z" fill="#FBFBFB"/>
</svg>
