<svg width="40" height="40" viewBox="0 0 40 40" fill="none" xmlns="http://www.w3.org/2000/svg">
<path fill-rule="evenodd" clip-rule="evenodd" d="M20 40C31.0457 40 40 31.0457 40 20C40 8.9543 31.0457 0 20 0C8.9543 0 0 8.9543 0 20C0 31.0457 8.9543 40 20 40ZM27.915 20.882C27.638 21.32 27.527 21.538 27.915 22.028C27.9441 22.0682 28.0911 22.2157 28.3133 22.4387C29.2523 23.381 31.5345 25.6712 31.938 26.906C32.156 27.632 31.777 28 31.029 28H28.405C27.7048 28 27.3516 27.6145 26.5874 26.7804C26.2624 26.4257 25.863 25.9899 25.331 25.468C23.771 23.993 23.103 23.801 22.715 23.801C22.0041 23.801 22.0059 24.0001 22.0226 25.8502C22.0256 26.1784 22.029 26.5587 22.029 26.999C22.029 27.632 21.825 28 20.154 28C17.374 28 14.318 26.343 12.148 23.285C8.892 18.805 8 15.414 8 14.732C8 14.346 8.151 14.001 8.9 14.001H11.525C12.198 14.001 12.451 14.289 12.71 15.002C13.993 18.677 16.158 21.888 17.05 21.888C17.385 21.888 17.536 21.735 17.536 20.903V17.106C17.4754 16.0241 17.0911 15.5564 16.8065 15.2101C16.6308 14.9961 16.493 14.8285 16.493 14.591C16.493 14.306 16.742 14 17.161 14H21.287C21.84 14 22.027 14.293 22.027 14.949V20.054C22.027 20.601 22.282 20.793 22.446 20.793C22.779 20.793 23.061 20.601 23.671 20.002C25.561 17.929 26.897 14.731 26.897 14.731C27.062 14.345 27.37 14 28.038 14H30.662C31.455 14 31.619 14.402 31.455 14.949L31.453 14.95C31.123 16.451 27.92 20.877 27.915 20.882Z" fill="#FBFBFB"/>
</svg>
