<svg xmlns="http://www.w3.org/2000/svg" xmlns:xlink="http://www.w3.org/1999/xlink" viewBox="0 0 97 97"><defs><filter id="Эллипс_292" x="0" y="0" width="97" height="97" filterUnits="userSpaceOnUse"><feOffset dy="3" input="SourceAlpha"/><feGaussianBlur stdDeviation="3" result="blur"/><feFlood flood-opacity="0.322"/><feComposite operator="in" in2="blur"/><feComposite in="SourceGraphic"/></filter><linearGradient id="linear-gradient" x1="-0.002" y1="0.5" x2="1" y2="0.5" gradientUnits="objectBoundingBox"><stop offset="0" stop-color="#00b4e6"/><stop offset="1" stop-color="#088ccb"/></linearGradient></defs><g id="pc_ic_013" transform="translate(9 6)"><g transform="matrix(1, 0, 0, 1, -9, -6)" filter="url(#Эллипс_292)"><circle id="Эллипс_292-2" data-name="Эллипс 292" cx="39.5" cy="39.5" r="39.5" transform="translate(9 6)" fill="#fff"/></g><g id="mir-logo-h14px" transform="translate(11.095 31.574)"><path id="path10" d="M45.244,0H34.2c.594,3.681,4.156,7.125,8.075,7.125h8.788a4.04,4.04,0,0,0,.119-1.188A5.88,5.88,0,0,0,45.244,0Z" transform="translate(6.414)" fill-rule="evenodd" fill="url(#linear-gradient)"/><path id="path12" d="M35,6.5v8.907h5.344v-4.75h4.75A5.88,5.88,0,0,0,50.675,6.5Z" transform="translate(6.564 1.219)" fill="#4db45f" fill-rule="evenodd"/><path id="path14" d="M19,0V16.626h4.75a2.109,2.109,0,0,0,1.781-1.188l4.156-8.313h.594v9.5h5.344V0h-4.75a2.472,2.472,0,0,0-1.781,1.188L24.938,9.5h-.594V0Z" transform="translate(3.563)" fill="#4db45f" fill-rule="evenodd"/><path id="path16" d="M0,16.626V0H5.344S6.888,0,7.719,2.375C9.857,8.669,10.094,9.5,10.094,9.5s.475-1.544,2.375-7.125C13.3,0,14.844,0,14.844,0h5.344V16.626H14.844V7.719H14.25l-2.969,8.907H8.907L5.938,7.719H5.344v8.907Z" fill="#4db45f" fill-rule="evenodd"/></g></g></svg>