<svg xmlns="http://www.w3.org/2000/svg" xmlns:xlink="http://www.w3.org/1999/xlink" viewBox="0 0 97 97"><defs><filter id="Эллипс_293" x="0" y="0" width="97" height="97" filterUnits="userSpaceOnUse"><feOffset dy="3" input="SourceAlpha"/><feGaussianBlur stdDeviation="3" result="blur"/><feFlood flood-opacity="0.322"/><feComposite operator="in" in2="blur"/><feComposite in="SourceGraphic"/></filter></defs><g id="pc_ic_014" transform="translate(9.484 6)"><g transform="matrix(1, 0, 0, 1, -9.48, -6)" filter="url(#Эллипс_293)"><circle id="Эллипс_293-2" data-name="Эллипс 293" cx="39.5" cy="39.5" r="39.5" transform="translate(9 6)" fill="#fff"/></g><g id="Layer_x0020_1" transform="translate(9.734 30.25)"><path id="Контур_6093" data-name="Контур 6093" d="M9855.51,13045.735l3.049-17.834h4.873l-3.051,17.834Z" transform="translate(-9834.38 -13027.607)" fill="#01549a" fill-rule="evenodd"/><path id="Контур_6094" data-name="Контур 6094" d="M10708.13,12997.459a13.015,13.015,0,0,0-4.355-.738c-4.821,0-8.191,2.41-8.216,5.879-.024,2.559,2.41,3.986,4.257,4.848,1.894.885,2.532,1.426,2.508,2.211,0,1.207-1.5,1.75-2.9,1.75a10.249,10.249,0,0,1-4.575-.936l-.64-.3-.664,3.984a14.912,14.912,0,0,0,5.411.961c5.117,0,8.414-2.385,8.463-6.1.024-2.018-1.281-3.568-4.085-4.846-1.7-.812-2.729-1.354-2.729-2.189,0-.764.886-1.551,2.779-1.551a8.767,8.767,0,0,1,3.642.689l.442.2Z" transform="translate(-10664.49 -12996.721)" fill="#01549a" fill-rule="evenodd"/><path id="Контур_6095" data-name="Контур 6095" d="M12138.38,13030.5h-3.764a2.451,2.451,0,0,0-2.559,1.476l-7.208,16.36h5.094s.835-2.214,1.032-2.682h6.224c.147.613.591,2.682.591,2.682h4.5Zm-6,11.488c.394-1.008,1.943-4.969,1.943-4.969-.05.049.394-1.033.64-1.7l.319,1.523s.936,4.258,1.132,5.143Z" transform="translate(-12082.27 -13030.181)" fill="#01549a" fill-rule="evenodd"/><path id="Контур_6096" data-name="Контур 6096" d="M8168.116,13030.5l-4.772,12.151-.49-2.459a13.984,13.984,0,0,0-6.742-7.479l4.354,15.6h5.143l7.649-17.812Z" transform="translate(-8151.044 -13030.181)" fill="#01549a" fill-rule="evenodd"/><path id="Контур_6097" data-name="Контур 6097" d="M7627.9,13027.9h-7.847l-.05.392c6.076,1.476,10.137,5.043,11.808,9.323l-1.721-8.19A2.038,2.038,0,0,0,7627.9,13027.9Z" transform="translate(-7620 -13027.607)" fill="#f7a707" fill-rule="evenodd"/></g></g></svg>