<svg xmlns="http://www.w3.org/2000/svg" xmlns:xlink="http://www.w3.org/1999/xlink" viewBox="0 0 97 97"><defs><filter id="Эллипс_294" x="0" y="0" width="97" height="97" filterUnits="userSpaceOnUse"><feOffset dy="3" input="SourceAlpha"/><feGaussianBlur stdDeviation="3" result="blur"/><feFlood flood-opacity="0.322"/><feComposite operator="in" in2="blur"/><feComposite in="SourceGraphic"/></filter></defs><g id="pc_ic_015" transform="translate(8.807 6)"><g transform="matrix(1, 0, 0, 1, -8.81, -6)" filter="url(#Эллипс_294)"><circle id="Эллипс_294-2" data-name="Эллипс 294" cx="39.5" cy="39.5" r="39.5" transform="translate(9 6)" fill="#fff"/></g><g id="Сгруппировать_2211" data-name="Сгруппировать 2211" transform="translate(15.306 24.946)"><rect id="Прямоугольник_5227" data-name="Прямоугольник 5227" width="13.205" height="23.727" transform="translate(17.816 3.228)" fill="#ff5f00"/><path id="Контур_6099" data-name="Контур 6099" d="M18.654,15.091A15.131,15.131,0,0,1,24.4,3.228a15.086,15.086,0,1,0-9.306,26.955A15,15,0,0,0,24.4,26.954,15.069,15.069,0,0,1,18.654,15.091Z" transform="translate(0 0)" fill="#eb001b"/><path id="Контур_6100" data-name="Контур 6100" d="M152.38,15.091a15.075,15.075,0,0,1-24.4,11.863,15.124,15.124,0,0,0,0-23.727,15.075,15.075,0,0,1,24.4,11.863Z" transform="translate(-103.544 0)" fill="#f79e1b"/></g></g></svg>