<svg xmlns="http://www.w3.org/2000/svg" xmlns:xlink="http://www.w3.org/1999/xlink" viewBox="0 0 97 97"><defs><filter id="Эллипс_295" x="0" y="0" width="97" height="97" filterUnits="userSpaceOnUse"><feOffset dy="3" input="SourceAlpha"/><feGaussianBlur stdDeviation="3" result="blur"/><feFlood flood-opacity="0.322"/><feComposite operator="in" in2="blur"/><feComposite in="SourceGraphic"/></filter></defs><g id="pc_ic_016" transform="translate(9.451 6)"><g transform="matrix(1, 0, 0, 1, -9.45, -6)" filter="url(#Эллипс_295)"><circle id="Эллипс_295-2" data-name="Эллипс 295" cx="39.5" cy="39.5" r="39.5" transform="translate(9 6)" fill="#fff"/></g><g id="union-pay" transform="translate(16.11 24.946)"><path id="Контур_6101" data-name="Контур 6101" d="M170.006.462l-11.692,0h0l-.027,0a4.475,4.475,0,0,0-3.971,2.926l-5.529,24.466A2.264,2.264,0,0,0,151,30.785h12.283a3.909,3.909,0,0,0,3.454-2.922L172.271,3.4A2.267,2.267,0,0,0,170.006.462" transform="translate(-124.868 -0.453)" fill="#01798a"/><path id="Контур_6102" data-name="Контур 6102" d="M80.583,27.837,86.112,3.371A4.475,4.475,0,0,1,90.083.444l-4.649,0-8.376,0a4.473,4.473,0,0,0-4,2.931L67.526,27.837a2.264,2.264,0,0,0,2.221,2.932H82.8a2.264,2.264,0,0,1-2.221-2.932" transform="translate(-56.668 -0.437)" fill="#024381"/><path id="Контур_6103" data-name="Контур 6103" d="M11.205,27.822,16.736,3.355a4.473,4.473,0,0,1,4-2.931l-10.73,0A4.48,4.48,0,0,0,5.941,3.355L.41,27.822a3.068,3.068,0,0,0-.063.439v.454a2.212,2.212,0,0,0,2.284,2.039H13.426a2.264,2.264,0,0,1-2.221-2.932" transform="translate(-0.347 -0.422)" fill="#dd0228"/><path id="Контур_6104" data-name="Контур 6104" d="M50.817,58.824h.2a.371.371,0,0,0,.371-.187l.528-.79h1.413l-.295.519h1.694l-.215.8H52.5a.943.943,0,0,1-.862.494h-1.05l.228-.833m-.232,1.14H54.3l-.237.864H52.567l-.228.834h1.453l-.237.864H52.1l-.337,1.233c-.084.206.026.3.328.278h1.184l-.219.8H50.785q-.646,0-.443-.741l.431-1.573h-.928l.236-.864h.929l.228-.834h-.888l.236-.865Zm5.924-2.123-.058.506a2.722,2.722,0,0,1,1.336-.526h2.35l-.9,3.253q-.112.558-.958.557H55.616l-.624,2.284c-.036.122.015.185.149.185h.524l-.193.709H54.141q-.767,0-.64-.463l1.763-6.506h1.245Zm1.99.92H56.4l-.251.878a1.744,1.744,0,0,1,.933-.261c.582-.009,1.247,0,1.247,0Zm-.76,2.036c.155.021.242-.04.252-.185l.128-.463h-2.1l-.176.648Zm-1.417,1.051h1.211l-.023.524h.322c.163,0,.244-.052.244-.155l.1-.339h1.006l-.134.494a.868.868,0,0,1-.9.648h-.645l0,.9c-.012.144.118.217.385.217h.606l-.2.709H56.833c-.408.019-.608-.175-.6-.587l.093-2.407M41.651,53.507a2.96,2.96,0,0,1-1.135,1.862,3.718,3.718,0,0,1-2.264.648,2.479,2.479,0,0,1-1.914-.664,1.729,1.729,0,0,1-.422-1.2,3.206,3.206,0,0,1,.072-.646l.985-4.747h1.487l-.971,4.693a1.51,1.51,0,0,0-.04.36.918.918,0,0,0,.179.591,1.017,1.017,0,0,0,.86.342,1.8,1.8,0,0,0,1.127-.337,1.551,1.551,0,0,0,.569-.955l.974-4.693h1.479l-.985,4.747M47.9,51.64H49.06l-.912,4.237H46.985l.91-4.237m.367-1.544h1.175l-.219,1.028H48.042l.219-1.028m1.829,5.458a1.563,1.563,0,0,1-.46-1.182,2.718,2.718,0,0,1,.017-.288c.011-.107.025-.212.045-.309a2.873,2.873,0,0,1,.885-1.638,2.37,2.37,0,0,1,1.637-.608,1.718,1.718,0,0,1,1.242.439,1.585,1.585,0,0,1,.456,1.2,2.9,2.9,0,0,1-.018.294q-.02.159-.049.317a2.793,2.793,0,0,1-.881,1.614,2.387,2.387,0,0,1-1.632.6,1.73,1.73,0,0,1-1.243-.431m2.219-.839a2.067,2.067,0,0,0,.442-1.009c.014-.07.025-.143.033-.216a1.954,1.954,0,0,0,.01-.2.858.858,0,0,0-.2-.608.729.729,0,0,0-.566-.216,1.019,1.019,0,0,0-.791.34,2.133,2.133,0,0,0-.447,1.027c-.013.07-.023.14-.033.209a1.522,1.522,0,0,0-.008.2.843.843,0,0,0,.2.6.738.738,0,0,0,.568.212,1.025,1.025,0,0,0,.792-.336" transform="translate(-30.2 -40.993)" fill="#fff"/><path id="Контур_6105" data-name="Контур 6105" d="M184.047.451h-4.676l4.649,0,.027,0" transform="translate(-150.605 -0.446)" fill="#e02f41"/><path id="Контур_6106" data-name="Контур 6106" d="M135.622.426l-8.311,0-.064,0,8.376,0" transform="translate(-106.855 -0.422)" fill="#2e4f7d"/><path id="Контур_6107" data-name="Контур 6107" d="M94.155,60.169l.281-.988h1.42l-.061.363a3.567,3.567,0,0,1,1.248-.363H98.8l-.279.988h-.276L96.919,64.83h.276l-.263.926h-.276l-.115.4H95.166l.115-.4H92.568l.264-.926H93.1l1.325-4.661h-.275m1.532,0-.361,1.261a5.9,5.9,0,0,1,1.151-.3c.118-.44.271-.957.271-.957Zm-.528,1.853L94.8,63.343a3.944,3.944,0,0,1,1.155-.366c.136-.511.272-.955.272-.955H95.159Zm.266,2.808.272-.958h-1.06l-.273.958Zm3.434-5.71h1.335l.057.493c-.009.125.066.185.224.185h.236l-.239.834H99.49c-.374.019-.567-.124-.585-.433Zm-.391,1.79h4.323l-.254.9H101.16l-.236.833H102.3l-.255.894h-1.531l-.346.524h.75l.173,1.049c.021.1.113.155.272.155h.233l-.245.864h-.824c-.427.021-.648-.122-.666-.431l-.2-.958-.682,1.02a.739.739,0,0,1-.743.4H96.975l.245-.864h.393a.525.525,0,0,0,.416-.216L99.1,63.533H97.72l.255-.894h1.493l.237-.833H98.212l.255-.9M75.707,52.949h1.05l-.12.612.151-.175a1.634,1.634,0,0,1,1.242-.545,1.138,1.138,0,0,1,.961.387,1.286,1.286,0,0,1,.157,1.073l-.579,2.887H77.491l.522-2.617a.835.835,0,0,0-.044-.6.509.509,0,0,0-.465-.194,1.009,1.009,0,0,0-.7.258,1.282,1.282,0,0,0-.379.72l-.481,2.435H74.86l.847-4.24m12.043,0H88.8l-.119.612.149-.175a1.638,1.638,0,0,1,1.242-.545,1.134,1.134,0,0,1,.96.387,1.283,1.283,0,0,1,.157,1.073l-.576,2.887H89.534l.523-2.617a.841.841,0,0,0-.044-.6.512.512,0,0,0-.464-.194,1.017,1.017,0,0,0-.7.258,1.266,1.266,0,0,0-.378.72l-.484,2.435H86.9l.847-4.24m5.2-2.628H96a2.061,2.061,0,0,1,1.352.394,1.412,1.412,0,0,1,.466,1.138v.015c0,.094-.006.2-.015.315s-.035.233-.06.348a2.684,2.684,0,0,1-.928,1.578,2.625,2.625,0,0,1-1.717.6H93.46l-.506,2.483H91.537l1.41-6.867m.763,3.19h1.357a1.317,1.317,0,0,0,.839-.245,1.279,1.279,0,0,0,.412-.755c.012-.063.019-.12.028-.172s.01-.1.01-.146a.581.581,0,0,0-.26-.53,1.548,1.548,0,0,0-.821-.166H94.123l-.414,2.014m10.449,4.5a6.681,6.681,0,0,1-1.125,1.766,2.28,2.28,0,0,1-1.945.8l.1-.727c1.007-.311,1.552-1.71,1.863-2.329l-.37-4.562.779-.01h.654l.07,2.862,1.225-2.862h1.241l-2.495,5.058m-3.469-4.713-.493.339A1.548,1.548,0,0,0,98.3,53.4c-1.236.573-2.269,4.97,1.135,3.522l.194.23,1.339.034.879-3.995-1.162.1m-.762,2.184c-.215.635-.7,1.054-1.072.935s-.511-.729-.292-1.365.7-1.054,1.072-.935.512.729.292,1.365" transform="translate(-62.887 -42.303)" fill="#fff"/></g></g></svg>