<svg xmlns="http://www.w3.org/2000/svg" xmlns:xlink="http://www.w3.org/1999/xlink" viewBox="0 0 97 97"><defs><filter id="Эллипс_296" x="0" y="0" width="97" height="97" filterUnits="userSpaceOnUse"><feOffset dy="3" input="SourceAlpha"/><feGaussianBlur stdDeviation="3" result="blur"/><feFlood flood-opacity="0.322"/><feComposite operator="in" in2="blur"/><feComposite in="SourceGraphic"/></filter><linearGradient id="linear-gradient" x1="-0.575" y1="0.501" x2="2.324" y2="0.501" gradientUnits="objectBoundingBox"><stop offset="0" stop-color="#007940"/><stop offset="0.229" stop-color="#00873f"/><stop offset="0.743" stop-color="#40a737"/><stop offset="1" stop-color="#5cb531"/></linearGradient><linearGradient id="linear-gradient-2" x1="0.002" y1="0.5" x2="1.003" y2="0.5" xlink:href="#linear-gradient"/><linearGradient id="linear-gradient-3" x1="-0.628" y1="0.499" x2="2.537" y2="0.499" xlink:href="#linear-gradient"/><linearGradient id="linear-gradient-4" x1="0.002" y1="0.5" x2="1.018" y2="0.5" gradientUnits="objectBoundingBox"><stop offset="0" stop-color="#1f286f"/><stop offset="0.475" stop-color="#004e94"/><stop offset="0.826" stop-color="#0066b1"/><stop offset="1" stop-color="#006fbc"/></linearGradient><linearGradient id="linear-gradient-5" x1="-0.006" y1="0.499" x2="0.981" y2="0.499" gradientUnits="objectBoundingBox"><stop offset="0" stop-color="#6c2c2f"/><stop offset="0.173" stop-color="#882730"/><stop offset="0.573" stop-color="#be1833"/><stop offset="0.859" stop-color="#dc0436"/><stop offset="1" stop-color="#e60039"/></linearGradient></defs><g id="pc_ic_017" transform="translate(8.933 6)"><g transform="matrix(1, 0, 0, 1, -8.93, -6)" filter="url(#Эллипс_296)"><circle id="Эллипс_296-2" data-name="Эллипс 296" cx="39.5" cy="39.5" r="39.5" transform="translate(9 6)" fill="#fff"/></g><g id="Сгруппировать_2213" data-name="Сгруппировать 2213" transform="translate(15.896 20.969)"><g id="Сгруппировать_2212" data-name="Сгруппировать 2212" transform="translate(0 0)"><path id="Контур_6109" data-name="Контур 6109" d="M129,76.136h3.539c.1,0,.337-.034.438-.034a1.579,1.579,0,0,0,1.247-1.584,1.636,1.636,0,0,0-1.247-1.584,1.781,1.781,0,0,0-.438-.034H129Z" transform="translate(-92.054 -53.787)" fill="url(#linear-gradient)"/><path id="Контур_6110" data-name="Контур 6110" d="M126.169,16.2a6.136,6.136,0,0,0-6.135,6.135v6.371H128.7a3.466,3.466,0,0,1,.607.034c1.955.1,3.4,1.112,3.4,2.865a2.867,2.867,0,0,1-2.8,2.8v.067c1.989.135,3.506,1.247,3.506,2.966,0,1.854-1.685,3.068-3.91,3.068H120V52.977h9a6.136,6.136,0,0,0,6.135-6.135V16.2Z" transform="translate(-86.088 -16.2)" fill="url(#linear-gradient-2)"/><path id="Контур_6111" data-name="Контур 6111" d="M133.787,60.183a1.434,1.434,0,0,0-1.247-1.449c-.067,0-.236-.034-.337-.034H129v2.966h3.2a.939.939,0,0,0,.337-.034A1.434,1.434,0,0,0,133.787,60.183Z" transform="translate(-92.054 -44.373)" fill="url(#linear-gradient-3)"/><path id="Контур_6112" data-name="Контур 6112" d="M25.569,16.2a6.136,6.136,0,0,0-6.135,6.135V37.471a12.132,12.132,0,0,0,5.292,1.382A2.936,2.936,0,0,0,28,35.819V28.672h5.259v7.113c0,2.764-1.719,5.023-7.551,5.023a25.878,25.878,0,0,1-6.3-.775V52.943h9a6.136,6.136,0,0,0,6.135-6.135V16.2Z" transform="translate(-19.4 -16.2)" fill="url(#linear-gradient-4)"/><path id="Контур_6113" data-name="Контур 6113" d="M75.935,16.2A6.136,6.136,0,0,0,69.8,22.335v8.023c1.551-1.315,4.247-2.157,8.6-1.955a27.353,27.353,0,0,1,4.82.742v2.6a11.669,11.669,0,0,0-4.652-1.348c-3.3-.236-5.292,1.382-5.292,4.214,0,2.865,1.989,4.483,5.292,4.214a12.243,12.243,0,0,0,4.652-1.348v2.6a26.7,26.7,0,0,1-4.82.742c-4.349.2-7.045-.64-8.6-1.955V53.011h9a6.136,6.136,0,0,0,6.135-6.135V16.2Z" transform="translate(-52.811 -16.2)" fill="url(#linear-gradient-5)"/></g></g></g></svg>