<svg xmlns="http://www.w3.org/2000/svg" viewBox="0 0 44.293 47.523"><g id="surface1" transform="translate(-2.319 -0.376)"><path id="Path_5251" data-name="Path 5251" d="M41.65,33.452c-2.869-2.457-5.785-3.946-8.621-1.493l-1.7,1.478C30.1,34.519,27.792,39.546,18.892,29.3c-8.9-10.231-3.608-11.824-2.365-12.89l1.7-1.482c2.821-2.457,1.754-5.55-.283-8.738L16.726,4.259c-2.045-3.17-4.277-5.259-7.1-2.81L8.1,2.788A14.326,14.326,0,0,0,2.5,12.28c-1.022,6.745,2.2,14.472,9.569,22.949s14.575,12.74,21.4,12.67A14.408,14.408,0,0,0,43.651,43.68l1.53-1.339c2.824-2.449,1.07-4.947-1.806-7.4Z" transform="translate(0 0)"/></g></svg>