<svg xmlns="http://www.w3.org/2000/svg" viewBox="0 0 49.602 35.715"><g id="surface1" transform="translate(0 -6.945)"><path id="Path_5252" data-name="Path 5252" d="M0,6.945V9.7C2.988,12.3,20.129,27.246,21.484,28.43a4.795,4.795,0,0,0,6.633,0C29.527,27.2,47.664,11.391,49.6,9.7V6.945ZM0,12.34V37.234L15,25.391C10.141,21.16,3.2,15.129,0,12.34Zm49.6,0c-3.024,2.633-10.07,8.758-15,13.051L49.6,37.2ZM16.523,26.723,0,39.746V42.66H49.6V39.715L33.078,26.723c-1.922,1.676-3.3,2.887-3.656,3.2A7.154,7.154,0,0,1,24.8,31.746a7.13,7.13,0,0,1-4.617-1.828C19.832,29.613,18.449,28.4,16.523,26.723Z"/></g></svg>