<svg width="61" height="50" viewBox="0 0 61 50" fill="none" xmlns="http://www.w3.org/2000/svg">
<g clip-path="url(#clip0)">
<path d="M30.2558 47.5245C39.5276 47.5245 48.7723 47.5245 58.0442 47.5245C58.3966 47.5245 58.8304 47.3885 59.1015 47.5517C59.6166 47.8509 60.0233 48.3134 60.457 48.7215C60.0233 49.1295 59.5895 49.6192 59.1015 49.9456C58.8846 50.0816 58.478 49.9728 58.1797 49.9728C39.6089 49.9728 21.0381 49.9728 2.49445 49.9728C2.30468 49.9728 2.14202 49.9728 1.95224 49.9728C1.03048 49.9728 0.0816069 49.8912 0.0816069 48.7487C0.0544962 47.5517 1.03048 47.5245 1.95224 47.5517C11.3867 47.5245 20.8213 47.5245 30.2558 47.5245Z" fill="black"/>
<path d="M46.7118 11.4527C43.5669 11.1806 43.3771 10.7998 44.9225 8.16106C46.278 5.82156 47.6064 3.45486 48.9891 1.11536C49.8837 -0.380833 50.7784 -0.35363 51.673 1.16976C53.1912 3.7541 54.6552 6.33843 56.1463 8.92276C57.0951 10.5822 56.6885 11.2895 54.7094 11.3983C54.5196 11.3983 54.357 11.4255 54.0045 11.4527C53.9774 11.9151 53.9232 12.4048 53.9232 12.8673C53.9232 15.5876 53.8961 18.308 53.9232 21.0283C53.9232 22.1709 53.4352 22.6877 52.2965 22.6877C51.0766 22.6605 49.8566 22.6877 48.6366 22.6877C47.0371 22.6605 46.7118 22.3613 46.7118 20.7835C46.6846 18.1991 46.7118 15.6148 46.7118 13.0305C46.7118 12.5136 46.7118 12.024 46.7118 11.4527ZM50.2904 3.69969C49.2602 5.49512 48.3384 7.10012 47.3353 8.81394C48.9619 8.86835 49.1517 9.82047 49.1246 11.0446C49.0704 14.0642 49.0975 17.0566 49.0975 20.1306C49.965 20.1306 50.6699 20.1306 51.4832 20.1306C51.4832 17.0566 51.5103 14.0914 51.4561 11.1262C51.429 9.87488 51.5375 8.84115 53.2454 8.81394C52.2423 7.04572 51.3477 5.46791 50.2904 3.69969Z" fill="black"/>
<path d="M33.7262 23.2318C36.9253 23.5854 37.0608 23.8575 35.5697 26.4962C34.2413 28.8085 32.9129 31.1208 31.5844 33.4331C30.6085 35.0925 29.7409 35.1197 28.792 33.4875C27.3552 31.012 25.9454 28.5365 24.5086 26.0882C23.3428 24.0479 23.641 23.4494 25.9454 23.3406C26.1081 23.3406 26.2979 23.2862 26.6232 23.259C26.6232 21.0283 26.6232 18.8248 26.6232 16.6213C26.6232 15.6148 26.6503 14.6355 26.6232 13.629C26.5961 12.5408 27.1112 12.0512 28.1956 12.0784C29.4698 12.0784 30.7169 12.1056 31.9911 12.0512C33.2382 11.9968 33.7804 12.5136 33.7804 13.8194C33.7262 16.4853 33.7804 19.1513 33.7804 21.8444C33.7262 22.2797 33.7262 22.7149 33.7262 23.2318ZM33.1298 25.8705C31.4489 25.8161 31.2591 24.8368 31.2591 23.6126C31.3133 20.6203 31.2862 17.6551 31.2862 14.6355C30.4729 14.6355 29.7951 14.6355 29.036 14.6355C29.036 17.7095 28.9818 20.6475 29.0632 23.5854C29.0903 24.864 28.9005 25.8433 27.2196 25.8977C28.2498 27.666 29.1716 29.2982 30.2018 31.0392C31.1778 29.2438 32.0996 27.666 33.1298 25.8705Z" fill="black"/>
<path d="M13.5828 11.4527C13.5828 14.4995 13.5828 17.4919 13.5828 20.457C13.5828 22.3885 13.3117 22.6605 11.414 22.6877C10.4109 22.6877 9.4349 22.6877 8.4318 22.6605C6.91361 22.6333 6.6425 22.3885 6.6425 20.8107C6.61539 18.1719 6.6425 15.5604 6.6425 12.9217C6.6425 12.432 6.61539 11.9424 6.58828 11.5071C3.47055 11.0446 3.36211 10.7998 4.90742 8.05225C6.15451 5.79437 7.32027 3.50927 8.56736 1.27859C9.48912 -0.408028 10.438 -0.408028 11.3869 1.19698C12.8508 3.6997 14.2877 6.20242 15.7246 8.73234C16.809 10.6638 16.4295 11.2895 14.2064 11.3711C14.0708 11.3711 13.9353 11.3983 13.5828 11.4527ZM9.97711 3.67249C8.94691 5.49513 8.02514 7.07293 7.02205 8.81395C8.64869 8.84116 8.86558 9.79328 8.78424 11.0174C8.73002 11.7247 8.78424 12.4592 8.78424 13.1937C8.78424 15.4788 8.78424 17.7639 8.78424 20.1306C9.65178 20.1306 10.3567 20.1306 11.1429 20.1306C11.1429 17.0566 11.17 14.0914 11.1158 11.099C11.0886 9.84768 11.2513 8.84116 12.9593 8.81395C11.9291 7.04573 11.0073 5.46792 9.97711 3.67249Z" fill="black"/>
<path d="M35.244 41.9478C35.0272 41.6758 34.3223 41.1861 34.3765 40.8597C34.4849 40.3428 35.0543 39.6627 35.5423 39.5267C37.3316 39.037 39.1751 38.8466 40.9644 38.3569C47.4438 36.5615 53.0828 33.2971 57.9085 28.5909C58.1254 28.3732 58.3694 28.0196 58.6134 27.9924C59.1014 27.9108 59.8334 27.8564 60.0503 28.1284C60.3214 28.4821 60.2943 29.1622 60.2129 29.679C60.1587 29.9783 59.7521 30.2231 59.5081 30.4679C53.0828 36.6159 45.4648 40.37 36.708 41.7846C36.3556 41.839 35.976 41.8662 35.244 41.9478Z" fill="black"/>
<path d="M24.8607 42.0022C18.0559 40.9412 12.0374 39.0098 6.80501 35.1197C4.82593 33.6507 2.92818 32.0185 1.03044 30.4407C0.352672 29.8694 -0.487758 29.1349 0.406893 28.1828C1.30154 27.2307 2.03353 28.0196 2.68419 28.6725C8.72986 34.6572 15.9413 38.2753 24.3456 39.4451C25.186 39.5539 26.1078 39.7715 25.9722 40.8324C25.8638 41.3221 25.1318 41.7301 24.8607 42.0022Z" fill="black"/>
<path d="M30.0926 42.8727C29.5504 42.0294 28.9811 41.5125 29.0353 41.1045C29.0896 40.6692 29.7402 40.3156 30.1469 39.9075C30.5264 40.3156 31.1771 40.6964 31.2313 41.1317C31.2584 41.5669 30.6891 42.0294 30.0926 42.8727Z" fill="black"/>
</g>
<defs>
<clipPath id="clip0">
<rect width="60.4839" height="50" fill="white"/>
</clipPath>
</defs>
</svg>
