<svg width="50" height="50" viewBox="0 0 50 50" fill="none" xmlns="http://www.w3.org/2000/svg">
<path d="M36.9336 13.6035H35.4199V7.82227C35.4199 5.37109 33.4277 3.37891 30.9766 3.37891C30.4199 3.37891 29.8828 3.48633 29.3848 3.67187C29.0039 1.58203 27.1875 0 25 0C22.8125 0 20.9961 1.58203 20.625 3.66211C20.127 3.47656 19.5996 3.36914 19.0332 3.36914C16.582 3.36914 14.5898 5.36133 14.5898 7.8125V8.47656C14.1113 8.30078 13.6035 8.21289 13.0762 8.21289C10.625 8.21289 8.63281 10.2051 8.63281 12.6563V33.0078L12.4414 38.2129V50H15.3711V37.2656L11.5625 32.0605V12.666C11.5625 11.8262 12.2461 11.1523 13.0762 11.1523C13.9062 11.1523 14.5898 11.8359 14.5898 12.666V22.3438H17.5195V7.82227C17.5195 6.98242 18.2031 6.30859 19.0332 6.30859C19.8633 6.30859 20.5469 6.99219 20.5469 7.82227V22.3438H23.4766V4.44336C23.4766 3.60352 24.1602 2.92969 24.9902 2.92969C25.8301 2.92969 26.5039 3.61328 26.5039 4.44336V22.334H29.4336V7.82227C29.4336 6.98242 30.1172 6.30859 30.9473 6.30859C31.7773 6.30859 32.4609 6.99219 32.4609 7.82227V26.9727H35.3906V16.5234H36.9043C37.7441 16.5234 38.418 17.207 38.418 18.0371V32.041L34.6094 37.2461V50H37.5391V38.2227L41.3477 33.0176V18.0469C41.3769 15.5957 39.3848 13.6035 36.9336 13.6035Z" fill="black"/>
<path d="M16.7871 30.0097H19.7168V32.9394H16.7871V30.0097Z" fill="black"/>
<path d="M28.5547 30.8691H31.4844V33.7988H28.5547V30.8691Z" fill="black"/>
<path d="M23.5352 26.6309H26.4648V29.5606H23.5352V26.6309Z" fill="black"/>
<path d="M22.0215 37.1582H24.9512V40.0879H22.0215V37.1582Z" fill="black"/>
<path d="M28.5547 43.3105H31.4844V46.2402H28.5547V43.3105Z" fill="black"/>
<path d="M19.0332 44.9609H21.9629V47.8906H19.0332V44.9609Z" fill="black"/>
</svg>
