<svg width="61" height="50" viewBox="0 0 61 50" fill="none" xmlns="http://www.w3.org/2000/svg">
<g clip-path="url(#clip0)">
<path d="M56.8281 0H4.32812C3.68359 0 3.15625 0.527344 3.15625 1.17188V7.03125C3.15625 7.67578 3.68359 8.20312 4.32812 8.20312C4.97266 8.20312 5.5 7.67578 5.5 7.03125V2.34375H12.6484V6.21094C12.6484 6.85547 13.1758 7.38281 13.8203 7.38281C14.4648 7.38281 14.9922 6.85547 14.9922 6.21094V2.34375H19.7969V6.21094C19.7969 6.85547 20.3242 7.38281 20.9688 7.38281C21.6133 7.38281 22.1406 6.85547 22.1406 6.21094V2.34375H26.9453V41.168C26.9453 41.8125 27.4727 42.3398 28.1172 42.3398C28.7617 42.3398 29.2891 41.8125 29.2891 41.168V2.34375H34.0938V36.1758C34.0938 36.8203 34.6211 37.3477 35.2656 37.3477C35.9102 37.3477 36.4375 36.8203 36.4375 36.1758V2.34375H41.2422V41.168C41.2422 41.8125 41.7695 42.3398 42.4141 42.3398C43.0586 42.3398 43.5859 41.8125 43.5859 41.168V2.34375H48.5078V36.1758C48.5078 36.8203 49.0352 37.3477 49.6797 37.3477C50.3242 37.3477 50.8516 36.8203 50.8516 36.1758V2.34375H55.6562V45H22.1406V41.0977C22.1406 40.4531 21.6133 39.9258 20.9688 39.9258C20.3242 39.9258 19.7969 40.4531 19.7969 41.0977V45H14.9922V41.0977C14.9922 40.4531 14.4648 39.9258 13.8203 39.9258C13.1758 39.9258 12.6484 40.4531 12.6484 41.0977V45H5.5V40.3125C5.5 39.668 4.97266 39.1406 4.32812 39.1406C3.68359 39.1406 3.15625 39.668 3.15625 40.3125V46.1719C3.15625 46.8164 3.68359 47.3438 4.32812 47.3438H56.8281C57.4727 47.3438 58 46.8164 58 46.1719V1.17188C58 0.527344 57.4727 0 56.8281 0Z" fill="black"/>
<path d="M23.7223 22.8398L21.3669 20.4844C20.9098 20.0273 20.1715 20.0273 19.7145 20.4844C19.2575 20.9414 19.2575 21.6797 19.7145 22.1367L20.0661 22.4883H19.6559H19.6442C18.4489 22.4883 17.2536 22.7695 16.1872 23.3203C14.6872 24.082 12.9059 24.082 11.4059 23.3203C9.23795 22.2187 6.65983 22.2187 4.49186 23.3203C2.99186 24.082 1.21061 24.082 -0.289391 23.3203C-0.863609 23.0273 -1.56673 23.25 -1.87142 23.8359C-2.16439 24.4102 -1.94173 25.1133 -1.3558 25.418C0.812172 26.5195 3.3903 26.5195 5.55827 25.418C7.05827 24.6562 8.83952 24.6562 10.3395 25.418C11.4176 25.9687 12.613 26.25 13.7965 26.25C14.9801 26.25 16.1755 25.9687 17.2536 25.418C17.9919 25.043 18.8239 24.8438 19.6559 24.8438H20.0661L19.7145 25.1953C19.2575 25.6523 19.2575 26.3906 19.7145 26.8477C19.9489 27.082 20.2419 27.1875 20.5465 27.1875C20.8512 27.1875 21.1442 27.0703 21.3786 26.8477L23.734 24.4922C24.1794 24.0469 24.1794 23.2969 23.7223 22.8398Z" fill="black"/>
<path d="M23.7223 32.25L21.3551 29.8828C20.8981 29.4258 20.1598 29.4258 19.7028 29.8828C19.2458 30.3398 19.2458 31.0781 19.7028 31.5352L20.0661 31.8984H19.6559H19.6442C18.4489 31.8984 17.2536 32.1914 16.1872 32.7305C14.6872 33.4922 12.9059 33.4922 11.4059 32.7305C9.23795 31.6289 6.65983 31.6289 4.49186 32.7305C2.99186 33.4922 1.21061 33.4922 -0.289391 32.7305C-0.863609 32.4375 -1.56673 32.6602 -1.87142 33.2461C-2.16439 33.8203 -1.94173 34.5234 -1.3558 34.8281C0.812172 35.9297 3.3903 35.9297 5.55827 34.8281C7.05827 34.0664 8.83952 34.0664 10.3395 34.8281C11.4176 35.3789 12.613 35.6602 13.7965 35.6602C14.9801 35.6602 16.1755 35.3789 17.2536 34.8281C17.9919 34.4531 18.8239 34.2539 19.6559 34.2539H20.0661L19.7028 34.6172C19.2458 35.0742 19.2458 35.8125 19.7028 36.2695C19.9372 36.5039 20.2301 36.6094 20.5348 36.6094C20.8395 36.6094 21.1325 36.4922 21.3669 36.2695L23.734 33.9023C24.1794 33.457 24.1794 32.707 23.7223 32.25Z" fill="black"/>
<path d="M23.7226 13.3828L21.4257 11.0859C20.9687 10.6289 20.2304 10.6289 19.7734 11.0859C19.3164 11.543 19.3164 12.2812 19.7734 12.7383L20.0664 13.0313H19.6562H19.6445C18.4492 13.0313 17.2539 13.3125 16.1875 13.8633C14.6875 14.625 12.9062 14.625 11.4062 13.8633C9.23823 12.7617 6.66011 12.7617 4.49214 13.8633C2.99214 14.625 1.21089 14.625 -0.289112 13.8633C-0.86333 13.5703 -1.56646 13.793 -1.87114 14.3789C-2.17583 14.9648 -1.94146 15.6563 -1.35552 15.9609C0.812451 17.0625 3.39058 17.0625 5.55854 15.9609C7.05855 15.1992 8.8398 15.1992 10.3398 15.9609C11.4179 16.5117 12.6132 16.793 13.7968 16.793C14.9804 16.793 16.1757 16.5117 17.2539 15.9609C17.9921 15.5859 18.8125 15.3867 19.6445 15.3867H19.6562H20.0664L19.7734 15.6797C19.3164 16.1367 19.3164 16.875 19.7734 17.332C20.0078 17.5664 20.3007 17.6719 20.6054 17.6719C20.9101 17.6719 21.2031 17.5547 21.4375 17.332L23.7343 15.0352C24.1796 14.5898 24.1796 13.8398 23.7226 13.3828Z" fill="black"/>
<path d="M50.5117 40.3359C50.2891 40.1133 49.9961 39.9961 49.6797 39.9961C49.3633 39.9961 49.0703 40.125 48.8477 40.3359C48.625 40.5469 48.5078 40.8516 48.5078 41.168C48.5078 41.4844 48.6367 41.7773 48.8477 42C49.0703 42.2227 49.3633 42.3398 49.6797 42.3398C49.9961 42.3398 50.2891 42.2109 50.5117 42C50.7344 41.7891 50.8516 41.4844 50.8516 41.168C50.8516 40.8516 50.7227 40.5586 50.5117 40.3359Z" fill="black"/>
<path d="M36.0977 40.3359C35.875 40.1133 35.582 39.9961 35.2656 39.9961C34.9492 39.9961 34.6562 40.125 34.4336 40.3359C34.2109 40.5469 34.0938 40.8516 34.0938 41.168C34.0938 41.4844 34.2227 41.7773 34.4336 42C34.6562 42.2227 34.9492 42.3398 35.2656 42.3398C35.582 42.3398 35.875 42.2109 36.0977 42C36.3203 41.7891 36.4375 41.4844 36.4375 41.168C36.4375 40.8516 36.3086 40.5586 36.0977 40.3359Z" fill="black"/>
</g>
<defs>
<clipPath id="clip0">
<rect width="60.4839" height="50" fill="white"/>
</clipPath>
</defs>
</svg>
