<svg width="51" height="45" viewBox="0 0 51 45" fill="none" xmlns="http://www.w3.org/2000/svg">
<path d="M49.2568 0H1.74316C0.786914 0 0 0.786914 0 1.74316V7.8791C0 8.84531 1.49414 8.84531 1.49414 7.8791V1.74316C1.49414 1.60371 1.60371 1.49414 1.74316 1.49414H49.2568C49.3963 1.49414 49.5059 1.60371 49.5059 1.74316V38.1703C49.5059 38.3098 49.3963 38.4193 49.2568 38.4193H39.6844V36.8654H47.1949C47.6033 36.8654 47.942 36.5268 47.942 36.1184V28.299C47.942 27.3328 46.4478 27.3328 46.4478 28.299V35.3713H39.6844V32.0543C39.7043 32.0543 39.7342 32.0543 39.7541 32.0643C40.3717 32.1141 41.1486 32.1838 41.6766 31.6559C42.2145 31.118 42.1447 30.351 42.085 29.7234C42.0252 29.0561 42.085 28.8768 42.6029 28.4484C43.9178 27.3527 43.9477 26.1773 42.6029 25.0617C42.0949 24.6334 42.0252 24.4541 42.085 23.7867C42.2344 22.1133 41.4475 21.2965 39.7441 21.4459C39.0768 21.5057 38.8975 21.4459 38.4791 20.9279C37.3834 19.6031 36.208 19.5832 35.0924 20.9279C34.6641 21.4359 34.4848 21.5057 33.8273 21.4459C32.1539 21.2965 31.3371 22.0834 31.4865 23.7867C31.5463 24.4541 31.4865 24.6334 30.9686 25.0617C29.6537 26.1574 29.6238 27.3328 30.9686 28.4484C31.4766 28.8768 31.5463 29.0561 31.4865 29.7234C31.3271 31.5164 32.1838 32.2037 33.8971 32.0543V35.3713H4.55215V4.54219H46.4478V24.3147C46.4478 25.2809 47.942 25.2809 47.942 24.3147V3.79512C47.942 3.38672 47.6033 3.04805 47.1949 3.04805H3.80508C3.39668 3.04805 3.05801 3.38672 3.05801 3.79512V36.1184C3.05801 36.5268 3.39668 36.8654 3.80508 36.8654H33.907V38.4193H1.74316C1.60371 38.4193 1.49414 38.3098 1.49414 38.1703V11.6643C1.49414 10.698 0 10.698 0 11.6643V38.1703C0 39.1266 0.786914 39.9135 1.74316 39.9135H33.907V43.3002C34.0166 43.9178 34.3652 44.1369 34.9729 43.9775L36.7957 43.1309L38.6186 43.9775C39.0668 44.1867 39.6844 43.858 39.6844 43.3002V39.9135H49.2568C50.2131 39.9135 51 39.1266 51 38.1703V1.74316C51 0.786914 50.2131 0 49.2568 0ZM33.7078 30.5801C32.9607 30.6498 32.9209 30.61 32.9906 29.8629C33.0902 28.7174 32.8313 28.05 31.9447 27.3129C31.3371 26.8049 31.3371 26.7252 31.9447 26.2272C32.8313 25.49 33.0902 24.8227 32.9906 23.6772C32.9209 22.9301 32.9607 22.8902 33.7078 22.96C34.8533 23.0596 35.5207 22.7906 36.2578 21.9041C36.7559 21.2965 36.8355 21.2965 37.3436 21.9041C38.0807 22.7906 38.748 23.0596 39.8936 22.96C40.6406 22.8902 40.6805 22.9301 40.6107 23.6772C40.5111 24.8227 40.7701 25.49 41.6566 26.2272C42.2643 26.7352 42.2643 26.8148 41.6566 27.3129C40.7701 28.05 40.5111 28.7174 40.6107 29.8629C40.6805 30.61 40.6406 30.6498 39.8936 30.5801C39.4254 30.5402 38.8875 30.4904 38.4193 30.6897C37.9611 30.8789 37.6424 31.2674 37.3436 31.6359C37.1941 31.8152 36.9352 32.134 36.8057 32.1838C36.6762 32.124 36.4072 31.8053 36.2678 31.6359C35.959 31.2674 35.6402 30.8789 35.192 30.6897C34.6939 30.5402 34.1959 30.5004 33.7078 30.5801ZM37.1145 41.6268C36.9152 41.5371 36.6861 41.5371 36.4869 41.6268L35.4111 42.1248V32.9309C35.7697 33.3193 36.208 33.6779 36.8057 33.6779C37.4033 33.6779 37.8416 33.3193 38.2002 32.9309V42.1248L37.1145 41.6268Z" fill="black"/>
<path d="M9.69146 10.7976H35.4405C36.4067 10.7976 36.4067 9.30347 35.4405 9.30347H9.69146C8.72524 9.30347 8.72524 10.7976 9.69146 10.7976Z" fill="black"/>
<path d="M42.0545 14.5928C42.0545 14.1844 41.7159 13.8457 41.3075 13.8457H9.69145C8.72524 13.8457 8.72524 15.3398 9.69145 15.3398H41.3174C41.7258 15.3398 42.0545 15.0111 42.0545 14.5928Z" fill="black"/>
<path d="M28.3981 19.1449C28.3981 18.7365 28.0594 18.3978 27.651 18.3978H9.69145C8.72524 18.3978 8.72524 19.892 9.69145 19.892H27.661C28.0694 19.892 28.3981 19.5533 28.3981 19.1449Z" fill="black"/>
<path d="M18.5975 29.5541C18.1891 29.5541 17.7807 29.5541 17.3723 29.5541C16.5854 29.5541 16.1571 29.3449 15.9977 28.5182C15.8483 27.7611 14.7526 27.8608 14.5534 28.5182C14.4638 28.807 14.0155 29.6537 13.627 29.584C13.4179 29.5441 13.3282 29.2254 13.2485 29.066C13.0991 28.7473 12.9895 28.3986 12.8999 28.06C12.5114 26.6156 12.4317 25.1016 12.1827 23.6274C12.0432 22.7707 10.7384 23.0098 10.7184 23.8266C10.6487 26.4164 10.2304 28.9664 9.30399 31.3869C8.96532 32.2834 10.4097 32.6719 10.7483 31.7854C11.1069 30.849 11.3858 29.8928 11.605 28.9166C11.7245 29.2752 11.864 29.6139 12.0333 29.9525C12.4716 30.8192 13.3581 31.3272 14.3143 30.9387C14.653 30.7992 14.9618 30.5602 15.2307 30.2713C15.938 31.0881 16.9938 31.0483 17.97 31.0483C19.4442 31.0483 20.9284 31.0383 22.4026 31.0383C23.3688 31.0383 23.3688 29.5442 22.4026 29.5442C21.1276 29.5442 19.8626 29.5541 18.5975 29.5541Z" fill="black"/>
<path d="M36.796 29.6835C38.4097 29.6835 39.7146 28.3787 39.7146 26.765C39.7146 25.1513 38.4097 23.8464 36.796 23.8464C35.1823 23.8464 33.8774 25.1513 33.8774 26.765C33.8774 28.3787 35.1823 29.6835 36.796 29.6835ZM36.796 25.3406C37.5829 25.3406 38.2204 25.9781 38.2204 26.765C38.2204 27.5519 37.5829 28.1894 36.796 28.1894C36.0091 28.1894 35.3716 27.5519 35.3716 26.765C35.3716 25.9781 36.0091 25.3406 36.796 25.3406Z" fill="black"/>
</svg>
