<svg xmlns="http://www.w3.org/2000/svg" viewBox="0 0 80 113">
	<defs>
		<radialGradient id="shadowGradient">
			<stop offset="0" stop-color="#000" stop-opacity="0.8" />
			<stop offset="1" stop-color="#000" stop-opacity="0" />
		</radialGradient>
	</defs>
	<g>
		<ellipse fill="url(#shadowGradient)" cx="40" cy="110" rx="19" ry="3" />
		<path fill="#000" d="M 40,0 C 62.092,0 80,17.908837 80,39.999636 80,62.060436 56.863,93.011154 42.68,108.80501 41.997,109.565 41.022,110 40,110 38.979,110 38.002,109.567 37.321,108.80801 23.133,93.003155 0,62.072436 0,39.999636 0,17.908837 17.908,0 40,0 Z" />
		<g fill="#fff">
			<path d="m 25.613,15.774 c 1.516,0 2.745,1.229 2.745,2.745 0,1.516 -1.229,2.745 -2.745,2.745 -1.516,0 -2.745,-1.229 -2.745,-2.745 0,-1.516 1.229,-2.745 2.745,-2.745 z m -2.366,10.411 c 0,-1.359 1.102,-2.461 2.461,-2.461 1.359,0 2.461,1.102 2.461,2.461 v 19.31 c 0,1.359 -1.102,2.461 -2.461,2.461 -1.359,0 -2.461,-1.102 -2.461,-2.461 z m 29.381,20.033 2.271,2.271 c 0.957,0.957 0.957,2.524 0,3.481 -0.957,0.957 -2.523,0.957 -3.48,0 l -2.742,-2.742 c -1.406,0.641 -2.966,0.999 -4.607,0.999 -6.148,0 -11.169,-5.021 -11.169,-11.169 V 26.943 c 0,-6.148 5.021,-11.169 11.169,-11.169 6.148,0 11.169,5.021 11.169,11.169 v 12.115 c 0,2.72 -0.983,5.219 -2.611,7.16 z M 44.07,20.696 c -3.431,0 -6.247,2.816 -6.247,6.247 v 12.115 c 0,3.431 2.816,6.247 6.247,6.247 3.431,0 6.247,-2.816 6.247,-6.247 V 26.943 c 0,-3.431 -2.816,-6.247 -6.247,-6.247 z" />
			<path d="M 18.515,57.801 C 17.678,57.801 17,57.122 17,56.286 17,55.448 17.678,54.77 18.515,54.77 h 10.411 c 1.139,0 2.891,0.266 3.953,0.675 5.778,2.227 10.661,3.364 15.141,3.308 4.407,-0.056 8.477,-1.278 12.699,-3.77 0.719,-0.424 1.646,-0.187 2.07,0.533 0.425,0.719 0.187,1.647 -0.532,2.072 -4.685,2.764 -9.236,4.121 -14.201,4.184 -4.892,0.061 -10.132,-1.145 -16.266,-3.509 -0.712,-0.275 -2.096,-0.462 -2.864,-0.462 z" />
			<path d="m 49.749,68.399 c 0,-0.418 0.339,-0.757 0.757,-0.757 0.361,0 0.663,0.253 0.739,0.59 0.546,-0.372 1.204,-0.59 1.911,-0.59 1.876,0 3.408,1.532 3.408,3.408 v 1.514 c 0,1.876 -1.532,3.408 -3.408,3.408 -0.699,0 -1.351,-0.214 -1.893,-0.578 v 2.85 c 0,0.418 -0.339,0.757 -0.757,0.757 -0.418,0 -0.757,-0.339 -0.757,-0.757 z m -7.95,2.651 c 0,-1.882 1.526,-3.408 3.407,-3.408 1.882,0 3.408,1.526 3.408,3.408 0,0.924 -0.599,1.514 -1.515,1.514 h -3.776 c 0.098,0.977 0.936,1.704 1.913,1.704 0.568,0 1.108,-0.243 1.476,-0.678 0.269,-0.318 0.746,-0.358 1.065,-0.089 0.318,0.27 0.358,0.747 0.088,1.065 -0.653,0.771 -1.619,1.216 -2.629,1.216 -1.886,0 -3.437,-1.513 -3.437,-3.407 z m 1.514,0 h 3.786 c 0,-1.046 -0.847,-1.893 -1.893,-1.893 -1.045,0 -1.893,0.847 -1.893,1.893 z m -9.465,0 c 0,-1.882 1.526,-3.408 3.407,-3.408 1.882,0 3.407,1.526 3.407,3.408 0,0.924 -0.598,1.514 -1.514,1.514 h -3.776 c 0.098,0.977 0.936,1.704 1.913,1.704 0.568,0 1.108,-0.243 1.476,-0.678 0.27,-0.318 0.746,-0.358 1.064,-0.089 0.319,0.27 0.359,0.747 0.089,1.065 -0.653,0.771 -1.619,1.216 -2.629,1.216 -1.886,0 -3.437,-1.513 -3.437,-3.407 z m 1.514,0 h 3.786 c 0,-1.046 -0.847,-1.893 -1.893,-1.893 -1.045,0 -1.893,0.847 -1.893,1.893 z M 24.701,70.482 c -1.74,0 -3.159,-1.498 -3.159,-3.218 0,-1.777 1.441,-3.218 3.219,-3.218 1.289,0 2.457,0.774 2.96,1.96 0.164,0.384 -0.015,0.828 -0.399,0.991 -0.384,0.164 -0.828,-0.015 -0.991,-0.399 -0.268,-0.632 -0.884,-1.038 -1.57,-1.038 -0.941,0 -1.704,0.763 -1.704,1.704 0,0.941 0.763,1.703 1.704,1.703 1.854,0 3.408,1.557 3.408,3.408 0,1.906 -1.577,3.407 -3.468,3.407 -1.506,0 -2.862,-0.963 -3.313,-2.408 -0.124,-0.398 0.099,-0.822 0.497,-0.946 0.399,-0.124 0.823,0.098 0.947,0.497 0.254,0.813 1.025,1.343 1.869,1.343 1.054,0 1.953,-0.824 1.953,-1.893 0,-1.07 -0.899,-1.893 -1.953,-1.893 z m 4.793,-5.112 c 0,-0.418 0.339,-0.757 0.757,-0.757 0.418,0 0.757,0.339 0.757,0.757 v 7.302 c 0,0.986 0.986,1.596 1.893,1.596 0.418,0 0.757,0.339 0.757,0.757 0,0.418 -0.339,0.757 -0.757,0.757 -1.744,0 -3.407,-1.283 -3.407,-3.109 z m 21.769,5.68 v 1.514 c 0,1.04 0.854,1.893 1.893,1.893 1.04,0 1.893,-0.853 1.893,-1.893 V 71.05 c 0,-1.04 -0.853,-1.893 -1.893,-1.893 -1.039,0 -1.893,0.853 -1.893,1.893 z" />
		</g>
	</g>
</svg>