<svg width="199" height="80" viewBox="0 0 199 80" fill="none" xmlns="http://www.w3.org/2000/svg">
<path d="M9.79358 67.2493C11.0867 67.2253 12.3079 67.8245 13.0981 68.855C13.9602 69.8856 14.2715 71.2517 13.9841 72.5459C13.7925 73.5285 13.2657 74.4152 12.4755 75.0383C11.7092 75.6615 10.7275 76.021 9.72175 75.997C8.78786 75.997 7.87792 75.6854 7.1356 75.1103C6.39328 74.559 5.86647 73.7681 5.60307 72.8814C5.50728 72.5938 5.55517 72.2583 5.74674 72.0186C5.91436 71.755 6.20171 71.6112 6.51301 71.6112C6.94403 71.5872 7.32716 71.8748 7.42295 72.2822C7.56662 72.7855 7.85397 73.2169 8.285 73.5285C8.69208 73.864 9.21888 74.0318 9.72175 74.0318H9.76964C10.2964 74.0318 10.8233 73.864 11.2303 73.5524C11.6614 73.2409 11.9727 72.7855 12.0924 72.2822C12.3079 71.5393 12.1403 70.7484 11.6853 70.1492C11.2543 69.5501 10.5838 69.1906 9.84148 69.1906C8.78786 69.1906 7.78213 68.7592 7.06376 68.0162C6.29749 67.2972 5.89042 66.2907 5.91436 65.2361V64.9485C5.89042 63.894 6.32144 62.8874 7.06376 62.1684C7.78213 61.4255 8.76391 60.9941 9.81753 61.018H9.88937C10.7035 61.018 11.5177 61.2817 12.1642 61.761C12.8108 62.2403 13.3136 62.9114 13.5531 63.6783C13.6489 63.9659 13.601 64.3014 13.4094 64.5411C13.2418 64.8047 12.9544 64.9485 12.6431 64.9485C12.2361 64.9725 11.8529 64.7089 11.7571 64.3014C11.6374 63.918 11.374 63.5585 11.0388 63.3188C10.7035 63.0552 10.2964 62.9353 9.88937 62.9353H9.84148C9.31467 62.9353 8.81181 63.151 8.45262 63.5345C8.06948 63.894 7.85397 64.4213 7.87792 64.9485V65.2601C7.87792 65.7874 8.09343 66.2906 8.45262 66.6501C8.76391 67.0576 9.26678 67.2493 9.79358 67.2493Z" fill="white"/>
<path d="M17.5524 61.9528C17.72 62.1206 17.8397 62.3842 17.8158 62.6239V71.779C17.8158 73.0732 18.8455 74.1038 20.1385 74.1038C20.6653 74.1038 21.0964 74.5352 21.0964 75.0385C21.0964 75.3021 21.0006 75.5418 20.809 75.7095C20.6414 75.8773 20.4019 75.9971 20.1385 75.9731C17.8158 75.9731 15.9241 74.0798 15.9241 71.7551V62.6C15.9241 62.0727 16.3551 61.6413 16.8819 61.6653C17.1453 61.6892 17.3848 61.7851 17.5524 61.9528Z" fill="white"/>
<path d="M29.9326 69.8615C29.9326 70.1971 29.8369 70.5326 29.6692 70.8202C29.3579 71.4194 28.7114 71.7789 28.0409 71.7549H23.3236C23.3236 73.0491 24.3533 74.0796 25.6463 74.0796H25.7182C26.4605 74.1036 27.1789 73.7441 27.586 73.121C27.8015 72.7615 28.2564 72.6177 28.6396 72.7855C28.9269 72.8813 29.1664 73.097 29.2382 73.3846C29.334 73.6722 29.2861 73.9838 29.0945 74.2474C28.3283 75.3498 27.0592 75.9969 25.6942 75.973H25.6463C23.3236 75.973 21.4558 74.1036 21.4319 71.8028V69.8615C21.4319 67.5368 23.3236 65.6435 25.6463 65.6435H25.7182C26.8436 65.6195 27.9451 66.0749 28.7114 66.9137C29.0945 67.2972 29.4058 67.7765 29.6214 68.2798C29.7411 68.5674 29.8129 68.855 29.8608 69.1426C29.9087 69.3822 29.9326 69.5021 29.9326 69.5021V69.8615ZM23.3236 69.8855H28.017C28.017 69.2624 27.7775 68.6872 27.3465 68.2319C26.9155 67.8005 26.3168 67.5368 25.7182 67.5608H25.6463C24.3533 67.5608 23.3236 68.5913 23.3236 69.8855Z" fill="white"/>
<path d="M39.8464 69.8615C39.8464 70.1971 39.7506 70.5326 39.583 70.8202C39.2717 71.4194 38.6251 71.7789 37.9546 71.7549H33.2373C33.2373 73.0491 34.267 74.0796 35.5601 74.0796H35.6319C36.3742 74.1036 37.0926 73.7441 37.4997 73.121C37.7152 72.7615 38.1702 72.6177 38.5533 72.7855C38.8406 72.8813 39.0801 73.097 39.1519 73.3846C39.2477 73.6722 39.1998 73.9838 39.0083 74.2474C38.242 75.3498 36.9729 75.9969 35.608 75.973H35.5361C33.2134 75.973 31.3456 74.1036 31.3217 71.8028V69.8615C31.3217 67.5368 33.2134 65.6435 35.5361 65.6435H35.608C36.7334 65.6195 37.8349 66.0749 38.6012 66.9137C38.9843 67.2972 39.2956 67.7765 39.5111 68.2798C39.6308 68.5674 39.7027 68.855 39.7506 69.1426C39.7985 69.3822 39.8224 69.5021 39.8224 69.5021L39.8464 69.8615ZM33.2373 69.8855H37.9307C37.9307 69.2624 37.6912 68.6872 37.2602 68.2319C36.8292 67.8005 36.2305 67.5368 35.6319 67.5608H35.5601C34.2909 67.5608 33.2373 68.5913 33.2373 69.8855Z" fill="white"/>
<path d="M42.4317 80C41.9049 80 41.4978 79.5926 41.4739 79.0893C41.4739 79.0653 41.4739 79.0653 41.4739 79.0414V66.5789C41.4739 66.3392 41.5697 66.0756 41.7373 65.9078C41.9288 65.74 42.1683 65.6202 42.4078 65.6442C42.8627 65.6202 43.2459 65.9318 43.3177 66.3632C44.0121 65.8838 44.8263 65.6442 45.6644 65.6442H45.7362C48.059 65.6442 49.9507 67.5375 49.9507 69.8622V71.8035C49.9507 74.1282 48.059 76.0216 45.7362 76.0216H45.6644C44.8263 76.0216 44.0361 75.7819 43.3416 75.3266V79.0414C43.3416 79.305 43.2459 79.5446 43.0782 79.7124C42.9106 79.9041 42.6712 80 42.4317 80ZM43.3656 71.8035C43.3656 73.0977 44.3953 74.1283 45.6883 74.1283H45.7602C47.0293 74.1283 48.0829 73.0737 48.0829 71.8035V69.8622C48.0829 68.592 47.0293 67.5375 45.7602 67.5375H45.6883C44.3953 67.5375 43.3656 68.5681 43.3656 69.8622V71.8035Z" fill="white"/>
<path d="M13.4338 5.99156C12.7873 6.66262 11.9013 7.02213 10.9914 7.02213C10.0575 7.04609 9.14755 6.66262 8.50101 5.99156C7.83053 5.34447 7.47134 4.45773 7.47134 3.54701C7.4474 1.60574 9.00387 0.0479208 10.9435 0.0239545C12.8831 -1.18222e-05 14.4396 1.5578 14.4635 3.49907C14.4635 4.43376 14.0804 5.34447 13.4338 5.99156ZM8.76441 39.808C8.18971 39.2089 7.85447 38.418 7.87842 37.5792V13.1335C7.85447 12.3187 8.18971 11.5278 8.76441 10.9526C9.36306 10.3774 10.1533 10.0419 10.9914 10.0658C11.8055 10.0658 12.5957 10.3774 13.1704 10.9526C13.7691 11.5278 14.0804 12.3187 14.0564 13.1335V37.6032C14.0804 38.442 13.7451 39.2329 13.1704 39.832C12.5957 40.4072 11.8055 40.7427 10.9914 40.7188C10.1533 40.7188 9.33911 40.4072 8.76441 39.808Z" fill="white"/>
<path d="M47.7717 41.4857C48.3464 42.0609 48.6816 42.8518 48.6577 43.6667C48.6816 45.3443 47.3407 46.7583 45.6645 46.7823C45.6166 46.7823 45.5926 46.7823 45.5447 46.7823C44.7306 46.7823 43.9404 46.4707 43.3657 45.8955L40.1569 42.2047C38.2891 43.0915 36.2298 43.5708 34.1705 43.5708C26.412 43.5468 20.1143 37.2437 20.0903 29.4786V14.0922C20.1143 6.32712 26.412 0.0239663 34.1705 0C41.9289 0.0239663 48.2267 6.32712 48.2506 14.0922V29.4786C48.2745 32.738 47.1491 35.8776 45.0658 38.3701L47.7717 41.4857ZM34.1705 37.3635C38.5286 37.3396 42.0486 33.8165 42.0486 29.4786V14.0922C42.0486 9.73034 38.5286 6.20729 34.1705 6.20729C29.8123 6.20729 26.2923 9.73034 26.2923 14.0922V29.4786C26.2923 33.8405 29.8123 37.3635 34.1705 37.3635Z" fill="white"/>
<path d="M38.9598 58.1425C30.0999 58.1425 22.4372 55.1946 19.3722 53.8286C18.3425 53.3732 17.241 53.1336 16.1395 53.1575H1.81988C0.814159 53.1575 0 52.3427 0 51.3361C0 50.3295 0.814159 49.5146 1.81988 49.5146H16.1395C17.7678 49.5146 19.3722 49.8502 20.8568 50.4973C39.4627 58.7656 51.9145 52.0551 55.2909 49.8022C56.129 49.251 57.2544 49.4667 57.8052 50.3055C58.3559 51.1443 58.1404 52.2708 57.3023 52.822C51.3398 56.8244 44.8984 58.1425 38.9598 58.1425Z" fill="white"/>
<path d="M102.32 25.4762V25.7158C102.32 25.8357 102.272 25.8836 102.129 25.8836H99.1354L99.1594 34.9189C99.1594 35.0627 99.1115 35.0867 98.9917 35.1106H98.7044C98.5607 35.1106 98.5128 35.0627 98.5128 34.9429L98.4889 25.9076H95.4956C95.352 25.9076 95.3041 25.8596 95.3041 25.7398V25.5001C95.3041 25.3563 95.352 25.3324 95.4717 25.3084L102.105 25.2844C102.272 25.3084 102.32 25.3324 102.32 25.4762Z" fill="white"/>
<path d="M111.659 25.4522V25.6919C111.659 25.8117 111.611 25.8596 111.468 25.8596L106.295 25.8836V29.838H110.869C110.989 29.838 111.036 29.886 111.036 30.0058V30.2455C111.036 30.3893 110.989 30.4372 110.869 30.4372H106.295V34.5115L111.659 34.4875C111.779 34.4875 111.827 34.5354 111.851 34.6553V34.8949C111.851 35.0387 111.803 35.0867 111.683 35.0867L105.864 35.1106C105.721 35.1106 105.673 35.0627 105.673 34.9429L105.649 25.5001C105.649 25.3563 105.697 25.3084 105.816 25.3084L111.444 25.2844C111.611 25.2844 111.659 25.3324 111.659 25.4522Z" fill="white"/>
<path d="M122.531 35.063H122.172C121.956 35.063 121.932 35.039 121.837 34.9192L118.628 30.5813L115.467 34.9192C115.371 35.063 115.323 35.063 115.132 35.063H114.797C114.653 35.063 114.653 34.9671 114.725 34.8473L118.269 30.078L114.82 25.4285C114.773 25.3566 114.797 25.2607 114.916 25.2607H115.275C115.467 25.2607 115.515 25.2847 115.587 25.4045L118.676 29.5747L121.741 25.4045C121.813 25.2847 121.861 25.2607 122.052 25.2607H122.411C122.531 25.2607 122.555 25.3326 122.483 25.4285L119.059 30.078L122.603 34.8473C122.675 34.9671 122.675 35.063 122.531 35.063Z" fill="white"/>
<path d="M133.114 25.4041L133.138 34.8469C133.138 34.9907 133.091 35.0386 132.947 35.0386H132.66C132.54 35.0386 132.492 34.9907 132.492 34.8469V30.3652L126.649 30.3891V34.8708C126.649 35.0146 126.601 35.0626 126.481 35.0626H126.218C126.074 35.0626 126.027 35.0146 126.027 34.8708L126.003 25.4281C126.003 25.2843 126.05 25.2364 126.17 25.2364H126.458C126.577 25.2364 126.625 25.2843 126.625 25.4281V29.79L132.468 29.766V25.4041C132.468 25.2603 132.516 25.2364 132.636 25.2124H132.923C133.067 25.2364 133.114 25.2843 133.114 25.4041Z" fill="white"/>
<path d="M140.873 25.6202C138.862 25.6202 137.784 26.6747 137.784 28.4482V31.8274C137.784 33.6009 138.862 34.6315 140.873 34.6315C142.861 34.6315 143.938 33.577 143.938 31.8035V28.4242C143.938 26.6507 142.861 25.6202 140.873 25.6202ZM140.873 25.021C143.268 25.021 144.585 26.3152 144.585 28.4242V31.8035C144.585 33.9125 143.292 35.2067 140.897 35.2306C138.479 35.2306 137.162 33.9365 137.162 31.8274V28.4482C137.138 26.3391 138.431 25.021 140.873 25.021Z" fill="white"/>
<path d="M155.241 25.3569L155.265 34.7996C155.265 34.9434 155.217 34.9673 155.097 34.9673H154.81C154.666 34.9673 154.618 34.9194 154.618 34.7996L154.594 25.7643H150.116V28.5444C150.14 34.0566 149.158 34.512 147.913 35.1351C147.794 35.183 147.722 35.183 147.674 35.0632L147.53 34.7996C147.482 34.7277 147.506 34.6318 147.554 34.5839C147.578 34.5839 147.578 34.5599 147.602 34.5599C148.68 34.0087 149.47 33.6013 149.47 28.5444V25.3329C149.47 25.1891 149.518 25.1411 149.637 25.1411L155.049 25.1172C155.193 25.1891 155.241 25.2131 155.241 25.3569Z" fill="white"/>
<path d="M162.975 25.5718C160.963 25.5718 159.886 26.6263 159.886 28.3998V31.7791C159.886 33.5526 160.963 34.5832 162.975 34.5832C164.962 34.5832 166.04 33.5286 166.04 31.7551V28.3759C166.04 26.6024 164.962 25.5478 162.975 25.5718ZM162.975 24.9727C165.369 24.9727 166.687 26.2668 166.687 28.3759V31.7551C166.687 33.8642 165.393 35.1584 162.999 35.1823C160.58 35.1823 159.263 33.8881 159.263 31.7791V28.3998C159.263 26.2668 160.556 24.9727 162.975 24.9727Z" fill="white"/>
<path d="M176.337 25.3081V25.5478C176.337 25.6676 176.289 25.7156 176.17 25.7156H171.333L171.357 34.7509C171.357 34.8947 171.309 34.9187 171.189 34.9426H170.902C170.758 34.9426 170.71 34.8947 170.71 34.7748L170.686 25.3321C170.686 25.1883 170.734 25.1404 170.854 25.1404H176.146C176.289 25.1404 176.337 25.1644 176.337 25.3081Z" fill="white"/>
<path d="M187.017 25.2845L187.041 34.7273C187.041 34.8711 186.993 34.919 186.849 34.919H186.562C186.418 34.919 186.37 34.8711 186.37 34.7273L186.346 28.6159C186.346 27.6093 186.394 26.8903 186.442 25.9556H186.418C185.915 26.7944 185.484 27.4415 184.909 28.3043L180.408 34.7992C180.36 34.8711 180.288 34.919 180.192 34.919H179.905C179.761 34.919 179.737 34.8711 179.737 34.7512L179.713 25.3085C179.713 25.1647 179.761 25.1168 179.881 25.1168H180.168C180.288 25.1168 180.336 25.1647 180.336 25.2845L180.36 31.2042C180.36 32.2587 180.36 33.0496 180.264 34.0322H180.288C180.815 33.1455 181.318 32.4025 181.916 31.4918L186.298 25.1647C186.346 25.0928 186.418 25.0688 186.49 25.0688H186.777C186.969 25.1168 187.017 25.1407 187.017 25.2845Z" fill="white"/>
<path d="M198.032 25.2845L198.055 34.7273C198.055 34.8711 198.008 34.919 197.864 34.919H197.577C197.433 34.919 197.385 34.8711 197.385 34.7273L197.361 28.6159C197.361 27.6093 197.409 26.8903 197.457 25.9556H197.433C196.93 26.7944 196.499 27.4415 195.924 28.3043L191.422 34.7992C191.375 34.8711 191.303 34.919 191.207 34.919H190.92C190.776 34.919 190.752 34.8711 190.752 34.7512L190.728 25.3085C190.728 25.1647 190.776 25.1168 190.896 25.1168H191.183C191.303 25.1168 191.351 25.1647 191.351 25.2845L191.375 31.2042C191.375 32.2587 191.375 33.0496 191.279 34.0322H191.303C191.83 33.1455 192.332 32.4025 192.931 31.4918L197.313 25.1647C197.361 25.0928 197.433 25.0688 197.505 25.0688H197.792C197.984 25.1168 198.032 25.1407 198.032 25.2845Z" fill="white"/>
<path d="M99.7579 43.7864C101.889 43.7864 102.919 44.6012 103.398 46.183C103.446 46.3268 103.398 46.3747 103.278 46.4227L103.038 46.4946C102.895 46.5185 102.847 46.5185 102.799 46.3747C102.392 45.0086 101.578 44.3615 99.7818 44.3615C97.7464 44.3615 96.7168 45.4161 96.7168 47.1656V50.5688C96.7168 52.2944 97.7943 53.3729 99.8058 53.3729C101.65 53.3729 102.44 52.6539 102.847 51.2878C102.895 51.168 102.967 51.144 103.086 51.168L103.35 51.2639C103.469 51.3118 103.493 51.3597 103.469 51.4796C103.015 53.0613 102.009 53.9481 99.8297 53.9481C97.4351 53.9481 96.1181 52.6539 96.1181 50.5449V47.1656C96.0463 45.1045 97.3154 43.7864 99.7579 43.7864Z" fill="white"/>
<path d="M114.222 44.1216L114.246 53.5644C114.246 53.7082 114.198 53.7561 114.078 53.7561H113.791C113.671 53.7561 113.623 53.7082 113.623 53.5883V49.1067H107.78V53.5883C107.78 53.7321 107.732 53.7561 107.613 53.7801H107.325C107.182 53.7801 107.158 53.7322 107.134 53.6123L107.11 44.1696C107.11 44.0258 107.158 44.0018 107.301 43.9779H107.589C107.708 43.9779 107.756 44.0258 107.756 44.1456V48.5075L113.599 48.4835V44.1216C113.599 43.9778 113.647 43.9299 113.767 43.9299H114.054C114.198 43.9539 114.222 44.0018 114.222 44.1216Z" fill="white"/>
<path d="M121.765 44.5052H121.717C121.717 44.6969 121.669 44.9126 121.598 45.1044L119.658 50.0175H123.872L121.909 45.1283C121.837 44.8887 121.789 44.6969 121.765 44.5052ZM125.836 53.7323H125.596C125.381 53.7323 125.309 53.7083 125.285 53.5884L124.04 50.5447H119.466L118.269 53.5884C118.221 53.7083 118.149 53.7323 117.958 53.7323H117.718C117.575 53.7323 117.551 53.6603 117.599 53.5645L121.406 44.0259C121.43 43.93 121.526 43.8581 121.645 43.8581H121.933C122.052 43.8341 122.148 43.9061 122.172 44.0259L126.004 53.5645C126.027 53.6603 126.004 53.7323 125.836 53.7323Z" fill="white"/>
<path d="M80.122 77.9865C79.9065 77.9865 79.715 77.7948 79.715 77.5791V2.10909C79.715 1.89339 79.9065 1.70166 80.122 1.70166C80.3376 1.70166 80.5291 1.89339 80.5291 2.10909V77.5791C80.5291 77.8187 80.3376 77.9865 80.122 77.9865Z" fill="white"/>
</svg>
