<svg width="149" height="60" viewBox="0 0 149 60" fill="none" xmlns="http://www.w3.org/2000/svg">
<path d="M7.34532 50.4369C8.31513 50.4189 9.23106 50.8683 9.82372 51.6412C10.4703 52.4141 10.7037 53.4387 10.4882 54.4093C10.3445 55.1463 9.94943 55.8113 9.35677 56.2787C8.78207 56.746 8.04573 57.0156 7.29144 56.9977C6.59102 56.9977 5.90857 56.764 5.35182 56.3326C4.79508 55.9192 4.39998 55.326 4.20242 54.6609C4.13059 54.4452 4.1665 54.1936 4.31018 54.0138C4.43589 53.8161 4.65141 53.7083 4.88488 53.7083C5.20815 53.6903 5.4955 53.906 5.56734 54.2116C5.67509 54.589 5.89061 54.9126 6.21388 55.1463C6.51919 55.3979 6.91429 55.5237 7.29144 55.5237H7.32736C7.72246 55.5237 8.11757 55.3979 8.42288 55.1642C8.74615 54.9306 8.97962 54.589 9.06942 54.2116C9.23105 53.6543 9.10534 53.0612 8.76411 52.6118C8.44084 52.1625 7.93798 51.8928 7.38124 51.8928C6.59102 51.8928 5.83673 51.5693 5.29794 51.0121C4.72324 50.4728 4.41794 49.7179 4.4359 48.927V48.7113C4.41794 47.9204 4.7412 47.1654 5.29794 46.6262C5.83673 46.069 6.57306 45.7454 7.36328 45.7634H7.41715C8.02777 45.7634 8.63839 45.9611 9.1233 46.3206C9.6082 46.6801 9.98535 47.1834 10.1649 47.7586C10.2368 47.9743 10.2009 48.226 10.0572 48.4057C9.93147 48.6034 9.71596 48.7113 9.48249 48.7113C9.17718 48.7293 8.88983 48.5315 8.81799 48.226C8.72819 47.9384 8.53064 47.6688 8.27921 47.489C8.02778 47.2913 7.72246 47.2014 7.41715 47.2014H7.38124C6.98613 47.2014 6.60898 47.3632 6.33959 47.6508C6.05224 47.9204 5.89061 48.3158 5.90857 48.7113V48.945C5.90857 49.3404 6.0702 49.7179 6.33959 49.9875C6.57306 50.2931 6.95021 50.4369 7.34532 50.4369Z" fill="black"/>
<path d="M13.1641 46.4654C13.2898 46.5913 13.3796 46.789 13.3617 46.9687V53.8351C13.3617 54.8057 14.1339 55.5787 15.1037 55.5787C15.4988 55.5787 15.8221 55.9022 15.8221 56.2797C15.8221 56.4774 15.7503 56.6571 15.6066 56.783C15.4809 56.9088 15.3013 56.9987 15.1037 56.9807C13.3617 56.9807 11.9429 55.5607 11.9429 53.8171V46.9508C11.9429 46.5553 12.2661 46.2318 12.6612 46.2497C12.8588 46.2677 13.0384 46.3396 13.1641 46.4654Z" fill="black"/>
<path d="M22.4493 52.3967C22.4493 52.6483 22.3775 52.8999 22.2518 53.1156C22.0183 53.565 21.5334 53.8346 21.0305 53.8167H17.4925C17.4925 54.7873 18.2648 55.5602 19.2346 55.5602H19.2885C19.8452 55.5782 20.384 55.3086 20.6893 54.8412C20.8509 54.5716 21.1922 54.4638 21.4795 54.5896C21.695 54.6615 21.8746 54.8233 21.9285 55.039C22.0003 55.2547 21.9644 55.4883 21.8207 55.6861C21.246 56.5129 20.2942 56.9982 19.2705 56.9802H19.2346C17.4925 56.9802 16.0917 55.5782 16.0737 53.8526V52.3967C16.0737 50.6531 17.4925 49.2331 19.2346 49.2331H19.2885C20.1326 49.2151 20.9587 49.5567 21.5334 50.1858C21.8207 50.4734 22.0542 50.8329 22.2158 51.2103C22.3056 51.426 22.3595 51.6417 22.3954 51.8574C22.4314 52.0372 22.4493 52.127 22.4493 52.127V52.3967ZM17.4925 52.4146H21.0126C21.0126 51.9473 20.833 51.5159 20.5097 51.1744C20.1864 50.8508 19.7374 50.6531 19.2885 50.6711H19.2346C18.2648 50.6711 17.4925 51.444 17.4925 52.4146Z" fill="black"/>
<path d="M29.8852 52.3967C29.8852 52.6483 29.8134 52.8999 29.6877 53.1156C29.4542 53.565 28.9693 53.8346 28.4665 53.8167H24.9285C24.9285 54.7873 25.7007 55.5602 26.6705 55.5602H26.7244C27.2811 55.5782 27.8199 55.3086 28.1252 54.8412C28.2869 54.5716 28.6281 54.4638 28.9154 54.5896C29.1309 54.6615 29.3105 54.8233 29.3644 55.039C29.4363 55.2547 29.4003 55.4883 29.2567 55.6861C28.682 56.5129 27.7301 56.9982 26.7064 56.9802H26.6525C24.9105 56.9802 23.5097 55.5782 23.4917 53.8526V52.3967C23.4917 50.6531 24.9105 49.2331 26.6525 49.2331H26.7064C27.5505 49.2151 28.3767 49.5567 28.9514 50.1858C29.2387 50.4734 29.4722 50.8329 29.6338 51.2103C29.7236 51.426 29.7775 51.6417 29.8134 51.8574C29.8493 52.0372 29.8673 52.127 29.8673 52.127L29.8852 52.3967ZM24.9285 52.4146H28.4485C28.4485 51.9473 28.2689 51.5159 27.9456 51.1744C27.6224 50.8508 27.1734 50.6531 26.7244 50.6711H26.6705C25.7187 50.6711 24.9285 51.444 24.9285 52.4146Z" fill="black"/>
<path d="M31.8238 59.9997C31.4287 59.9997 31.1234 59.6941 31.1055 59.3166C31.1055 59.2986 31.1055 59.2986 31.1055 59.2807V49.9338C31.1055 49.754 31.1773 49.5563 31.303 49.4305C31.4467 49.3047 31.6263 49.2148 31.8059 49.2328C32.1471 49.2148 32.4345 49.4485 32.4883 49.772C33.0092 49.4125 33.6198 49.2328 34.2484 49.2328H34.3022C36.0443 49.2328 37.4631 50.6528 37.4631 52.3963V53.8523C37.4631 55.5958 36.0443 57.0159 34.3022 57.0159H34.2484C33.6198 57.0159 33.0271 56.8361 32.5063 56.4946V59.2807C32.5063 59.4784 32.4345 59.6581 32.3087 59.784C32.183 59.9278 32.0034 59.9997 31.8238 59.9997ZM32.5243 53.8523C32.5243 54.8229 33.2965 55.5958 34.2663 55.5958H34.3202C35.272 55.5958 36.0623 54.8049 36.0623 53.8523V52.3963C36.0623 51.4437 35.272 50.6528 34.3202 50.6528H34.2663C33.2965 50.6528 32.5243 51.4257 32.5243 52.3963V53.8523Z" fill="black"/>
<path d="M10.0756 4.4935C9.59071 4.99679 8.92621 5.26642 8.24375 5.26642C7.54333 5.2844 6.86088 4.99679 6.37597 4.4935C5.87311 4.00818 5.60372 3.34312 5.60372 2.66008C5.58576 1.20412 6.75312 0.0357576 8.20783 0.0177828C9.66254 -0.000192016 10.8299 1.16817 10.8479 2.62413C10.8479 3.32514 10.5605 4.00818 10.0756 4.4935ZM6.57353 29.8559C6.1425 29.4066 5.89107 28.8134 5.90903 28.1843V9.85C5.89107 9.23885 6.1425 8.64568 6.57353 8.21428C7.02251 7.78289 7.61517 7.53124 8.24375 7.54921C8.85437 7.54921 9.44703 7.78289 9.87805 8.21428C10.327 8.64568 10.5605 9.23885 10.5426 9.85V28.2023C10.5605 28.8314 10.3091 29.4246 9.87805 29.8739C9.44703 30.3053 8.85437 30.557 8.24375 30.539C7.61517 30.539 7.00455 30.3053 6.57353 29.8559Z" fill="black"/>
<path d="M35.8289 31.1144C36.26 31.5458 36.5114 32.1389 36.4934 32.7501C36.5114 34.0083 35.5057 35.0688 34.2485 35.0868C34.2126 35.0868 34.1946 35.0868 34.1587 35.0868C33.5481 35.0868 32.9554 34.8531 32.5244 34.4217L30.1178 31.6536C28.717 32.3187 27.1725 32.6782 25.628 32.6782C19.8092 32.6602 15.0858 27.9328 15.0679 22.109V10.5692C15.0858 4.74535 19.8092 0.0179748 25.628 0C31.4468 0.0179748 36.1702 4.74535 36.1881 10.5692V22.109C36.2061 24.5536 35.362 26.9083 33.7995 28.7776L35.8289 31.1144ZM25.628 28.0227C28.8966 28.0047 31.5366 25.3624 31.5366 22.109V10.5692C31.5366 7.29777 28.8966 4.65548 25.628 4.65548C22.3594 4.65548 19.7194 7.29777 19.7194 10.5692V22.109C19.7194 25.3804 22.3594 28.0227 25.628 28.0227Z" fill="black"/>
<path d="M29.2199 43.6064C22.575 43.6064 16.828 41.3955 14.5292 40.3709C13.7569 40.0294 12.9308 39.8497 12.1046 39.8677H1.36492C0.610621 39.8677 0 39.2565 0 38.5016C0 37.7466 0.610621 37.1355 1.36492 37.1355H12.1046C13.3259 37.1355 14.5292 37.3871 15.6426 37.8725C29.5971 44.0738 38.936 39.0408 41.4683 37.3512C42.0968 36.9378 42.9409 37.0995 43.354 37.7287C43.7671 38.3578 43.6054 39.2026 42.9768 39.616C38.505 42.6178 33.6739 43.6064 29.2199 43.6064Z" fill="black"/>
<path d="M76.7406 19.1077V19.2874C76.7406 19.3773 76.7047 19.4132 76.597 19.4132H74.352L74.37 26.1897C74.37 26.2976 74.3341 26.3156 74.2443 26.3335H74.0287C73.921 26.3335 73.8851 26.2976 73.8851 26.2077L73.8671 19.4312H71.6222C71.5144 19.4312 71.4785 19.3953 71.4785 19.3054V19.1256C71.4785 19.0178 71.5144 18.9998 71.6042 18.9818L76.579 18.9639C76.7047 18.9818 76.7406 18.9998 76.7406 19.1077Z" fill="black"/>
<path d="M83.7446 19.0897V19.2694C83.7446 19.3593 83.7087 19.3953 83.601 19.3953L79.7217 19.4132V22.3791H83.152C83.2418 22.3791 83.2777 22.415 83.2777 22.5049V22.6847C83.2777 22.7925 83.2418 22.8284 83.152 22.8284H79.7217V25.8842L83.7446 25.8662C83.8344 25.8662 83.8703 25.9021 83.8883 25.992V26.1718C83.8883 26.2796 83.8524 26.3156 83.7626 26.3156L79.3985 26.3335C79.2907 26.3335 79.2548 26.2976 79.2548 26.2077L79.2368 19.1256C79.2368 19.0178 79.2727 18.9818 79.3625 18.9818L83.583 18.9639C83.7087 18.9639 83.7446 18.9998 83.7446 19.0897Z" fill="black"/>
<path d="M91.8984 26.297H91.6291C91.4674 26.297 91.4495 26.279 91.3776 26.1892L88.9711 22.9357L86.6004 26.1892C86.5286 26.297 86.4927 26.297 86.349 26.297H86.0976C85.9898 26.297 85.9898 26.2251 86.0437 26.1352L88.7017 22.5582L86.1155 19.0711C86.0796 19.0172 86.0976 18.9453 86.1874 18.9453H86.4568C86.6004 18.9453 86.6363 18.9633 86.6902 19.0532L89.007 22.1808L91.3058 19.0532C91.3597 18.9633 91.3956 18.9453 91.5393 18.9453H91.8087C91.8984 18.9453 91.9164 18.9992 91.8625 19.0711L89.2943 22.5582L91.9523 26.1352C92.0062 26.2251 92.0062 26.297 91.8984 26.297Z" fill="black"/>
<path d="M99.8359 19.053L99.8539 26.135C99.8539 26.2429 99.8179 26.2789 99.7102 26.2789H99.4947C99.4049 26.2789 99.369 26.2429 99.369 26.135V22.7738L94.9869 22.7917V26.153C94.9869 26.2609 94.9509 26.2968 94.8611 26.2968H94.6636C94.5558 26.2968 94.5199 26.2609 94.5199 26.153L94.502 19.071C94.502 18.9631 94.5379 18.9272 94.6277 18.9272H94.8432C94.933 18.9272 94.9689 18.9631 94.9689 19.071V22.3424L99.351 22.3244V19.053C99.351 18.9451 99.3869 18.9272 99.4767 18.9092H99.6922C99.8 18.9272 99.8359 18.9631 99.8359 19.053Z" fill="black"/>
<path d="M105.655 19.215C104.146 19.215 103.338 20.0059 103.338 21.336V23.8705C103.338 25.2006 104.146 25.9735 105.655 25.9735C107.146 25.9735 107.954 25.1826 107.954 23.8525V21.318C107.954 19.9879 107.146 19.215 105.655 19.215ZM105.655 18.7656C107.451 18.7656 108.439 19.7363 108.439 21.318V23.8525C108.439 25.4343 107.469 26.4049 105.673 26.4229C103.859 26.4229 102.871 25.4523 102.871 23.8705V21.336C102.853 19.7542 103.823 18.7656 105.655 18.7656Z" fill="black"/>
<path d="M116.431 19.0176L116.449 26.0997C116.449 26.2076 116.413 26.2255 116.323 26.2255H116.108C116 26.2255 115.964 26.1896 115.964 26.0997L115.946 19.3232H112.588V21.4083C112.606 25.5425 111.869 25.884 110.935 26.3513C110.846 26.3873 110.792 26.3873 110.756 26.2974L110.648 26.0997C110.612 26.0458 110.63 25.9739 110.666 25.9379C110.684 25.9379 110.684 25.92 110.702 25.92C111.51 25.5065 112.103 25.201 112.103 21.4083V18.9997C112.103 18.8918 112.139 18.8559 112.228 18.8559L116.287 18.8379C116.395 18.8918 116.431 18.9098 116.431 19.0176Z" fill="black"/>
<path d="M122.231 19.1789C120.723 19.1789 119.915 19.9698 119.915 21.2999V23.8343C119.915 25.1645 120.723 25.9374 122.231 25.9374C123.722 25.9374 124.53 25.1465 124.53 23.8164V21.2819C124.53 19.9518 123.722 19.1609 122.231 19.1789ZM122.231 18.7295C124.027 18.7295 125.015 19.7001 125.015 21.2819V23.8164C125.015 25.3981 124.045 26.3688 122.249 26.3868C120.436 26.3868 119.448 25.4161 119.448 23.8343V21.2999C119.448 19.7001 120.418 18.7295 122.231 18.7295Z" fill="black"/>
<path d="M132.253 18.9813V19.161C132.253 19.2509 132.217 19.2869 132.127 19.2869H128.5L128.518 26.0634C128.518 26.1712 128.482 26.1892 128.392 26.2072H128.176C128.069 26.2072 128.033 26.1712 128.033 26.0813L128.015 18.9993C128.015 18.8914 128.051 18.8555 128.14 18.8555H132.109C132.217 18.8555 132.253 18.8734 132.253 18.9813Z" fill="black"/>
<path d="M140.263 18.9635L140.281 26.0456C140.281 26.1534 140.245 26.1894 140.137 26.1894H139.922C139.814 26.1894 139.778 26.1534 139.778 26.0456L139.76 21.462C139.76 20.7071 139.796 20.1678 139.832 19.4668H139.814C139.437 20.0959 139.113 20.5813 138.682 21.2284L135.306 26.0995C135.27 26.1535 135.216 26.1894 135.144 26.1894H134.929C134.821 26.1894 134.803 26.1534 134.803 26.0636L134.785 18.9815C134.785 18.8737 134.821 18.8377 134.911 18.8377H135.126C135.216 18.8377 135.252 18.8737 135.252 18.9635L135.27 23.4033C135.27 24.1942 135.27 24.7874 135.198 25.5243H135.216C135.611 24.8593 135.988 24.302 136.437 23.619L139.724 18.8737C139.76 18.8197 139.814 18.8018 139.868 18.8018H140.083C140.227 18.8377 140.263 18.8557 140.263 18.9635Z" fill="black"/>
<path d="M148.524 18.9635L148.542 26.0456C148.542 26.1534 148.506 26.1894 148.398 26.1894H148.183C148.075 26.1894 148.039 26.1534 148.039 26.0456L148.021 21.462C148.021 20.7071 148.057 20.1678 148.093 19.4668H148.075C147.698 20.0959 147.375 20.5813 146.944 21.2284L143.567 26.0995C143.531 26.1535 143.477 26.1894 143.406 26.1894H143.19C143.082 26.1894 143.064 26.1534 143.064 26.0636L143.046 18.9815C143.046 18.8737 143.082 18.8377 143.172 18.8377H143.388C143.477 18.8377 143.513 18.8737 143.513 18.9635L143.531 23.4033C143.531 24.1942 143.531 24.7874 143.459 25.5243H143.477C143.873 24.8593 144.25 24.302 144.699 23.619L147.985 18.8737C148.021 18.8197 148.075 18.8018 148.129 18.8018H148.344C148.488 18.8377 148.524 18.8557 148.524 18.9635Z" fill="black"/>
<path d="M74.8184 32.8398C76.4168 32.8398 77.1891 33.451 77.5483 34.6373C77.5842 34.7452 77.5483 34.7811 77.4585 34.8171L77.2789 34.871C77.1711 34.889 77.1352 34.889 77.0993 34.7811C76.794 33.7565 76.1833 33.2712 74.8364 33.2712C73.3098 33.2712 72.5376 34.0621 72.5376 35.3743V37.9267C72.5376 39.2209 73.3458 40.0298 74.8543 40.0298C76.2372 40.0298 76.8299 39.4905 77.1352 38.4659C77.1711 38.3761 77.225 38.3581 77.3148 38.3761L77.5123 38.448C77.6021 38.4839 77.6201 38.5199 77.6021 38.6097C77.2609 39.7961 76.5066 40.4611 74.8723 40.4611C73.0764 40.4611 72.0886 39.4905 72.0886 37.9087V35.3743C72.0347 33.8285 72.9866 32.8398 74.8184 32.8398Z" fill="black"/>
<path d="M85.6665 33.092L85.6844 40.1741C85.6844 40.282 85.6485 40.3179 85.5587 40.3179H85.3432C85.2534 40.3179 85.2175 40.2819 85.2175 40.1921V36.8308H80.8354V40.1921C80.8354 40.2999 80.7995 40.3179 80.7097 40.3359H80.4941C80.3864 40.3359 80.3684 40.2999 80.3505 40.2101L80.3325 33.128C80.3325 33.0201 80.3684 33.0022 80.4762 32.9842H80.6917C80.7815 32.9842 80.8174 33.0201 80.8174 33.11V36.3814L85.1995 36.3635V33.092C85.1995 32.9842 85.2354 32.9482 85.3252 32.9482H85.5408C85.6485 32.9662 85.6665 33.0022 85.6665 33.092Z" fill="black"/>
<path d="M91.3239 33.3794H91.288C91.288 33.5232 91.252 33.685 91.1982 33.8288L89.7434 37.5136H92.9043L91.4316 33.8467C91.3777 33.667 91.3418 33.5232 91.3239 33.3794ZM94.377 40.2997H94.1974C94.0357 40.2997 93.9819 40.2817 93.9639 40.1918L93.03 37.909H89.5998L88.7018 40.1918C88.6659 40.2817 88.612 40.2997 88.4683 40.2997H88.2887C88.181 40.2997 88.163 40.2458 88.1989 40.1739L91.0545 33.0199C91.0724 32.948 91.1443 32.8941 91.2341 32.8941H91.4496C91.5394 32.8761 91.6112 32.93 91.6292 33.0199L94.5027 40.1739C94.5206 40.2458 94.5027 40.2997 94.377 40.2997Z" fill="black"/>
<path d="M60.0919 58.4901C59.9303 58.4901 59.7866 58.3463 59.7866 58.1846V1.58194C59.7866 1.42017 59.9303 1.27637 60.0919 1.27637C60.2536 1.27637 60.3972 1.42017 60.3972 1.58194V58.1846C60.3972 58.3643 60.2536 58.4901 60.0919 58.4901Z" fill="black"/>
</svg>
