<svg width="40" height="40" viewBox="0 0 40 40" fill="none" xmlns="http://www.w3.org/2000/svg">
<path d="M28.0863 31.9393L24.3761 28.2291C23.306 27.159 21.5642 27.159 20.4941 28.2291L18.8616 29.8616C15.1357 27.9088 12.0738 24.8547 10.1289 21.1289L11.7614 19.4964C12.8315 18.4263 12.8315 16.6845 11.7614 15.6144L8.05119 11.9041C6.98108 10.834 5.23924 10.834 4.16913 11.9041L1.20096 14.8723C-0.353422 16.4267 -0.400288 19.1605 1.06818 22.5739C2.38823 25.6515 4.80963 29.0414 7.88716 32.1189C10.9647 35.1965 14.3546 37.6179 17.4322 38.9379C19.0881 39.6487 20.58 40.0002 21.861 40.0002C23.2201 40.0002 24.3371 39.6019 25.1338 38.7973L28.102 35.8292C28.6175 35.3136 28.9065 34.6185 28.9065 33.8842C28.8909 33.15 28.6019 32.4548 28.0863 31.9393ZM26.4304 34.1654L23.4622 37.1336C22.6577 37.9381 20.744 37.8053 18.3382 36.7743C15.5263 35.5714 12.4019 33.3218 9.52746 30.4552C6.65302 27.5808 4.41127 24.4564 3.20838 21.6444C2.17733 19.2386 2.04455 17.325 2.84908 16.5204L5.81725 13.5523C5.97347 13.396 6.23123 13.396 6.38745 13.5523L10.0977 17.2625C10.2539 17.4187 10.2539 17.6765 10.0977 17.8327L7.28571 20.6446L7.63721 21.3945C9.9102 26.1826 13.8001 30.0725 18.5882 32.3455L19.338 32.697L22.15 29.885C22.2515 29.7835 22.3765 29.7678 22.4312 29.7678C22.4859 29.7678 22.6108 29.7835 22.7124 29.885L26.4226 33.5952C26.5241 33.6968 26.5398 33.8139 26.5398 33.8764C26.5476 33.9467 26.532 34.0639 26.4304 34.1654Z" fill="black"/>
<path d="M36.3739 3.03066C34.0931 1.07791 31.0781 0 27.8756 0C24.6731 0 21.658 1.07791 19.3772 3.03066C17.0496 5.02246 15.7686 7.69381 15.7686 10.5448C15.7686 13.3958 17.0496 16.0672 19.3772 18.0668C19.7912 18.4261 20.2364 18.7542 20.6973 19.051C19.8381 20.3398 18.8383 21.527 17.7135 22.5815C20.1661 22.3784 22.5016 21.7301 24.6184 20.7147C25.6651 20.9647 26.7586 21.0974 27.8678 21.0974C31.0703 21.0974 34.0853 20.0195 36.3661 18.0668C38.6938 16.0672 39.9748 13.4036 39.9748 10.5448C39.9748 7.686 38.7016 5.02246 36.3739 3.03066ZM27.8756 18.7463C22.4938 18.7463 18.1118 15.0674 18.1118 10.5448C18.1118 6.02226 22.4938 2.34329 27.8756 2.34329C33.2573 2.34329 37.6393 6.02226 37.6393 10.5448C37.6393 15.0674 33.2573 18.7463 27.8756 18.7463Z" fill="black"/>
<path d="M27.8757 12.1068C28.7384 12.1068 29.4379 11.4074 29.4379 10.5446C29.4379 9.68184 28.7384 8.98242 27.8757 8.98242C27.0129 8.98242 26.3135 9.68184 26.3135 10.5446C26.3135 11.4074 27.0129 12.1068 27.8757 12.1068Z" fill="black"/>
<path d="M22.4079 12.1068C23.2707 12.1068 23.9701 11.4074 23.9701 10.5446C23.9701 9.68184 23.2707 8.98242 22.4079 8.98242C21.5451 8.98242 20.8457 9.68184 20.8457 10.5446C20.8457 11.4074 21.5451 12.1068 22.4079 12.1068Z" fill="black"/>
<path d="M33.343 12.1068C34.2057 12.1068 34.9052 11.4074 34.9052 10.5446C34.9052 9.68184 34.2057 8.98242 33.343 8.98242C32.4802 8.98242 31.7808 9.68184 31.7808 10.5446C31.7808 11.4074 32.4802 12.1068 33.343 12.1068Z" fill="black"/>
</svg>
