<?xml version="1.0" encoding="UTF-8"?>
<!DOCTYPE svg PUBLIC "-//W3C//DTD SVG 1.1//EN" "http://www.w3.org/Graphics/SVG/1.1/DTD/svg11.dtd">
<!-- Creator: CorelDRAW 2019 (64-Bit) -->
<svg xmlns="http://www.w3.org/2000/svg" xml:space="preserve" width="780px" height="414px" version="1.1" shape-rendering="geometricPrecision" text-rendering="geometricPrecision" image-rendering="optimizeQuality" fill-rule="evenodd" clip-rule="evenodd"
viewBox="0 0 780 414"
 xmlns:xlink="http://www.w3.org/1999/xlink">
 <g id="Layer_x0020_1">
  <metadata id="CorelCorpID_0Corel-Layer"/>
  <path fill="#beafd0" d="M647.155 84.577l-1.331 2.581 -7.181 4.044 -5.218 -4.959 -5.22 -0.52 -7.443 4.828 -5.088 6.263 -1.829 6.392 -3.392 1.044 -4.179 -2.088 -4.044 0.392 -2.089 2.74 -1.828 -1.566 -1.697 1.828 -2.086 -1.958 2.999 -3.001 -7.047 -0.522 -4.046 3.523 2.219 7.568 -4.047 3.913 0 -5.87 -2.741 0 -2.741 2.479 -0.652 -3.002 4.047 -3.654 -4.309 0.262 -12.79 6.523 2.479 3.001 -3.654 3.524 1.436 2.608 2.611 -1.305 0.261 3.785 3.132 3.654 -4.831 1.173 -1.434 1.959 1.305 3.129 -3.914 0.654 -5.222 -1.566 -1.566 5.87 -8.877 -1.565 0 13.047 -6.264 -1.042 -9.66 -8.743 3.525 -2.479 -5.872 -8.742 -3.787 -1.826 -5.742 1.956 -6.395 -2.478 -0.915 9.916 -11.615 4.958 -4.438 -3.002 0.652 -2.347 -11.876 -0.131 -3.134 4.175 -0.784 2.741 -0.781 -4.045 -2.221 -1.958 -2.609 2.74 -3.619 1.809 -0.201 2.486 1.692 2.253 0.032 0.046 0.012 0.055 0.767 4.019 5.594 7.908 0.045 0.065 0 5.224 2.854 3.423 0.16 0.19 -0.194 0.156 -6.519 5.173 -0.376 3.003 -0.009 0.058 -0.031 0.048 -1.527 2.29 -1.151 5.575 -0.047 0.219 -0.22 -0.027 -3.195 -0.376 -5.16 4.201 -0.019 0.016 -0.023 0.012 -1.733 0.894 4.092 6.253 0.034 0.053 0.006 0.061 1.389 17.479 0.009 0.101 -0.07 0.08 -3.598 3.976 2.373 1.826 0.121 0.092 -0.031 0.149 -0.969 4.645 2.104 2.294 0.061 0.068 0 3.342 2.481 1.716 0.154 0.109 -0.065 0.178 -1.194 3.174 -0.013 0.042 -0.026 0.031 -3.729 4.512 -0.359 3.231 6.168 0 0.069 0.054 2.642 2.074 2.833 -1.887 0.186 -0.123 0.141 0.174 1.589 1.984 0.126 0.163 -0.01 0.012 2.081 3.151 0.134 0.206 -0.208 0.135 -2.359 1.499 0 2.79 2.612 0.202 2.177 -1.524 0.228 -0.157 0.126 0.244 2.698 5.172 0.031 0.055 -0.003 0.066 -0.22 6.144 3.469 1.952 0.16 0.089 -0.042 0.18 -1.556 6.437 1.947 4.32 4.393 1.317 0.257 0.079 -0.106 0.25 -3.356 7.832 -0.666 9.744 3.375 3.586 3.652 -2.791 0.058 -0.045 0.08 -0.003 5.484 -0.218 1.957 -3.482 0.157 -0.278 0.228 0.225 2.963 2.961 3.856 -4.494 6.057 -13.009 0.053 -0.115 0.126 -0.022 4.05 -0.675 0.068 -0.011 0.062 0.026 7.871 3.147 0.105 0.042 0.036 0.107 1.713 5.14 4.703 -2.14 0.124 -0.055 0.116 0.077 2.923 2.025 0.055 0.038 0.029 0.064 5.297 12.006 6.882 12.753 4.332 -2.832 0.019 -0.014 0.022 -0.008 4.5 -1.8 0.131 -0.053 0.113 0.089 3.436 2.793 1.868 -1.661 0.166 -0.145 0.162 0.147 2.753 2.541 2.534 -2.532 0.073 -0.076 0.106 0.003 6.296 0.227 0.081 0.003 0.063 0.048 3.94 3.063 7.744 -2.875 0.134 -0.047 0.106 0.089 2.581 2.151 10.657 -4.883 0.073 -0.036 0.078 0.017 3.078 0.66 3.346 -1.252 -0.416 -2.501 -0.031 -0.174 0.157 -0.082 8.245 -4.286 -2.062 -5.812 -0.049 -0.137 0.1 -0.108 2.77 -2.966 -1.147 -2.865 -5.273 -3.447 -0.183 -0.12 0.102 -0.194 2.774 -5.353 -5.162 -3.571 -0.222 -0.155 0.177 -0.203 2.405 -2.806 0 -11.979 0.157 -0.061 10.121 -3.845 0.396 -4.57 0.02 -0.207 0.207 -0.015 6.001 -0.398 1.365 -3.706 -0.202 -3.848 -0.009 -0.163 0.151 -0.07 2.891 -1.348 -2.18 -7.722 -4.031 -2.825 -0.143 -0.098 0.047 -0.166 2.645 -9.365 -3.664 -9.777 -0.048 -0.127 0.081 -0.105 2.053 -2.668 0.107 -0.139 0.163 0.057 7.124 2.44 4.546 -0.988 1.591 -2.78 0.059 -0.102 0.118 -0.017 5.386 -0.798 0.961 -3.454 -8.964 -18.59 -0.034 -0.074 0.014 -0.078 0.909 -4.545 0.02 -0.094 0.078 -0.057 6.01 -4.24 -2.266 -4.356 -0.085 -0.163 0.135 -0.126 5.819 -5.454 0.06 -0.057 0.081 -0.008 5.181 -0.536 2.974 -3.323 0.527 -5.798 -3.363 -3.008 -0.076 -0.069 -0.006 -0.101 -0.178 -3.748 -2.147 -3.218 -0.112 -0.172 0.152 -0.141 2.558 -2.387 -2.76 -3.279 -0.152 -0.177 0.171 -0.157 6.728 -6.18 0.031 -0.03 0.042 -0.015 3.026 -1.245 2.244 -3.28 -4.239 -8.824 -5.352 0 -0.049 -0.02 -4.181 -1.817 -0.092 -0.042 -0.036 -0.095 -2.183 -5.635 -0.054 -0.135 0.096 -0.109 8.486 -9.93 0 -4.879 -11.103 -8.327 0 0zm-628.801 167.839l2.806 -3.272 -6.313 -8.298 3.741 -10.634 -2.689 -2.22 -2.338 1.636 -9.236 -6.311 -1.168 1.869 0.35 7.48 -3.507 3.739 0.935 5.143 6.08 -0.351 6.78 8.532 4.559 2.687zm219.447 -33.099l-0.066 -0.008 -0.053 -0.043 -7.429 -6.093 -2.664 1.47 -0.068 0.038 -0.076 -0.009 -7.318 -0.831 0.008 -0.05 -4.882 -2.534 -0.04 -0.02 -0.03 -0.035 -4.489 -5.06 -5.826 -0.555 -1.722 4.256 4.115 5.438 0.043 0.058 0.004 0.074 0.244 3.885 0.01 0.17 -0.159 0.066 -6.772 2.851 0 2.28 1.859 1.625 0.169 0.146 -2.127 2.844 -0.005 -0.019 -1.85 2.077 -2.497 6.429 -0.017 0.045 -0.031 0.033 -2.101 2.248 -1.353 3.536 -0.017 0.042 -0.03 0.036 -2.285 2.509 -0.078 0.088 -0.119 -0.006 -1.953 -0.134 -0.069 4.817 2.186 -0.067 0.25 -0.009 0 3.826 4.792 0.217 0.215 0.011 0.017 0.213 0.215 2.717 2.036 0.492 0.148 0.036 0.032 0.147 0.304 1.372 0.005 0.015 0.296 1.92 0.704 0.962 1.823 -0.474 4.034 -4.77 0.061 -0.076 0.099 -0.009 4.568 -0.479 2.897 -4.588 0.174 -0.272 0.213 0.239 2.082 2.313 1.839 -1.19 0.719 -3.232 0.041 -0.182 0.184 -0.008 5.072 -0.241 1.366 -1.707 0.363 -3.507 0.008 -0.076 0.05 -0.057 2.235 -2.587 -1.65 -3.183 -0.03 -0.06 0.003 -0.064 0.123 -2.589 0.008 -0.149 0.134 -0.061 5.39 -2.448 6.244 -6.123 4.169 -5.514 0.78 -1.787 -4.525 -0.635zm542.199 18.932l-1.045 -13.048 -1.435 -6.002 -4.308 -4.306 0.391 -6.393 2.217 -1.827 -7.438 -8.612 0.132 -6.001 3.132 -3.392 -0.784 -3.392 -6.266 -1.827 -6.395 -11.352 1.568 -1.044 1.957 2.74 3.131 -1.957 -4.828 -4.566 -2.611 1.435 -4.168 -2.705 -0.07 0.079 -2.156 -5.073 -4.308 0 -0.522 3.001 -2.742 -0.261 -8.875 -17.744 0.523 -5.611 3.524 -0.782 -2.611 -10.438 5.614 4.436 0.129 -12.526 4.438 -4.567 6.655 -0.13 -3.783 -9.264 -1.808 -19.956 -4.309 1.305 -0.095 0.03 -0.087 -0.048 -3.207 -1.686 -5.544 15.914 -0.059 0.167 -0.176 -0.006 -7.052 -0.18 -6.51 1.988 -0.219 0.068 -0.079 -0.217 -2.12 -5.829 -8.779 0.527 -1.572 2.793 -0.053 0.093 -0.105 0.025 -6.051 1.423 -1.048 3.144 -0.048 0.148 -0.157 0.016 -3.292 0.346 -1.043 3.66 -0.037 0.125 -0.123 0.039 -3.8 1.208 0.681 3.738 5.456 7.928 3.388 0.712 0.129 0.027 0.048 0.124 2.316 6.057 3.849 -0.351 0.105 -0.01 0.078 0.074 2.568 2.381 0.058 0.054 0.015 0.08 0.713 3.734 3.539 1.998 2.452 -2.286 -6.656 -7.959 1.564 -5.22 6.398 -2.217 -3.396 5.089 0.784 3.915 5.091 3.522 2.348 0.13 -0.13 3.653 2.219 0.523 -2.089 10.438 2.351 3.913 0.783 12.135 1.829 7.828 2.479 7.829 -2.873 3.132 0.913 3.001 -1.564 2.088 4.044 4.696 0.654 7.436 5.552 6.27 0 -0.001 6.586 7.432 36.025 24.139zm-305.864 5.992l-0.146 0.098 -0.14 -0.11 -2.713 -2.131 -6.545 0 0.03 -0.272 0.396 -3.574 0.008 -0.073 0.045 -0.056 3.753 -4.536 1.108 -2.962 -2.425 -1.679 -0.104 -0.073 0 -3.411 -2.124 -2.313 -0.084 -0.092 0.025 -0.122 0.963 -4.616 -2.463 -1.893 -0.208 -0.16 0.178 -0.196 3.704 -4.092 -1.379 -17.313 -4.332 -6.662 2.169 -1.119 5.219 -4.25 0.081 -0.065 0.099 0.011 3.08 0.363 1.118 -5.407 0.009 -0.047 0.025 -0.038 1.522 -2.279 0.379 -3.045 0.013 -0.097 0.076 -0.063 6.404 -5.082 -2.752 -3.3 -0.057 -0.068 0 -5.247 -5.579 -7.888 -0.031 -0.041 -0.011 -0.053 -0.765 -4.017 -1.713 -2.281 -0.057 -0.074 0.009 -0.09 0.182 -2.284 -3.442 1.72 -3.915 3.001 -5.352 1.566 -2.087 3.653 0.129 -5.219 10.834 -11.22 6.005 -10.83 2.74 -9.655 -8.354 -9.526 -7.829 -0.26 -2.741 3.914 -3.134 0.523 2.35 -6.655 -6.396 -0.783 2.088 -3.001 -3.915 -3.261 -3.524 1.305 -5.613 8.349 1.306 4.958 -6.004 0.392 0.13 1.565 2.218 3.263 -4.305 -0.914 -2.22 2.087 -4.96 -0.912 -0.651 -2.218 -7.049 0.13 0.131 4.045 -8.486 1.174 -5.742 4.565 -4.437 0.132 -3.264 2.871 -1.435 5.871 2.74 4.959 -4.176 1.043 -11.095 -1.827 -6.395 -0.13 -1.958 3.523 -0.261 9.133 4.046 3.915 1.959 4.566 -5.613 0 -4.83 -9.003 -3.541 0.208 0.042 0.455 3.086 6.556 0.135 0.291 -0.315 0.052 -3.322 0.552 -0.733 4.022 3.07 6.524 0.038 0.079 -0.021 0.084 -0.775 3.103 -0.03 0.114 -0.108 0.048 -7.263 3.248 -0.914 3.651 4.728 6.239 5.349 1.336 0.152 0.038 0.028 0.157 1.171 6.69 -0.341 0.866 0 -0.006 -1.891 4.794 -0.045 0.116 -0.12 0.032 -4.895 1.318 1.48 3.517 0.036 0.084 -0.028 0.085 -1.551 4.647 3.897 5.06 0.059 0.077 -0.01 0.097 -0.984 9.241 3.123 4.295 0.061 0.083 -0.017 0.102 -1.167 6.605 4.651 3.488 0.076 0.055 0.016 0.099 0.794 4.763 0.019 0.102 -0.06 0.084 -4.133 5.701 -0.391 5.096 -0.007 0.073 -0.044 0.059 -6.378 8.102 0 6.306 5.207 2.992 0.182 0.104 -0.076 0.194 -0.932 2.397 -0.038 0.095 -0.094 0.042 -4.665 2 -0.03 0.011 -0.034 0.005 -3.983 0.496 1.724 6.084 0.034 0.119 -0.079 0.098 -1.697 2.119 0 3.209 12.485 1.938 0.127 0.019 0.055 0.115 3.662 7.536 3.371 0.42 0.232 0.028 -0.019 0.23 -0.219 2.844 -0.008 0.102 -0.075 0.064 -4.936 4.292 0.413 3.507 2.744 2.742 4.101 1.295 0.22 0.069 -0.06 0.226 -0.657 2.404 -0.022 0.082 -0.064 0.049 -4.507 3.433 -0.213 4.48 -0.006 0.151 -0.025 0.009 -0.612 2.857 3.9 7.579 0.081 0.156 -0.125 0.127 -1.971 1.967 -0.027 0.032 -0.039 0.016 -1.664 0.783 1.951 5.755 3.755 0 3.703 -0.435 0.085 -0.011 0.073 0.048 2.406 1.529 0.181 0.115 -0.091 0.192 -1.256 2.722 2.772 4.262 0.028 0.042 0.009 0.048 0.654 3.706 1.305 3.916 0.01 0.031 0.001 0.029 0.22 2.842 0.013 0.159 -0.141 0.076 -3.154 1.677 0 2.533 -0.021 0.047 -1.094 2.407 -0.041 0.092 -0.096 0.037 -3.408 1.277 -1.839 3.882 5.485 3.86 9.032 1.18 3.917 -3.265 0.045 -0.037 0.055 -0.014 2.09 -0.491 0.122 -2.083 0.007 -0.124 0.105 -0.067 3.204 -2.049 -0.25 -2.249 -0.023 -0.207 0.203 -0.054 2.394 -0.629 0.764 -3.189 0.041 -0.171 0.174 -0.018 11.949 -1.049 0.598 -2.751 -6.672 -5.974 -0.081 -0.076 0 -2.841 0.14 -0.067 2.98 -1.39 0.062 -0.028 0.064 0.006 3.725 0.374 0.777 -11.668 0.004 -0.048 0.023 -0.049 2.385 -4.566 0.058 -0.114 0.123 -0.015 4.007 -0.573 0.735 -3.313 -4.118 -6.468 -0.076 -0.121 0.067 -0.127 3.776 -6.95 0.066 -0.121 0.138 -0.006 9.222 -0.392 2.515 -3.284 0.245 -0.321 0.168 0.365 3.478 7.532 2.003 -0.833 -0.381 -4.392 -0.009 -0.106 0.074 -0.078 8.888 -9.677 0.579 -3.857 -0.026 -0.124 4.764 -2.19 0.1 0.221 2.154 4.694 4.033 2.384 0.91 -3.269 0.017 -0.063 0.042 -0.045 2.28 -2.276 -0.904 -2.713 -2.062 -0.562 -0.193 -0.053 0.014 -0.199 0.199 -2.583 0.009 -0.085 0.058 -0.063 3.093 -3.282 -0.542 -2.522 -4.235 -1.347 -0.124 -0.039 -0.037 -0.121 -1.193 -3.972 -0.034 -0.116 0.073 -0.098 2.09 -2.849 -1.904 -3.24 -0.121 -0.205 0.202 -0.126 5.108 -3.142 2.915 -5.633 -0.385 -4.445 -1.957 -3.128 -0.067 -0.109 0.054 -0.118 1.946 -4.278 -0.958 -2.488 -0.014 -0.036 -0.003 -0.039 -0.199 -3.969 -0.006 -0.167 0.152 -0.067 3.574 -1.588 0.026 -0.011 0.025 -0.006 3.696 -0.778 1.598 -1.774 -1.321 -1.65 -2.797 1.861zm50.815 133.624l-1.197 3.076 8.211 5.131 14.203 -6.841 -0.003 0 0.003 0 -3.769 -3.453 -0.34 -0.308 0.449 -0.107 2.46 -0.579 0.514 -2.737 -4.105 -2.566 -3.421 0.684 -1.749 4.13 -0.135 0.318 -0.253 -0.233 -1.8 -1.647 -1.994 4.154 -0.06 0.121 -0.131 0.016 -6.883 0.841 0 0zm-1.649 2.901l1.197 -3.079 0.053 -0.134 0.053 -0.138 0.146 -0.018 0.144 -0.016 6.751 -0.825 1.938 -4.034 0.14 -0.295 0.141 -0.295 0.241 0.222 0.241 0.221 1.548 1.415 1.611 -3.813 0.05 -0.119 0.051 -0.118 0.127 -0.026 0.127 -0.025 0 0 3.42 -0.686 0 0.003 0.093 -0.019 0.095 -0.02 0.081 0.052 0.081 0.052 0 -0.003 4.107 2.566 0.143 0.09 0.141 0.087 -0.031 0.163 -0.031 0.163 0 0 -0.514 2.737 -0.028 0.155 -0.031 0.157 -0.155 0.036 -0.151 0.037 -2.017 0.471 3.43 3.144 0.003 0 0.26 0.241 0.264 0.243 -0.322 0.154 -0.32 0.157 -14.203 6.839 0 0 -0.121 0.059 -0.12 0.059 -0.112 -0.07 -0.112 -0.07 -8.212 -5.132 -0.171 -0.108 -0.171 -0.106 0.072 -0.189 0.073 -0.185 0 0zm-29.502 15.264l2.185 0.093 2.22 4.177 17.096 1.564 11.486 -6.915 3.657 -0.13 1.174 -3.783 5.61 -5.219 7.833 -0.393 2.348 2.218 3.263 -3.001 13.836 2.22 1.958 -5.35 4.699 -3.263 -1.958 -4.826 2.089 -13.048 3.525 -3.523 -2.351 -6.264 -4.96 -0.522 3.526 -6.523 6.216 -4.313 -5.625 -8.435 -0.092 -0.138 0.095 -0.135 1.899 -2.689 -3.361 -1.92 -0.11 -0.066 -0.012 -0.128 -0.491 -6.556 -3.317 0.789 -0.176 0.042 -0.091 -0.16 -2.103 -3.725 -4.411 2.45 -0.161 0.088 -0.128 -0.13 -2.736 -2.734 -0.146 -0.145 0.118 -0.169 1.567 -2.19 -5.437 -3.625 -0.051 -0.031 -0.028 -0.056 -6.945 -12.866 -5.589 0.166 -2.058 1.583 0.328 5.913 4.008 2.841 0.107 0.075 -0.003 0.129 -0.172 5.133 -0.004 0.121 -0.099 0.069 -3.934 2.738 -0.083 0.053 -0.091 -0.014 -6.527 -1.002 -1.843 2.611 1.896 1.735 0.045 0.042 0.02 0.062 3.207 9.609 3.791 0.659 0.068 0.012 0.053 0.048 3.594 3.248 0.071 0.067 0.008 0.096 0.343 4.789 0.011 0.185 -0.174 0.061 -5.719 2.017 -2.18 5.034 -0.026 0.058 -0.048 0.04 -6.406 4.884 0 3.344 2.972 1.978 0.118 0.08 -0.012 0.143 -0.343 3.937 -0.005 0.072 -0.047 0.058 -2.91 3.591 -0.037 0.048 -0.059 0.023 -3.69 1.509 -1.328 2.157 -0.064 0.106 -0.124 0.009 -4.339 0.334 -6.777 8.977 -0.087 0.113 -0.141 -0.02 -3.658 -0.497 -4.022 3.349 -0.07 0.06 -6.42 0 1.262 3.784 0.053 0.159 -0.129 0.105 -3.396 2.745 3.592 3.916 0.21 0.23 -0.277 0.15 -3.499 1.83 -1.077 3.978 0 0zm-38.799 -33.691l0.382 2.01 2.831 0.236 0.067 0.005 0.068 0.006 0.056 0.042 0.054 0.039 0 0 2.927 2.128 2.372 1.497 4.099 -0.385 0.09 -0.007 0.091 -0.009 0.072 0.053 0.073 0.05 3.222 2.266 5.366 -6.831 -1.272 -2.013 -2.713 0 -2.047 0.767 -0.142 0.051 -0.136 0.053 -0.11 -0.101 -0.11 -0.098 -1.597 -1.466 -0.003 0 -0.019 -0.019 -0.02 -0.017 -0.014 -0.022 -0.014 -0.02 -1.738 -2.434 -5.216 3.102 -0.225 0.134 -0.224 0.133 -0.115 -0.233 -0.119 -0.233 -2.069 -4.138 -2.37 0.887 0.944 3.302 0.068 0.227 0.064 0.228 -0.228 0.07 -0.224 0.072 -2.121 0.668 0 0zm-0.062 2.282l-0.458 -2.403 -0.039 -0.213 0.205 -0.065 2.328 -0.734 -1.005 -3.516 -0.062 -0.212 0.211 -0.08 2.782 -1.045 0.205 -0.077 0.099 0.196 2.168 4.335 5.406 -3.217 0.191 -0.112 0.129 0.18 1.868 2.612 0.002 0.003 0 0 1.602 1.465 2.088 -0.782 0.045 -0.017 3.061 0 0.074 0.114 1.434 2.275 0.093 0.143 -0.107 0.134 -5.616 7.144 -0.14 0.183 -0.188 -0.132 -3.413 -2.4 -4.182 0.394 -0.081 0.008 -0.07 -0.045 -2.452 -1.547 -0.014 -0.008 -2.928 -2.131 -3.017 -0.253 -0.183 -0.014 -0.036 -0.183 0 0zm23.604 -120.187l-1.578 1.752 -0.054 0.059 -0.078 0.016 -3.751 0.788 -3.399 1.512 0.188 3.77 0.98 2.544 0.036 0.095 -0.043 0.092 -1.93 4.251 1.918 3.068 0.031 0.051 0.005 0.056 0.396 4.567 0.006 0.07 -0.032 0.063 -2.981 5.76 -0.032 0.061 -0.055 0.034 -4.963 3.055 1.864 3.17 0.082 0.138 -0.096 0.128 -2.112 2.883 1.121 3.735 4.246 1.349 0.135 0.042 0.031 0.138 0.596 2.782 0.027 0.124 -0.087 0.093 -3.12 3.312 -0.176 2.299 1.991 0.542 0.124 0.033 0.042 0.124 0.994 2.982 0.048 0.14 -0.108 0.107 -2.339 2.339 -0.977 3.51 -0.084 0.307 -0.273 -0.16 -4.37 -2.583 -0.064 -0.039 -0.034 -0.071 -2.083 -4.544 -4.031 1.83 -0.578 3.84 -0.008 0.077 -0.051 0.052 -8.868 9.656 0.388 4.46 0.015 0.176 -0.166 0.069 -2.383 0.993 -0.215 0.09 -0.098 -0.211 -3.409 -7.379 -2.337 3.053 -0.07 0.092 -0.114 0.003 -9.2 0.394 -3.642 6.704 4.097 6.434 0.055 0.084 -0.023 0.098 -0.795 3.574 -0.036 0.166 -0.166 0.022 -4.05 0.578 -2.303 4.411 -0.79 11.869 -0.017 0.25 -0.25 -0.025 -3.907 -0.391 -2.78 1.295 0 2.322 6.689 5.987 10.046 7.004 4.047 -0.264 0.207 -0.01 0.045 0.202 0.158 0.679 2.594 0.062 4.601 -3.285 0.195 -0.14 0.142 0.194 2.913 3.972 8.834 6.987 4.436 0 0.072 0.093 3.333 4.265 0.042 0.054 0.006 0.069 0.381 3.284 4.624 0.899 0.151 0.031 0.037 0.149 0.604 2.411 4.029 -1.343 0.805 -2.763 -4.36 0 -0.067 -0.141 -0.933 -1.999 -0.093 -0.196 0.189 -0.113 2 -1.201 0.042 -0.026 0.048 -0.006 2.742 -0.392 5.511 -3.804 1.971 -3.024 0.017 -0.026 0.025 -0.021 4.084 -3.687 0.912 -2.737 0.009 -0.025 0.014 -0.02 2.397 -4.132 0.006 -0.009 2.918 -4.505 2.52 -6.901 0 0 1.884 -5.539 -1.971 -4.632 -0.023 -0.058 0.006 -0.063 0.514 -4.96 0.006 -0.073 0.049 -0.059 2.581 -3.063 -3.066 -2.58 -0.067 -0.058 -0.015 -0.084 -0.514 -2.91 -0.045 -0.253 0.256 -0.03 5.303 -0.663 0.648 -3.079 0.056 -0.272 0.262 0.092 2.83 0.999 4.948 -1.647 1.326 -3.15 0.104 -0.245 0.233 0.127 2.514 1.336 2.629 0 0.072 0.102 1.783 2.431 10.485 -2.828 1.158 -4.48 0.056 -0.213 0.216 0.033 2.096 0.321 2.648 -2.979 0.369 -0.413 0.055 0.551 0.323 3.234 6.39 0.982 3.757 -2.613 0.162 -4.877 -3.999 -2.833 -0.098 -0.067 -0.004 -0.117 -0.343 -6.157 -0.007 -0.126 0.102 -0.078 2.223 -1.71 0.064 -0.049 0.077 -0.002 5.457 -0.159 -5.128 -11.624 -2.752 -1.906 -4.825 2.192 -0.244 0.113 -0.084 -0.259 -1.764 -5.285 -7.707 -3.08 -3.853 0.64 -6.018 12.925 -0.013 0.028 -0.023 0.025 -4.046 4.722 -0.172 0.199 -0.189 -0.184 -2.92 -2.92 -1.865 3.315 -0.067 0.118 -0.138 0.006 -5.543 0.222 -3.763 2.877 -0.174 0.132 -0.15 -0.161 -3.6 -3.82 -0.073 -0.079 0.008 -0.104 0.674 -9.893 0.003 -0.038 0.018 -0.04 3.265 -7.619 -4.238 -1.269 -0.106 -0.034 -0.045 -0.1 -2.022 -4.496 -0.034 -0.076 0.017 -0.08 1.533 -6.342 -3.441 -1.932 -0.129 -0.073 0.006 -0.149 0.225 -6.231 -2.541 -4.868 -2.025 1.414 -0.07 0.051 -0.084 -0.006 -2.924 -0.225 -0.227 -0.017 0 -3.505 0.115 -0.071 2.267 -1.443 -1.877 -2.841 0 0zm-40.477 -166.806l-0.569 7.324 -2.769 5.045 1.06 3.824 4.558 -3.661 4.801 -0.326 2.524 -2.522 0.326 -5.86 -2.687 -3.417 -2.278 2.279 -1.222 -1.303 0.164 -3.499 -3.908 2.116 0 0zm-16.362 -3.173l2.279 -5.616 6.269 -3.092 1.139 4.314 1.627 -0.488 0.244 -1.872 2.85 2.766 -0.244 3.662 -2.116 3.417 1.79 2.116 -0.488 3.174 -2.279 1.221 -4.639 -3.174 -4.153 -3.581 -2.361 -1.057 0.082 -1.79 0 0zm-4.558 -8.138l5.128 1.953 -0.733 2.441 -2.361 1.302 -3.418 -2.36 -0.571 -2.279 1.955 -1.057 0 0zm2.443 -3.986l2.685 -3.581 -0.652 -3.174 2.605 -1.709 2.605 -2.604 2.931 2.604 1.628 4.638 0.978 2.035 -2.687 1.464 0 2.522 -6.675 3.011 -3.418 -3.092 0 -2.114zm-4.072 -9.198l4.885 0.896 -1.139 -3.66 -3.419 0.08 -0.327 2.684 0 0zm-42.777 283.331l-1.508 0.71 -0.611 2.654 1.502 3.645 0.052 0.13 -0.084 0.11 -2.769 3.622 0.585 1.951 3.603 1.27 0.225 0.079 -0.075 0.225 -1.314 3.938 -0.012 0.042 -0.025 0.032 -2.334 2.97 0.846 3.383 0.015 0.059 -0.015 0.059 -0.639 2.555 0.849 2.335 0.055 0.146 -0.11 0.109 -3.72 3.717 -0.026 0.029 -0.036 0.016 -2.189 1.095 -0.019 0.008 -0.009 0.003 -2.937 1.051 -1.039 4.57 2.845 3.654 3.528 -2.697 0.35 -0.267 0.018 0.202 6.392 -0.409 1.695 -4.451 0.064 -0.167 0.181 0.014 2.678 0.204 1.898 -4.003 0.043 -0.09 0.092 -0.034 3.407 -1.276 1.03 -2.269 0 -2.718 0.129 -0.067 3.142 -1.676 -0.205 -2.658 -1.302 -3.908 -0.007 -0.023 -0.003 -0.011 -0.647 -3.672 -2.818 -4.331 -0.074 -0.112 0.056 -0.122 1.225 -2.653 -2.154 -1.369 -3.636 0.427 -0.016 0.003 -4.123 0 -0.057 -0.166 -1.992 -5.868 0 0zm-16.204 -61.443l-3.534 -2.527 -7.063 4.053 -0.136 0.079 -0.127 -0.092 -5.937 -4.352 -8.451 -0.132 -0.074 -0.003 -0.058 -0.037 -5.569 -3.713 -3.976 -1.154 -3.706 2.81 -2.776 8.854 -0.061 0.194 -0.199 -0.025 -3.245 -0.391 -2.504 1.628 -0.514 2.695 -0.021 0.113 -0.098 0.056 -4.478 2.563 0.252 2.147 0.011 0.102 -0.066 0.081 -2.309 2.819 2.163 2.288 0.065 0.071 0 7.677 16.697 7.942 0.053 0.025 0.035 0.048 3.123 4.07 0.03 0.039 0.013 0.045 0.9 3.345 4.833 -0.13 0.148 -0.003 0.07 0.13 1.7 3.136 9.498 0.265 0.252 0.007 -0.015 0.249 -0.402 6.698 1.147 1.49 3.065 -2.55 0.07 -0.059 2.909 0 0 0.003 6.248 0.03 2.334 -2.757 0.06 -0.073 0.092 -0.011 6.347 -0.875 0.067 -0.009 0.063 0.028 5.375 2.364 4.357 -1.87 0.212 -4.441 0.006 -0.112 0.088 -0.068 4.532 -3.454 0.573 -2.099 -3.935 -1.241 -0.057 -0.019 -0.043 -0.042 -2.844 -2.844 -0.06 -0.06 -0.01 -0.084 -0.437 -3.719 -0.014 -0.126 0.097 -0.085 4.957 -4.309 0.193 -2.512 -3.27 -0.411 -0.131 -0.016 -0.059 -0.118 -3.664 -7.544 -12.565 -1.947 -0.207 -0.032 0 -3.793 0.054 -0.067 1.672 -2.088 -1.746 -6.15 0 0zm-91.112 34.442l1.889 0.548 0.129 3.39 -1.174 1.307 0.783 2.349 -2.61 3 0.522 2.218 5.613 1.304 0.261 3.001 2.74 0.132 2.088 0.521 2.088 2.347 -3.002 2.479 0 2.089 3.002 -0.912 2.611 1.435 2.349 -0.523 1.959 -1.695 5.622 -1.023 2.212 -5.25 -0.404 -9.449 -0.004 -0.067 0.033 -0.059 1.9 -3.394 0.043 -0.073 0.077 -0.034 3.258 -1.356 0.054 -0.022 0.056 0.005 3.738 0.246 -0.866 -3.336 -0.047 -0.177 0.159 -0.093 3.137 -1.83 0 -13.2 -2.243 -2.372 -0.146 -0.157 0.137 -0.163 2.377 -2.91 -0.211 -1.804 -4.421 3.031 -0.066 0.045 -0.08 -0.002 -3.395 -0.138 -0.059 -0.002 -0.051 -0.028 -3.32 -1.858 -3.586 0.53 -0.095 0.014 -0.081 -0.057 -4.707 -3.362 -2.12 -0.397 -0.371 -0.069 0.218 -0.31 1.511 -2.138 -2.267 -2.266 -4.382 4.25 -0.396 3.983 -0.007 0.074 -0.049 0.055 -1.276 1.534 0.343 1.251 2.734 1.041 0.104 0.039 0.038 0.105 0.951 2.581 0.023 0.064 -0.015 0.071 -0.543 2.442 -0.008 0.042 -0.025 0.036 -0.95 1.493 -0.089 0.141 -0.163 -0.033 -3.26 -0.652 -2.442 2.698 -0.665 3.059 -0.016 0.073 -0.054 0.054 -4.306 4.034 -0.787 2.1 0 0zm25.415 21.922l6.755 0.152 -2.742 2.872 5.655 9.343 2.711 -1.589 0.128 -0.073 0.124 0.076 2.035 1.274 1.226 -0.858 0.112 -0.08 0.123 0.053 2.765 1.186 12.945 -4.447 0.167 -0.059 0.106 0.143 3.258 4.343 0.032 0.042 0.012 0.048 0.661 2.779 3.58 3.453 4.857 -4.722 0.151 -0.15 0.167 0.133 1.752 1.376 1.615 -1.24 0.076 -0.061 0.096 0.009 5.593 0.533 2.83 -2.571 0.133 -17.291 -2.248 0 -3.19 2.658 -0.194 0.161 -0.153 -0.199 -1.358 -1.765 -0.057 -0.073 0.006 -0.091 0.392 -6.535 -9.388 -0.264 -0.14 -0.006 -0.066 -0.12 -1.695 -3.127 -4.874 0.132 -0.191 0.006 -0.049 -0.186 -0.94 -3.481 -3.056 -3.986 -16.436 -7.82 0 5.455 -0.12 0.071 -3.099 1.807 0.904 3.488 0.087 0.326 -0.337 -0.023 -4.017 -0.266 -3.128 1.301 -1.827 3.26 0.404 9.433 0.004 0.05 -0.021 0.054 -2.136 5.066 0 0zm9.848 12.828l6.304 30.251 3.393 -0.522 2.35 -3.391 2.218 0.912 0.653 3.524 7.178 3.916 5.612 -2.089 3.002 1.304 2.149 4.435 4.138 -0.478 -0.571 -2.467 -2.523 -1.264 -0.257 -0.127 0.168 -0.232 1.752 -2.407 0.045 -0.062 0.075 -0.025 3.938 -1.31 0.048 -0.018 0.051 0.006 4.668 0.424 2.513 -3.767 0.214 -2.56 0.037 -0.452 0.354 0.28 2.976 2.336 2.988 -0.599 0.208 -4.401 0.006 -0.126 0.108 -0.067 2.324 -1.48 0.82 -3.282 -1.883 -2.091 -0.141 -0.157 0.137 -0.16 2.237 -2.646 -2.849 -2.032 -0.064 -0.045 -0.025 -0.072 -1.075 -3.016 -3.249 -3.461 -0.055 -0.059 -0.01 -0.078 -0.407 -3.257 -2.264 0.289 -2.93 2.664 -0.08 0.07 -0.107 -0.01 -5.606 -0.535 -1.69 1.301 -0.15 0.114 -0.147 -0.114 -1.734 -1.362 -4.872 4.736 -0.169 0.165 -0.168 -0.165 -3.8 -3.663 -0.055 -0.052 -0.015 -0.066 -0.669 -2.802 -3.119 -4.161 -12.866 4.422 -0.089 0.031 -0.085 -0.037 -2.729 -1.171 -1.247 0.873 -0.132 0.093 -0.135 -0.084 -2.049 -1.28 -2.648 1.556 0 0zm61.224 27.725l2.895 -1.036 2.131 -1.065 3.586 -3.585 -0.822 -2.259 -0.025 -0.07 0.017 -0.073 0.641 -2.566 -0.859 -3.44 -0.03 -0.117 0.072 -0.092 2.384 -3.03 1.224 -3.669 -3.496 -1.236 -0.116 -0.038 -0.036 -0.118 -0.657 -2.191 -0.034 -0.117 0.073 -0.098 2.761 -3.608 -1.478 -3.59 -0.03 -0.073 0.017 -0.073 0.657 -2.844 0.026 -0.115 0.108 -0.051 3.679 -1.732 1.817 -1.814 -3.857 -7.498 -0.042 -0.078 0.019 -0.085 0.558 -2.603 -4.164 1.784 -0.097 0.042 -0.097 -0.042 -5.407 -2.378 -6.186 0.853 -2.347 2.772 -0.072 0.086 -0.113 0 -6.363 -0.032 -0.132 17.125 2.308 -0.298 0.241 -0.029 0.03 0.243 0.428 3.42 3.228 3.441 0.036 0.041 0.016 0.043 1.068 2.994 3.001 2.141 0.214 0.154 -0.169 0.201 -2.271 2.683 1.828 2.03 0.086 0.095 -0.031 0.126 -0.874 3.498 -0.025 0.093 -0.081 0.054 -2.302 1.465 -0.194 4.101 5.313 0.16 0.105 0.003 0.071 0.079 1.769 2.016 0 0zm-28.228 11.086l0.457 4.488 4.175 2.351 0.131 4.435 4.177 0.912 1.696 2.089 4.7 -2.48 0.913 3.263 3.002 4.436 4.7 0.522 1.434 -3.133 6.267 -0.261 4.153 -3.087 -0.676 -4.614 -0.021 -0.149 0.125 -0.087 2.662 -1.841 -3.83 -6.808 -0.025 -0.045 -0.004 -0.053 -0.4 -4.374 -3.369 2.577 -0.193 0.146 -0.147 -0.191 -3.064 -3.935 -0.07 -0.093 0.025 -0.109 1.068 -4.7 -1.722 -1.963 -5.219 -0.155 -0.002 0.072 -0.186 0.036 -3.282 0.656 -0.109 0.022 -0.089 -0.07 -2.709 -2.128 -0.181 2.176 -0.006 0.062 -0.033 0.053 -2.627 3.937 -0.08 0.121 -0.144 -0.015 -4.764 -0.431 -3.815 1.271 -1.538 2.113 2.37 1.186 0.103 0.05 0.026 0.11 0.656 2.844 0.06 0.262 -0.27 0.036 -4.325 0.496 0 0zm36.259 13.282l16.797 -6.315 6.004 -0.39 1.044 1.564 9.006 1.957 0.653 4.045 3.393 1.695 9.528 1.045 3.785 0.523 1.957 1.827 3.003 -1.045 2.741 -2.35 1.957 -4.825 -3.261 -3.914 0.39 -6.002 2.089 -0.654 0.131 -2.74 2.741 -0.129 0.767 -2.941 -1.764 -3.415 -0.076 -0.149 0.109 -0.123 1.915 -2.17 -0.502 -2.008 -0.033 -0.134 0.097 -0.095 1.371 -1.374 -0.323 -1.398 -3.927 0.253 -0.083 0.006 -0.07 -0.051 -9.83 -6.852 -0.591 2.709 -0.038 0.177 -0.178 0.014 -11.956 1.053 -0.758 3.157 -0.032 0.143 -0.141 0.038 -2.33 0.61 0.243 2.192 0.017 0.148 -0.127 0.082 -3.228 2.065 -0.125 2.143 -0.01 0.18 -0.178 0.042 -2.211 0.518 -3.953 3.293 -0.081 0.07 -0.106 -0.013 -9.196 -1.198 -0.06 -0.01 -0.048 -0.032 -5.648 -3.977 -2.598 -0.199 -1.685 4.426 -0.057 0.144 -0.156 0.012 -6.535 0.422 0.41 4.51 3.915 6.953 0.109 0.195 -0.183 0.126 -2.72 1.885 0.626 4.281 0 0zm63.16 -18.863l11.066 4.458 10.181 2.349 2.087 8.091 7.439 3.913 5.221 -0.131 7.442 -4.436 5.743 1.828 6.001 -0.393 1.567 2.739 3.454 0.15 1.132 -4.186 0.029 -0.105 0.095 -0.05 3.311 -1.732 -3.55 -3.874 -0.174 -0.191 0.199 -0.16 3.463 -2.802 -1.315 -3.947 -0.106 -0.32 6.922 0 4.036 -3.362 0.084 -0.068 0.105 0.014 3.622 0.493 6.76 -8.952 0.064 -0.087 0.11 -0.009 4.325 -0.331 1.303 -2.119 0.042 -0.065 0.077 -0.031 3.703 -1.515 2.822 -3.485 0.323 -3.716 -2.96 -1.974 -0.107 -0.073 0 -3.84 0.096 -0.073 6.451 -4.921 2.199 -5.073 0.042 -0.099 0.099 -0.033 5.641 -1.99 -0.32 -4.51 -3.469 -3.135 -3.863 -0.672 -0.144 -0.025 -0.048 -0.14 -3.229 -9.688 -2.008 -1.839 -0.157 -0.144 0.123 -0.173 2 -2.835 -0.278 -2.777 -2.368 2.664 -0.089 0.099 -0.13 -0.019 -2.008 -0.31 -1.144 4.405 -0.032 0.138 -0.138 0.036 -10.779 2.906 -0.159 0.045 -0.099 -0.135 -1.809 -2.464 -2.501 0 -0.057 -0.032 -2.331 -1.244 -1.267 3.007 -0.042 0.102 -0.103 0.033 -5.134 1.711 -0.079 0.026 -0.078 -0.026 -2.648 -0.937 -0.627 2.979 -0.036 0.172 -0.172 0.019 -5.22 0.654 0.455 2.569 3.182 2.678 0.185 0.158 -0.157 0.185 -2.688 3.192 -0.5 4.824 1.733 4.075 0.278 -0.814 1.062 -6.639 0.005 -0.042 0.023 -0.039 1.731 -3.064 0.083 -0.14 0.158 0.016 2.266 0.268 0.182 0.022 0.027 0.183 0.403 2.532 0.005 0.042 -0.005 0.036 -1.061 5.966 0.396 5.811 0.922 3.17 0.026 0.078 -0.031 0.077 -1.198 3.064 -0.021 0.051 -0.041 0.039 -1.838 1.704 -0.597 1.075 0.638 2.033 0.025 0.081 -0.034 0.082 -0.801 1.999 -0.046 0.115 -0.119 0.031 -1.958 0.488 -0.123 2.22 -0.006 0.06 -0.031 0.052 -2.533 4.131 -0.048 0.078 -0.087 0.029 -3.789 1.173 -2.485 3.4 -0.081 0.112 -0.135 -0.012 -2.845 -0.25 -0.758 4.313 -0.013 0.067 -0.045 0.051 -2.132 2.4 -0.037 0.039 -0.048 0.02 -6.826 3.02 -0.902 3.088 -0.038 0.121 -0.119 0.042 -4.398 1.466 -0.25 0.081 -0.062 -0.252 -0.629 -2.515 -4.645 -0.905 -0.177 -0.034 -0.019 -0.177 -0.394 -3.396 -3.215 -4.116 -4.364 0 -0.067 -0.053 -8.928 -7.06 -0.028 -0.023 -0.019 -0.025 -2.79 -3.802 -4.471 3.189 -0.064 0.048 -0.08 -0.003 -2.555 -0.058 0.129 0.563 0.031 0.13 -0.094 0.095 -1.371 1.371 0.5 1.995 0.032 0.124 -0.084 0.096 -1.89 2.141 1.692 3.277 0 0zm-407.531 -95.45l0.182 3.079 3.445 1.632 4.901 -5.407 0.355 -0.392 0.066 0.524 0.479 3.826 2.9 -3.807 0.181 -3.986 -2.093 -1.742 -0.083 -0.07 -0.005 -0.106 -0.175 -2.975 -3.083 0 -0.07 -0.112 -2.105 -3.333 -2.537 -0.904 0 0 -0.363 2.718 0 0 2.9 3.442 0 0 0 0.003 2.597 1.622 0.303 0.189 -0.285 0.21 -3.883 2.87 -0.002 0.002 0 2.355 -0.219 0.023 -3.406 0.339 0 0zm23.535 -5.277l-1.806 1.479 -0.224 0.179 -0.141 -0.247 -1.342 -2.346 -1.666 0.757 -0.166 1.494 -0.009 0.087 -0.061 0.059 -1.631 1.628 1.44 1.28 0.142 0.127 -0.09 0.168 -1.382 2.592 1.007 1.51 0.167 0.25 -0.278 0.109 -2.634 1.054 -1.082 2.161 3.115 5.873 0.103 0.193 -0.183 0.121 -2.061 1.373 0.17 3.93 5.293 4.762 2.988 0 0.053 0.17 0.906 2.9 0.031 0.101 -0.053 0.093 -0.892 1.542 2.587 2.085 3.005 0.178 0.116 0.008 0.068 0.095 0.856 1.224 1.893 -1.173 -0.809 -1.615 -0.088 -0.177 0.156 -0.124 2.537 -1.992 0.071 -0.057 0.089 0.006 4.264 0.177 1.472 -1.146 0.174 -3.84 -0.892 -3.741 -2.702 -4.863 -0.04 -0.076 0.013 -0.082 0.711 -4.264 -2.494 -4.275 -0.009 -0.014 -0.009 -0.023 -1.044 -2.782 -2.42 -0.694 -0.082 -0.022 -0.051 -0.073 -1.179 -1.684 -1.842 0.337 -0.141 0.025 -0.09 -0.112 -3.834 -4.705 0 0zm-23.839 8.385c-0.07,-1.181 -0.148,-2.363 -0.207,-3.545 1.217,-0.123 2.435,-0.243 3.652,-0.365 0,-0.721 -0.002,-1.443 -0.002,-2.162 1.268,-0.929 2.53,-1.868 3.794,-2.802 -0.777,-0.486 -1.599,-0.967 -2.357,-1.474 -1.093,-1.154 -2.064,-2.45 -3.091,-3.667 0.16,-1.174 0.316,-2.35 0.47,-3.525 1.089,0.381 2.172,0.778 3.26,1.162 0.703,1.122 1.415,2.24 2.123,3.36l2.815 0 0.458 0 0.014 0.231 0.012 0.227 0.17 2.872 2.013 1.676 0.092 0.079 0.094 0.075 -0.006 0.122 -0.005 0.117 -0.181 3.989 -0.004 0.076 -0.004 0.076 -0.045 0.059 -0.047 0.061 -2.901 3.807 -0.36 0.472 -0.359 0.474 -0.076 -0.591 -0.074 -0.59 -0.411 -3.301 -4.547 5.015 -0.123 0.135 -0.121 0.133 -0.16 -0.077 -0.164 -0.075 -3.444 -1.631 -0.13 -0.063 -0.13 -0.061 -0.01 -0.143 -0.008 -0.146 0 0zm-4.902 -28.717l0.261 4.568 -1.435 1.696 0.653 1.957 2.088 1.567 -0.13 3.261 1.175 5.22 -0.392 4.824 -0.914 7.96 1.045 1.436 2.088 -0.914 1.372 2.299 6.205 -2.15 0.169 -0.059 0.106 0.143 1.93 2.633 3.171 0.334 2.282 -4.561 0.042 -0.084 0.085 -0.034 2.441 -0.978 -0.923 -1.381 -0.08 -0.12 0.07 -0.13 1.36 -2.548 -1.489 -1.323 -0.193 -0.171 0.183 -0.183 1.754 -1.754 0.17 -1.544 0.015 -0.138 0.127 -0.056 1.994 -0.908 0.202 -0.091 0.109 0.193 1.308 2.288 1.69 -1.381 0.174 -2.976 0.003 -0.047 0.024 -0.048 0.655 -1.309 -2.984 -3.686 -0.101 -0.122 0.073 -0.141 2.285 -4.39 -2.91 -3.591 -2.754 0 -0.067 -0.135 -1.583 -3.128 -4.777 -4.343 -0.653 6.264 -2.609 -1.306 -4.962 0.261 -1.826 2.35 -3.656 -6.131 -2.871 2.607 0 0zm6.064 34.298l3.204 5.367 0 3.263 3.192 3.523 3.294 -2.549 0.071 -0.054 0.088 0.003 3.724 0.169 -0.17 -3.903 -0.006 -0.138 0.113 -0.075 1.994 -1.328 -2.849 -5.37 -0.967 1.934 -0.076 0.151 -0.168 -0.017 -3.443 -0.362 -0.107 -0.014 -0.065 -0.084 -1.888 -2.575 -5.941 2.059 0 0zm6.722 12.511l2.748 3.033 0.129 4.174 0.833 1.292 0.02 -0.013 0.037 -0.015 4.533 -1.449 0.065 -0.022 0.066 0.017 5.806 1.406 1.85 -3.192 -0.821 -2.627 -2.815 0 -0.07 -0.066 -5.374 -4.832 -3.814 -0.174 -3.193 2.468 0 0zm3.855 8.996l0.196 4.475 5.222 2.478 0.043 0.761 2.385 -0.794 1.72 -1.376 1.238 -3.913 0.033 -0.103 0.102 -0.045 2.908 -1.291 -2.279 -1.84 -0.856 1.478 -0.092 0.157 -0.175 -0.045 -5.916 -1.433 -4.429 1.418 -0.1 0.073 0 0zm5.489 8.217l0.06 1.087 1.378 1.021 7.095 -3.321 -1.511 -5.69 -1.276 0.564 -1.226 3.882 -0.021 0.07 -0.061 0.045 -1.812 1.451 -0.033 0.027 -0.042 0.014 -2.551 0.85 0 0zm1.744 2.501l0.927 2.499 0.387 1.917 5.118 0.449 1.369 -1.538 0.157 -0.18 0.182 0.155 2.124 1.797 2.761 -5.349 0.073 -0.143 0.16 0.014 2.3 0.177 1.926 -0.803 -0.814 -3.091 -2.749 -0.516 -0.097 -0.017 -0.058 -0.081 -3.739 -5.341 -2.908 -0.17 -1.392 0.618 1.584 5.959 0.052 0.197 -0.185 0.087 -7.178 3.36 0 0zm1.141 4.891l-1.39 1.392 0.262 3.914 3.654 5.218 -0.26 5.48 -0.654 2.612 3.263 4.046 1.566 -0.656 0.914 -1.563 1.957 1.042 2.09 0.653 2.48 -1.566 0 -6.914 1.696 -9.787 6.265 -6.002 0.523 -6.264 -0.654 -2.739 3.037 -2.286 -0.892 -2.346 -3.983 -3.981 -1.463 1.137 -0.068 0.053 -0.09 -0.003 -4.261 -0.177 -2.312 1.817 0.818 1.635 0.097 0.198 -0.187 0.115 -2.058 1.277 2.614 3.734 2.805 0.525 0.152 0.029 0.039 0.148 0.906 3.445 0.055 0.204 -0.195 0.081 -2.178 0.906 -0.053 0.022 -0.057 -0.003 -2.198 -0.169 -2.826 5.474 -0.139 0.27 -0.233 -0.197 -2.177 -1.838 -1.293 1.454 -0.08 0.09 -0.123 -0.011 -5.369 -0.469 0 0zm25.211 -13.568l4.072 0.086 3.893 -1.793 -2.573 -3.607 -0.161 -0.225 0.246 -0.132 2.249 -1.19 2.112 -1.737 -1.668 -3.974 -0.057 -0.135 0.096 -0.112 1.334 -1.602 0.208 -0.25 0.182 0.269 1.223 1.833 1.56 -0.68 0.061 -0.027 0.062 0.008 2.928 0.326 -0.652 -2.934 -0.015 -0.068 0.02 -0.06 1.778 -5.155 -1.758 -3.167 -0.044 -0.082 0.019 -0.086 1.434 -6.817 -1.373 -3.603 -2.575 -0.346 -0.172 -0.022 -0.035 -0.169 -0.687 -3.264 -1.811 -0.15 -0.661 1.817 -0.065 0.179 -0.19 -0.02 -6.419 -0.692 0.147 2.046 2.882 0.339 0.195 0.023 0.017 0.196 0.182 1.993 0.01 0.105 -0.07 0.078 -3.264 3.627 -0.072 0.079 -5.222 0 -1.019 1.866 -0.061 0.112 -0.127 0.014 -3.445 0.362 -0.152 0.018 -0.081 -0.132 -1.45 -2.355 -0.035 -0.06 0 -3.177 -2.579 -1.202 -0.14 -0.064 0 -3.437 -1.833 -0.763 -0.979 1.631 -0.104 0.173 -0.189 -0.069 -2.744 -1.027 -1.569 1.801 1.776 2.176 1.853 -0.337 0.152 -0.028 0.09 0.13 1.219 1.74 2.455 0.702 0.119 0.033 0.043 0.116 1.08 2.878 2.529 4.333 0.045 0.077 -0.016 0.087 -0.713 4.264 2.68 4.82 0.018 0.031 0.005 0.031 0.908 3.807 0.007 0.03 -0.001 0.034 -0.176 3.88 4.094 4.094 0.035 0.036 0.02 0.05 0.919 2.42 0 0zm8.59 -1.665l4.097 1.492 10.963 -0.262 -0.914 -4.307 2.741 -0.522 2.09 -11.743 -1.83 -2.479 -2.74 -0.651 0.392 -2.218 3.394 -3.133 -3.024 -4.199 1.458 -0.759 1.918 -0.843 -1.937 -3.457 -7.541 -1.559 -2.007 1.267 1.379 3.621 0.026 0.064 -0.016 0.07 -1.432 6.8 1.769 3.184 0.053 0.096 -0.035 0.1 -1.791 5.193 0.711 3.193 0.072 0.331 -0.337 -0.036 -3.198 -0.357 -1.689 0.738 -0.186 0.082 -0.112 -0.168 -1.155 -1.736 -1.033 1.241 1.679 4.003 0.068 0.165 -0.138 0.116 -2.272 1.871 -0.019 0.016 -0.02 0.009 -2.027 1.071 2.643 3.706 0 0zm19.003 -29.803l4.41 -1.456 0.653 -3.392 3.786 -2.089 4.046 -1.043 1.456 -0.444 -0.131 -5.548 -2.482 -0.496 -0.095 -0.019 -0.056 -0.082 -1.202 -1.736 -0.041 -0.058 -0.002 -0.07 -0.12 -3.251 -1.546 0.662 -0.055 0.022 -0.058 -0.006 -1.87 -0.131 -0.239 -0.016 0.015 -0.239 0.133 -2.403 0.004 -0.085 0.056 -0.064 1.941 -2.198 0 -3.013 -4.281 -4.151 -2.468 -0.52 -0.089 -0.019 -0.055 -0.071 -1.735 -2.271 -0.044 -0.056 -0.007 -0.07 -0.254 -3.182 -3.592 -1.282 -0.09 -0.033 -0.045 -0.088 -1.51 -3.018 -1.939 0.607 -0.051 0.013 -0.054 -0.005 -3.768 -0.502 -0.367 2.565 -0.016 0.112 -0.097 0.06 -3.568 2.179 0.707 6.551 0.017 0.149 -0.127 0.082 -4.045 2.636 0.53 5.109 0.006 0.07 -0.032 0.063 -1.631 3.261 -0.062 0.126 -0.141 0.009 -2.901 0.182 -0.108 0.006 -0.078 -0.079 -1.318 -1.316 -3.42 1.954 1.668 2.501 0.062 0.09 -0.029 0.109 -1.42 5.143 2.589 3.625 6.41 0.693 0.661 -1.817 0.062 -0.173 0.185 0.014 2.176 0.182 0.18 0.015 0.037 0.18 0.689 3.272 2.463 0.329 2.183 -1.379 0.084 -0.054 0.095 0.023 7.745 1.601 0.111 0.022 0.054 0.096 2.025 3.612 0 0zm-27.255 -38.645l-0.052 1.307 -4.045 -0.128 -1.568 2.346 -2.088 0.262 -2.478 4.435 -4.177 1.568 -3.002 -4.437 -7.049 -0.915 -3.263 3.394 7.048 4.176 -2.088 1.433 -3.655 -2.218 -2.094 1.648 1.25 2.47 2.685 0 0.074 0.09 3.082 3.805 0.1 0.126 -0.073 0.14 -2.283 4.391 2.981 3.681 0.099 0.12 -0.07 0.141 -0.703 1.406 -0.172 2.936 1.752 2.151 1.624 -1.867 0.11 -0.127 0.158 0.06 2.711 1.016 0.984 -1.64 0.109 -0.18 0.192 0.082 2.176 0.905 0.15 0.061 0 3.452 2.578 1.205 0.141 0.065 0 3.345 1.335 2.168 3.165 -0.331 1.027 -1.884 0.07 -0.125 5.292 0 3.12 -3.465 -0.153 -1.693 -2.887 -0.339 -0.201 -0.023 -0.014 -0.202 -0.175 -2.468 -2.681 -3.75 -0.065 -0.092 0.03 -0.113 1.42 -5.149 -1.751 -2.628 -0.145 -0.216 0.226 -0.129 3.808 -2.176 0.16 -0.089 0.132 0.129 1.374 1.372 2.652 -0.164 1.537 -3.073 -0.537 -5.187 -0.016 -0.147 0.125 -0.081 4.045 -2.636 -0.687 -6.353 -3.157 -0.166 -2.42 1.676 -2.673 -1.718 -3.1 -1.653zm-31.021 -140.265l8.832 19.087 5.491 -2.862 0.477 -10.5 -2.625 -4.055 -1.195 4.772 -2.625 -1.671 -2.146 -6.204 -2.628 1.672 -3.581 -0.239 0 0zm178.995 31.296l-3.93 3.548 -1.828 -3.394 2.611 -0.521 -3.264 -6.132 -4.958 0.782 -4.961 -1.695 -6.133 0.913 -3.394 8.482 -2.481 -1.436 -3.524 -8.221 0.524 -6.393 -5.743 0.653 -1.567 5.48 2.48 3.002 -2.351 3.129 -3.783 -2.087 -0.653 -4.404 -0.116 0.054 -1.905 2.064 -0.093 0.101 -0.134 -0.027 -1.615 -0.323 -0.013 -0.003 -2.165 -0.579 -0.279 1.674 -0.012 0.078 -0.054 0.055 -3.507 3.506 -0.762 2.743 1.078 1.849 0.968 1.611 0.094 0.158 -0.128 0.133 -3.665 3.824 -0.792 3.644 -0.042 0.192 -2.188 0 -1.542 1.694 -0.009 0.012 -3.33 3.804 -0.619 4.659 8.47 9.587 2.885 2.722 3.047 1.924 0.03 0.02 0.023 0.027 3.159 3.631 5.059 0.158 0.16 0.006 0.06 0.148 2.004 5.086 1.544 -0.701 0.086 -0.039 0.09 0.031 2.906 0.968 0.238 0.08 -0.088 0.235 -0.892 2.378 2.711 1.355 0.134 0.066 0 2.933 2.787 -0.44 0.137 -0.021 0.088 0.107 2.26 2.741 0.049 0.06 0.008 0.074 0.281 3.255 2.227 -1.807 0.111 -0.091 0.133 0.054 3.423 1.4 2.544 -1.946 0.156 -3.435 0.006 -0.111 0.086 -0.069 7.757 -6.172 -1.917 -3.832 -3.126 1.043 -1.569 1.883 -0.115 0.138 -0.165 -0.068 -3.875 -1.616 -0.159 -0.066 0.011 -0.172 0.161 -2.581 0.006 -0.072 0.044 -0.06 3.066 -4.035 0.071 -0.091 0.113 -0.006 3.621 -0.149 -0.137 -1.632 -1.101 -1.887 -0.096 -0.163 0.133 -0.131 2.37 -2.372 0.772 -3.546 -2.693 -4.435 -0.08 -0.133 0.084 -0.128 1.292 -1.935 0.146 -0.217 0.205 0.158 9.847 7.584 0.07 0.055 0.019 0.086 0.602 2.706 3.673 -0.153 0.074 -0.003 0.065 0.041 3.911 2.503 2.782 -1.611 -0.766 -3.214 -0.021 -0.09 0.044 -0.081 1.063 -1.971 -1.697 -2.623 -0.095 -0.145 0.105 -0.135 4.897 -6.315 -1.937 -2.829 -3.765 -0.472 -0.111 -0.013 -0.061 -0.092 -4.198 -6.295 -0.026 -0.039 -0.01 -0.051 -1.421 -7.581 0 0zm69.565 -2.604l1.221 -11.594 0.915 -4.424 3.814 -4.118 4.58 -1.525 1.829 -2.594 -1.067 -3.204 3.356 2.137 3.052 -0.305 0.765 -2.289 1.983 0.152 0.151 -2.288 2.443 0.916 0.458 -2.288 1.831 1.983 1.373 -1.83 0.457 -2.747 2.596 1.832 1.677 -1.526 3.511 0.763 2.9 -3.356 22.278 -0.459 5.342 -2.896 0.609 -3.968 -2.288 -2.745 -5.342 1.372 -0.916 1.983 -9.155 -0.762 -3.967 -3.355 -3.511 1.982 -3.509 -1.526 -4.425 2.899 -3.663 0 -1.83 1.525 -2.442 -2.592 -1.222 5.339 -2.747 0.153 -0.304 2.134 -6.865 2.136 -2.444 -1.067 -1.525 1.829 1.983 1.983 -2.747 2.594 -4.426 -1.83 -0.61 3.356 -3.204 -0.152 -0.152 2.593 -4.425 2.288 -2.747 -0.916 -3.053 2.288 -0.151 3.356 2.898 2.898 0.152 4.424 -2.746 2.746 2.136 4.728 2.442 0.306 0.153 2.135 2.747 0.611 1.831 0.915 0 0zm-39.314 -3.944l2.247 2.955 5.29 0.14 0.61 -1.969 -0.329 -2.954 -2.809 -3.048 -4.024 1.408 -0.985 3.468 0 0zm44.807 17.978l-2.9 0.305 -2.288 -3.814 0.61 -3.508 3.662 -0.916 1.068 3.966 -0.152 3.967 0 0zm11.47 13.526l-2.487 -4.577 -6.526 -7.046 -4.96 0 -0.65 2.87 -0.132 4.307 -3.525 2.087 -1.959 -0.391 -1.303 1.956 -2.48 -1.956 2.871 -2.61 0 -2.87 -9.267 -0.131 -4.568 -3.392 -7.049 0.652 -2.479 -3.392 4.177 -0.392 2.219 -4.305 -5.613 -1.305 -2.61 3.132 -1.306 -2.35 -14.356 -3.522 -1.828 1.827 -2.089 -1.958 -7.569 4.437 -3.917 -3.785 1.175 -3.391 -1.175 -3.394 4.699 -1.565 4.307 3.001 2.088 -3.392 -0.131 -6.133 -5.743 -6.261 -1.695 6.132 -7.833 5.087 -0.65 3.914 -3.743 3.378 1.469 7.825 4.107 6.16 3.763 0.469 0.11 0.014 0.061 0.092 2.034 2.973 13.945 1.497 3.175 -0.992 0.114 -0.036 0.099 0.07 32.359 23.106 7.267 -0.59 2.552 -2.944 0.098 -0.112 0.141 0.033 3.3 0.777 2.725 -2.529 0.071 -0.066 2.18 0 1.137 -1.703 0.087 -0.133 0.157 0.028 2.045 0.373 1.663 -2.953 -1.746 -3.103 -0.099 -0.175 0.155 -0.13 3.138 -2.613 0 0zm-26.883 -39.154l1.68 -1.221 0 -2.745 -1.985 -0.458 0.305 4.424 0 0zm-47.707 31.834l-4.815 6.212 1.68 2.598 0.078 0.121 -0.066 0.126 -1.086 2.016 0.785 3.301 0.042 0.174 -0.157 0.092 -3.066 1.775 -0.129 0.074 -0.123 -0.08 -3.972 -2.541 -3.799 0.158 -0.201 0.009 -0.046 -0.199 -0.624 -2.818 -9.573 -7.373 -1.061 1.594 2.664 4.386 0.05 0.083 -0.02 0.092 -0.807 3.711 -0.016 0.072 -0.05 0.05 -2.289 2.288 1.035 1.775 0.029 0.049 0.004 0.053 0.161 1.936 0.022 0.252 -0.255 0.011 -3.759 0.156 -2.953 3.885 -0.147 2.336 3.55 1.479 1.498 -1.799 0.045 -0.053 0.066 -0.022 3.391 -1.13 0.199 -0.065 0.093 0.187 2.099 4.196 0.088 0.175 -0.154 0.123 -7.823 6.225 -0.157 3.439 -0.005 0.114 -0.091 0.068 -2.743 2.099 -0.111 0.083 -0.127 -0.052 -3.418 -1.398 -2.458 1.995 -7.278 8.133 0.715 1.699 0.021 0.047 -0.001 0.047 0 5.402 1.18 0.947 3.044 -3.413 0.112 -0.125 0.157 0.06 9.203 3.547 3.209 -1.465 1.804 -4.462 0.069 -0.169 0.18 0.018 6.101 0.581 0.094 0.008 0.065 0.072 4.522 5.098 4.957 2.573 6.947 0.762 2.743 -1.513 0.144 -0.08 0.128 0.105 7.501 6.153 4.614 0.645 8.345 -14.286 0.019 -0.033 0.029 -0.026 6.243 -5.567 0.949 -3.418 0.019 -0.069 0.052 -0.047 6.199 -5.519 0.214 -0.189 0.153 0.24 1.279 2.011 3.456 -0.182 4.077 -3.607 0.065 -0.061 0.089 -0.001 6.261 -0.099 4.568 -3.774 0.063 -0.05 0.082 -0.004 8.959 -0.399 2.35 -2.738 0.044 -0.051 0.064 -0.021 3.544 -1.182 2.107 -3.257 -1.378 -4.524 -0.03 -0.101 0.051 -0.089 1.647 -2.924 -1.723 -0.314 -1.121 1.68 -0.072 0.108 -2.25 0 -2.752 2.553 -0.093 0.088 -0.127 -0.029 -3.282 -0.772 -2.521 2.909 -0.066 0.077 -0.099 0.007 -7.453 0.604 -0.088 0.008 -0.072 -0.053 -32.334 -23.087 -3.109 0.971 -0.046 0.015 -0.049 -0.006 -13.972 -1.5 0 0zm-54.968 -26.431l-0.317 -2.14 0.392 -1.826 -1.699 -2.349 1.569 -2.871 4.827 -6.001 4.048 -1.306 2.348 -4.045 0.883 -5.865 -0.949 -1.618 -4.134 -2.065 -0.166 -0.084 0.037 -0.182 0.785 -3.929 -4.726 -6.3 -5.565 6.997 -2.871 -0.131 -3.655 2.479 -2.609 -0.131 -1.045 2.609 -1.174 2.219 -2.089 1.566 1.174 2.218 -1.435 1.434 -4.83 -0.782 -1.304 4.566 -0.915 6.915 -2.872 1.175 -12.79 -1.696 -5.773 0.214 0.173 3.723 3.129 -0.619 0.039 -0.007 0.041 0.006 4.102 0.574 0.104 0.015 0.06 0.085 1.641 2.301 0.047 0.066 -0.002 0.081 -0.082 2.877 -0.002 0.086 -0.057 0.066 -1.414 1.651 0.159 3.192 0.003 0.025 -0.004 0.021 -0.41 2.795 -0.013 0.097 -0.08 0.059 -2.079 1.602 -0.594 1.563 0.807 1.692 1.084 0.241 0.145 -2.265 0.012 -0.17 0.164 -0.047 1.394 -0.411 0.182 -0.052 0.095 0.163 0.85 1.471 0.698 0.162 0.216 -1.949 0.022 -0.195 0.198 -0.021 1.722 -0.163 0.198 -0.017 0.057 0.189 1.025 3.392 2.068 0.384 0.092 0.017 0.057 0.073 3.257 4.251 0.488 -1.34 -0.326 -4.058 -0.004 -0.067 0.032 -0.063 1.477 -2.876 0.015 -0.029 0.023 -0.025 5.333 -5.752 0.097 -0.106 0.136 0.032 3.117 0.741 0.106 0.024 0.051 0.097 0.985 1.807 0.04 0.073 -0.014 0.081 -0.492 3.122 -0.014 0.082 -0.056 0.056 -2.295 2.215 -3.889 4.386 -1.048 3.743 2.59 -0.03 0.246 -0.004 0 3.622 2.104 0.7 1.508 -1.658 0.073 -0.08 2.009 0 0.766 -3.519 0.014 -0.067 0.048 -0.05 3.584 -3.738 -0.873 -1.456 -0.002 -0.003 -1.13 -1.937 -0.05 -0.088 0.026 -0.097 0.808 -2.905 0.018 -0.063 0.043 -0.045 3.496 -3.496 0.31 -1.857 0.046 -0.264 0.257 0.068 2.407 0.642 1.481 0.296 1.844 -1.997 0.031 -0.034 0.044 -0.021 0.291 -0.137 0 0zm12.168 -27.159l1.089 -6.687 1.568 2.218 -0.654 4.698 1.958 4.175 0.522 6.915 2.74 4.175 0.651 4.305 10.183 6.134 6.264 -1.175 4.7 -6.393 1.303 -6.785 -2.087 -8.09 0.261 -11.743 -1.304 -4.305 -3.264 -5.22 -0.522 -4.045 1.435 -0.913 1.959 2.74 1.958 -1.304 -1.828 -3.523 -6.917 -4.697 -9.92 -0.913 -1.959 1.435 -4.959 2.871 0.13 3.913 -3.394 5.48 -6.655 0.131 -2.218 2.788 4.87 6.49 0.066 0.088 -0.023 0.106 -0.768 3.852 4.029 2.016 0.065 0.03 0.036 0.063 0.685 1.17 0 0zm-57.508 16.248l-4.313 0.16 -5.353 1.957 -0.26 4.305 0.52 1.957 -1.565 1.306 -1.176 -3.002 -2.087 -0.13 -3.263 -3.132 -4.045 2.61 -2.734 0.31 0.169 3.733 1.925 3.11 0.06 0.096 -0.036 0.106 -1.483 4.595 0.712 2.256 2.535 -1.269 0.107 -0.053 0.106 0.051 1.723 0.822 0.068 0.031 0.037 0.069 1.315 2.324 2.3 -0.309 0.11 -0.013 0.083 0.074 1.5 1.345 1.262 0.14 0.655 -0.875 0.104 -0.14 0.166 0.055 2.462 0.823 0.153 0.049 0.013 0.161 0.164 1.972 0.006 0.07 -0.034 0.062 -0.677 1.282 0.69 1.243 2.815 0.08 0.185 0.003 0.044 0.18 0.371 1.484 1.64 0.223 0.257 0.036 -0.05 0.252 -0.474 2.385 1.599 3.128 0.021 0.042 0.004 0.043 0.292 2.764 2.143 -1.144 0.064 -0.036 0.068 0.007 4.101 0.316 2.471 -5.191 0.025 -0.052 0.049 -0.037 3.938 -2.959 0.032 -0.024 0.037 -0.013 2.459 -0.821 0.04 -0.012 0.042 0 3.441 0.08 1.797 -1.44 -3.327 -4.339 -2.124 -0.395 -0.145 -0.027 -0.044 -0.142 -1.009 -3.343 -1.327 0.127 -0.223 2.023 -0.031 0.271 -0.265 -0.06 -1.067 -0.247 -0.103 -0.025 -0.052 -0.091 -0.808 -1.397 -1.049 0.31 -0.152 2.378 -0.019 0.283 -0.276 -0.062 -1.478 -0.328 -0.115 -0.025 -0.051 -0.108 -0.836 -1.749 -4.109 0.079 -0.132 0.003 -0.074 -0.109 -1.649 -2.441 -4.007 0 -0.073 -0.089 -1.067 -1.316 -0.125 -0.154 0.125 -0.153 6.669 -8.065 -0.387 -8.254 0 0zm-24.758 6.396l-2.528 0.287 -4.047 3.132 -2.349 3.261 -4.568 -0.261 -2.74 4.567 -3.263 0.392 -0.131 3.522 -4.829 3.132 0.261 4.567 1.957 2.478 -2.218 2.741 0.522 2.218 3.131 0.783 0.653 3.262 -0.987 1.761 0.205 0.03 2.071 -0.534 0.091 -0.023 0.082 0.043 1.088 0.576 4.002 -0.771 1.578 -2.441 0.895 -3.722 0.017 -0.07 0.046 -0.047 2.516 -2.515 0.435 -1.594 0.046 -0.161 0.167 -0.017 1.464 -0.132 0.276 -2.066 0.019 -0.153 0.146 -0.048 4.499 -1.45 -0.146 -5.993 -0.002 -0.047 0.017 -0.045 0.754 -1.96 0.023 -0.062 0.051 -0.04 1.449 -1.16 1.451 -4.492 -1.9 -3.069 -0.033 -0.053 -0.003 -0.063 -0.168 -3.763 0 0zm28.932 47.206l5.294 3.417 2.083 -0.109 0.121 -0.007 0.079 0.097 2.5 3.068 0.079 0.098 -0.034 0.119 -1.211 4.407 3.199 3.054 8.649 0.447 0.063 0.004 0.049 0.03 5.725 3.465 0.057 0.032 0.032 0.06 3.735 6.869 6.032 3.529 4.123 -1.03 0.135 -0.032 0.096 0.095 1.784 1.785 2.886 -2.98 -2.566 -2.414 -0.12 -0.113 0.061 -0.154 0.646 -1.614 0.065 -0.159 0.172 0.006 3.794 0.159 4.021 -2.629 0 -2.785 -2.768 -1.386 -0.196 -0.097 0.076 -0.202 0.88 -2.348 -2.574 -0.859 -1.69 0.769 -0.234 0.105 -0.093 -0.239 -2.04 -5.175 -5.005 -0.157 -0.108 -0.004 -0.068 -0.08 -3.206 -3.684 -3.036 -1.917 -0.02 -0.014 -0.017 -0.015 -2.906 -2.743 -0.006 -0.004 -0.009 -0.011 -8.556 -9.684 -0.074 -0.083 0.015 -0.108 0.646 -4.843 0.01 -0.071 0.049 -0.056 3.148 -3.599 -2.074 -0.691 -0.168 -0.056 0 -3.479 -2.571 0.031 -1.736 1.658 -0.074 0.073 -0.103 -0.004 -3.61 -0.164 -0.097 -0.006 -0.069 -0.07 -1.693 -1.775 -1.62 -0.039 -2.385 0.797 -3.857 2.897 -2.518 5.289 -0.072 0.152 -0.167 -0.014 -4.196 -0.323 -2.342 1.251 -1.668 2.585 1.759 1.915 0.036 0.041 0.017 0.053 0.739 2.383 0.013 0.047 -0.006 0.049 -0.216 2.114 4.113 -0.026 0.218 -0.001 0.024 0.217 0.556 4.886 0 0zm-28.195 -35.211l-1.179 0.943 -0.712 1.851 0.15 6.128 0.005 0.18 -0.172 0.056 -4.526 1.459 -0.281 2.106 -0.025 0.193 -0.194 0.017 -1.488 0.138 -0.409 1.493 -0.017 0.065 -0.045 0.043 -0.657 0.659 1.546 1.549 2.904 2.1 5.614 1.467 0.056 0.014 0.043 0.039 1.909 1.671 5.445 0.468 0.369 -2.001 0.018 -0.091 0.074 -0.058 1.066 -0.821 0.143 -0.11 0.146 0.105 2.542 1.808 0.073 0.052 0.023 0.09 0.555 2.301 2.98 2.437 2.613 -0.159 0.102 -0.005 0.074 0.066 4.077 3.629 0.193 -1.861 -0.708 -2.284 -1.851 -2.014 -0.127 -0.138 0.102 -0.158 1.76 -2.722 -0.315 -2.994 -1.621 -3.164 -0.039 -0.077 0.017 -0.082 0.44 -2.212 -1.547 -0.211 -0.163 -0.022 -0.04 -0.16 -0.365 -1.465 -2.77 -0.076 -0.139 -0.004 -0.066 -0.121 -0.821 -1.481 -0.064 -0.115 0.061 -0.115 0.705 -1.333 -0.145 -1.744 -2.142 -0.716 -0.634 0.847 -0.083 0.111 -0.138 -0.015 -1.477 -0.165 -0.077 -0.009 -0.058 -0.05 -1.475 -1.324 -2.35 0.314 -0.162 0.021 -0.081 -0.142 -1.357 -2.398 -1.549 -0.737 -2.681 1.343 -0.256 0.127 -0.084 -0.274 -0.715 -2.262 0 0zm170.153 55.343l-2.829 0.045 -4.072 3.606 -0.063 0.056 -0.085 0.005 -3.68 0.193 -0.142 0.008 -0.075 -0.119 -1.203 -1.89 -5.933 5.281 -0.949 3.416 -0.02 0.071 -0.052 0.047 -6.268 5.588 -6.874 11.77 1.457 1.481 0.047 0.05 0.016 0.068 0.716 3.226 4.72 2.783 0.07 0.041 0.032 0.074 2.838 6.783 0.015 0.04 0.002 0.046 0.123 4.069 0.002 0.081 -0.047 0.067 -2.407 3.369 0.968 5.198 0 0 0.617 3.081 0.022 0.115 -0.074 0.087 -2.87 3.467 0.783 2.013 5.116 3.287 0.13 0.084 -0.021 0.154 -0.74 5.057 0 0 -0.239 2.611 1.838 2.754 3.967 -0.775 1.302 -2.476 0.105 -0.2 0.207 0.09 3.074 1.336 2.176 0 1.157 -0.898 0.089 -0.07 0.111 0.023 1.814 0.39 2.19 -1.159 0.923 -1.053 0.074 -0.087 0.116 0.005 3.627 0.13 0.752 -2.008 0.129 -0.342 0.265 0.253 2.547 2.411 4.553 1.873 2.292 0.538 0.117 0.028 0.049 0.11 2.847 6.368 0 0 3.778 7.416 7.969 5.977 4.385 -2.51 0.512 -2.687 0.02 -0.101 0.087 -0.059 2.667 -1.732 0.074 -0.048 0.086 0.012 3.132 0.376 2.738 -8.733 0.021 -0.074 0.064 -0.047 3.864 -2.931 0.099 -0.076 0.116 0.034 4.132 1.202 0.04 0.008 0.027 0.019 5.539 3.692 8.456 0.135 0.079 0 0.063 0.045 5.869 4.303 7.06 -4.051 0.135 -0.078 0.129 0.09 3.652 2.61 4.14 -0.516 4.539 -1.945 0.82 -2.109 -5.151 -2.962 -0.122 -0.07 0 -6.566 -3.064 -3.063 -1.642 -0.127 -0.116 -0.008 -0.068 -0.098 -3.123 -4.554 -4.131 0.13 -0.099 0.002 -0.074 -0.067 -3.985 -3.728 -4.371 3.214 -0.072 0.054 -0.093 -0.008 -5.598 -0.534 -0.055 -0.006 -0.048 -0.029 -5.465 -3.332 -0.053 -0.03 -0.029 -0.051 -3.024 -4.997 -8.194 -3.565 -0.037 -0.017 -0.03 -0.026 -5.926 -5.397 -6.955 0 0.008 -0.25 0.131 -4.313 -1.682 -2.197 -0.045 -0.06 -0.004 -0.078 -0.262 -6.315 -2.948 -3.716 -9.888 -0.528 -0.086 -0.004 -0.064 -0.059 -1.599 -1.466 -0.076 -0.07 -0.004 -0.102 -0.13 -4.148 -3.983 -3.083 -8.724 -0.659 -0.14 -0.012 -0.059 -0.127 -2.401 -5.064 -0.06 -0.129 0.083 -0.115 3.555 -5.004 0.259 -7.538 0 0zm-32.499 28.512l-1.273 2.182 -0.914 2.091 -0.014 0.028 -0.016 0.022 -4.193 5.548 -0.01 0.013 -0.014 0.016 -6.29 6.164 -0.033 0.031 -0.038 0.017 -5.292 2.406 -0.113 2.375 1.697 3.27 0.075 0.147 -0.108 0.123 -2.293 2.656 -0.361 3.5 -0.008 0.07 -0.045 0.057 -1.481 1.849 -0.068 0.084 -0.108 0.006 -4.996 0.239 -0.699 3.147 -0.022 0.099 -0.084 0.053 -2.098 1.356 -0.173 0.112 -0.139 -0.154 -2.006 -2.227 -2.788 4.413 -0.064 0.102 -0.117 0.011 -4.589 0.483 -3.933 4.651 0.698 2.164 1.819 1.454 4.438 1.955 1.442 0.216 1.526 -0.384 0.123 -0.031 0.093 0.081 7.491 6.418 1.638 0.409 1.079 -0.665 0.159 -0.095 0.137 0.129 2.062 1.97 0.058 0.057 0.014 0.075 0.263 1.393 5.167 -1.58 0.074 -0.023 0.074 0.026 4.666 1.613 0.068 0.022 0.044 0.06 2.03 2.619 2.512 -1.255 0.107 -0.053 0.106 0.05 3.685 1.755 1.83 -0.512 -0.118 -4.003 -0.001 -0.058 0.025 -0.051 2.096 -4.438 0.067 -0.143 0.161 0.003 7.378 0.241 2.566 -4.426 -1.89 -2.836 -0.047 -0.071 0.008 -0.084 0.246 -2.715 0 -0.011 0.718 -4.902 -5.048 -3.245 -0.066 -0.043 -0.03 -0.072 -0.863 -2.221 -0.051 -0.131 0.091 -0.11 2.886 -3.487 -0.596 -2.971 0 -0.002 -0.985 -5.302 -0.02 -0.102 0.061 -0.084 2.419 -3.386 -0.119 -3.941 -2.789 -6.666 -4.741 -2.797 -0.09 -0.052 -0.022 -0.105 -0.726 -3.26 -1.315 -1.337 0 0zm-52.089 94.543l1.49 -1.959 4.961 -0.394 0.39 -3.523 2.349 -1.302 2.482 0.13 3.002 2.349 1.826 -1.696 -2.218 -3.655 -1.044 -3.653 2.478 -2.61 2.219 -0.651 3.394 3.651 7.04 0.444 0.001 -0.019 0.007 -0.045 0.023 -0.04 1.946 -3.472 -5.178 -3.105 -0.128 -0.076 0.01 -0.146 0.18 -2.779 0.008 -0.112 0.089 -0.068 6.991 -5.22 0.087 -4.516 -0.61 -3.217 -1.87 -1.788 -1.008 0.618 -0.086 0.053 -0.099 -0.023 -1.794 -0.449 -0.055 -0.013 -0.044 -0.037 -7.437 -6.373 -1.294 0.326 -0.359 2.504 -0.005 0.042 -0.02 0.039 -1.562 2.897 0.209 1.46 1.562 2.083 0.09 0.118 -0.069 0.135 -0.913 1.827 -0.033 0.067 -0.066 0.037 -1.372 0.761 -0.156 0.087 -0.128 -0.127 -2.577 -2.498 -1 -0.714 -1.468 -0.139 -1.77 0.811 -0.136 0.062 -0.115 -0.093 -1.524 -1.218 -0.09 -0.073 0 -0.112 -0.075 -3.196 -1.334 -1.751 -1.643 -0.137 -3.131 1.891 -0.779 2.266 1.766 3.967 1.517 1.229 6.794 2.238 1.507 -0.79 0.01 -0.002 1.143 -0.533 0.156 -0.073 0.122 0.124 1.979 2.054 0.187 0.193 -0.211 0.167 -1.447 1.143 -0.036 0.027 -0.044 0.015 -2.081 0.645 -0.802 2.842 -0.05 0.177 -1.536 0 -0.054 -0.027 -2.092 -1.083 -4.172 2.342 -2.53 4.314 -0.374 2.62 -0.024 0.166 -0.162 0.036 -3.112 0.723 -0.282 2.119 -0.002 0.004 -0.346 2.154 5.143 1.572 0.105 0.033 0.045 0.099 1.076 2.33 0.041 0.087 -0.031 0.09 -0.538 1.614 -0.023 0.07 -0.058 0.045 -1.928 1.511 0.7 2.099 0 0zm28.858 -12.798l7.351 1.703 4.176 2.611 2.481 -1.957 3.654 1.957 12.269 2.35 4.46 -2.035 0.005 -0.104 -0.258 -2.31 -4.234 -3.704 -0.078 -0.069 -0.004 -0.104 -0.086 -2.679 -2.753 -2.492 -3.176 -0.972 -0.129 -0.04 -0.035 -0.129 -0.713 -2.669 -1.697 -3.93 -0.031 -0.071 0.015 -0.076 0.68 -3.309 -3.49 -1.66 -2.584 1.292 -0.176 0.087 -0.124 -0.157 -2.107 -2.721 -4.52 -1.566 -5.142 1.572 0.273 1.447 0.004 0.022 -0.001 0.028 -0.089 4.659 -0.002 0.121 -0.096 0.07 -6.993 5.224 -0.164 2.519 5.253 3.15 0.204 0.123 -0.117 0.205 -2.026 3.614 0 0zm34.883 4.51l3.664 -0.067 3 5.09 2.423 0.383 0.075 -0.082 0.797 -2.129 0.022 -0.055 0.04 -0.037 4.288 -4.02 0.664 -3.048 0.014 -0.063 0.043 -0.048 2.581 -2.849 0.093 -0.104 0.132 0.028 3.233 0.646 0.839 -1.317 0.517 -2.33 -0.888 -2.409 -2.748 -1.046 -0.113 -0.045 -0.034 -0.119 -0.408 -1.493 -0.032 -0.121 0.08 -0.097 1.309 -1.574 0.402 -3.997 0.009 -0.087 0.063 -0.061 4.616 -4.478 0.172 -0.169 0.169 0.169 2.579 2.58 0.145 0.143 -0.118 0.169 -1.412 1.998 1.801 0.338 0.053 0.008 0.043 0.031 4.673 3.337 3.569 -0.53 0.081 -0.011 0.072 0.042 3.344 1.87 3.256 0.132 4.405 -3.022 -7.874 -5.903 -0.047 -0.036 -0.025 -0.048 -3.802 -7.465 -0.005 -0.011 -2.803 -6.269 -2.189 -0.517 -0.015 -0.003 -0.021 -0.007 -4.616 -1.901 -0.042 -0.017 -0.034 -0.032 -2.314 -2.192 -0.686 1.83 -0.062 0.163 -0.174 -0.005 -3.685 -0.131 -0.875 0.999 -0.029 0.033 -0.039 0.022 -2.308 1.222 -0.078 0.039 -0.086 -0.017 -1.79 -0.384 -1.134 0.881 -0.066 0.051 -2.44 0 -0.048 -0.019 -2.915 -1.27 -1.254 2.381 -0.053 0.103 -0.115 0.023 -4.132 0.809 -2.659 4.59 -0.071 0.125 -0.147 -0.006 -7.363 -0.24 -2.005 4.241 0.122 4.136 0.006 0.188 -0.184 0.053 -1.957 0.545 -0.673 3.276 1.675 3.875 0.004 0.012 0.007 0.024 0.683 2.557 3.097 0.946 0.053 0.017 0.039 0.036 2.871 2.6 0.077 0.07 0.003 0.102 0.085 2.675 4.228 3.694 0.07 0.061 0.011 0.096 0.269 2.42 0.002 0.017 0 0.005zm108.752 -155.355l-2.63 0.155 -1.306 4.697 -4.307 -3.915 -1.176 4.044 4.571 4.958 0.261 4.306 -8.354 -7.437 -0.26 -4.697 3.522 -4.306 0.522 -6.915 -1.435 0.653 -1.698 4.697 -2.609 2.348 -2.741 0.784 -2.611 3.914 0.13 10.307 -6.395 10.046 0.392 6.133 6.527 0 5.351 6.393 0 6.132 -3.787 4.568 1.045 2.087 3.003 1.696 -5.612 1.304 -1.567 -5.871 4.176 -7.306 -1.826 -5.48 -6.396 -0.914 -3.525 3.393 -0.391 7.698 -5.875 6.001 -5.35 1.959 -3.655 3.914 -12.268 -7.569 0 -3.653 8.222 3.783 4.308 -1.694 6.918 -4.437 4.698 -9.395 -0.783 -5.088 7.963 -18.92 0.911 -3.261 -0.911 -4.306 5.22 -4.957 1.045 -6.916 -4.047 -5.349 4.156 -0.543 -0.609 -5.034 -4.122 -0.306 -0.305 3.662 0.88 2.221 -2.611 -1.044 -3.916 3.002 -4.699 6.001 -3.655 3.522 -5.481 1.306 -2.873 2.739 2.873 3.784 -3.132 5.61 -4.308 1.305 -0.131 1.958 3.786 3.914 -1.306 3.652 0.654 2.349 1.435 2.088 -4.829 4.436 -1.566 -2.478 -1.306 -5.611 -5.097 -8.176 -2.919 2.43 1.715 3.047 0.066 0.119 -0.066 0.12 -3.577 6.353 1.379 4.533 0.036 0.108 -0.062 0.093 -2.217 3.423 -0.046 0.071 -0.081 0.028 -3.561 1.186 -2.374 2.769 -0.069 0.079 -0.105 0.005 -8.981 0.4 -4.573 3.774 -0.064 0.053 -0.086 0.001 -2.942 0.047 -0.263 7.635 -0.002 0.073 -0.043 0.061 -3.516 4.947 2.279 4.806 8.655 0.655 0.072 0.006 0.059 0.045 4.131 3.197 0.09 0.07 0.004 0.115 0.129 4.16 1.459 1.338 9.911 0.529 0.11 0.005 0.067 0.086 3.065 3.864 0.051 0.062 0.002 0.08 0.263 6.318 1.686 2.203 0.053 0.07 -0.002 0.085 -0.127 4.145 6.643 0 0.068 0.066 5.97 5.434 8.225 3.582 0.072 0.032 0.039 0.064 3.036 5.014 5.365 3.271 5.449 0.52 4.457 -3.277 0.161 -0.121 0.149 0.138 4.058 3.795 4.168 -0.129 0.131 -0.006 0.074 0.112 3.132 4.566 1.618 0.123 0.09 0.009 0.064 0.065 3.005 3.003 6.215 -7.895 0.39 -5.089 0.006 -0.071 0.039 -0.053 4.113 -5.679 -0.76 -4.57 -4.692 -3.517 -0.12 -0.09 0.027 -0.146 1.175 -6.652 -3.119 -4.287 -0.055 -0.073 0.01 -0.093 0.984 -9.24 -3.913 -5.086 -0.08 -0.102 0.04 -0.121 1.561 -4.68 -1.553 -3.69 -0.108 -0.258 0.268 -0.072 5.048 -1.358 2.135 -5.423 -1.118 -6.393 -5.278 -1.318 -0.083 -0.021 -0.052 -0.068 -4.851 -6.401 -0.07 -0.091 0.028 -0.114 0.97 -3.879 0.029 -0.113 0.11 -0.049 7.261 -3.248 0.728 -2.904 -3.067 -6.516 -0.034 -0.068 0.015 -0.078 0.774 -4.267 0.034 -0.167 0.167 -0.028 3.175 -0.529 -2.967 -6.304 -0.018 -0.036 -0.004 -0.045 -0.048 -0.514 0 0zm-161.776 61.594l-3.213 1.468 -0.093 0.042 -0.095 -0.036 -9.141 -3.523 -3.086 3.458 -0.152 0.172 -0.18 -0.145 -1.453 -1.161 -0.092 -0.075 0 -5.587 -0.756 -1.793 -0.058 -0.141 0.102 -0.115 7.322 -8.182 -0.306 -3.535 -2.124 -2.577 -2.878 0.455 -4.154 2.714 -0.065 0.043 -0.078 -0.003 -3.702 -0.154 -0.52 1.301 2.624 2.469 0.179 0.168 -0.173 0.177 -3.224 3.329 -0.004 0.006 -1.592 1.735 -0.148 5.03 -0.006 0.242 -0.239 -0.006 -7.881 -0.148 -3.125 3.18 1.965 1.999 0.006 0.005 0.013 0.018 2.187 2.843 0.118 0.153 -0.125 0.151 -1.219 1.445 -0.039 0.043 -0.049 0.023 -2.59 1.142 -0.127 0.056 -0.113 -0.08 -3.383 -2.445 -2.84 3.976 0.643 2.857 1.483 1.201 6.871 1.207 0.083 0.013 0.056 0.065 2.741 3.044 0.027 0.03 0.015 0.039 0.915 2.21 0.017 0.039 0.002 0.045 0.152 4.492 0.003 0.11 -0.003 0.003 0.077 7.542 0.276 0.874 1.615 -4.119 0.052 -0.13 0.138 -0.021 3.805 -0.584 1.786 -6.475 0.054 -0.192 0.197 0.017 1.983 0.151 0.041 0.002 0.043 0.02 2.144 1.002 2.624 -2.201 0.217 -1.801 0.076 -1.587 0.011 -0.238 0.24 0.007 4.267 0.154 0.09 0.001 0.066 0.063 2.5 2.352 1.937 -0.359 0.133 -0.025 0.092 0.106 1.505 1.73 1.176 0.914 2.006 -2.254 1.56 -2.113 -1.775 -1.553 -0.082 -0.073 0 -2.821 0.148 -0.063 6.762 -2.844 -0.228 -3.64 -4.034 -5.334 0 0zm-14.817 41.29l-2.37 2.147 -0.071 0.063 -2.246 0 -0.5 3.146 -0.023 0.146 -0.143 0.045 -3.807 1.219 -0.052 0.016 -0.051 -0.004 -4.26 -0.506 -0.33 2.31 1.668 1.664 0.055 0.054 0.012 0.081 0.457 2.816 0.016 0.099 -0.057 0.081 -0.762 1.064 -0.133 0.185 -0.192 -0.117 -2.536 -1.567 -1.601 -0.068 -0.999 2.212 -0.001 0 -0.912 2.053 -0.065 0.145 -0.828 0 0 6.837 1.478 2.068 0.048 0.065 -0.002 0.081 -0.152 5.312 1.232 1.373 0.068 0.076 -0.008 0.1 -0.151 2.513 -0.01 0.154 -0.146 0.057 -1.193 0.466 0.387 3.225 1.042 -0.693 0.055 -0.036 0.068 -0.003 3.046 -0.155 0.272 -0.011 -0.017 0.269 -0.23 3.656 -0.009 0.167 -0.164 0.051 -1.892 0.56 -0.061 1.094 1.375 1.449 0.158 0.163 -0.158 0.169 -2.091 2.234 1.013 1.956 5.221 1.194 0.07 0.013 0.047 0.051 2.834 2.833 2.858 0.277 1.223 -2.883 0.049 -0.107 0.115 -0.03 2.436 -0.646 0.355 -2.195 0.305 -2.285 0.023 -0.168 0.163 -0.037 3.111 -0.725 0.358 -2.501 0.007 -0.045 0.025 -0.042 2.588 -4.416 0.036 -0.056 0.056 -0.033 4.342 -2.437 0.111 -0.062 0.118 0.059 2.156 1.114 1.052 0 0.788 -2.79 0.036 -0.13 0.127 -0.039 2.166 -0.671 1.199 -0.946 -1.674 -1.74 -0.978 0.457 -1.596 0.837 -0.092 0.048 -0.098 -0.034 -6.929 -2.282 -0.04 -0.014 -0.036 -0.029 -1.599 -1.296 -0.045 -0.035 -0.024 -0.055 -1.829 -4.111 -0.038 -0.087 0.03 -0.089 0.837 -2.437 0.029 -0.084 0.076 -0.045 3.274 -1.979 0.068 -0.042 0.078 0.008 1.828 0.152 0.107 0.008 0.066 0.088 1.448 1.903 0.047 0.064 0.002 0.079 0.072 3.159 1.319 1.054 1.693 -0.774 0.059 -0.028 0.064 0.005 1.6 0.153 0.066 0.005 0.051 0.04 1.068 0.759 0.012 0.011 0.016 0.015 2.461 2.386 1.146 -0.637 0.813 -1.629 -1.508 -2.01 -0.037 -0.05 -0.011 -0.062 -0.228 -1.597 -0.009 -0.079 0.034 -0.07 1.581 -2.931 0.34 -2.384 -1.284 -0.193 -0.032 -0.006 -0.029 -0.01 -4.495 -1.983 -0.026 -0.011 -0.028 -0.019 -1.903 -1.525 -0.057 -0.044 -0.022 -0.071 -0.693 -2.141 -1.834 0.475 -0.16 0.041 -0.097 -0.132 -0.838 -1.143 -0.036 -0.048 -0.008 -0.059 -0.305 -1.979 0.002 0 -0.269 -1.206 -2.064 -0.497 -0.17 -0.043 -0.015 -0.175 -0.212 -2.68 -4.81 -0.219 -0.234 -0.008 0 -3.79 -2.097 0.067 0 0zm-16.099 -8.647l0.463 1.455 1.524 2.471 3.621 0.723 3.273 -1.785 0.136 -0.073 0.125 0.093 0.914 0.685 0.17 0.126 -0.104 0.186 -1.02 1.824 0.171 0.807 1.732 0.207 0.25 0.03 -0.038 0.248 -0.151 0.99 -0.016 0.099 -0.081 0.058 -1.772 1.294 0.612 0.722 1.412 0.211 2.252 0 2.289 -2.071 0.075 -5.226 0.004 -0.258 0.254 0.02 2.092 0.143 2.175 -2.392 1.356 -3.535 0.017 -0.044 0.032 -0.034 2.1 -2.251 2.431 -6.258 -1.228 -0.954 -0.017 -0.014 -0.017 -0.019 -1.434 -1.65 -1.918 0.358 -0.12 0.022 -0.09 -0.085 -2.525 -2.374 -3.932 -0.14 -0.067 1.358 0 0.02 -0.228 1.904 -0.012 0.094 -0.074 0.063 -2.817 2.36 -0.119 0.099 -0.14 -0.068 -2.242 -1.044 -1.741 -0.135 -1.773 6.432 -0.042 0.152 -0.156 0.022 -3.823 0.589 -1.783 4.545 0 0zm-1.066 -8.702l-1.882 1.754 -0.219 0.205 -0.154 -0.258 -1.323 -2.204 -3.745 -1.173 -5.4 0.749 -1.984 0.786 -0.004 0.023 -0.163 0.039 -3.56 0.89 -1.584 0.895 -0.357 2.647 -0.024 0.183 -0.185 0.025 -3.492 0.448 -2.457 0.703 0.4 0.992 2.986 0.139 0.119 0.006 0.069 0.099 2.4 3.416 4.296 0.293 0.208 0.014 0.021 0.208 0.222 2.543 0.009 0.097 -0.068 0.079 -0.839 0.969 1.969 2.429 0.015 -0.012 0.144 0.205 2.3 3.307 0.919 -0.183 1.378 -0.942 0.158 -0.107 0.142 0.126 1.346 1.196 0.019 0.016 0.019 0.026 2.841 4.112 0.062 0.09 -0.024 0.104 -0.159 0.663 2.192 2.465 0.085 0.093 -0.03 0.123 -0.665 2.888 1.347 2.982 0.6 0 0.849 -1.912 0 0 1.066 -2.361 0.069 -0.149 0.163 0.006 1.828 0.076 0.063 0.002 0.055 0.034 2.395 1.48 0.574 -0.8 -0.429 -2.639 -1.698 -1.696 -0.085 -0.087 0.016 -0.12 0.381 -2.665 0.035 -0.235 0.235 0.028 4.443 0.527 3.614 -1.156 0.471 -2.962 -1.28 -0.19 -0.091 -0.015 -0.059 -0.07 -0.839 -0.989 -0.168 -0.199 0.211 -0.154 1.899 -1.387 0.096 -0.643 -1.652 -0.196 -0.172 -0.022 -0.036 -0.169 -0.23 -1.066 -0.019 -0.09 0.044 -0.079 0.964 -1.718 -0.618 -0.466 -3.215 1.754 -0.078 0.042 -0.086 -0.017 -3.809 -0.76 -0.102 -0.023 -0.056 -0.09 -1.6 -2.589 -0.017 -0.027 -0.008 -0.026 -0.99 -3.121 -0.01 -0.033 -0.002 -0.041 -0.07 -7.135 0 0zm-13.001 -15.706l-3.652 -2.29 -1.77 1.414 -0.062 0.049 -0.079 0.005 -3.278 0.141 -0.17 5.433 6.556 2.112 0.137 0.044 0.028 0.143 0.97 5.233 0.008 0.036 -0.004 0.036 -0.324 2.658 1.765 -0.698 0.025 -0.011 0.031 -0.003 5.484 -0.761 0.055 -0.008 0.051 0.017 3.885 1.217 0.088 0.029 0.048 0.079 1.216 2.026 1.985 -1.852 -0.147 -4.338 -0.881 -2.127 -2.659 -2.953 -6.849 -1.203 -0.06 -0.01 -0.05 -0.041 -1.6 -1.296 -0.065 -0.053 -0.018 -0.082 -0.664 -2.946 0 0zm-34.27 -6.514l0.959 2.616 0 0 0.666 1.797 4.191 4.241 0.06 0.061 0.008 0.086 0.519 5.183 1.792 3.368 1.481 0.247 0.377 -0.941 0.059 -0.146 0.157 -0.006 3.534 -0.145 0.531 -0.862 0.122 -0.199 0.205 0.115 1.195 0.674 0.105 0.059 0.018 0.121 0.207 1.523 1.333 0.762 2.923 -2.09 0.364 -3.924 0.016 -0.168 0.16 -0.045 3.791 -1.071 0.178 -5.663 0.007 -0.225 0.225 -0.009 3.425 -0.149 1.843 -1.473 0.134 -0.108 0.146 0.092 3.689 2.314 2.914 -4.078 0.142 -0.198 0.198 0.145 3.467 2.504 2.412 -1.064 1.055 -1.251 -2.054 -2.675 -4.224 -4.295 -2.349 -1.027 -0.098 -0.043 -0.035 -0.1 -0.766 -2.159 -2.596 -0.068 -1.059 0.705 -0.061 0.041 -0.076 -0.002 -8.908 -0.072 -2.037 1.163 -0.156 0.088 -0.132 -0.123 -1.191 -1.12 -2.695 0.207 -1.131 1.622 -0.055 0.082 -0.098 0.019 -1.828 0.366 -5.047 3.041 -0.055 0.034 -0.063 0.002 -4.425 0.147 -3.469 2.074 0 0zm17.769 18.972l-0.068 1.376 -0.003 0.061 -0.032 0.05 -1.033 1.722 3.403 4.055 0.026 0.029 0.014 0.036 0.478 1.179 2.52 -0.724 0.012 -0.005 0.024 -0.003 3.329 -0.425 0.349 -2.58 0.016 -0.119 0.106 -0.059 1.72 -0.972 0.031 -0.017 0.03 -0.009 3.427 -0.856 0.349 -2.862 -0.938 -5.054 -6.524 -2.101 -3.733 1.056 -0.359 3.871 -0.009 0.11 -0.09 0.064 -3.045 2.177 0 0zm-16.381 -14.108l-2.625 1.855 -4.934 4.399 1.439 4.041 3.569 0 0.313 3.978 1.764 2.92 0.906 -0.783 0.088 -0.076 0.112 0.02 3.364 0.597 0.127 0.023 0.053 0.115 1.358 2.937 2.088 0.151 5.207 1.808 0.619 -0.927 0.588 -2.941 0.012 -0.059 0.039 -0.048 0.664 -0.811 1.08 -1.8 0.063 -1.283 -1.543 -0.884 -0.225 -1.642 -0.888 -0.5 -0.544 0.881 -3.636 0.149 -0.463 1.157 -2.108 -0.351 -1.946 -3.659 -0.519 -5.197 -4.022 -4.07zm-8.012 6.431l-1.463 0.062 -0.045 0.002 -0.043 -0.016 -1.622 -0.562 -2.793 3.312 -0.603 3.542 -0.067 5.385 -0.001 0.075 -0.045 0.064 -0.89 1.231 -0.034 0.048 -0.051 0.028 -0.619 0.317 4.009 6.314 2.798 0.286 0.125 0.013 0.062 0.108 0.898 1.569 0.032 0.057 0 1.868 5.598 3.271 5.448 0.947 4.054 -3.839 0.394 -1.116 -0.997 -1.926 -0.076 -0.149 0.11 -0.124 1.135 -1.278 0 -5.288 -1.944 -0.132 -0.142 -0.011 -0.063 -0.129 -1.364 -2.951 -3.128 -0.556 -1.034 0.895 -0.219 0.189 -0.148 -0.247 -1.945 -3.215 -0.03 -0.047 -0.004 -0.057 -0.282 -3.59 -3.46 0 -0.058 -0.162 -1.493 -4.188 0 0zm11.016 28.28l0.068 2.967 5.394 2.914 1.908 0.635 1.365 -0.584 0.321 -1.862 -1.035 -0.516 -0.145 -0.073 0.012 -0.161 0.074 -1.046 0.004 -0.068 0.04 -0.057 1.421 -2.017 0.062 -0.087 0.106 -0.014 3.439 -0.447 0.006 -0.003 2.093 -0.222 0.093 -0.01 0.077 0.055 2.242 1.646 0.006 0.002 0.011 0.012 3.17 2.798 1.942 0.487 1.532 -0.905 2.818 -2.964 0.013 -0.015 0.017 -0.014 0.695 -0.521 -2.084 -2.57 -0.128 -0.159 0.132 -0.152 0.904 -1.045 -0.196 -2.231 -4.205 -0.287 -0.115 -0.004 -0.067 -0.096 -2.4 -3.417 -3.022 -0.144 -0.154 -0.007 -0.06 -0.144 -1.108 -2.731 -3.3 -3.933 -0.448 0.55 -0.587 2.93 -0.01 0.048 -0.027 0.039 -0.746 1.121 -0.104 0.158 -0.179 -0.063 -5.062 -1.757 0 5.359 -0.061 0.067 -1.085 1.222 0.969 1.87 0.049 0.092 -0.035 0.101 -0.449 1.273 -0.019 0.049 -0.045 0.042 -4.107 3.889 0 0zm7.638 6.931l0.134 1.825 0.805 3.143 2.285 2.872 0.061 0.08 -0.008 0.091 -0.291 3.505 1.969 2.843 0.033 0.048 0.007 0.055 0.224 1.571 0.003 0.019 -0.002 0.026 -0.062 1.594 5.408 -0.422 3.901 -3.384 0.053 -0.048 0.07 -0.012 2 -0.295 3.703 -1.162 1.374 -2.528 0.032 -0.063 0.061 -0.033 5.546 -3.105 0.703 -1.334 0.963 -3.186 0.348 -1.461 -2.764 -3.994 -1.181 -1.052 -1.266 0.864 -0.041 0.028 -0.047 0.011 -1.123 0.222 -0.155 0.034 -0.091 -0.132 -2.249 -3.232 -0.68 0.508 -2.828 2.977 -0.023 0.025 -0.03 0.017 -1.644 0.971 -0.086 0.051 -0.098 -0.025 -2.093 -0.523 -0.056 -0.013 -0.045 -0.04 -3.204 -2.83 -2.163 -1.586 -1.998 0.214 -3.33 0.434 -1.321 1.876 -0.058 0.819 1.052 0.525 0.161 0.079 -0.032 0.177 -0.373 2.17 -0.022 0.129 -0.122 0.053 -1.41 0.604 0 0zm-22.547 16.089l2.492 2.372 -0.262 2.608 -0.651 2.089 1.434 2.611 2.872 -1.306 1.435 -2.873 1.698 -1.824 4.047 0.783 2.218 -1.827 1.565 -0.132 1.175 0.915 4.047 -0.261 3.002 -0.783 2.018 -0.446 0.122 -0.163 0.07 -1.771 -0.214 -1.495 -1.985 -2.865 -0.05 -0.073 0.006 -0.087 0.293 -3.493 -2.258 -2.838 -0.033 -0.042 -0.014 -0.05 -0.821 -3.215 -0.006 -0.02 -0.001 -0.022 -0.14 -1.858 -1.863 -0.621 -0.024 -0.009 -0.015 -0.008 -5.533 -2.99 -0.125 -0.067 -0.003 -0.141 -0.07 -3.014 -5.413 -0.938 -0.043 -0.009 -0.038 -0.019 -5.758 -3.366 -0.12 -0.071 0 -2.018 -0.804 -1.404 -2.791 -0.289 -0.118 -0.011 -0.062 -0.098 -4.098 -6.448 -5.449 2.809 -0.032 0.017 -0.036 0.005 -3.157 0.548 -0.243 3.956 -0.006 0.101 -0.075 0.064 -0.871 0.781 0.251 3.147 1.639 2.142 2.449 0.514 0.068 0.014 0.051 0.05 4.408 4.274 0.074 0.069 0 3.397 -0.063 0.07 -1.946 2.207 -0.116 2.081 1.572 0.112 1.816 -0.778 0.325 -0.141 0.013 0.357 0.131 3.532 1.106 1.597 2.575 0.514 0.19 0.04 0.005 0.192 0.14 5.916 0 0zm27.431 2.28l-0.139 2.962 1.565 3.784 1.827 -0.391 1.305 -1.176 2.742 1.305 -0.131 1.828 -0.783 1.696 0.914 1.043 2.61 0.913 1.044 3.653 1.044 4.567 -1.174 2.872 1.174 2.347 3.002 -1.824 1.305 0.389 0.915 1.957 0.651 3.394 1.957 1.435 2.352 -1.567 2.219 0.132 4.175 1.825 -0.13 1.956 0.913 1.567 2.089 0.394 1.696 -1.828 1.828 1.828 2.35 1.433 -0.523 3.654 0.523 2.088 2.349 2.607 1.957 0.654 1.958 -1.176 1.567 0.522 1.175 2.351 4.829 1.566 2.088 -1.566 2.088 -3.001 -3.692 -8.08 -0.331 -0.224 -0.065 -0.048 -0.028 -0.079 -0.807 -2.421 -0.054 -0.161 0.135 -0.106 2.005 -1.568 0.485 -1.451 -0.991 -2.147 -5.175 -1.584 -2.408 0.636 -1.247 2.938 -0.071 0.162 -0.178 -0.017 -3.123 -0.302 -0.087 -0.009 -0.061 -0.062 -2.846 -2.844 -5.262 -1.203 -0.11 -0.023 -0.051 -0.102 -1.143 -2.209 -0.078 -0.152 0.118 -0.123 2.052 -2.192 -1.289 -1.36 -0.074 -0.076 0.005 -0.102 0.076 -1.371 0.01 -0.171 0.164 -0.048 1.894 -0.561 0.202 -3.215 -2.707 0.135 -1.317 0.878 -0.329 0.219 -0.047 -0.393 -0.456 -3.806 -0.023 -0.189 0.175 -0.067 1.225 -0.478 0.138 -2.257 -1.226 -1.369 -0.066 -0.073 0.003 -0.096 0.152 -5.323 -1.478 -2.065 -0.045 -0.066 0 -7.18 -1.426 -3.15 -0.033 -0.077 0.019 -0.077 0.657 -2.847 -1.883 -2.12 -0.079 0.332 -0.003 0.014 -0.973 3.214 -0.006 0.022 -0.011 0.023 -0.748 1.418 -0.033 0.064 -0.065 0.036 -5.546 3.106 -1.387 2.554 -0.047 0.087 -0.095 0.029 -3.813 1.196 -0.019 0.004 -0.018 0.004 -1.951 0.289 -3.909 3.391 -0.06 0.053 -0.08 0.006 -5.647 0.441 -0.149 0.2 0 0zm5.879 -93.38l-3.156 -3.013 -0.103 -0.1 0.038 -0.14 1.216 -4.426 -2.343 -2.876 -2.038 0.108 -0.079 0.003 -0.064 -0.042 -5.296 -3.418 -4.067 3.957 -0.079 0.076 -0.106 -0.008 -3.082 -0.213 -1.088 5.979 0.553 1.879 0.06 0.203 -0.193 0.086 -3.937 1.781 -0.381 1.9 0.204 3.009 2.044 2.18 2.388 -1.964 0.17 -0.14 0.155 0.155 0.595 0.596 4.63 -0.514 0.076 -0.009 0.064 0.036 2.306 1.224 4.186 -2.543 1.025 -1.609 0.069 -0.107 0.125 -0.006 3.394 -0.147 2.714 -1.897 0 0zm-23.912 -0.63l3.693 -1.67 -0.509 -1.731 -0.017 -0.054 0.011 -0.055 1.136 -6.252 0.04 -0.214 0.216 0.014 3.189 0.221 4.042 -3.932 -0.529 -4.666 -3.949 0.025 -0.026 0.255 -0.355 -0.315 -4.354 -3.878 -2.607 0.159 -0.095 0.006 -0.072 -0.061 -3.118 -2.547 -0.063 -0.051 -0.02 -0.081 -0.553 -2.293 -2.321 -1.653 -0.852 0.655 -0.393 2.127 -0.039 0.218 -0.219 -0.019 -5.744 -0.492 -0.079 -0.006 -0.061 -0.055 -1.926 -1.687 -5.604 -1.465 -0.045 -0.012 -0.037 -0.027 -2.953 -2.136 -0.014 -0.009 -0.016 -0.016 -1.56 -1.566 -1.514 1.514 -0.886 3.695 -0.01 0.042 -0.023 0.035 -1.659 2.56 -0.056 0.087 -0.1 0.02 -3.892 0.752 0.975 2.315 3.321 6.232 2.44 1.78 5.352 0.949 0.176 0.031 0.023 0.175 0.333 2.464 2.146 2.615 0.065 0.08 -0.01 0.1 -0.034 0.304 4.535 -0.629 0.627 -0.627 0.124 -0.123 0.157 0.078 0.957 0.48 0.144 0.071 -0.009 0.16 -0.129 2.117 5.364 3.44 5.058 -0.067 0.115 -0.002 0.074 0.088 2.139 2.527 0 0zm12.897 7.205l4.188 2.226 2.159 -0.72 0.135 -0.045 0.105 0.094 1.505 1.356 0.075 0.067 0.006 0.101 0.142 2.575 2.897 1.593 0.138 0.076 -0.013 0.156 -0.534 6.364 8.637 0.073 1.062 -0.707 0.062 -0.043 0.078 0.002 2.84 0.076 0.168 0.004 0.057 0.156 0.787 2.22 2.295 1.004 0.044 0.019 0.032 0.033 1.959 1.992 3.19 -3.249 0.074 -0.075 0.103 0.002 7.747 0.147 0.143 -4.881 0.003 -0.089 0.06 -0.068 1.501 -1.637 -1.697 -1.696 -4.086 1.02 -0.095 0.025 -0.086 -0.051 -6.177 -3.614 -0.058 -0.035 -0.032 -0.059 -3.736 -6.869 -5.618 -3.401 -8.595 -0.444 -2.945 2.062 -0.056 0.041 -0.071 0.004 -3.339 0.144 -0.987 1.55 -0.03 0.047 -0.049 0.03 -3.988 2.424 0 0zm-7.135 -0.564l0.322 0.321 0.098 0.096 -0.034 0.135 -0.602 2.409 -0.014 0.047 -0.029 0.04 -1.234 1.646 1.637 1.772 2.363 1.034 0.056 0.024 0.038 0.05 4.821 6.173 0.025 0.034 0.013 0.035 1.024 2.87 1.57 -0.313 1.139 -1.639 0.067 -0.096 0.117 -0.008 2.916 -0.224 0.105 -0.008 0.078 0.074 1.14 1.072 1.827 -1.045 0.531 -6.339 -2.874 -1.58 -0.118 -0.066 -0.008 -0.135 -0.145 -2.609 -1.328 -1.195 -2.126 0.709 -0.098 0.033 -0.092 -0.049 -7.017 -3.731 -4.168 0.463 0 0zm-6.446 -3.77l-1.332 1.224 -2.626 3.028 -0.781 2.408 1.125 3.442 1.401 1.8 0.874 0.805 0.116 0.108 -0.052 0.152 -0.889 2.53 -0.01 0.031 -0.016 0.022 -1.218 1.858 4.999 8.418 3.486 -2.084 0.055 -0.032 0.063 -0.002 4.421 -0.148 4.861 -2.93 -1.016 -2.845 -4.758 -6.095 -2.354 -1.03 -0.048 -0.021 -0.035 -0.037 -1.807 -1.958 -0.137 -0.148 0.121 -0.162 1.326 -1.767 0.558 -2.229 -1.105 -1.103 -2.389 1.967 -0.175 0.146 -0.156 -0.165 -2.262 -2.411 -0.059 -0.063 -0.006 -0.088 -0.175 -2.621 0 0zm-21.71 -4.91l0.388 2.524 1.375 2.159 1.93 1.067 0.127 0.067 0 4.462 -0.044 0.062 -1.231 1.779 -0.012 0.013 -0.725 0.906 0.794 1.645 1.925 1.196 0.1 0.062 0.011 0.12 0.343 3.421 0.012 0.116 -0.08 0.08 -1.573 1.572 0 1.489 2.189 -0.119 0.893 -0.827 0.119 -0.112 0.146 0.067 1.292 0.581 2.054 -0.513 0.713 -0.582 0.141 -0.117 0.151 0.105 1.364 0.954 0 0 1.078 0.719 1.024 -0.904 0.072 -0.065 0.098 0.004 3.213 0.131 1.211 -1.845 0.827 -2.35 -0.773 -0.714 -0.017 -0.015 -0.011 -0.013 -1.437 -1.846 -0.025 -0.034 -0.015 -0.042 -1.161 -3.556 -0.025 -0.076 0.025 -0.074 0.819 -2.531 0.016 -0.048 0.031 -0.037 2.67 -3.079 0.012 -0.012 0.008 -0.008 1.652 -1.519 0.371 -1.86 -2.107 -2.491 -5.018 0.067 -0.073 0.001 -0.061 -0.039 -5.544 -3.558 -0.119 -0.078 0.009 -0.14 0.126 -2.098 -0.657 -0.329 -0.561 0.562 -0.056 0.055 -0.082 0.013 -4.741 0.657 -0.047 0.428 -0.008 0.062 -0.034 0.05 -3.092 4.435 0 0zm1.404 12.77l0.743 -0.928 1.186 -1.713 0 -4.025 -1.858 -1.024 -0.052 -0.029 -0.035 -0.053 -1.438 -2.258 -0.027 -0.046 -0.008 -0.049 -0.354 -2.298 -2.559 1.646 -0.048 0.031 -0.059 0.006 -4.861 0.479 -0.14 0.013 -0.08 -0.116 -0.9 -1.282 -1.593 -0.245 -1.087 0.639 -0.268 0.159 -0.089 -0.3 -1.045 -3.597 -2.122 -0.121 -1.772 1.639 -0.073 0.067 -0.097 -0.002 -3.299 -0.068 -1.591 0.701 -0.95 1.647 0.062 1.449 0.833 1.599 1.234 0.705 0.828 -0.652 0.074 -0.059 0.094 0.008 1.916 0.137 0.196 0.014 0.026 0.195 0.206 1.435 0.024 0.161 -0.141 0.083 -1.477 0.873 -0.866 0.866 0 1.131 0.68 1.115 6.667 3.532 4.264 -2.463 0.092 -0.054 0.101 0.032 1.096 0.341 0.026 0.008 0.027 0.018 3.311 2.012 0.894 -1.072 0.068 -0.082 0.107 -0.004 4.134 -0.201 0 0zm1.806 10.462l-2.592 2.79 -1.259 1.724 -0.187 1.175 0.639 1.726 1.933 1.53 0.058 0.046 0.022 0.07 0.548 1.71 0.012 0.04 -0.002 0.04 -0.044 1.671 2.687 0.134 0.138 0.006 0.063 0.12 1.61 2.951 1.631 0.94 1.031 -0.304 1.476 -0.938 0.174 -0.111 0.137 0.153 2.491 2.759 1.675 0.579 1.509 -0.062 5 -4.458 0.009 -0.008 0.014 -0.01 2.652 -1.876 -0.619 -1.673 0 0 -1.019 -2.782 -5.123 -8.626 -3.124 -0.127 -1.089 0.961 -0.141 0.125 -0.154 -0.103 -1.233 -0.822 -0.004 -0.004 -1.217 -0.851 -0.611 0.499 -0.043 0.033 -0.053 0.014 -2.19 0.547 -0.081 0.021 -0.077 -0.035 -1.223 -0.549 -0.838 0.78 -0.066 0.06 -0.087 0.004 -2.433 0.131 0 0zm-15.682 -8.576l-0.131 4.119 1.05 2.294 2.222 2.02 0.094 0.086 -0.017 0.125 -0.534 4.205 1.787 2.169 1.887 0.189 2.882 -1.342 0.059 -0.026 0.068 0.005 1.825 0.184 0.169 -1.073 0.01 -0.061 0.033 -0.047 1.301 -1.778 0.008 -0.01 0.01 -0.011 2.604 -2.804 0 -1.853 0.071 -0.07 1.561 -1.561 -0.319 -3.187 -1.883 -1.168 -0.061 -0.038 -0.03 -0.062 -0.818 -1.704 -3.979 0.193 -0.956 1.149 -0.135 0.161 -0.178 -0.108 -3.461 -2.104 -0.969 -0.303 -4.17 2.411 0 0zm14.795 21.583l-0.011 0.377 -0.002 0.103 -0.076 0.069 -2.257 2.053 -0.028 0.025 -0.034 0.016 -3.625 1.677 -0.789 1.394 0.562 1.188 0.014 0.029 0.006 0.038 0.342 2.19 0.011 0.068 -0.027 0.064 -0.615 1.435 -0.037 0.087 -0.085 0.039 -2.165 0.999 -0.236 3.701 2.089 1.53 0.007 0.005 0.016 0.014 1.52 1.441 0.071 0.064 0.005 0.095 0.163 2.512 2.191 1.647 3.208 -0.557 6.417 -3.309 0.81 -1.12 0.068 -5.33 0 -0.019 0.002 -0.017 0.617 -3.627 0.012 -0.064 0.041 -0.05 2.807 -3.329 -2.254 -2.496 -1.333 0.849 -0.029 0.018 -0.031 0.01 -1.164 0.342 -0.1 0.028 -0.09 -0.051 -1.779 -1.027 -0.059 -0.034 -0.033 -0.06 -1.577 -2.89 -2.543 -0.127 0 0zm-12.398 -8.32l-4.841 3.924 -0.869 1.533 -0.073 0.13 -0.148 -0.007 -2.539 -0.123 0.143 1.943 1.58 2.136 2.675 0.163 0.133 0.007 0.065 0.117 0.759 1.352 0.032 0.057 0 1.603 1.636 0.779 0.115 0.054 0.02 0.129 0.408 2.612 4.283 3.322 2.08 -0.96 0.552 -1.288 -0.326 -2.083 -0.603 -1.27 -0.053 -0.113 0.063 -0.11 0.889 -1.574 0.04 -0.068 0.071 -0.032 3.66 -1.695 2.156 -1.959 0.064 -2.385 -0.513 -1.6 -1.928 -1.528 -0.052 -0.043 -0.025 -0.063 -0.63 -1.706 -1.836 -0.184 -2.883 1.343 -0.06 0.026 -0.066 -0.006 -2.053 -0.206 -0.1 -0.01 -0.064 -0.077 -1.762 -2.14 0 0zm-17.428 -10.914l5.677 7.419 0.051 0.067 0 3.892 0.793 1.035 0.051 0.067 0 1.891 0.441 0.955 1.723 0.548 2.634 0.129 0.816 -1.443 0.024 -0.042 0.035 -0.027 4.989 -4.043 0.519 -4.088 -2.166 -1.968 -0.036 -0.033 -0.021 -0.045 -1.095 -2.396 -0.024 -0.052 0.002 -0.055 0.133 -4.16 -6.577 -3.483 -7.969 5.832 0 0zm11.86 -39.6l-0.586 1.046 -4.308 2.479 -2.219 3.523 -2.348 4.828 -0.261 3.913 0.653 2.35 -1.698 2.087 -0.105 1.613 0.066 0.049 4.113 0.265 1.659 -0.729 0.047 -0.021 0.054 0 3.256 0.068 1.777 -1.643 0.076 -0.071 0.101 0.006 2.395 0.137 0.172 0.009 0.047 0.165 1.008 3.464 0.896 -0.526 0.074 -0.044 0.084 0.012 1.78 0.274 0.103 0.017 0.058 0.085 0.878 1.251 4.659 -0.458 2.783 -1.791 3.087 -4.425 0.118 -1.068 -2.123 -2.589 -0.044 -0.054 -0.01 -0.068 -0.319 -2.354 -5.23 -0.927 -0.055 -0.01 -0.047 -0.034 -2.531 -1.847 -0.047 -0.034 -0.025 -0.048 -3.353 -6.293 -0.006 -0.011 -0.004 -0.01 -1.061 -2.518 -1.005 -0.533 -2.03 0.525 -0.05 0.013 -0.046 -0.007 -0.433 -0.066 0 0zm-11.352 22.088l-3.591 -0.296 -2.61 -2.479 0.26 -2.348 -2.479 -0.522 -1.437 3.522 -5.221 4.435 0.393 2.872 2.74 -0.13 2.088 1.695 0.784 3.654 2.349 -0.261 2.742 0.521 0 1.827 -3.409 4.482 6.463 0.246 8.045 -5.888 -0.635 -1.041 -0.037 -0.06 0 -1.468 0.072 -0.07 0.957 -0.959 0.021 -0.019 0.027 -0.017 1.368 -0.806 -0.156 -1.082 -1.627 -0.117 -0.884 0.695 -0.13 0.1 -0.141 -0.08 -1.437 -0.821 -0.062 -0.035 -0.034 -0.064 -0.89 -1.711 -0.024 -0.045 -0.002 -0.056 -0.069 -1.574 -0.001 -0.069 0.035 -0.061 0.831 -1.441 -3.853 -0.249 -0.072 -0.004 -0.057 -0.043 -0.317 -0.233 0 0zm-8.088 17.432l-2.16 0.93 -1.044 2.087 -1.567 0.393 -0.131 2.608 2.221 1.307 -0.541 4.875 2.629 2.262 1.203 -0.679 0.075 -0.041 0.084 0.014 1.52 0.254 0.151 0.025 0.043 0.147 0.652 2.2 2.42 1.617 3.588 0.75 0.071 0.016 0.053 0.054 3.555 3.641 1.601 -1.451 0.07 -0.063 1.473 0 0.074 0.088 0.672 0.823 0.742 -0.124 0.402 -0.936 -1.606 -2.172 -0.044 -0.057 -0.006 -0.071 -0.155 -2.12 -1.702 -0.544 -0.103 -0.032 -0.045 -0.097 -0.506 -1.099 -0.023 -0.05 0 -1.832 -0.795 -1.034 -0.049 -0.068 0 -3.893 -5.711 -7.46 -7.111 -0.268 0 0zm-3.408 12.681l-1.884 2.34 -0.913 1.435 0.391 1.957 1.957 0.914 -0.261 3.001 4.96 3.132 0.131 5.739 3.893 7.398 5.401 -5.469 -0.483 -2.412 -0.017 -0.089 0.047 -0.081 0.845 -1.441 0.074 -0.126 0.146 0.007 1.672 0.074 -0.059 -0.974 -0.925 -0.693 -0.19 -0.144 0.14 -0.193 1.051 -1.458 0 -2.704 -3.596 -3.684 -3.561 -0.746 -0.045 -0.01 -0.04 -0.025 -2.535 -1.692 -0.073 -0.049 -0.024 -0.086 -0.633 -2.138 -1.287 -0.215 -1.277 0.719 -0.147 0.083 -0.13 -0.11 -2.628 -2.26 0 0zm8.511 26.365l1.09 2.071 -0.187 4.807 3.322 1.774 0.016 0.008 2.402 1.545 2.224 -1.539 0.068 -0.048 0.083 0.006 3.37 0.177 3.537 -2.16 0.385 -2.692 0.033 -0.235 0.238 0.03 3.954 0.528 2.087 -0.654 0.196 -0.058 0.093 0.182 1.558 3.119 3.514 1.252 0.779 -0.693 0.238 -3.919 -2.258 -1.699 -0.091 -0.068 -0.008 -0.112 -0.162 -2.529 -1.436 -1.356 -2.189 -1.602 -0.107 -0.079 0.008 -0.132 0.246 -3.853 -4.376 -3.387 -0.076 -0.062 -0.015 -0.096 -0.402 -2.58 -1.66 -0.792 -0.139 -0.066 0 -1.782 -0.664 -1.183 -2.484 -0.15 -0.439 1.027 -0.052 0.122 -0.132 0.021 -1.014 0.17 -0.14 0.024 -0.088 -0.111 -0.688 -0.839 -1.06 0 -1.623 1.47 0 2.849 -0.047 0.065 -0.959 1.33 0.823 0.619 0.091 0.067 0.006 0.112 0.086 1.354 0.016 0.269 -0.27 -0.011 -1.798 -0.078 -0.723 1.231 0.489 2.448 0.025 0.127 -0.09 0.093 -5.6 5.668 0 0zm624.385 57.704l-0.185 -0.442 7.7 4.177 2.48 6.521 3.785 4.828 4.567 7.308 3.263 5.347 3.786 2.872 1.174 3.392 1.045 3.001 4.697 2.218 0.655 4.696 4.828 6.135 0.393 -5.351 -0.655 -4.046 3.785 -0.26 1.436 -0.652 3.524 1.828 -2.87 -6.003 -4.18 0 -4.436 -1.956 -5.089 -3.656 -3.263 -8.348 -1.828 -5.352 3.914 -2.218 7.311 -0.389 -16.445 -11.092 -11.616 -10.437 -5.353 -10.048 -7.31 -5.087 -3.392 -4.307 -2.347 1.044 -0.523 2.481 4.305 3 2.351 3.523 -1.306 1.695 -2.09 -0.522 -0.651 3.002 4.176 3.13 4.179 9.526 -0.346 -0.142 -5.659 -2.338 -1.96 -2.346 1.699 -3.395 -4.175 -1.696 -8.746 -1.566 -6.787 3.523 -2.351 10.31 -2.87 -3.657 -3.264 4.178 -2.741 -7.96 -5.742 3.522 -4.831 -0.782 0.261 -4.567 6.266 -15.656 1.567 -15.656 1.825 -7.569 -1.564 -6.263 2.087 -5.609 -0.914 -6.002 13.184 -12.918 4.175 0.781 0.393 -1.565 -1.174 -1.826 1.839 -1.212 -2.271 -3.973 -4.501 0 -3.837 2.825 -0.231 0.171 -0.128 -0.258 -1.848 -3.695 -0.06 -0.113 0.063 -0.112 2.216 -4.025 -0.984 -4.908 -8.989 -2.996 -4.14 2.758 -1 3.607 -0.045 0.152 -0.154 0.024 -5.426 0.803 -1.584 2.772 -0.053 0.094 -0.106 0.021 -4.724 1.027 -0.065 0.013 -0.064 -0.021 -7.021 -2.405 -1.864 2.421 3.647 9.725 0.028 0.076 -0.02 0.074 -2.622 9.278 3.962 2.773 0.073 0.051 0.023 0.081 2.258 8.007 0.056 0.196 -0.185 0.087 -2.933 1.367 0.196 3.736 0.003 0.051 -0.016 0.045 -1.438 3.899 -0.054 0.149 -0.157 0.011 -5.95 0.396 -0.393 4.515 -0.014 0.151 -0.144 0.054 -10.106 3.84 0 11.825 -0.06 0.068 -2.289 2.668 5.116 3.541 0.178 0.124 -0.098 0.187 -2.775 5.348 5.153 3.369 0.065 0.042 0.028 0.07 1.233 3.08 0.056 0.144 -0.104 0.112 -2.775 2.969 1.992 5.61 8.186 -4.257 0.163 -0.086 0.129 0.136 2.698 2.924 0.11 0.117 -0.071 0.15 -4.017 8.708 0.443 4.206 0.015 0.157 -0.135 0.078 -3.019 1.724 0.202 3.441 6.871 0 0.073 0.106 3.073 4.608 3.373 -0.211 5.502 -5.061 0.885 -3.751 0.042 -0.188 4.315 0 1.284 -2.564 0.079 -0.157 0.174 0.026 2.923 0.449 0.149 0.022 0.045 0.147 2.699 8.318 0.047 0.14 -0.107 0.104 -1.797 1.8 -0.055 0.053 -0.079 0.014 -6.654 1.072 1.663 3.53 0.068 0.148 -0.11 0.121 -2.651 2.87 -0.663 3.752 -0.012 0.065 -0.042 0.05 -3.917 4.571 1.674 2.092 0.114 0.145 -0.111 0.149 -2.648 3.531 0 4.267 7.062 3.53 0.054 0.028 0.033 0.048 5.685 7.868 3.554 -3.371 0.074 -0.068 0.099 0.003 7.627 0.132 0.084 0.003 0.065 0.05 3.376 2.726 10.179 -3.436 0.419 -0.141 -0.107 0.43 -1.067 4.314 0 0 3.477 5.68 -1.303 4.178 2.122 6.074 3.674 -0.808 -1.467 -2.93 -0.066 -0.138 0.093 -0.118 2.139 -2.81 0.068 -0.091 0.109 -0.004 7.965 -0.531 4.641 -3.094 -0.519 -4.803 -0.028 -0.259 0.261 -0.011 3.409 -0.127 1.006 -6.9 -4.561 -0.382 -0.093 -0.008 -0.064 -0.068 -3.212 -3.477 -0.183 -0.2 0.216 -0.16 5.352 -4.015 0.144 -0.106 0.143 0.103 4.684 3.344 0.079 0.056 0.02 0.096 0.64 3.198 2.389 0.676 1.188 -15.39 -1.696 -4.826 -7.571 -15.394 -2.48 -3.002 -2.217 -10.83 -1.512 -3.603zm-116.763 44.575l8.895 -4.57 6.788 2.347 8.223 -1.302 12.008 11.871 14.879 15.396 5.874 -2.347 3.655 1.696 2.611 -1.306 4.959 1.566 2.685 -0.35 4.708 -7.165 -5.713 -7.91 -7.144 -3.568 -0.135 -0.071 0 -4.725 0.048 -0.065 2.585 -3.446 -1.682 -2.103 -0.123 -0.157 0.128 -0.152 4.005 -4.668 0.663 -3.757 0.015 -0.072 0.047 -0.052 2.587 -2.804 -1.728 -3.672 -0.139 -0.291 0.319 -0.052 6.892 -1.111 1.641 -1.64 -2.606 -8.031 -2.601 -0.402 -1.269 2.537 -0.068 0.138 -4.228 0 -0.858 3.634 -0.017 0.073 -0.055 0.05 -5.623 5.171 -0.065 0.055 -0.084 0.006 -3.6 0.228 -0.138 0.009 -0.079 -0.118 -3.075 -4.613 -7.071 0 -0.014 -0.23 -0.225 -3.82 -0.008 -0.153 0.129 -0.072 3.014 -1.721 -0.435 -4.114 -0.006 -0.066 0.028 -0.059 3.979 -8.622 -2.462 -2.667 -16.547 8.603 0.421 2.522 0.034 0.197 -0.189 0.07 -3.597 1.348 -0.068 0.026 -0.067 -0.015 -3.073 -0.657 -10.719 4.91 -0.141 0.065 -0.115 -0.098 -2.592 -2.16 -7.739 2.875 -0.13 0.048 -0.103 -0.084 -3.989 -3.099 -6.11 -0.217 -2.626 2.623 -0.163 0.165 -0.171 -0.16 -2.764 -2.546 -1.859 1.651 -0.154 0.137 -0.159 -0.132 -3.489 -2.829 -4.341 1.734 -4.225 2.766 5.34 3.557 0.207 0.139 -0.143 0.205 -1.593 2.227 2.463 2.462 4.457 -2.476 0.21 -0.118 0.121 0.211 2.132 3.773 3.418 -0.811 0.275 -0.067 0.022 0.286 0.503 6.709 3.482 1.991 0.231 0.132 -0.151 0.218 -1.958 2.772 5.545 8.314 0 0zm71.037 23.186l3.905 6.167 4.175 3.654 8.875 -4.304 1.173 -3.656 6.659 -7.436 3.631 -1.666 0.953 -3.839 -9.888 3.335 -0.127 0.045 -0.102 -0.085 -3.414 -2.757 -7.448 -0.131 -3.662 3.475 -4.73 7.198 0 0zm33.249 9.334l-0.5 15.23 2.741 4.697 -10.703 0.915 -3.524 7.698 9.919 10.176 0.261 3.785 5.481 -5.219 9.398 0.129 6.787 -5.479 4.048 -8.089 1.957 -22.184 2.74 -11.61 -1.823 -13.588 -2.681 -0.76 -0.147 -0.039 -0.027 -0.147 -0.652 -3.251 -4.46 -3.186 -4.995 3.745 2.965 3.211 4.724 0.396 0.258 0.02 -0.036 0.255 -1.073 7.358 -0.029 0.202 -0.202 0.006 -3.353 0.127 0.508 4.69 0.014 0.147 -0.12 0.081 -4.819 3.211 -0.053 0.034 -0.065 0.006 -7.919 0.527 -1.987 2.603 1.539 3.074 0.141 0.278 -0.303 0.067 -4.01 0.884 0 0zm-7.128 -158.217l3.494 -2.303 2.35 -1.958 3.264 -0.783 -1.046 -6.653 5.744 -1.827 4.438 -3.915 4.045 -0.131 -3.001 4.308 2.873 2.479 4.175 -4.699 1.045 -7.436 3.783 -1.436 3.002 -3.914 -3.13 -2.349 -2.742 3.394 -2.871 -2.741 -0.783 -13.439 -2.479 -7.959 0.78 -5.872 4.831 -6.915 2.741 -0.13 1.306 -3.914 5.61 7.699 3.918 -0.654 0.261 -2.871 -0.915 -5.871 -0.991 -4.134 -3.77 -2.125 -0.101 -0.056 -0.019 -0.11 -0.72 -3.769 -2.426 -2.253 -3.922 0.356 -0.183 0.017 -0.067 -0.172 -2.334 -6.104 -3.351 -0.704 -0.096 -0.021 -0.055 -0.08 -5.372 -7.804 -3.794 3.965 -0.069 0.07 -0.091 0.006 -5.191 0.358 -3.391 3.033 -0.105 0.093 -0.132 -0.043 -4.454 -1.424 -4.821 2.322 -0.205 0.098 -0.113 -0.199 -2.306 -4.075 -3.067 -0.461 1.984 4.131 0.061 0.127 -0.079 0.115 -2.364 3.454 -0.042 0.06 -0.067 0.027 -3.051 1.257 -6.526 5.994 2.76 3.276 0.149 0.177 -0.168 0.157 -2.578 2.404 2.069 3.101 0.038 0.054 0.001 0.069 0.179 3.717 3.377 3.021 0.092 0.08 -0.01 0.123 -0.548 5.998 -0.006 0.081 -0.053 0.059 -3.093 3.454 -0.061 0.07 -0.093 0.01 -5.192 0.537 -5.625 5.271 2.277 4.381 0.099 0.189 -0.174 0.123 -6.103 4.305 -0.873 4.372 8.843 18.345 4.081 -2.718 0.098 -0.065 0.112 0.038 9.239 3.079 0.135 0.045 0.028 0.137 1.026 5.13 0.016 0.086 -0.042 0.078 -2.196 3.995 1.66 3.321 3.67 -2.702 0.066 -0.048 4.941 0 0.067 0.123 2.329 4.068 0 0zm66.967 -68.461l-1.524 4.568 5.791 6.497 0.811 -9.338 -3.148 -1.422 -1.93 -0.305 0 0zm5.417 -58.15l-1.279 -14.127 -3.916 -2.217 9.267 -6.394 -1.305 -4.306 -17.229 -1.436 -2.087 2.741 -4.701 0.391 -0.519 3.654 -3.785 -0.261 0 -5.089 4.304 -1.436 1.699 -3.521 -0.916 -9.264 -1.696 -0.652 -2.09 1.304 -0.129 -3.392 -4.046 1.564 -2.741 -3.13 1.045 -5.088 3.393 3 1.957 -1.566 2.872 3.132 1.696 -3.914 -0.39 -4.697 3.131 -2.61 5.483 0.523 9.135 -6.916 -2.218 -2.61 4.569 0.652 -0.129 -4.436 -4.96 0.914 -1.438 -3.13 -6.656 -1.306 2.612 -3.262 -3.395 -2.479 3.134 -2.218 -3.918 -5.089 -11.093 6.525 -0.654 5.348 -3.002 3.915 7.441 3 -4.046 1.828 -12.009 -3.262 -13.966 9.263 -20.882 11.351 -5.614 9.134 0.523 2.739 -3.786 1.043 -5.35 4.828 3.786 4.698 3.392 -1.043 5.091 2.871 -0.522 5.089 -4.697 0.52 -3.135 1.827 -6.656 -4.175 0 8.481 -6.788 5.089 -2.62 5.072 11.268 8.448 0.098 0.073 0 5.298 -0.06 0.069 -8.452 9.889 2.095 5.405 4.041 1.756 5.557 0 0.068 0.14 2.126 4.426 3.51 0.528 0.117 0.017 0.057 0.104 2.253 3.983 4.706 -2.264 0.087 -0.042 0.093 0.029 4.415 1.411 3.349 -2.996 0.063 -0.057 0.084 -0.006 5.181 -0.357 3.848 -4.023 -0.705 -3.878 -0.039 -0.209 0.205 -0.066 3.876 -1.232 1.056 -3.692 0.045 -0.158 0.163 -0.017 3.299 -0.348 1.042 -3.124 0.042 -0.129 0.131 -0.03 6.081 -1.43 1.583 -2.815 0.065 -0.115 0.132 -0.009 9.093 -0.546 0.18 -0.01 0.063 0.17 2.103 5.783 6.326 -1.933 0.037 -0.011 0.039 0 6.915 0.178 5.58 -16.011 0.092 -0.266 0.25 0.13 3.368 1.773 4.307 -1.306 0 0z"/>
 </g>
</svg>
