<svg xmlns="http://www.w3.org/2000/svg" viewBox="0 0 21 108">
	<g stroke-width="1" stroke-linecap="round" stroke-linejoin="round">
		<g stroke="#858585">
			<path fill="none" d="m 11.006621,0.86618336 1.872468,5.64710734 6.088524,-0.011002 c 0.236059,-0.001 0.435109,0.143028 0.508126,0.3660717 0.07202,0.2220436 -0.005,0.4560895 -0.195048,0.5921161 l -4.931233,3.5296915 1.892473,5.818141 c 0.07302,0.222044 -0.002,0.45509 -0.192048,0.593117 -0.189047,0.137026 -0.436109,0.137026 -0.626157,0 l -4.923231,-3.553697 -4.9242318,3.553697 c -0.1900476,0.137026 -0.4371094,0.137026 -0.6261567,0 C 4.760059,17.263399 4.6850402,17.030353 4.7580586,16.808309 L 6.6505319,10.990168 1.7192985,7.4604764 C 1.5292509,7.3234496 1.4522317,7.0904039 1.5242497,6.8683603 1.5972679,6.6453166 1.7963178,6.5012884 2.0323768,6.5022886 l 6.0885229,0.011002 1.8724688,-5.64710734 c 0.073017,-0.22104334 0.2720675,-0.36607178 0.5071265,-0.36607178 0.234059,0 0.433109,0.14602863 0.506126,0.36607188 z" />
			<path fill="#858585" d="m 11.006621,18.865364 1.872465,5.64843 6.088514,-0.012 c 0.236058,-0.001 0.435108,0.144037 0.508126,0.366093 0.07202,0.222056 -0.005,0.456115 -0.195048,0.59215 l -4.931226,3.530894 1.89247,5.817474 c 0.07302,0.222056 -0.002,0.456115 -0.192048,0.59315 -0.189047,0.137034 -0.436108,0.137034 -0.626156,0 l -4.923223,-3.5529 -4.9242242,3.5529 c -0.1900473,0.137034 -0.4371087,0.137034 -0.6261557,0 C 4.7600679,35.264517 4.6850492,35.030458 4.7580674,34.808402 L 6.6505379,28.990928 1.719312,25.460034 C 1.5292647,25.323999 1.4522456,25.08994 1.5242635,24.867884 1.597282,24.645828 1.7963312,24.501791 2.0323899,24.501791 l 6.0885135,0.012 1.8724659,-5.64843 c 0.073018,-0.221056 0.2720677,-0.365093 0.5071257,-0.365093 0.234058,0 0.433108,0.146037 0.506126,0.365093 z" />
		</g>
		<g stroke="#fff">
			<path fill="none" d="m 11.006621,36.866152 1.872467,5.647208 6.088521,-0.011 c 0.236059,-0.001 0.435108,0.143031 0.508126,0.366078 0.07202,0.222047 -0.005,0.456098 -0.195048,0.591127 l -4.931231,3.530756 1.892472,5.818244 c 0.07302,0.222047 -0.002,0.455097 -0.192048,0.592127 -0.189047,0.13803 -0.436109,0.13803 -0.626157,10e-4 L 10.500495,49.847929 5.5762656,53.40169 C 5.3862181,53.53872 5.1391564,53.53872 4.9501092,53.40069 4.7600618,53.26366 4.685043,53.03061 4.7580613,52.808563 L 6.6505338,46.990319 1.7193027,43.459563 C 1.5292552,43.323534 1.4522361,43.090483 1.524254,42.868436 1.5972726,42.645389 1.796322,42.501358 2.0323809,42.502358 l 6.08852,0.011 1.8724678,-5.647208 c 0.073017,-0.221047 0.2720673,-0.366079 0.5071263,-0.366079 0.234059,0 0.433108,0.146032 0.506126,0.366079 z" />
			<path fill="#fff" d="m 11.006621,54.866154 1.872465,5.648431 6.088514,-0.012 c 0.236058,-0.001 0.435108,0.144036 0.508126,0.366092 0.07202,0.222057 -0.005,0.456116 -0.195048,0.59215 l -4.931226,3.530894 1.89247,5.817474 c 0.07302,0.222056 -0.002,0.456116 -0.192048,0.593151 -0.189047,0.137034 -0.436108,0.137034 -0.626156,0 l -4.923223,-3.5529 -4.9242242,3.5529 c -0.1900473,0.137034 -0.4371087,0.137034 -0.6261557,0 C 4.7600679,71.265308 4.6850492,71.031248 4.7580674,70.809192 L 6.6505378,64.991718 1.719312,61.460824 C 1.5292647,61.32379 1.4522456,61.090731 1.5242635,60.868674 1.597282,60.646618 1.7963312,60.502582 2.0323898,60.502582 l 6.0885136,0.012 1.8724659,-5.648431 c 0.073018,-0.221055 0.2720677,-0.365092 0.5071257,-0.365092 0.234058,0 0.433108,0.146036 0.506126,0.365092 z" />
		</g>
		<g stroke="#ed8a19">
			<path fill="none" d="m 11.006621,72.866776 1.872467,5.647208 6.088521,-0.011 c 0.236059,-0.001 0.435108,0.143031 0.508126,0.365078 0.07202,0.223048 -0.005,0.457098 -0.195048,0.592127 l -4.931231,3.530756 1.892472,5.818244 c 0.07302,0.222048 -0.002,0.455098 -0.192048,0.592127 -0.189047,0.13803 -0.436109,0.13803 -0.626156,0.001 l -4.923229,-3.55376 -4.9242294,3.55376 c -0.1900475,0.13703 -0.4371092,0.13703 -0.6261564,-0.001 C 4.7600618,89.264285 4.685043,89.031235 4.7580613,88.809187 L 6.6505338,82.990943 1.7193027,79.460187 C 1.5292552,79.324158 1.452236,79.091108 1.524254,78.86806 1.5972726,78.646013 1.796322,78.501982 2.0323809,78.502982 l 6.08852,0.011 1.8724678,-5.647208 c 0.073017,-0.221047 0.2720673,-0.366079 0.5071263,-0.366079 0.234059,0 0.433108,0.146032 0.506126,0.366079 z" />
			<path fill="#ed8a19" d="m 11.006621,90.865945 1.872465,5.64743 6.088514,-0.011 c 0.236058,-0.001 0.435108,0.144037 0.508126,0.366093 0.07202,0.222056 -0.005,0.456115 -0.195048,0.59215 l -4.931226,3.529882 1.89247,5.81848 c 0.07302,0.22206 -0.002,0.45612 -0.192048,0.59315 -0.189047,0.13704 -0.436108,0.13704 -0.626156,0 l -4.923223,-3.5529 -4.9242242,3.5529 c -0.1900473,0.13704 -0.4371087,0.13704 -0.6261557,0 -0.1900472,-0.13703 -0.2650659,-0.37109 -0.1920477,-0.59315 L 6.6505378,100.9905 1.719312,97.460615 C 1.5292647,97.32358 1.4522456,97.090521 1.5242635,96.868465 1.597282,96.646409 1.7963312,96.502372 2.0323898,96.502372 l 6.0885136,0.011 1.8724659,-5.64743 c 0.073018,-0.221056 0.2720677,-0.365093 0.5071257,-0.365093 0.234058,0 0.433108,0.146037 0.506126,0.365093 z" />
		</g>
	</g>
</svg>